<?xml version="1.0" standalone="no"?>
<!DOCTYPE svg PUBLIC "-//W3C//DTD SVG 20010904//EN"
 "http://www.w3.org/TR/2001/REC-SVG-20010904/DTD/svg10.dtd">
<svg version="1.0" xmlns="http://www.w3.org/2000/svg"
 width="1535.985002pt" height="1846.567787pt" viewBox="0 0 1535.985002 1846.567787"
 preserveAspectRatio="xMidYMid meet">
<metadata>
Created by potrace 1.16, written by Peter Selinger 2001-2019
</metadata>
<g transform="translate(-128.014998,2128.567787) scale(0.100000,-0.100000)"
fill="#000000" stroke="none">
<path d="M8962 21284 c-37 2 -78 2 -92 0 -14 -2 -43 -10 -65 -16 -22 -7 -65
-29 -96 -49 l-55 -37 -28 -36 c-15 -20 -41 -62 -58 -94 -17 -31 -67 -129 -113
-217 -45 -88 -117 -230 -161 -315 -43 -85 -83 -158 -89 -162 -5 -4 -30 -10
-55 -13 -25 -3 -70 -10 -100 -15 -30 -5 -86 -14 -125 -20 -38 -6 -95 -15 -125
-20 -30 -5 -91 -14 -135 -20 -44 -6 -109 -16 -145 -21 -36 -6 -83 -15 -105
-20 -22 -6 -60 -20 -85 -32 l-45 -22 -51 -50 -52 -50 -26 -51 c-14 -27 -33
-76 -41 -108 -8 -31 -15 -75 -15 -98 0 -22 5 -59 11 -82 6 -22 22 -65 35 -93
l24 -53 122 -123 c68 -68 206 -203 307 -301 l183 -178 -6 -42 c-4 -22 -11 -68
-16 -101 -5 -33 -14 -89 -20 -125 -6 -36 -15 -92 -21 -125 -5 -33 -14 -89 -20
-125 -5 -36 -14 -92 -20 -125 -5 -33 -12 -98 -16 -143 l-6 -84 13 -41 c7 -23
22 -62 34 -86 11 -24 41 -67 66 -94 l45 -51 70 -32 70 -32 58 -7 59 -7 -6 -13
c-3 -8 -50 -81 -105 -162 -55 -81 -115 -168 -132 -193 -18 -25 -57 -79 -87
-120 -31 -41 -89 -120 -130 -175 -41 -55 -89 -118 -106 -140 -17 -22 -33 -42
-36 -45 -3 -3 -21 -25 -40 -50 -19 -25 -37 -47 -40 -50 -3 -3 -17 -21 -32 -42
-15 -20 -33 -42 -40 -50 -7 -7 -33 -38 -58 -68 -25 -30 -47 -57 -50 -60 -3 -3
-25 -30 -50 -60 -25 -30 -47 -57 -50 -60 -3 -3 -34 -39 -70 -80 -36 -41 -67
-77 -70 -80 -3 -3 -39 -43 -80 -90 -41 -47 -82 -92 -90 -100 -8 -8 -37 -40
-64 -70 -27 -30 -113 -122 -190 -205 -77 -82 -295 -305 -485 -495 -190 -190
-396 -393 -456 -450 -61 -58 -171 -161 -245 -230 -74 -69 -160 -148 -190 -176
-30 -28 -80 -73 -110 -100 -30 -27 -69 -64 -87 -83 -18 -19 -40 -50 -49 -70
-9 -19 -19 -54 -22 -77 l-4 -42 21 -66 c12 -36 31 -84 44 -106 12 -22 42 -67
67 -101 l45 -62 85 -74 c47 -40 129 -103 182 -138 53 -36 116 -76 140 -90 24
-14 113 -59 198 -101 85 -42 164 -79 175 -84 11 -4 41 -17 67 -29 26 -12 54
-21 62 -21 7 0 19 -7 27 -16 l13 -16 -10 -13 c-5 -7 -29 -40 -52 -74 -24 -35
-98 -131 -164 -214 -67 -84 -153 -190 -192 -237 -39 -47 -73 -87 -76 -90 -3
-3 -34 -39 -70 -80 -36 -41 -101 -115 -145 -165 -44 -49 -114 -125 -155 -170
-41 -44 -118 -125 -170 -179 -52 -55 -212 -217 -355 -361 -143 -143 -305 -303
-360 -355 -55 -52 -145 -138 -200 -190 -55 -52 -152 -142 -215 -200 -63 -58
-140 -128 -170 -156 -30 -28 -80 -73 -110 -100 -30 -27 -57 -51 -60 -54 -3 -3
-52 -48 -110 -100 -58 -52 -107 -97 -110 -100 -3 -3 -39 -34 -80 -70 -41 -36
-89 -80 -107 -99 -18 -19 -41 -54 -53 -77 l-20 -44 0 -64 0 -65 11 -28 c7 -15
23 -52 36 -80 13 -29 45 -80 69 -112 25 -33 77 -90 116 -126 39 -36 107 -91
152 -122 44 -32 122 -82 171 -112 50 -29 128 -73 175 -96 47 -24 108 -53 135
-65 28 -12 74 -33 103 -46 29 -13 55 -24 57 -24 3 0 24 -9 48 -19 23 -10 50
-21 60 -25 l17 -5 0 -14 0 -13 -102 -99 c-57 -55 -209 -203 -339 -330 -129
-126 -287 -280 -350 -340 -63 -61 -217 -209 -344 -330 -126 -121 -270 -258
-319 -305 -50 -47 -149 -141 -220 -210 -72 -69 -180 -172 -240 -230 -61 -58
-122 -116 -136 -130 -14 -14 -66 -63 -115 -110 -50 -47 -207 -198 -350 -337
-143 -138 -274 -263 -292 -277 -18 -15 -42 -44 -55 -64 -13 -20 -29 -53 -35
-72 -7 -19 -13 -47 -13 -62 0 -15 9 -51 20 -79 10 -29 29 -63 42 -76 12 -13
51 -37 85 -54 35 -16 91 -42 126 -58 34 -16 82 -38 107 -49 25 -11 68 -30 95
-42 28 -12 65 -28 83 -36 17 -8 47 -20 65 -28 17 -8 57 -24 87 -36 30 -12 69
-27 85 -35 17 -7 68 -27 115 -45 47 -17 94 -36 105 -40 11 -4 40 -16 65 -25
25 -9 65 -23 90 -31 25 -8 54 -19 65 -23 11 -5 94 -32 185 -61 91 -29 185 -60
210 -68 25 -8 78 -23 118 -33 39 -10 107 -28 150 -40 42 -11 94 -25 115 -30
20 -5 54 -13 75 -19 20 -5 56 -14 80 -20 23 -5 61 -15 85 -21 23 -5 60 -14 82
-19 22 -5 60 -13 85 -18 25 -5 104 -21 175 -36 72 -14 155 -31 185 -37 30 -6
73 -14 95 -19 22 -5 74 -14 115 -20 41 -6 95 -15 120 -20 25 -5 81 -14 125
-20 44 -6 105 -15 135 -20 30 -5 78 -12 105 -15 28 -4 82 -11 120 -16 39 -5
108 -14 155 -19 47 -6 126 -15 175 -21 50 -5 133 -14 185 -20 52 -5 140 -14
195 -19 55 -6 163 -15 240 -20 77 -6 203 -15 280 -20 77 -6 212 -15 300 -20
88 -6 234 -15 325 -20 91 -5 268 -14 395 -20 126 -6 233 -14 237 -18 l7 -7 3
-900 4 -900 17 -38 c10 -20 32 -51 50 -68 17 -17 51 -40 75 -50 l44 -19 1399
0 1399 0 43 20 c23 11 54 30 68 43 15 12 36 38 47 58 l19 35 7 909 7 910 13 7
c7 4 127 12 267 18 140 6 328 15 419 20 91 5 233 14 315 20 83 5 209 14 280
20 72 5 186 14 255 20 69 5 168 14 220 20 52 5 140 14 195 20 55 6 139 15 188
20 48 6 126 15 175 20 48 6 121 14 162 19 41 5 111 14 155 20 44 6 109 15 145
21 36 5 94 14 130 19 36 6 94 15 130 21 36 7 85 15 110 20 25 5 72 13 105 19
33 6 84 15 113 21 28 5 73 14 100 19 26 5 94 19 152 31 58 12 121 26 140 31
19 4 58 13 85 19 28 7 66 16 85 21 19 4 53 13 75 18 22 6 58 14 80 20 22 5 76
19 120 31 44 12 94 25 110 30 17 5 48 14 70 20 22 6 54 15 70 20 17 4 55 16
85 25 30 10 127 42 216 71 88 29 180 60 205 69 24 9 53 21 64 25 11 4 58 23
105 40 47 18 99 38 115 45 17 8 55 23 85 35 30 12 71 28 90 37 19 8 49 21 65
28 17 7 53 23 80 35 28 12 70 31 95 42 25 11 83 38 130 60 46 22 103 47 125
56 22 8 54 25 70 36 17 11 35 27 42 36 7 8 22 34 33 57 l20 43 0 40 0 39 -24
53 -24 53 -88 91 c-49 50 -213 209 -364 355 -151 145 -324 311 -384 369 -60
58 -135 130 -166 160 -30 30 -143 138 -250 240 -107 102 -251 239 -320 305
-69 66 -172 165 -230 220 -57 55 -181 174 -275 265 -93 91 -251 244 -349 340
-98 96 -235 230 -302 297 -68 68 -124 127 -124 132 0 4 21 16 48 26 26 10 74
30 107 45 33 14 76 33 95 40 19 8 87 41 150 73 63 32 127 68 141 78 15 10 30
19 33 19 4 0 48 28 99 62 51 33 115 79 142 101 28 22 81 70 118 106 l69 66 47
70 c25 39 52 81 58 95 6 14 17 41 24 60 l13 35 0 70 0 71 -26 45 -27 46 -73
64 c-40 35 -95 84 -123 109 -27 25 -52 47 -55 50 -3 3 -43 39 -90 80 -47 41
-110 98 -140 126 -30 28 -80 73 -110 100 -30 27 -62 56 -70 64 -8 8 -71 67
-140 130 -69 63 -161 148 -205 190 -44 41 -134 127 -200 190 -66 63 -210 205
-320 316 -110 110 -247 250 -305 310 -58 60 -134 141 -170 179 -36 39 -103
113 -150 165 -47 52 -87 97 -90 100 -3 3 -34 39 -70 80 -36 41 -79 91 -96 110
-18 19 -70 80 -116 135 -46 55 -129 156 -184 225 -54 69 -126 162 -159 208
-33 46 -60 88 -60 94 0 6 7 14 15 19 8 4 36 17 62 28 26 12 50 21 53 21 2 0
30 12 62 26 32 14 101 46 153 72 52 25 124 63 159 84 34 21 65 38 68 38 2 0
32 19 66 42 34 23 91 64 127 91 36 27 107 92 157 144 l93 94 42 86 42 87 0 76
1 77 -24 47 -25 47 -85 77 c-47 42 -93 84 -101 92 -8 8 -71 67 -140 130 -69
63 -161 148 -205 190 -44 41 -125 118 -180 170 -55 52 -217 212 -360 355 -143
143 -298 301 -345 350 -47 50 -123 131 -170 181 -47 49 -110 117 -140 150 -30
33 -75 82 -100 110 -25 27 -79 88 -120 134 -41 47 -77 87 -80 90 -4 3 -47 53
-97 111 -50 59 -171 207 -270 330 -98 123 -210 267 -249 319 -39 52 -93 127
-121 165 -27 39 -65 93 -83 120 -19 28 -39 55 -45 61 -5 6 -39 55 -74 110 -35
54 -82 125 -103 158 -22 32 -38 59 -36 60 2 1 23 8 48 15 25 7 69 24 97 37
l53 25 45 45 44 45 30 62 29 62 5 55 6 55 -9 70 c-6 39 -15 97 -20 130 -6 33
-15 87 -20 120 -5 33 -14 89 -20 125 -6 36 -15 93 -20 128 -6 34 -14 90 -19
125 -5 34 -12 74 -16 88 l-7 27 292 288 c161 159 305 307 320 329 16 23 38 70
49 105 l21 63 0 48 c0 26 -6 72 -14 101 -8 29 -18 62 -22 73 -4 11 -23 43 -41
71 -19 29 -52 66 -74 84 -22 17 -64 43 -94 56 l-55 26 -63 9 c-34 5 -93 14
-132 19 -38 6 -101 15 -140 21 -38 6 -97 14 -130 19 -33 5 -89 14 -125 20 -36
6 -94 15 -130 20 -36 5 -72 12 -81 15 l-15 6 -131 262 c-72 144 -156 314 -188
378 l-56 116 -37 40 c-20 22 -52 50 -70 62 -18 13 -56 31 -83 42 l-51 18 -66
5z m-31 -504 c4 0 80 -147 169 -327 89 -181 172 -348 184 -373 l21 -44 45 -46
45 -45 45 -12 c25 -6 78 -16 118 -22 39 -6 105 -16 145 -22 39 -5 97 -14 127
-19 30 -5 91 -14 135 -20 44 -6 103 -15 130 -20 28 -5 76 -12 108 -15 31 -4
57 -10 57 -14 0 -4 -35 -41 -77 -81 -43 -41 -134 -128 -203 -194 -69 -66 -167
-160 -218 -209 -51 -49 -99 -101 -106 -116 -7 -14 -19 -49 -26 -78 l-13 -52
12 -88 c7 -48 16 -113 21 -143 5 -30 14 -89 20 -130 6 -41 15 -100 20 -130 5
-30 14 -86 20 -125 6 -38 15 -89 20 -113 6 -23 10 -51 10 -62 l0 -20 -9 0 c-5
0 -38 17 -72 38 -35 21 -89 52 -119 69 -30 16 -72 40 -92 52 -21 11 -54 30
-73 41 -19 11 -52 30 -72 41 -21 12 -58 33 -83 47 -25 13 -58 32 -75 42 -16
10 -52 30 -80 46 l-50 28 -75 1 -75 0 -80 -44 c-44 -25 -96 -53 -115 -64 -19
-11 -50 -28 -67 -38 -18 -11 -49 -28 -68 -39 -19 -11 -52 -30 -72 -41 -21 -12
-54 -31 -73 -42 -19 -11 -54 -30 -77 -43 -24 -13 -64 -36 -90 -50 -27 -14 -52
-30 -58 -35 -5 -5 -18 -9 -28 -9 l-19 0 6 23 c4 12 11 49 16 82 5 33 13 87 19
120 5 33 15 92 21 130 6 39 15 97 21 130 5 33 14 87 19 120 6 33 13 100 16
148 l7 88 -13 42 c-7 23 -27 60 -43 81 -17 21 -84 91 -150 155 -67 64 -191
186 -276 271 l-156 155 50 8 c28 4 82 12 120 18 39 6 95 14 125 19 30 5 87 13
125 19 39 6 102 15 140 21 39 6 99 16 135 21 36 6 83 16 105 22 22 6 57 21 77
34 l37 22 29 43 c16 24 107 201 203 395 96 194 177 353 180 353z m5 -2610 c6
0 56 -23 110 -51 55 -28 105 -56 112 -61 7 -6 26 -38 42 -72 16 -33 46 -90 65
-125 20 -35 45 -76 55 -91 11 -16 20 -31 20 -35 0 -3 14 -26 30 -50 17 -24 30
-46 30 -49 0 -4 30 -52 67 -109 36 -56 83 -127 103 -157 20 -30 63 -93 95
-140 32 -47 90 -130 129 -185 39 -55 73 -102 76 -105 4 -3 21 -25 38 -50 17
-25 62 -84 99 -132 37 -47 88 -113 113 -145 25 -32 90 -114 145 -183 55 -69
109 -136 121 -150 12 -14 66 -77 120 -140 54 -63 101 -117 104 -120 3 -3 34
-39 70 -80 36 -41 67 -77 70 -80 3 -3 43 -48 90 -100 47 -52 119 -131 160
-175 41 -44 118 -125 170 -179 52 -55 222 -226 377 -380 155 -155 320 -315
367 -356 46 -41 85 -79 85 -83 1 -4 -16 -15 -36 -24 -21 -8 -56 -23 -78 -33
-22 -10 -87 -37 -145 -60 -58 -23 -125 -48 -150 -56 -25 -8 -54 -19 -65 -24
-11 -5 -61 -23 -111 -39 -50 -17 -99 -31 -108 -31 l-16 0 6 28 c3 15 11 41 17
57 l12 30 0 140 0 140 -14 50 c-7 28 -22 77 -34 110 -11 33 -30 83 -43 111
-13 28 -48 85 -78 127 -30 42 -70 91 -88 109 -18 18 -56 52 -83 74 -28 23 -84
59 -125 81 -41 22 -102 49 -135 60 -33 12 -82 27 -110 34 l-50 14 -145 0 -145
0 -50 -14 c-27 -7 -63 -17 -80 -23 -16 -5 -39 -13 -50 -18 -11 -4 -42 -18 -70
-31 -27 -13 -81 -44 -120 -70 -38 -26 -96 -73 -129 -105 -32 -33 -80 -90 -105
-129 -26 -38 -61 -99 -77 -135 -17 -36 -36 -85 -43 -110 -7 -25 -18 -63 -24
-85 l-12 -40 0 -145 0 -145 14 -50 c7 -27 20 -70 28 -95 8 -25 26 -70 40 -100
15 -30 35 -67 45 -82 l19 -28 -181 0 -181 0 -97 10 c-53 6 -140 15 -192 21
-52 5 -124 14 -160 20 -36 5 -96 14 -135 20 -38 6 -88 14 -110 19 -22 5 -67
14 -100 20 -33 6 -80 16 -105 21 -25 6 -63 15 -85 20 -22 6 -56 14 -75 19 -19
5 -53 13 -75 19 -22 5 -71 19 -110 31 -38 11 -101 30 -140 41 -38 12 -78 25
-87 30 -10 5 -27 9 -37 9 -11 0 -23 5 -26 10 -3 6 -14 10 -24 10 -10 0 -40 9
-67 19 -27 11 -121 47 -209 82 -88 34 -194 78 -235 97 -41 19 -138 65 -215
103 -77 38 -162 82 -190 97 -27 15 -72 41 -100 57 -27 16 -106 65 -175 108
-69 43 -129 83 -134 88 l-10 9 84 87 c46 49 152 158 235 243 82 85 179 187
215 225 36 39 85 93 110 120 25 28 100 111 165 185 66 75 145 165 176 200 31
36 69 81 85 100 16 19 31 37 34 40 3 3 25 30 50 60 25 30 47 57 50 60 3 3 25
30 50 60 25 30 53 64 63 74 9 11 41 50 70 88 28 37 56 67 61 68 l8 0 -6 -22
c-4 -13 -13 -57 -21 -98 -8 -41 -15 -100 -15 -130 0 -30 7 -89 15 -130 7 -41
17 -86 20 -100 4 -14 10 -34 14 -45 5 -11 27 -58 50 -105 22 -47 52 -98 66
-115 14 -16 51 -56 83 -89 31 -32 82 -75 113 -96 31 -21 83 -51 115 -67 32
-16 79 -35 104 -42 25 -7 59 -18 75 -25 l30 -11 145 1 145 1 55 16 c30 9 66
19 79 23 13 4 54 22 90 39 36 18 93 53 126 77 33 24 82 67 109 94 26 27 65 74
86 104 20 30 46 73 57 95 12 22 28 63 38 90 9 28 24 75 32 105 l15 55 0 130 0
130 -15 55 c-8 30 -23 78 -32 105 -9 28 -30 74 -46 103 -16 29 -46 79 -68 111
-22 32 -64 79 -93 106 -29 26 -78 64 -108 84 -30 20 -75 46 -100 58 -25 11
-58 25 -75 31 -16 5 -48 14 -70 20 -22 6 -64 15 -93 21 -30 6 -87 11 -127 11
-40 0 -97 -5 -127 -11 -29 -6 -71 -15 -93 -21 -22 -6 -49 -14 -60 -18 -11 -4
-42 -18 -70 -31 -27 -13 -70 -37 -94 -53 l-44 -29 5 15 c4 8 30 49 60 89 29
41 58 79 63 85 6 6 46 66 91 135 44 68 112 174 151 234 38 61 88 139 110 175
22 36 56 92 75 125 18 33 42 77 51 98 l18 37 22 14 c12 8 42 26 67 40 25 14
50 25 56 26z m-284 -1351 c20 1 62 -5 92 -13 30 -8 72 -23 92 -32 l38 -18 51
-51 52 -51 34 -69 33 -70 0 -95 0 -95 -33 -69 -33 -69 -43 -42 -42 -43 -69
-33 -69 -33 -100 0 -100 1 -57 26 -56 27 -50 45 -50 46 -30 62 c-16 34 -35 89
-41 121 l-13 59 13 61 c7 34 23 84 36 113 l23 52 51 51 50 50 47 21 c26 12 67
28 92 35 25 7 62 13 82 13z m1798 -1775 l76 -4 49 -19 c28 -10 63 -26 80 -34
16 -9 55 -39 86 -66 l57 -50 30 -63 c17 -35 36 -78 43 -96 l12 -33 -1 -97 -1
-97 -20 -53 c-11 -29 -31 -72 -45 -96 l-25 -44 -49 -43 c-27 -25 -69 -54 -93
-66 -24 -11 -57 -26 -74 -31 -16 -6 -60 -16 -97 -22 l-67 -12 -73 13 -73 12
-54 25 -54 24 -50 46 c-27 26 -62 65 -77 87 -15 22 -37 67 -50 100 l-23 60 0
96 -1 95 13 35 c7 19 24 58 38 86 l24 53 50 54 49 54 63 30 c34 17 76 35 92
41 17 5 44 12 60 15 17 2 64 2 105 0z m-4348 -304 c9 0 18 -4 20 -8 2 -5 38
-32 80 -60 42 -29 80 -52 83 -52 4 0 25 -13 48 -29 24 -16 67 -43 97 -61 30
-18 71 -42 90 -53 19 -11 64 -36 100 -55 36 -19 108 -56 160 -82 52 -26 124
-61 160 -78 36 -16 88 -40 115 -52 28 -12 68 -30 90 -40 22 -10 94 -39 160
-65 66 -26 129 -50 140 -55 11 -4 40 -16 64 -25 25 -9 90 -31 145 -49 56 -18
121 -39 146 -46 25 -7 64 -19 87 -26 23 -8 77 -23 120 -35 43 -11 96 -25 118
-30 22 -6 56 -14 75 -18 19 -5 60 -14 90 -21 30 -7 73 -16 95 -21 22 -5 65
-14 95 -20 30 -6 78 -15 105 -20 28 -5 79 -14 115 -19 36 -6 97 -15 135 -21
39 -5 111 -14 160 -19 50 -5 196 -17 325 -26 l235 -16 200 6 c110 4 263 11
340 16 77 6 194 14 260 20 66 5 152 14 190 19 39 6 90 15 115 20 25 5 70 14
100 20 30 6 73 15 95 20 22 5 65 14 95 21 30 7 72 16 93 21 20 5 54 13 75 18
20 5 54 14 75 20 20 6 53 16 72 21 19 6 50 14 68 19 17 5 57 17 87 26 30 10
96 31 145 47 50 16 99 33 110 38 11 4 36 13 55 20 19 7 45 16 58 21 12 5 32
13 45 18 12 5 42 17 67 26 25 9 59 22 75 30 17 7 47 20 68 29 20 9 54 23 75
32 20 9 74 34 119 55 44 22 87 39 95 39 7 0 49 -34 93 -74 l80 -75 -25 -26
c-13 -14 -59 -53 -102 -85 -42 -33 -106 -77 -141 -98 -36 -22 -123 -67 -193
-102 -71 -34 -138 -65 -149 -70 -11 -4 -41 -17 -67 -29 -26 -12 -54 -21 -61
-21 -8 0 -17 -3 -20 -7 -4 -3 -31 -15 -59 -25 -29 -11 -87 -30 -128 -44 -41
-13 -88 -28 -105 -33 -16 -4 -50 -14 -75 -21 -25 -7 -56 -16 -70 -20 -14 -5
-65 -18 -115 -30 -49 -11 -110 -26 -135 -31 -25 -6 -63 -14 -85 -19 -22 -5
-67 -14 -100 -20 -33 -6 -78 -15 -100 -20 -22 -4 -69 -13 -105 -19 -36 -5 -94
-14 -130 -20 -36 -5 -99 -14 -140 -20 -41 -6 -115 -15 -165 -20 -49 -6 -137
-15 -195 -20 -58 -6 -175 -15 -260 -21 -85 -5 -245 -15 -355 -20 -110 -6 -288
-10 -395 -10 -107 0 -305 4 -440 10 -135 5 -315 15 -400 20 -85 6 -200 15
-255 21 -55 5 -140 14 -190 20 -49 5 -124 14 -165 20 -41 5 -106 14 -145 20
-38 6 -97 15 -130 20 -33 5 -82 14 -110 19 -27 4 -79 13 -115 20 -36 6 -81 15
-100 20 -19 4 -78 18 -130 29 -52 12 -113 26 -135 32 -22 6 -53 14 -70 18 -16
5 -50 14 -75 21 -25 7 -56 16 -70 20 -14 4 -45 13 -70 20 -25 7 -77 23 -115
36 -39 12 -90 30 -115 39 -25 9 -55 21 -67 26 -13 5 -34 14 -48 19 -14 6 -35
14 -47 19 -13 5 -41 17 -63 26 -22 10 -76 35 -120 56 -44 22 -100 51 -123 65
-24 13 -83 51 -130 83 -48 32 -108 77 -134 101 l-48 42 0 13 c0 8 12 23 28 35
15 12 56 49 92 83 36 34 108 100 160 147 52 47 131 119 175 160 44 41 109 103
145 137 l65 63 17 0z m390 -1640 c4 0 33 -7 65 -16 32 -9 76 -20 98 -25 22 -4
60 -13 85 -18 25 -6 70 -15 100 -21 30 -7 75 -16 100 -21 25 -5 71 -13 103
-19 31 -5 85 -15 120 -20 34 -6 91 -15 127 -21 36 -5 97 -14 135 -19 39 -6
108 -15 155 -20 47 -6 130 -15 185 -20 55 -6 150 -15 210 -21 61 -5 171 -15
245 -20 l135 -10 555 -6 555 -5 190 11 c105 7 240 16 300 22 61 5 155 14 210
20 55 5 132 14 170 19 39 5 108 14 155 20 47 6 110 15 140 20 30 5 84 14 120
20 36 6 89 15 118 20 28 6 78 15 110 21 31 6 75 15 97 19 22 5 65 14 95 21 30
7 96 23 145 36 50 13 97 27 107 30 l16 5 43 -64 c24 -34 58 -83 77 -108 18
-25 39 -52 45 -60 7 -8 23 -31 37 -50 13 -19 27 -37 30 -40 3 -3 34 -43 70
-90 36 -47 70 -92 77 -100 6 -8 47 -58 90 -110 43 -52 88 -106 99 -120 12 -14
66 -77 120 -140 54 -63 101 -117 104 -120 3 -3 43 -48 90 -100 47 -52 121
-133 165 -180 43 -47 248 -254 455 -460 206 -207 422 -420 480 -475 58 -55
142 -134 186 -175 44 -41 111 -104 149 -140 39 -36 113 -103 165 -150 52 -47
112 -101 133 -120 21 -19 45 -39 53 -43 8 -4 14 -13 14 -20 l0 -12 -138 -44
c-75 -24 -144 -46 -152 -48 -8 -3 -28 -9 -45 -13 -16 -5 -91 -24 -165 -43 -74
-18 -162 -39 -195 -46 -33 -7 -78 -16 -100 -21 -22 -5 -66 -13 -97 -19 -32 -6
-82 -15 -110 -21 -29 -5 -88 -14 -130 -20 -43 -5 -111 -14 -150 -20 -40 -5
-116 -14 -168 -19 -52 -6 -147 -15 -211 -21 l-116 -10 -369 0 -369 0 -110 10
c-60 5 -157 15 -215 20 -58 6 -141 15 -185 21 -44 5 -111 15 -150 20 -38 6
-94 14 -122 20 -29 5 -79 14 -110 20 -32 6 -76 14 -98 19 -22 5 -67 14 -100
20 -33 6 -80 16 -105 21 -25 6 -61 14 -80 19 -19 5 -62 16 -95 24 -33 8 -87
22 -120 30 -33 9 -71 20 -85 25 -14 5 -59 19 -100 31 -41 13 -134 42 -206 66
-72 23 -150 50 -175 59 -24 9 -53 21 -64 25 -11 4 -58 23 -105 41 -47 18 -107
42 -135 55 -27 12 -71 31 -97 43 -27 11 -69 30 -95 42 -27 12 -118 56 -203 99
-85 42 -184 93 -220 112 -36 19 -81 44 -100 55 -19 11 -81 47 -137 81 -55 33
-134 82 -175 108 -40 26 -109 71 -153 101 -44 29 -102 69 -130 88 -27 19 -57
41 -65 48 -8 6 -51 39 -95 72 -44 33 -132 102 -195 154 -63 52 -126 105 -139
117 -13 13 -55 49 -92 81 -37 32 -148 139 -246 238 -98 99 -213 218 -254 265
-40 47 -76 87 -79 90 -3 3 -25 30 -50 60 -25 30 -47 57 -51 60 -3 3 -48 61
-100 130 -52 69 -132 182 -177 252 l-84 126 49 64 c26 35 66 91 88 125 22 35
43 63 47 63z m-467 -620 l14 0 63 -92 c34 -51 98 -140 142 -198 44 -58 82
-107 86 -110 3 -3 17 -21 32 -42 15 -20 33 -42 40 -50 7 -7 38 -43 68 -78 30
-36 75 -87 99 -115 25 -27 131 -136 236 -240 104 -105 215 -213 245 -241 30
-27 84 -74 120 -104 36 -30 67 -57 70 -60 3 -3 30 -25 60 -50 30 -25 62 -50
70 -57 8 -7 44 -35 80 -63 36 -28 72 -57 81 -64 9 -7 45 -33 80 -56 35 -24 66
-47 69 -50 3 -4 81 -58 174 -120 93 -62 192 -126 220 -143 28 -16 65 -38 81
-47 17 -9 46 -26 65 -37 19 -11 62 -36 95 -56 33 -19 103 -58 155 -86 52 -28
140 -73 195 -100 55 -27 129 -62 165 -79 36 -16 88 -40 115 -52 28 -12 65 -28
83 -36 17 -8 48 -21 67 -29 19 -8 50 -21 68 -29 17 -8 68 -27 112 -44 44 -16
111 -42 149 -57 38 -14 114 -41 170 -59 56 -18 135 -43 176 -56 41 -12 86 -26
100 -30 14 -4 45 -13 70 -20 25 -7 56 -16 70 -20 14 -5 84 -23 155 -40 72 -17
166 -39 210 -50 44 -10 105 -23 135 -29 30 -6 78 -15 105 -20 28 -5 75 -14
105 -20 30 -5 87 -14 125 -20 39 -5 104 -14 145 -20 41 -5 120 -15 175 -20 55
-6 143 -15 195 -21 52 -5 154 -12 225 -15 72 -3 181 -8 243 -11 l113 -6 267
11 c147 6 319 16 382 21 63 6 153 15 200 21 47 5 117 14 155 20 39 5 99 14
135 20 36 5 92 14 125 20 33 5 85 15 115 20 30 6 73 14 95 19 22 5 63 14 90
20 28 6 67 15 88 21 20 5 54 13 75 18 20 5 57 15 82 21 25 6 63 16 85 22 22 6
79 24 126 39 48 16 89 29 93 29 4 0 5 -4 2 -9 -3 -4 -38 -24 -78 -44 -40 -19
-102 -48 -138 -65 -36 -16 -82 -37 -102 -46 -21 -9 -53 -22 -70 -30 -18 -8
-53 -22 -78 -31 -25 -9 -54 -21 -65 -26 -11 -4 -69 -25 -130 -45 -60 -20 -126
-41 -145 -46 -19 -5 -48 -13 -65 -18 -16 -5 -46 -13 -65 -19 -19 -5 -51 -14
-70 -20 -19 -5 -71 -19 -115 -31 -44 -12 -97 -26 -117 -31 -21 -5 -55 -13 -75
-18 -21 -5 -60 -14 -88 -21 -27 -6 -70 -15 -95 -20 -25 -6 -65 -14 -90 -20
-25 -6 -70 -15 -100 -21 -30 -6 -75 -15 -100 -19 -25 -5 -73 -13 -107 -19 -35
-6 -91 -16 -125 -21 -35 -6 -92 -15 -128 -21 -36 -5 -94 -14 -130 -19 -36 -5
-101 -14 -145 -20 -44 -6 -116 -15 -160 -20 -44 -5 -123 -14 -175 -19 -52 -6
-142 -16 -200 -22 -58 -6 -157 -15 -220 -20 -63 -5 -176 -14 -250 -19 -74 -6
-220 -15 -325 -20 -104 -6 -298 -15 -430 -20 -132 -5 -438 -12 -680 -16 l-440
-6 -485 17 c-267 9 -550 21 -630 25 -80 5 -203 14 -275 19 -71 6 -182 16 -245
21 -63 6 -162 14 -220 20 -58 5 -148 14 -200 19 -52 6 -135 15 -185 21 -49 5
-121 14 -160 19 -38 6 -104 14 -145 20 -41 6 -106 15 -145 21 -38 6 -97 15
-130 20 -33 6 -76 12 -95 15 -19 3 -57 10 -85 15 -27 6 -86 17 -130 26 -44 9
-98 20 -120 24 -22 4 -65 13 -95 20 -30 7 -71 16 -90 20 -19 4 -60 13 -90 20
-30 7 -73 16 -95 21 -22 6 -56 14 -75 19 -19 4 -71 18 -115 30 -44 12 -96 26
-115 31 -19 6 -48 14 -65 19 -16 4 -55 16 -85 25 -30 10 -95 31 -145 47 -49
16 -99 33 -110 38 -11 4 -36 13 -55 20 -19 7 -44 15 -55 20 -11 4 -32 12 -47
19 -16 6 -38 15 -50 20 -13 5 -39 16 -58 24 -19 8 -57 25 -85 37 -27 12 -86
40 -130 62 -44 22 -114 61 -156 85 -43 25 -90 56 -105 69 -16 13 -55 45 -86
71 -31 26 -57 53 -57 60 -1 7 5 16 13 20 8 4 41 33 73 63 32 30 78 73 103 94
25 22 85 76 135 120 49 45 148 135 220 200 71 66 200 185 285 265 85 80 220
208 299 286 79 77 207 203 285 281 78 77 197 199 266 270 69 71 159 165 200
209 41 44 100 107 130 140 30 34 75 83 100 111 25 27 65 72 90 99 25 28 73 82
106 120 34 39 85 97 113 130 28 33 51 63 51 68 0 4 7 7 15 7z m-1315 -3545
c19 -2 53 -8 75 -13 22 -6 69 -18 105 -27 36 -8 81 -20 100 -25 19 -5 58 -14
85 -20 28 -6 69 -16 93 -21 23 -5 61 -13 85 -18 23 -5 69 -15 102 -21 33 -6
78 -15 100 -20 22 -5 65 -13 95 -19 30 -5 84 -15 120 -21 36 -6 88 -15 115
-20 28 -5 77 -14 110 -19 33 -5 94 -15 135 -21 41 -6 100 -15 130 -20 30 -5
93 -13 140 -19 47 -6 121 -15 165 -20 44 -6 125 -15 180 -20 55 -6 152 -15
215 -21 63 -6 160 -15 215 -20 55 -5 161 -14 235 -19 74 -6 221 -15 325 -21
105 -5 269 -14 365 -20 96 -6 268 -10 383 -10 l207 0 0 -8 c0 -5 -12 -15 -27
-23 -16 -7 -55 -31 -88 -53 -33 -22 -87 -67 -121 -101 -33 -33 -76 -79 -95
-103 -18 -23 -52 -77 -74 -120 -23 -42 -49 -102 -59 -132 -10 -30 -24 -84 -32
-120 l-14 -65 0 -112 0 -113 11 -47 c6 -27 16 -66 21 -88 6 -22 14 -49 18 -60
4 -11 22 -51 39 -89 18 -38 46 -89 63 -115 17 -25 68 -82 112 -127 45 -44 102
-95 127 -112 26 -17 77 -45 115 -63 38 -17 78 -35 89 -39 11 -4 38 -12 60 -18
22 -6 61 -16 87 -21 l47 -11 110 0 111 0 47 11 c27 7 77 20 112 31 35 10 84
29 110 40 25 12 80 44 121 71 l75 50 70 71 c39 39 85 91 102 116 17 25 42 68
56 95 14 28 32 66 40 85 8 19 19 49 25 65 5 17 16 53 24 80 l13 50 0 145 0
145 -14 50 c-7 28 -22 77 -33 110 -12 33 -30 80 -41 105 -11 25 -37 70 -58
100 -20 30 -57 78 -83 107 -26 29 -75 73 -109 99 -34 25 -84 57 -110 71 -27
13 -47 26 -44 29 2 2 134 9 293 14 159 6 384 15 499 20 116 5 275 14 355 20
80 5 201 14 270 20 69 5 172 14 230 19 58 6 146 15 195 20 50 6 128 15 175 21
47 5 123 14 170 20 47 5 117 14 155 19 39 5 104 14 145 20 41 6 103 15 138 21
34 5 88 14 120 20 31 5 80 14 107 20 28 5 77 14 110 20 33 7 78 16 100 20 22
4 65 13 95 19 30 6 75 15 100 21 25 6 68 15 95 20 28 5 68 14 90 19 22 6 60
15 85 20 25 6 97 24 160 42 63 17 127 32 141 32 l27 2 184 -180 c101 -99 287
-279 413 -400 127 -121 340 -328 475 -461 135 -133 260 -254 278 -269 17 -15
32 -30 32 -34 0 -4 -28 -22 -62 -40 -35 -18 -108 -56 -163 -85 -55 -28 -127
-63 -160 -78 -33 -15 -87 -39 -120 -53 -33 -15 -73 -33 -90 -40 -16 -7 -46
-20 -65 -28 -19 -8 -89 -36 -155 -62 -66 -26 -139 -56 -162 -66 -24 -10 -48
-19 -55 -19 -7 0 -217 204 -468 454 l-455 454 -39 16 -38 16 -62 0 -61 0 -30
-19 c-17 -10 -239 -228 -494 -484 -255 -257 -475 -484 -490 -504 l-26 -38 0
-80 0 -80 23 -32 c12 -18 74 -83 138 -144 l114 -113 -8 -8 c-4 -4 -42 -13 -83
-19 -40 -6 -99 -14 -129 -19 -30 -5 -84 -14 -120 -20 -36 -6 -95 -15 -132 -21
-38 -5 -101 -14 -140 -19 -40 -6 -109 -15 -153 -21 -44 -5 -123 -14 -175 -20
-52 -5 -144 -14 -205 -20 -60 -5 -164 -14 -230 -19 -66 -5 -226 -15 -355 -22
l-235 -13 -460 0 c-253 0 -545 3 -650 8 -104 4 -246 12 -315 17 -69 6 -177 15
-240 20 -63 6 -160 15 -215 21 -55 5 -131 14 -170 19 -38 5 -108 14 -155 20
-47 6 -110 15 -140 20 -30 5 -86 14 -125 20 -38 6 -96 15 -127 20 -32 6 -86
15 -120 21 -35 6 -81 14 -103 19 -22 5 -67 13 -100 20 -33 6 -78 15 -100 20
-22 5 -60 13 -85 19 -25 6 -94 22 -155 37 -60 14 -114 29 -119 34 l-8 8 20 59
c11 32 26 85 33 118 l14 60 0 135 -1 135 -13 50 c-7 28 -22 77 -33 110 -11 33
-38 95 -59 138 -21 43 -53 99 -71 124 -17 26 -61 77 -97 113 l-66 67 -75 49
c-41 27 -95 59 -120 71 -25 12 -72 30 -105 41 -33 11 -82 26 -110 33 l-50 13
-145 1 -145 0 -50 -13 c-27 -7 -68 -18 -90 -24 -22 -6 -81 -30 -130 -54 l-90
-42 -65 -48 c-35 -26 -86 -69 -112 -96 -26 -27 -60 -66 -75 -86 -16 -20 -31
-39 -35 -42 -3 -3 -29 -49 -57 -102 -28 -54 -51 -104 -51 -111 0 -7 -6 -21
-13 -31 l-13 -18 -159 79 c-88 43 -194 97 -235 120 -41 23 -125 70 -186 105
-61 35 -170 101 -242 148 -72 47 -131 88 -131 92 -1 4 56 63 127 130 70 68
188 182 262 254 74 71 227 220 340 330 113 109 237 231 275 271 l70 72 35 -4z
m4270 -816 c25 0 71 -6 102 -13 31 -8 83 -27 115 -42 l58 -28 60 -61 60 -60
24 -50 c13 -27 27 -59 31 -70 4 -11 14 -46 21 -78 l12 -57 -13 -73 -13 -72
-29 -62 -30 -62 -40 -46 c-22 -25 -67 -64 -99 -86 -32 -21 -63 -39 -69 -39 -5
0 -18 -4 -28 -9 -9 -5 -33 -14 -53 -20 l-35 -11 -62 0 -61 0 -56 15 c-31 8
-81 26 -110 41 l-54 26 -55 55 -56 56 -26 52 c-14 29 -32 77 -39 106 l-15 54
1 65 0 65 12 45 c7 25 25 71 41 103 l29 58 57 57 57 57 58 29 c31 16 80 34
109 41 28 7 71 13 96 14z m-5703 -549 c7 0 43 -22 80 -48 38 -26 114 -78 171
-115 56 -37 105 -67 108 -67 3 0 18 -8 32 -19 15 -10 44 -28 65 -40 20 -11 54
-31 75 -43 20 -11 62 -35 92 -51 30 -17 173 -90 317 -162 144 -73 276 -138
293 -143 l30 -11 0 -22 c0 -12 14 -62 31 -111 16 -49 44 -115 61 -146 17 -31
48 -79 68 -107 21 -27 57 -70 81 -95 24 -25 67 -64 94 -86 28 -23 68 -52 90
-64 22 -13 58 -32 80 -43 22 -11 49 -23 60 -28 11 -4 49 -17 85 -28 36 -10 86
-24 113 -30 l47 -11 120 0 120 0 47 11 c27 6 66 16 88 21 22 5 48 14 57 19 10
5 23 9 30 9 7 0 49 19 93 41 44 22 97 54 118 70 l37 30 12 -7 c6 -4 30 -11 52
-16 23 -5 57 -13 76 -17 19 -5 60 -14 90 -21 30 -7 73 -16 95 -22 22 -5 60
-13 85 -18 25 -6 65 -14 90 -20 25 -6 70 -15 100 -21 30 -6 75 -15 100 -20 25
-5 72 -14 105 -20 33 -6 83 -15 110 -20 28 -5 75 -13 105 -18 30 -5 87 -15
125 -21 39 -6 102 -15 140 -20 39 -6 106 -15 150 -20 44 -6 116 -15 160 -20
44 -5 123 -14 175 -20 52 -6 140 -15 195 -21 55 -6 156 -14 225 -19 69 -5 231
-15 360 -22 l235 -12 390 -1 390 0 225 13 c124 7 288 17 365 22 77 5 192 14
255 19 63 6 160 15 215 21 55 5 141 14 190 20 50 5 122 14 160 19 39 5 106 14
150 20 44 6 110 15 148 21 37 5 95 14 130 20 34 5 89 14 122 19 33 6 87 15
120 21 33 5 84 14 113 20 28 5 73 14 100 19 26 5 73 14 106 21 l59 12 171
-170 171 -169 54 -18 53 -17 34 5 c18 3 48 13 67 22 l34 16 371 369 372 369
72 25 c41 13 93 32 118 41 25 9 70 26 100 37 30 11 65 24 78 29 12 5 32 13 45
18 12 5 60 23 107 41 47 18 95 36 108 41 12 5 32 13 45 18 12 5 40 17 62 26
22 10 54 23 70 30 17 7 48 20 70 30 22 9 65 29 95 42 30 14 141 68 245 119
105 52 223 112 263 135 l74 40 46 -42 c26 -23 92 -85 147 -138 55 -52 141
-133 190 -181 50 -47 187 -178 305 -291 118 -113 249 -237 291 -275 43 -38 77
-75 78 -82 l1 -13 -17 -5 c-10 -3 -27 -9 -38 -14 -11 -4 -36 -15 -55 -23 -19
-8 -61 -27 -93 -41 -32 -14 -60 -26 -62 -26 -3 0 -24 -8 -48 -19 -23 -10 -80
-33 -127 -51 -47 -17 -94 -36 -105 -40 -11 -4 -40 -16 -65 -25 -25 -9 -65 -23
-90 -31 -25 -8 -54 -19 -65 -24 -11 -5 -47 -17 -80 -28 -33 -11 -85 -27 -115
-37 -30 -9 -84 -26 -120 -37 -36 -11 -80 -24 -97 -29 -18 -5 -49 -13 -68 -19
-19 -5 -50 -14 -67 -19 -18 -5 -114 -30 -213 -55 -99 -25 -202 -50 -230 -56
-27 -6 -69 -15 -92 -20 -24 -6 -62 -14 -85 -19 -24 -5 -70 -15 -103 -21 -33
-6 -78 -15 -100 -20 -22 -5 -66 -13 -97 -19 -32 -6 -82 -15 -110 -21 -29 -5
-80 -14 -113 -19 -33 -5 -94 -15 -135 -21 -41 -6 -100 -15 -130 -20 -30 -5
-89 -14 -130 -20 -41 -6 -104 -15 -140 -20 -36 -5 -101 -13 -145 -19 -44 -5
-118 -14 -165 -20 -47 -6 -130 -15 -185 -20 -55 -6 -154 -15 -220 -21 -66 -6
-169 -15 -230 -20 -60 -5 -164 -14 -230 -20 -66 -5 -156 -12 -200 -15 -44 -4
-152 -11 -240 -16 -88 -5 -250 -14 -360 -19 -110 -5 -335 -14 -500 -19 -165
-6 -343 -13 -395 -15 -52 -3 -385 -8 -740 -11 l-645 -7 -585 12 c-322 6 -682
15 -800 20 -118 5 -314 14 -435 20 -121 5 -290 14 -375 20 -85 5 -220 14 -300
20 -80 5 -206 14 -280 20 -74 5 -191 14 -260 19 -69 6 -150 13 -180 16 -30 3
-102 10 -160 16 -58 5 -145 14 -195 20 -49 5 -124 14 -165 20 -41 5 -106 14
-145 20 -38 5 -100 14 -137 19 -38 6 -101 15 -140 21 -40 5 -100 15 -133 20
-33 5 -82 14 -110 19 -27 5 -79 14 -115 20 -36 6 -89 15 -117 20 -29 6 -79 15
-110 21 -32 6 -76 14 -98 19 -22 4 -65 13 -95 20 -30 6 -73 15 -95 20 -22 5
-80 18 -130 30 -49 11 -106 25 -125 30 -19 5 -46 12 -60 15 -14 3 -56 15 -95
25 -38 10 -97 26 -130 34 -33 9 -71 20 -85 25 -14 5 -45 14 -70 21 -25 7 -72
21 -105 31 -33 11 -107 35 -165 53 -58 19 -139 47 -180 61 -41 15 -84 30 -95
35 -11 4 -47 18 -80 30 -33 12 -70 26 -82 31 -13 5 -35 14 -50 20 -16 7 -38
16 -50 20 -13 5 -33 13 -45 18 -13 5 -44 18 -70 30 -26 12 -50 21 -53 21 -3 0
-27 9 -53 21 -26 11 -55 25 -64 30 -10 5 -25 9 -33 9 l-15 0 0 14 0 14 223
213 c122 118 271 261 331 319 61 58 130 125 156 150 25 25 120 115 210 200 91
85 226 215 300 287 74 73 141 133 147 133z m2226 -5 c43 -3 97 -10 120 -17 23
-7 67 -25 97 -41 l55 -30 66 -66 65 -66 26 -55 c15 -30 32 -73 39 -95 l13 -40
0 -100 -1 -100 -17 -50 c-9 -27 -28 -72 -42 -100 -13 -27 -39 -66 -57 -86 -17
-19 -54 -52 -81 -72 -26 -21 -69 -47 -94 -58 -25 -12 -66 -27 -91 -35 l-46
-14 -80 0 -80 0 -70 23 c-38 12 -90 33 -113 45 l-44 23 -61 63 -62 62 -22 45
c-11 24 -24 53 -28 64 -4 11 -13 44 -21 73 l-14 53 0 64 0 64 15 56 c8 31 26
81 41 111 l27 55 45 50 c25 28 70 67 101 88 31 21 76 46 101 55 25 10 65 22
90 27 l45 8 78 -4z m7044 -35 c2 0 133 -132 292 -292 l290 -293 -292 -287
c-161 -158 -293 -287 -295 -288 -2 0 -105 103 -230 229 -125 125 -254 256
-286 289 l-60 62 290 290 c159 159 290 290 291 290z m-4540 -2743 l178 -8 958
3 957 3 0 -757 0 -758 -1140 0 -1140 0 0 758 c0 417 2 761 4 763 2 2 85 0 183
-4z"/>
<path d="M11505 12384 l-100 4 -65 -8 c-36 -5 -81 -13 -100 -19 -19 -5 -46
-13 -60 -16 -14 -4 -34 -10 -45 -15 -11 -4 -42 -18 -70 -31 -27 -13 -70 -37
-95 -53 -25 -17 -58 -42 -75 -55 -16 -14 -54 -50 -83 -80 -30 -30 -70 -80 -91
-110 -20 -31 -49 -81 -63 -111 -15 -30 -33 -75 -41 -100 -8 -25 -21 -67 -28
-95 l-14 -50 0 -140 0 -140 13 -50 c8 -27 19 -63 24 -80 6 -16 17 -46 25 -65
8 -19 21 -46 27 -60 7 -14 22 -41 34 -62 11 -20 29 -46 39 -59 10 -12 40 -47
68 -77 27 -30 79 -76 115 -103 36 -27 94 -63 130 -80 36 -17 74 -35 85 -39 11
-4 34 -12 50 -18 17 -5 54 -15 84 -22 l55 -13 122 1 123 0 53 12 c29 7 67 17
83 22 17 6 39 13 50 18 11 4 43 18 70 31 28 13 82 44 120 70 l70 47 61 63 c33
35 78 91 100 124 22 33 50 80 61 105 11 25 29 72 40 105 11 33 25 81 31 108
l12 47 0 130 0 130 -20 78 c-11 42 -24 86 -29 97 -4 11 -28 60 -52 110 l-44
90 -100 100 -100 101 -60 34 c-33 19 -69 38 -79 43 -10 4 -33 14 -50 21 -17 8
-47 19 -66 25 -19 5 -53 14 -75 20 -22 5 -85 12 -140 15z m-60 -445 l80 1 46
-14 c26 -8 66 -24 89 -36 l43 -22 53 -52 52 -53 21 -40 c11 -23 27 -61 36 -85
l15 -43 0 -84 0 -85 -21 -60 c-12 -34 -31 -74 -42 -91 -11 -16 -34 -45 -51
-63 -17 -19 -49 -46 -71 -62 -22 -15 -67 -37 -101 -49 l-60 -21 -87 0 -86 0
-58 21 c-32 12 -76 34 -98 50 -22 15 -54 42 -71 61 -17 18 -40 47 -51 63 -12
17 -30 59 -42 94 l-21 64 0 76 0 76 14 46 c8 26 23 64 34 85 12 22 38 57 59
80 21 22 58 54 83 71 25 17 70 39 100 51 l55 20 80 1z"/>
<path d="M6190 11284 c-74 2 -151 2 -170 0 -19 -2 -55 -9 -80 -15 -25 -6 -61
-16 -80 -22 -19 -5 -44 -13 -55 -17 -11 -4 -42 -18 -70 -31 -27 -13 -81 -44
-120 -68 l-70 -45 -71 -71 -71 -70 -49 -75 c-28 -41 -60 -96 -72 -122 -12 -26
-35 -89 -51 -140 l-29 -93 -12 -93 -12 -93 11 -87 c7 -48 17 -107 23 -132 5
-25 19 -72 30 -105 11 -33 34 -87 50 -120 17 -33 49 -87 73 -120 24 -33 67
-84 96 -113 29 -29 76 -70 104 -91 27 -21 84 -56 125 -78 41 -21 100 -47 130
-57 30 -10 80 -25 110 -33 l55 -15 150 -1 150 0 45 12 c25 6 63 16 85 22 22 6
49 15 60 19 11 4 59 26 107 50 l88 42 72 61 c40 34 88 77 106 96 18 20 54 68
81 106 26 39 61 99 79 135 17 36 38 86 46 112 9 26 23 80 31 120 l15 73 0 117
0 118 -11 47 c-7 27 -22 83 -35 126 -13 43 -36 101 -51 130 -15 29 -48 84 -74
122 l-47 70 -73 71 c-41 39 -101 88 -134 110 -33 22 -80 50 -105 61 -25 11
-67 28 -95 38 -27 9 -72 23 -100 31 l-50 14 -135 4z m-7 -440 l88 -5 27 -11
c15 -5 55 -24 89 -40 l61 -29 45 -42 c24 -23 61 -67 81 -97 20 -31 46 -83 57
-115 l22 -60 5 -79 5 -78 -13 -57 c-7 -31 -28 -89 -46 -129 l-33 -73 -63 -63
-63 -62 -65 -31 c-36 -17 -80 -37 -99 -44 l-33 -12 -102 0 -101 0 -40 13 c-22
7 -69 27 -103 43 l-64 31 -53 52 c-30 29 -66 74 -80 99 -15 25 -35 69 -45 98
-10 28 -23 82 -28 118 l-10 66 13 77 14 77 30 64 31 63 47 52 c26 29 72 69
103 90 l55 37 60 21 c33 11 74 23 90 26 17 2 70 2 118 0z"/>
</g>
</svg>
