<?xml version="1.0" standalone="no"?>
<!DOCTYPE svg PUBLIC "-//W3C//DTD SVG 20010904//EN"
 "http://www.w3.org/TR/2001/REC-SVG-20010904/DTD/svg10.dtd">
<svg version="1.0" xmlns="http://www.w3.org/2000/svg"
 width="1322.466233pt" height="1793.069423pt" viewBox="0 0 1322.466233 1793.069423"
 preserveAspectRatio="xMidYMid meet">
<metadata>
Created by potrace 1.16, written by Peter Selinger 2001-2019
</metadata>
<g transform="translate(-233.915655,2168.569423) scale(0.100000,-0.100000)"
fill="#000000" stroke="none">
<path d="M9017 21684 c-34 2 -73 2 -87 0 -14 -3 -41 -12 -60 -21 -19 -9 -47
-25 -63 -35 -15 -11 -45 -45 -66 -76 -21 -31 -58 -95 -83 -142 -25 -47 -64
-121 -88 -165 -23 -44 -55 -102 -70 -130 -15 -27 -44 -81 -64 -118 -21 -37
-59 -109 -86 -160 l-48 -92 -33 -12 c-19 -7 -51 -12 -72 -12 -21 -1 -57 -5
-80 -10 -23 -5 -76 -14 -117 -21 -41 -6 -104 -15 -140 -21 -36 -5 -94 -14
-130 -19 -36 -5 -99 -14 -140 -20 -41 -6 -100 -16 -130 -22 -30 -6 -77 -21
-105 -33 l-50 -22 -32 -34 c-17 -19 -41 -52 -54 -74 l-22 -40 -1 -91 -1 -90
25 -49 25 -48 71 -81 c39 -45 187 -195 329 -334 l257 -253 -6 -22 c-4 -12 -11
-47 -17 -77 -5 -30 -15 -80 -20 -110 -6 -30 -14 -75 -19 -100 -4 -25 -15 -81
-23 -125 -9 -44 -21 -100 -26 -125 -5 -25 -14 -72 -21 -105 -6 -33 -16 -79
-21 -102 -5 -23 -9 -56 -9 -73 l0 -32 -28 -26 c-15 -15 -70 -74 -122 -132 -52
-58 -122 -134 -156 -170 -33 -36 -87 -94 -120 -130 -32 -35 -70 -76 -84 -90
-14 -14 -77 -81 -140 -150 -63 -69 -126 -136 -140 -150 -14 -14 -77 -81 -140
-150 -63 -69 -122 -132 -130 -140 -8 -9 -49 -51 -90 -95 -41 -44 -140 -150
-220 -235 -80 -85 -174 -186 -210 -225 -36 -38 -106 -112 -155 -165 -50 -52
-127 -133 -170 -180 -44 -46 -87 -91 -95 -100 -8 -8 -43 -45 -77 -83 -35 -37
-85 -100 -112 -140 -27 -40 -68 -111 -91 -157 -24 -47 -46 -94 -51 -105 -4
-11 -16 -42 -25 -70 -9 -27 -20 -66 -25 -85 -5 -19 -16 -77 -24 -129 -8 -52
-15 -117 -15 -144 0 -28 5 -80 10 -116 6 -36 16 -84 22 -106 5 -22 15 -53 20
-70 6 -16 20 -50 31 -75 12 -25 38 -70 59 -101 20 -31 58 -78 84 -103 26 -26
79 -69 118 -95 39 -26 92 -57 118 -69 26 -12 55 -22 63 -22 l15 0 0 -17 0 -18
-83 -106 c-45 -58 -101 -128 -123 -155 -23 -27 -77 -92 -120 -144 -43 -52 -81
-97 -84 -100 -3 -3 -25 -30 -50 -60 -25 -30 -47 -57 -50 -60 -3 -3 -30 -34
-60 -70 -30 -36 -57 -67 -60 -70 -3 -3 -30 -34 -60 -70 -30 -36 -57 -67 -60
-70 -3 -3 -30 -34 -60 -70 -30 -35 -65 -76 -76 -90 -12 -14 -93 -108 -180
-210 -87 -102 -160 -187 -163 -190 -4 -3 -22 -23 -41 -45 -19 -23 -55 -65 -80
-95 -25 -30 -72 -86 -106 -125 -33 -38 -98 -117 -143 -174 -46 -57 -118 -156
-160 -220 l-77 -116 -53 -110 c-30 -60 -57 -120 -62 -132 -5 -13 -13 -33 -18
-45 -5 -13 -13 -36 -19 -53 -5 -16 -15 -48 -20 -70 -6 -22 -16 -62 -21 -90 -6
-27 -15 -77 -21 -109 l-10 -59 0 -126 0 -125 11 -60 c7 -34 22 -96 35 -140 13
-43 36 -104 51 -135 15 -31 44 -81 65 -112 20 -31 63 -83 95 -116 32 -32 72
-69 88 -83 17 -13 57 -40 90 -60 33 -20 81 -46 107 -58 26 -12 52 -22 58 -22
6 0 18 -4 28 -9 9 -5 37 -15 62 -21 25 -7 59 -16 75 -21 17 -4 56 -13 88 -19
31 -6 57 -14 57 -16 0 -3 -44 -62 -97 -132 -53 -70 -129 -167 -168 -217 -39
-49 -107 -135 -151 -191 -43 -55 -90 -116 -104 -134 -14 -18 -45 -59 -70 -90
-25 -31 -56 -72 -70 -90 -14 -19 -34 -45 -46 -59 -11 -14 -45 -57 -74 -96 -30
-38 -75 -97 -100 -130 -26 -33 -75 -98 -111 -145 -35 -47 -66 -87 -69 -90 -3
-3 -27 -34 -53 -70 -27 -36 -54 -72 -60 -80 -7 -8 -23 -31 -37 -50 -14 -19
-30 -42 -37 -50 -6 -8 -27 -35 -45 -60 -19 -25 -49 -67 -68 -95 -18 -27 -37
-52 -40 -55 -4 -3 -35 -48 -70 -100 -35 -52 -69 -100 -75 -106 -6 -6 -35 -49
-64 -95 -30 -46 -78 -122 -108 -168 -30 -45 -63 -97 -72 -115 -10 -17 -38 -62
-61 -100 -23 -38 -52 -88 -65 -110 -12 -23 -37 -67 -54 -99 -18 -32 -54 -101
-80 -155 -27 -53 -59 -119 -71 -147 -12 -27 -32 -72 -44 -100 -13 -27 -28 -66
-35 -85 -7 -19 -17 -44 -21 -55 -5 -11 -17 -47 -28 -80 -11 -33 -25 -80 -32
-105 -7 -25 -16 -56 -20 -70 -4 -14 -12 -47 -18 -75 -6 -27 -15 -77 -21 -110
-6 -33 -15 -108 -21 -168 l-11 -107 11 -108 c5 -59 15 -132 21 -162 6 -30 22
-91 35 -135 13 -43 41 -113 61 -155 20 -41 59 -109 86 -150 l49 -75 102 -101
101 -101 75 -50 c41 -27 109 -68 150 -90 41 -21 111 -53 155 -70 44 -17 100
-36 125 -43 25 -7 56 -16 70 -20 14 -5 57 -14 95 -20 39 -7 92 -16 118 -21
l48 -9 176 0 176 0 66 10 c36 6 89 15 116 21 28 5 70 15 95 21 25 6 86 24 135
40 50 16 99 33 110 38 11 4 38 16 60 25 22 10 81 38 130 62 50 25 94 49 99 54
6 5 16 9 23 9 l12 0 52 -77 52 -78 101 -101 101 -101 90 -60 c50 -32 119 -73
155 -90 36 -16 90 -39 120 -50 30 -11 73 -25 95 -31 22 -6 63 -16 90 -21 28
-6 77 -15 109 -21 l59 -10 142 0 142 0 54 9 c30 5 86 15 124 21 39 7 84 16
100 21 17 4 75 22 130 39 55 17 109 34 120 39 11 5 38 17 60 26 22 9 74 33
115 53 41 20 104 53 139 74 34 21 65 38 68 38 2 0 32 19 66 42 34 23 95 68
134 100 40 32 75 58 78 58 3 0 5 -262 5 -583 l0 -584 11 -109 10 -109 15 -45
c9 -25 23 -61 32 -80 8 -19 29 -55 46 -80 16 -25 44 -59 60 -76 17 -16 51 -44
76 -60 25 -16 56 -35 70 -41 14 -6 39 -16 55 -21 17 -6 50 -15 75 -21 l45 -11
1175 -3 1175 -2 45 14 c25 7 54 17 65 21 11 4 42 18 69 31 l49 24 54 49 55 49
37 56 c20 31 42 67 48 81 6 14 16 39 22 55 5 17 15 57 20 90 5 33 15 168 20
300 6 132 14 394 17 583 l6 343 59 45 59 45 38 -29 c20 -16 73 -53 116 -82 44
-29 116 -74 160 -99 45 -26 124 -67 176 -93 52 -25 111 -53 130 -61 19 -8 60
-24 90 -35 30 -12 87 -30 125 -40 39 -11 90 -24 115 -30 25 -6 74 -17 110 -24
l65 -13 175 1 175 1 75 16 c41 10 91 21 110 26 19 5 60 18 90 30 30 12 80 34
110 49 30 14 89 48 130 76 41 27 91 64 110 82 19 17 47 42 61 55 15 13 51 53
81 89 30 36 71 94 92 128 22 34 41 62 44 62 2 0 21 -10 41 -22 20 -13 50 -31
66 -40 17 -10 57 -31 90 -47 33 -16 76 -35 95 -44 19 -8 55 -23 80 -32 25 -10
60 -21 78 -26 17 -5 49 -14 70 -19 20 -6 57 -15 82 -20 25 -6 92 -17 150 -25
58 -8 134 -15 170 -15 36 0 112 7 170 15 58 8 125 19 150 25 25 5 63 13 85 18
22 5 63 17 90 26 28 9 59 21 70 25 11 5 38 17 60 26 22 10 71 33 108 51 37 19
96 53 130 76 34 23 64 44 67 47 3 4 21 18 40 33 19 14 58 48 86 75 27 26 75
78 105 114 31 36 76 97 100 135 25 38 59 98 76 134 17 36 40 92 51 125 11 33
25 80 30 105 6 25 17 70 23 100 l13 55 -1 175 -1 175 -15 85 c-9 47 -21 108
-27 135 -6 28 -15 66 -19 85 -5 19 -17 60 -26 90 -9 30 -23 73 -30 95 -7 22
-32 87 -55 145 -23 58 -49 121 -57 140 -9 19 -49 103 -89 185 -41 83 -89 177
-107 210 -19 33 -43 76 -54 95 -11 19 -31 53 -44 76 -13 22 -40 66 -59 98 -19
31 -122 188 -229 349 -107 161 -197 294 -201 297 -3 3 -26 34 -50 70 -24 36
-46 67 -50 70 -3 3 -17 21 -30 40 -13 19 -55 78 -94 130 -38 52 -128 174 -200
270 -72 96 -133 177 -136 180 -3 3 -34 43 -70 90 -35 47 -85 112 -110 145 -26
33 -82 107 -126 165 -44 58 -109 143 -145 190 -35 47 -66 87 -69 90 -3 3 -54
69 -113 147 -59 78 -107 144 -107 147 0 4 13 6 29 6 15 0 41 4 57 9 16 5 54
14 84 21 30 6 82 21 115 32 33 11 80 30 105 41 25 12 70 36 101 54 31 17 73
48 95 67 21 20 42 36 46 36 3 0 35 33 70 74 35 41 74 93 87 117 13 24 32 60
41 79 10 19 27 62 38 95 11 33 25 80 30 105 6 25 16 90 22 144 l12 100 -12
100 c-6 56 -16 124 -22 151 -6 28 -24 93 -40 145 -16 52 -36 111 -45 130 -8
19 -27 60 -41 90 -14 30 -49 93 -76 140 -28 47 -68 110 -90 140 -22 30 -58 80
-80 110 -23 30 -43 57 -46 60 -3 3 -17 21 -32 42 -15 20 -33 42 -40 50 -7 7
-38 43 -68 78 -30 36 -57 67 -60 70 -3 3 -30 34 -60 70 -30 36 -57 67 -60 70
-3 3 -34 39 -70 80 -36 41 -81 93 -101 115 -20 22 -79 87 -130 145 -52 58
-123 139 -159 180 -36 41 -83 95 -105 120 -23 25 -65 74 -95 110 -30 36 -57
67 -60 70 -3 3 -25 30 -50 60 -25 30 -47 57 -50 60 -3 3 -21 25 -40 50 -19 25
-37 47 -40 50 -4 3 -69 84 -146 180 -77 96 -185 233 -239 304 l-98 129 19 14
c10 7 24 13 32 13 7 0 55 20 106 44 51 25 115 62 142 82 27 20 67 56 90 78 22
23 59 68 80 101 22 33 48 76 56 95 9 19 23 55 31 80 8 25 21 68 28 95 l14 50
0 145 0 145 -14 60 c-7 33 -22 87 -33 120 -11 33 -26 76 -35 95 -8 19 -30 66
-50 105 -19 38 -49 90 -65 115 -17 25 -54 72 -82 105 -28 33 -53 62 -56 65 -3
3 -50 53 -105 110 -55 58 -154 161 -220 230 -66 69 -160 168 -210 220 -49 52
-125 133 -170 180 -44 47 -114 121 -155 165 -41 44 -113 121 -160 170 -47 50
-119 127 -160 170 -41 44 -104 112 -140 150 -36 39 -121 131 -190 205 -69 74
-127 137 -130 140 -3 3 -37 39 -75 80 -39 41 -122 131 -186 200 -64 69 -128
139 -141 155 l-25 30 -6 70 c-4 39 -11 90 -16 115 -5 25 -14 71 -20 103 -6 31
-16 83 -21 115 -6 31 -15 77 -20 102 -4 25 -13 70 -19 100 -5 30 -15 82 -21
115 -6 33 -14 79 -17 103 l-6 44 321 318 320 318 31 65 31 65 0 77 0 76 -27
55 -27 55 -33 30 c-19 16 -50 37 -71 47 -20 10 -62 24 -92 30 -30 6 -93 16
-140 22 -47 6 -114 15 -150 21 -36 5 -94 14 -130 20 -36 5 -92 14 -125 20 -33
5 -82 14 -110 19 -27 4 -85 14 -128 21 l-78 13 -11 13 c-5 7 -31 54 -57 105
-27 51 -84 163 -128 248 -44 85 -100 193 -126 240 -25 47 -61 114 -80 149 -19
35 -50 80 -69 100 -19 20 -53 46 -77 58 l-42 23 -62 4z m-26 -594 c3 0 25 -37
48 -82 24 -46 99 -194 167 -329 68 -136 135 -261 149 -278 15 -17 41 -37 58
-45 18 -8 52 -18 77 -24 25 -6 77 -15 115 -21 39 -7 95 -16 125 -21 30 -5 89
-14 130 -20 41 -6 98 -15 125 -20 28 -4 85 -14 128 -21 42 -7 77 -16 77 -20 0
-4 -121 -128 -269 -276 l-269 -270 -16 -38 -16 -37 0 -65 c0 -35 4 -83 9 -106
5 -23 14 -69 21 -102 6 -33 15 -80 20 -105 4 -25 13 -73 19 -107 6 -35 16 -91
22 -125 6 -35 15 -83 20 -107 6 -24 8 -45 6 -48 -3 -2 -22 6 -43 18 -22 12
-102 55 -179 94 -77 40 -176 91 -220 115 -44 23 -107 57 -140 74 -33 17 -76
37 -96 44 -19 6 -57 12 -82 12 -26 0 -55 -4 -65 -9 -9 -5 -44 -22 -77 -38 -33
-17 -85 -44 -115 -60 -30 -17 -84 -46 -120 -65 -36 -20 -103 -56 -150 -81 -47
-25 -113 -60 -147 -78 -34 -19 -64 -31 -66 -29 -3 3 -1 28 4 55 5 28 13 75 18
105 6 30 15 81 21 113 5 31 15 83 21 115 5 31 14 82 19 112 5 30 14 93 21 140
l11 85 -6 43 -6 44 -19 26 c-10 15 -136 144 -280 287 -144 142 -261 262 -261
265 0 3 35 12 78 19 42 7 100 16 127 21 28 5 79 13 115 19 36 5 99 15 140 21
41 6 97 15 123 20 27 6 58 10 69 10 11 0 45 7 76 16 l55 16 38 37 38 36 127
250 c69 138 140 275 156 305 17 30 38 67 46 83 9 15 19 27 23 27z m-7 -2380
c5 0 66 -29 135 -64 69 -35 164 -84 211 -108 47 -23 87 -46 88 -50 2 -5 10 -8
17 -8 8 0 16 -3 18 -7 l5 -8 -96 0 -97 -1 -36 -21 c-20 -12 -46 -27 -58 -35
-12 -7 -35 -34 -52 -60 -16 -25 -34 -61 -40 -80 -6 -18 -14 -55 -17 -81 l-7
-49 -55 -30 c-30 -16 -77 -49 -104 -71 -27 -23 -73 -71 -102 -106 l-53 -63
-36 -73 c-20 -41 -41 -88 -46 -107 -6 -18 -17 -58 -24 -88 l-14 -55 -1 -117 0
-117 14 -53 c8 -29 19 -67 24 -84 6 -17 18 -49 28 -70 10 -22 36 -66 57 -99
22 -33 63 -83 91 -111 28 -27 69 -64 91 -80 22 -17 69 -44 105 -61 36 -17 74
-34 85 -38 11 -4 45 -14 75 -22 l55 -15 120 -1 120 0 55 16 c30 9 69 20 86 25
17 6 49 18 70 28 22 10 64 35 96 56 31 21 81 63 112 94 31 31 73 81 94 112 21
32 46 73 54 92 9 19 22 49 28 65 7 17 19 55 28 85 l16 55 0 130 1 130 -13 50
c-8 28 -18 64 -24 80 -6 17 -20 50 -31 75 -12 25 -39 72 -61 105 -22 33 -72
92 -111 130 l-70 70 -68 39 -67 39 0 22 c0 12 -5 37 -11 56 -6 19 -20 52 -30
74 -11 23 -33 55 -49 72 -17 18 -30 34 -30 37 0 3 30 -11 68 -31 37 -20 83
-44 103 -54 19 -11 61 -26 93 -34 31 -8 67 -15 80 -15 l24 0 28 -37 c15 -21
30 -40 33 -43 4 -3 29 -30 56 -60 28 -31 104 -114 170 -185 66 -71 149 -161
185 -200 36 -38 72 -77 80 -85 8 -9 51 -54 95 -100 43 -47 120 -128 170 -180
49 -53 124 -132 165 -175 41 -44 145 -154 230 -245 85 -91 189 -201 230 -245
41 -44 82 -86 90 -95 8 -8 44 -47 80 -85 36 -39 147 -156 246 -260 100 -105
195 -206 210 -225 16 -19 37 -43 46 -54 9 -10 36 -57 59 -105 23 -47 45 -93
49 -101 4 -9 11 -30 14 -47 l7 -31 -10 -6 c-5 -4 -29 -10 -53 -15 -24 -5 -79
-16 -123 -25 -44 -9 -102 -20 -130 -25 -27 -6 -81 -14 -120 -20 -38 -6 -104
-15 -145 -20 -41 -6 -118 -15 -170 -20 -52 -6 -165 -16 -250 -22 l-155 -12
-310 6 c-170 4 -355 11 -410 16 -55 6 -143 15 -195 21 -52 5 -131 14 -175 20
-44 5 -111 14 -150 20 -38 6 -97 15 -130 20 -33 6 -82 14 -110 19 -27 5 -75
14 -105 20 -30 6 -73 15 -95 20 -22 5 -65 14 -95 21 -30 7 -73 16 -95 21 -22
6 -56 14 -75 19 -19 5 -53 13 -75 19 -22 5 -57 14 -77 20 -21 6 -54 16 -73 21
-19 6 -51 15 -70 20 -19 6 -50 14 -67 19 -18 5 -123 39 -233 75 -110 37 -209
71 -220 75 -11 5 -58 23 -105 41 -47 18 -94 36 -105 40 -11 4 -36 15 -55 23
-19 9 -60 25 -90 37 -30 12 -79 33 -110 46 -30 14 -82 37 -115 52 -33 14 -150
72 -260 127 -110 56 -216 111 -235 122 -19 11 -75 44 -125 73 -49 29 -103 60
-120 70 -16 9 -72 45 -124 78 -51 34 -97 62 -102 62 -5 0 -9 7 -9 16 0 9 8 24
18 33 9 9 42 43 72 76 30 33 120 130 200 215 80 85 170 182 200 215 30 33 57
62 60 65 3 3 32 34 64 70 33 36 92 99 131 140 38 41 117 127 175 190 58 63
107 117 110 120 3 3 52 57 110 120 58 62 124 135 148 161 l43 46 64 6 63 6
134 69 c73 38 172 90 220 115 48 26 111 59 140 75 29 16 85 47 123 67 39 21
99 53 135 72 36 18 69 33 74 33z m386 -471 c3 0 13 -6 23 -13 9 -7 17 -18 17
-25 l0 -11 -40 0 -40 0 0 15 c0 7 8 19 18 24 9 6 19 10 22 10z m4 -300 l80 1
35 -11 c20 -7 64 -25 98 -41 l63 -30 49 -44 c27 -24 65 -68 84 -97 19 -28 45
-81 57 -117 l24 -65 -1 -100 -1 -100 -22 -60 c-13 -33 -34 -77 -47 -99 -14
-21 -43 -58 -65 -82 -22 -23 -62 -57 -89 -74 -27 -18 -81 -43 -120 -56 l-71
-24 -68 0 -69 0 -58 15 c-32 8 -80 26 -108 40 -27 13 -73 45 -102 70 l-51 46
-32 49 c-18 27 -43 82 -56 121 l-24 71 0 86 0 86 11 35 c6 20 15 44 20 53 5
10 9 23 9 28 0 6 17 37 39 68 21 31 54 72 72 90 19 18 55 47 81 64 27 16 78
41 115 53 l68 24 79 0z m-2952 -1419 c4 0 45 -24 91 -53 45 -30 115 -75 154
-100 40 -26 75 -47 79 -47 3 0 18 -8 32 -19 15 -10 45 -29 67 -41 22 -13 58
-33 80 -45 22 -12 63 -35 90 -50 28 -16 76 -42 108 -59 l59 -30 -5 -21 c-3
-11 -12 -47 -21 -80 -8 -33 -16 -76 -16 -95 l-1 -35 -61 -30 c-34 -16 -66 -34
-72 -40 -6 -5 -29 -23 -51 -40 -21 -16 -61 -52 -88 -79 -27 -28 -70 -82 -96
-121 -26 -38 -57 -92 -70 -120 -13 -27 -27 -58 -32 -67 -5 -10 -9 -24 -9 -32
0 -8 -5 -27 -12 -41 l-12 -26 -34 -15 c-19 -8 -56 -21 -81 -30 -25 -9 -71 -23
-101 -31 l-55 -15 -130 -1 -130 0 -51 15 c-28 9 -70 25 -95 36 l-44 21 -47 48
-47 48 -17 40 c-9 22 -23 65 -30 95 -7 30 -13 71 -14 90 0 19 6 64 14 100 8
36 21 86 30 112 9 25 29 70 44 100 16 29 35 64 43 78 8 13 34 49 58 80 24 30
107 123 185 205 77 83 172 183 210 223 38 39 73 72 78 72z m1060 -560 c9 0 29
-5 43 -12 l25 -11 0 -14 0 -13 -55 0 -55 0 0 13 c0 7 5 18 12 25 7 7 20 12 30
12z m30 -340 l97 0 23 -9 c13 -5 41 -14 63 -20 22 -7 69 -27 105 -44 l64 -32
68 -68 c37 -37 68 -71 68 -76 0 -5 -12 -13 -27 -19 -16 -5 -48 -15 -73 -21
-25 -5 -67 -15 -95 -20 -27 -6 -82 -15 -122 -21 -39 -5 -112 -10 -161 -10
l-89 0 -94 15 c-52 8 -112 19 -134 24 -22 5 -67 16 -100 25 -32 9 -61 19 -63
21 -2 2 5 17 17 34 12 17 45 51 74 76 l52 46 81 40 c44 21 89 39 100 39 10 0
26 5 34 10 l15 10 97 0z m723 0 c9 0 23 -4 33 -10 9 -5 71 -27 137 -48 66 -22
140 -45 165 -52 25 -7 56 -16 70 -20 14 -4 45 -13 70 -20 25 -7 56 -16 70 -20
14 -4 45 -13 70 -20 25 -6 61 -16 80 -20 19 -5 76 -19 125 -30 50 -12 110 -26
135 -31 25 -6 63 -14 85 -19 22 -5 65 -13 95 -19 30 -5 82 -15 115 -21 33 -6
79 -16 103 -22 23 -6 42 -13 42 -15 0 -3 -11 -13 -24 -24 l-23 -18 -36 -69
-37 -69 -47 -42 c-26 -24 -67 -53 -92 -66 -25 -12 -68 -30 -96 -40 -27 -10
-84 -23 -125 -31 -41 -7 -104 -14 -140 -14 -36 0 -103 7 -150 15 -47 8 -98 18
-115 23 -16 5 -50 18 -75 28 -25 9 -70 34 -100 54 -30 21 -74 58 -97 83 l-42
45 -6 39 c-4 21 -20 81 -37 133 -16 52 -44 123 -61 157 -17 34 -48 85 -69 113
l-38 50 15 0z m3820 -331 l9 1 -14 -14 c-8 -8 -37 -22 -65 -31 -27 -9 -74 -23
-103 -31 l-53 -14 -94 0 -94 0 -5 9 -6 9 27 6 c16 4 60 10 98 16 39 5 102 14
140 21 39 6 88 15 110 19 22 4 44 8 50 9z m-2079 -73 c27 -4 99 -11 159 -16
61 -6 196 -15 300 -20 105 -5 220 -9 258 -10 l67 0 0 -13 c0 -7 -10 -18 -21
-26 -12 -7 -36 -21 -53 -30 -17 -10 -61 -29 -96 -41 l-65 -24 -120 0 -121 0
-29 11 c-17 6 -50 17 -75 24 -25 7 -68 26 -97 40 -29 15 -73 41 -97 58 -25 17
-48 36 -52 43 l-7 11 49 -7z m-3020 -56 c7 0 15 -4 18 -9 3 -5 18 -11 33 -14
16 -3 55 -12 88 -20 33 -8 85 -20 115 -25 30 -6 88 -15 128 -21 l72 -11 121 0
120 0 72 10 c40 6 97 16 127 21 30 6 75 15 100 21 25 6 61 15 80 21 19 6 41
15 48 21 l13 9 11 -11 12 -12 4 -88 4 -88 -13 -11 c-8 -6 -41 -20 -74 -31 -33
-11 -80 -24 -105 -30 -25 -6 -74 -17 -110 -24 l-65 -13 -215 0 -215 0 -65 13
c-36 7 -85 18 -110 24 -25 6 -61 15 -80 21 -19 5 -44 13 -55 17 -11 5 -35 13
-52 20 l-33 12 0 47 c0 25 3 70 6 99 l7 52 13 0z m4195 -240 c8 0 19 -4 25 -8
5 -5 36 -19 69 -31 33 -13 69 -27 80 -31 11 -5 55 -18 98 -31 42 -12 77 -26
77 -30 0 -4 31 -54 68 -111 38 -57 111 -160 163 -228 52 -69 99 -132 106 -140
6 -8 51 -64 100 -125 48 -60 146 -180 217 -265 72 -85 133 -157 136 -160 3 -3
30 -34 60 -70 30 -36 57 -67 60 -70 3 -3 34 -39 70 -80 36 -41 77 -88 91 -105
15 -16 77 -88 140 -160 62 -71 115 -132 118 -135 3 -3 40 -43 81 -90 41 -47
77 -87 80 -90 3 -3 34 -39 70 -80 36 -41 67 -77 70 -80 3 -3 34 -39 70 -80 36
-41 67 -77 70 -80 3 -3 42 -50 87 -105 44 -56 112 -148 149 -205 38 -58 88
-143 111 -190 22 -47 49 -107 58 -135 9 -27 23 -74 31 -103 8 -29 14 -62 14
-72 l0 -20 -22 -4 c-13 -3 -36 -8 -53 -11 -16 -3 -48 -10 -70 -16 -22 -6 -58
-14 -80 -18 -22 -5 -76 -16 -120 -25 -44 -9 -102 -20 -130 -26 -27 -5 -81 -14
-120 -20 -38 -6 -95 -15 -126 -20 -30 -6 -68 -10 -84 -10 -16 0 -54 -4 -84
-10 -31 -5 -101 -14 -156 -19 -55 -6 -157 -15 -227 -21 l-127 -11 -454 0
c-250 1 -461 3 -468 6 -8 2 -93 10 -189 15 -96 6 -213 15 -260 20 -47 5 -125
13 -175 19 -49 6 -124 15 -165 21 -41 5 -104 14 -140 19 -36 6 -90 15 -120 20
-30 5 -82 14 -115 20 -33 5 -82 14 -110 20 -27 5 -77 15 -110 21 -33 7 -78 16
-100 21 -22 4 -60 12 -85 18 -25 5 -70 14 -100 21 -30 7 -71 16 -90 20 -19 5
-87 22 -150 38 -63 17 -142 38 -175 47 -33 9 -85 23 -115 32 -30 8 -68 18 -85
23 -16 4 -55 16 -85 25 -30 10 -136 44 -235 77 -99 32 -189 63 -200 68 -11 5
-40 16 -65 24 -25 8 -76 26 -115 41 -38 15 -79 30 -90 35 -11 4 -31 12 -45 18
-14 5 -45 18 -70 27 -25 9 -61 23 -80 32 -19 8 -44 19 -55 23 -11 4 -36 15
-55 23 -19 8 -53 22 -75 32 -22 10 -53 23 -70 30 -16 7 -52 23 -80 35 -27 12
-79 36 -115 52 -36 17 -94 44 -130 60 -36 17 -165 80 -287 140 l-223 110 0 14
c0 7 -12 35 -26 61 -15 26 -40 63 -57 80 l-31 33 -62 30 -63 30 -81 0 -80 0
-68 41 c-37 23 -80 49 -97 59 -16 9 -73 45 -125 78 -52 34 -129 85 -170 113
-41 29 -113 79 -160 112 -47 33 -128 92 -180 131 -52 39 -97 73 -100 76 -3 3
-23 19 -44 35 -22 17 -45 33 -50 38 l-11 7 10 8 c6 4 30 32 55 62 25 30 47 57
50 60 3 3 30 34 60 70 30 36 57 67 60 70 3 3 25 30 50 60 25 30 47 57 50 60 4
3 61 73 128 157 67 83 151 190 186 238 36 47 73 98 82 114 l17 29 41 11 c23 5
55 13 71 16 17 3 46 10 65 15 19 4 44 11 55 15 l20 6 14 -48 c8 -26 27 -77 44
-113 17 -36 49 -92 71 -125 22 -33 69 -90 105 -126 l66 -65 75 -50 c41 -28 95
-60 120 -71 25 -11 66 -28 92 -36 25 -9 76 -23 113 -32 l66 -15 112 0 112 0
65 14 c36 8 90 22 120 32 30 10 89 36 130 58 41 21 100 58 131 82 31 23 82 71
114 106 31 35 80 97 108 138 27 41 51 76 53 78 1 2 28 -10 61 -27 32 -16 83
-40 113 -52 30 -12 69 -25 85 -30 17 -4 48 -13 70 -19 22 -5 76 -17 120 -25
l80 -15 129 0 130 0 60 11 c34 6 79 16 101 21 22 6 56 15 75 21 19 5 44 13 55
17 11 4 52 23 90 41 39 18 95 50 126 70 31 21 81 61 112 89 l57 52 29 -21 c16
-12 32 -21 35 -21 3 0 28 -9 54 -21 26 -12 56 -25 67 -29 11 -4 34 -12 50 -18
17 -5 48 -14 70 -20 22 -6 63 -16 90 -23 l50 -13 140 0 140 -1 50 13 c28 7 68
18 90 24 22 6 49 14 60 18 11 4 52 22 90 40 39 19 96 51 128 72 32 22 86 66
120 98 l62 59 16 1z m-4126 -220 c2 0 30 -7 62 -16 32 -9 78 -20 103 -26 25
-5 113 -15 195 -22 l150 -13 150 13 c83 8 173 19 200 25 28 5 65 13 83 16 l32
5 0 -12 c0 -7 -32 -44 -70 -81 l-71 -68 -72 -36 c-40 -19 -98 -42 -130 -50
l-58 -15 -85 0 -85 0 -47 11 c-26 6 -56 14 -67 19 -11 4 -41 17 -66 30 -26 12
-74 44 -107 71 l-61 49 -31 44 c-16 25 -30 47 -30 50 0 3 2 6 5 6z m-1637
-1210 c2 0 52 -37 110 -83 59 -46 123 -94 142 -107 19 -13 37 -27 40 -30 3 -4
34 -26 70 -50 36 -24 67 -46 70 -50 3 -3 55 -39 115 -80 61 -40 121 -82 135
-92 14 -10 72 -49 130 -86 58 -37 118 -74 133 -82 16 -8 33 -22 38 -33 l10
-18 -3 -31 -3 -31 -20 -11 c-11 -6 -44 -27 -75 -47 -30 -20 -80 -63 -111 -95
-30 -33 -71 -84 -90 -114 -19 -30 -42 -71 -51 -90 -9 -19 -22 -49 -28 -65 -7
-17 -19 -55 -28 -85 l-16 -55 0 -155 -1 -155 23 -70 c13 -38 38 -97 55 -130
17 -33 45 -78 62 -100 16 -22 52 -63 80 -91 27 -28 77 -69 110 -91 33 -21 76
-47 95 -55 19 -9 49 -22 65 -28 17 -7 55 -19 85 -27 l55 -16 130 0 130 0 55
16 c30 8 77 23 104 32 26 9 63 25 81 35 19 11 53 31 77 46 24 15 71 54 106 88
l63 60 42 65 c23 37 48 78 55 94 6 15 16 37 21 50 5 12 14 38 20 57 5 19 14
54 20 76 l11 41 0 115 0 115 -11 32 c-6 18 -9 35 -5 38 3 3 25 -3 48 -14 24
-12 59 -28 78 -36 19 -8 61 -27 93 -41 32 -14 60 -26 62 -26 3 0 27 -9 53 -21
26 -12 56 -24 67 -29 11 -4 32 -12 48 -19 15 -6 39 -16 55 -22 15 -7 38 -16
52 -22 14 -5 36 -14 50 -20 14 -5 34 -13 45 -17 11 -5 40 -16 65 -25 25 -10
81 -31 125 -47 44 -16 100 -36 125 -44 25 -8 54 -19 65 -24 11 -5 74 -27 140
-48 66 -21 154 -49 195 -62 41 -13 95 -30 120 -38 25 -8 60 -18 78 -23 17 -5
49 -14 70 -20 20 -6 53 -14 72 -19 19 -5 89 -23 155 -40 66 -17 138 -36 160
-41 22 -6 56 -14 75 -18 19 -5 60 -14 90 -21 30 -7 73 -16 95 -21 22 -5 65
-14 95 -20 30 -6 73 -15 95 -19 22 -4 67 -13 100 -20 33 -6 85 -15 115 -21 30
-5 82 -13 115 -19 33 -5 87 -14 120 -20 33 -5 87 -12 120 -16 33 -3 66 -8 74
-10 l15 -5 -35 -23 -34 -24 -49 -83 -50 -84 -66 -66 -66 -65 -80 -40 c-43 -22
-95 -45 -114 -51 -19 -6 -57 -16 -85 -22 -27 -6 -77 -15 -109 -21 -33 -5 -98
-10 -146 -10 l-87 0 -94 15 c-52 8 -110 19 -129 24 -19 5 -44 12 -55 16 -11 4
-29 10 -40 15 -11 4 -33 13 -50 21 -16 7 -55 30 -86 51 l-57 37 -72 80 -71 80
-45 20 -44 21 -47 0 -48 0 -35 -13 c-19 -7 -46 -20 -60 -29 -14 -10 -47 -48
-74 -85 l-48 -68 -44 -34 c-24 -18 -68 -45 -96 -60 -29 -15 -64 -31 -78 -35
-14 -4 -41 -12 -60 -17 -19 -5 -71 -16 -115 -24 l-80 -15 -90 1 -90 0 -85 14
c-47 7 -101 18 -120 23 -19 5 -44 13 -55 17 -11 4 -29 10 -40 15 -11 4 -42 18
-70 31 l-50 23 -82 83 c-46 45 -83 87 -83 93 0 6 -12 28 -26 49 l-26 39 -38
26 -39 26 -53 6 -53 6 -41 -11 -42 -11 -62 -50 -63 -50 -63 -30 c-35 -17 -91
-40 -126 -51 -35 -11 -94 -26 -133 -34 l-70 -15 -120 0 -120 1 -55 14 c-30 7
-70 18 -88 24 -18 5 -58 22 -90 37 l-57 28 -80 80 -81 81 -31 55 c-17 30 -45
69 -62 86 -17 18 -48 40 -69 50 l-37 17 -45 5 -45 4 -48 -21 -48 -21 -60 -58
c-33 -33 -72 -65 -87 -73 -15 -7 -38 -21 -52 -29 -14 -9 -52 -27 -85 -39 -33
-13 -69 -27 -80 -31 -11 -5 -31 -11 -45 -14 -14 -4 -63 -13 -110 -21 -47 -8
-110 -15 -140 -15 -30 0 -89 6 -130 14 -41 7 -101 23 -133 34 -33 12 -80 35
-106 52 -26 16 -65 48 -85 70 -21 23 -50 64 -65 93 -14 29 -32 70 -38 92 -7
22 -17 61 -22 87 -6 26 -11 80 -11 120 0 40 7 109 15 154 7 44 26 116 40 160
14 43 44 117 67 164 23 47 72 131 110 188 38 57 76 111 83 120 8 9 35 44 61
77 26 33 79 98 118 145 39 47 73 87 76 90 3 3 30 34 60 70 30 36 57 67 60 70
3 3 62 70 130 150 69 80 135 156 148 170 12 14 58 67 100 117 42 51 78 93 80
93z m1322 -660 c3 0 16 -7 28 -16 12 -8 22 -19 22 -25 l0 -9 -50 0 -50 0 0 9
c0 6 10 17 22 25 12 9 25 16 28 16z m52 -345 l97 -4 18 -9 c10 -5 38 -19 63
-31 25 -12 66 -37 93 -56 l47 -35 0 -14 0 -14 -22 -5 c-13 -2 -59 -13 -103
-22 l-80 -18 -150 0 -150 0 -80 18 c-44 9 -90 20 -102 22 -13 3 -23 9 -23 13
0 5 21 25 48 47 26 21 61 46 78 55 17 9 50 24 75 32 24 8 55 17 69 20 14 2 69
3 122 1z m-469 -368 c17 -2 59 -11 92 -20 33 -8 87 -20 121 -26 l60 -11 164 0
164 0 60 11 c34 6 88 18 121 26 33 9 75 18 93 20 l33 5 -3 -98 -3 -98 -35 -9
c-19 -4 -53 -12 -75 -18 -22 -5 -65 -14 -95 -20 -30 -6 -127 -13 -215 -16
l-160 -5 -70 11 c-38 7 -92 17 -120 23 -27 6 -61 14 -75 18 -14 4 -40 13 -57
20 l-33 12 0 90 0 90 33 -5z m130 -441 c17 -4 79 -14 137 -22 58 -7 143 -14
190 -14 47 1 132 7 190 15 57 7 106 13 107 12 1 -2 -1 -7 -5 -13 -4 -6 -27
-24 -52 -40 -25 -16 -56 -35 -70 -41 -14 -6 -41 -17 -60 -24 l-34 -13 -101 0
-100 1 -62 24 -62 24 -56 40 c-30 22 -55 44 -55 49 l0 9 33 -7z m7220 -277 c9
1 17 -3 17 -8 0 -5 -26 -35 -57 -68 l-58 -59 -65 -31 c-36 -17 -78 -36 -95
-41 -16 -6 -52 -16 -80 -24 l-50 -13 -140 1 -140 0 -55 13 c-30 7 -86 22 -125
33 -38 11 -77 22 -85 25 l-15 5 21 8 c11 4 52 11 90 14 38 4 94 11 124 16 30
5 89 14 130 20 41 6 104 15 140 21 36 6 90 15 120 20 30 6 73 14 95 19 22 5
67 14 100 20 33 7 71 16 85 20 14 5 33 9 43 9z m-2730 -143 c34 -5 112 -12
172 -16 61 -5 216 -14 345 -19 129 -6 286 -12 347 -14 62 -2 115 -6 118 -9 3
-3 -17 -26 -44 -50 l-50 -45 -54 -27 c-30 -14 -79 -34 -108 -44 l-54 -17 -150
1 -150 1 -55 16 c-30 9 -66 19 -80 23 -14 4 -59 25 -102 46 l-76 39 -60 52
c-34 29 -61 56 -61 61 l-1 9 63 -7z m1368 -308 c3 -2 55 -27 115 -57 60 -29
120 -58 134 -64 14 -5 34 -13 45 -17 11 -4 33 -11 49 -16 l29 -9 46 -61 c25
-34 68 -92 95 -130 27 -38 66 -91 86 -119 20 -27 90 -122 156 -210 66 -88 158
-209 204 -270 46 -60 97 -128 114 -150 17 -22 33 -42 36 -45 3 -3 34 -43 70
-90 35 -47 118 -157 184 -245 66 -88 123 -162 126 -165 3 -3 64 -84 136 -180
72 -96 162 -218 200 -270 39 -52 90 -124 114 -160 24 -36 49 -70 54 -76 6 -6
58 -82 115 -170 57 -87 120 -183 138 -212 19 -29 42 -68 52 -85 10 -18 37 -63
61 -101 23 -38 51 -85 63 -105 11 -20 31 -56 43 -80 13 -25 21 -48 18 -53 -3
-4 -14 -8 -24 -8 -11 0 -45 -7 -77 -16 -32 -9 -74 -20 -93 -24 -19 -4 -57 -13
-85 -20 -27 -6 -68 -15 -90 -20 -22 -4 -62 -13 -90 -18 -27 -6 -77 -15 -110
-22 -33 -6 -85 -15 -115 -21 -30 -6 -84 -14 -120 -20 -36 -5 -101 -14 -145
-19 -44 -6 -123 -15 -175 -21 -52 -5 -140 -14 -195 -19 -55 -5 -246 -14 -425
-21 l-325 -12 -320 12 c-176 7 -367 16 -425 21 -58 4 -152 13 -210 19 -58 6
-139 16 -180 21 -41 5 -113 14 -160 20 -47 6 -114 16 -150 21 -36 5 -92 13
-125 18 -33 6 -87 15 -120 21 -33 6 -78 13 -100 16 -22 3 -50 7 -62 10 l-23 4
-30 34 -31 33 -42 21 c-23 11 -57 26 -76 33 l-33 12 -87 0 -87 -1 -33 -17 -33
-16 -41 6 c-23 4 -55 11 -72 15 -16 5 -70 19 -120 30 -49 12 -101 25 -115 30
-14 4 -44 13 -67 19 -24 6 -62 16 -85 22 -24 6 -54 15 -68 19 -14 4 -45 13
-70 20 -25 7 -56 16 -70 20 -14 4 -45 13 -70 20 -25 7 -70 20 -100 30 -30 9
-89 28 -130 40 -41 13 -156 50 -255 82 -99 32 -189 63 -200 68 -11 5 -40 16
-65 24 -25 8 -65 22 -90 31 -25 9 -70 26 -100 37 -30 11 -65 24 -77 29 -13 5
-33 13 -45 18 -13 5 -95 37 -183 72 -88 34 -188 75 -223 91 -34 15 -65 28 -67
28 -2 0 -28 11 -57 24 -29 13 -75 34 -103 46 -27 12 -70 31 -95 42 -25 11 -70
31 -100 45 -30 14 -176 86 -325 159 -148 74 -306 153 -350 177 -44 24 -105 57
-135 74 -30 16 -77 43 -105 58 -27 15 -76 43 -108 61 -32 19 -60 34 -63 34 -3
0 -25 14 -49 30 -24 16 -46 30 -49 30 -2 0 -42 23 -88 52 -46 28 -92 56 -103
62 -12 6 -49 29 -84 51 -35 22 -193 125 -350 229 -157 104 -288 192 -291 196
-3 3 -27 22 -55 40 -27 19 -115 83 -194 143 -79 60 -186 143 -238 184 l-94 76
8 6 c5 3 19 20 33 37 14 17 36 46 50 64 14 18 43 56 65 84 22 28 73 94 112
147 l72 95 63 29 c35 15 74 36 88 45 14 10 34 20 46 24 l21 6 66 -65 c37 -35
94 -83 127 -105 33 -22 95 -58 137 -80 43 -21 101 -46 128 -55 28 -10 68 -22
90 -27 22 -5 74 -15 115 -23 l75 -15 147 0 146 0 54 11 c29 5 76 15 103 20 28
6 66 16 85 21 19 6 49 15 65 20 17 6 39 13 50 18 11 4 49 21 84 39 35 17 70
31 79 31 l14 0 64 -60 c35 -32 90 -76 121 -97 32 -22 90 -54 128 -72 39 -18
79 -37 90 -41 11 -5 29 -11 40 -15 11 -4 36 -12 55 -17 19 -5 53 -14 75 -19
22 -5 82 -16 134 -24 l94 -15 122 0 122 0 94 15 c52 8 114 19 139 24 25 5 81
22 125 36 44 15 100 36 125 48 25 12 68 35 95 52 28 16 52 32 55 35 3 3 22 17
42 33 20 15 39 27 42 27 3 0 33 -20 68 -44 35 -24 101 -62 148 -84 47 -22 114
-50 150 -61 36 -12 79 -25 95 -30 17 -5 59 -14 95 -20 36 -6 95 -15 131 -21
36 -5 110 -10 165 -10 54 0 135 5 179 10 44 6 103 15 130 21 28 5 70 15 95 20
25 6 59 15 75 21 17 5 39 14 50 18 11 4 38 16 60 25 22 9 63 28 90 42 28 14
82 47 120 74 39 26 98 76 133 110 l64 63 26 -17 c15 -10 59 -32 97 -51 39 -18
97 -42 130 -53 33 -11 78 -25 100 -31 22 -6 67 -16 100 -24 l60 -13 175 0 175
0 55 13 c30 7 73 18 95 24 22 5 49 14 60 18 11 4 31 12 45 18 14 5 39 16 55
23 17 8 53 27 80 44 28 16 52 32 55 35 3 3 26 21 52 40 26 19 73 63 105 98 32
34 61 61 64 60z m-7499 -868 c6 0 26 -11 44 -25 18 -14 38 -31 46 -38 7 -7 51
-42 98 -77 47 -36 87 -67 90 -70 3 -3 31 -24 63 -48 31 -23 81 -59 110 -80 28
-21 90 -65 137 -99 47 -33 181 -124 297 -201 117 -78 217 -142 223 -142 5 0
10 -4 10 -10 0 -5 5 -10 11 -10 5 0 36 -17 67 -39 31 -21 127 -80 212 -131 85
-51 171 -102 190 -113 19 -11 50 -28 68 -38 17 -11 49 -29 70 -40 20 -12 55
-32 77 -44 22 -12 63 -35 90 -50 28 -15 77 -43 110 -61 33 -18 209 -107 390
-198 182 -90 355 -175 385 -189 30 -14 75 -34 100 -45 25 -11 68 -30 95 -42
28 -12 74 -33 103 -46 29 -13 55 -24 57 -24 3 0 27 -10 53 -21 26 -12 61 -27
77 -34 17 -7 95 -39 175 -70 80 -31 154 -60 165 -65 11 -4 58 -22 105 -40 47
-18 94 -36 105 -40 11 -4 36 -13 55 -20 19 -7 44 -16 55 -21 11 -4 76 -26 145
-49 69 -23 134 -45 145 -50 11 -5 38 -14 60 -21 22 -6 49 -15 60 -19 11 -4 54
-18 95 -30 41 -13 100 -31 130 -40 30 -9 89 -27 130 -40 41 -12 86 -26 100
-30 14 -4 45 -13 70 -20 25 -7 56 -16 70 -20 14 -4 43 -12 65 -18 22 -6 58
-15 80 -20 22 -6 60 -16 85 -22 25 -7 54 -15 65 -19 11 -4 48 -14 83 -21 l62
-14 0 -11 0 -11 -55 -29 c-31 -16 -84 -52 -119 -81 -35 -29 -85 -78 -112 -109
-27 -31 -61 -77 -77 -103 -15 -26 -33 -61 -41 -77 -7 -17 -22 -57 -33 -90 -12
-33 -27 -82 -34 -110 l-13 -50 -1 -135 0 -135 14 -50 c7 -27 22 -77 33 -110
11 -33 28 -76 38 -95 9 -19 27 -52 39 -74 12 -21 36 -57 54 -80 18 -22 57 -65
87 -95 30 -29 80 -70 110 -90 30 -21 84 -51 120 -68 36 -16 79 -35 95 -40 17
-6 51 -17 78 -23 26 -7 47 -16 47 -20 0 -4 -15 -15 -32 -24 -18 -9 -55 -30
-83 -46 -27 -16 -77 -43 -110 -59 -33 -16 -78 -36 -100 -46 -22 -9 -49 -21
-60 -25 -11 -4 -36 -13 -55 -20 -19 -7 -44 -16 -55 -20 -11 -4 -40 -13 -65
-20 -25 -7 -56 -16 -70 -20 -14 -4 -47 -12 -75 -18 -27 -5 -75 -15 -105 -20
-30 -6 -89 -16 -130 -23 l-75 -12 -225 0 -225 0 -75 12 c-41 6 -104 16 -140
22 -36 5 -85 15 -110 20 -25 6 -62 14 -82 20 -21 5 -57 14 -80 20 -24 6 -56
16 -73 21 -16 6 -39 14 -50 18 -11 4 -36 13 -55 20 -19 7 -44 16 -55 20 -11 4
-38 16 -60 25 -22 9 -89 41 -148 71 -60 30 -159 88 -220 129 -62 41 -154 111
-206 155 l-94 81 -34 14 -35 15 -58 0 -58 0 -35 -15 -36 -15 -78 -67 c-43 -37
-87 -76 -98 -86 -11 -10 -63 -49 -115 -87 -52 -37 -115 -80 -140 -94 -25 -14
-94 -51 -155 -80 -60 -30 -146 -67 -190 -81 -44 -15 -96 -31 -115 -36 -19 -5
-71 -16 -115 -24 l-80 -15 -138 0 -138 0 -47 11 c-26 5 -65 15 -87 21 -22 6
-49 14 -60 18 -11 4 -42 18 -70 31 -27 13 -77 41 -110 63 -33 22 -90 69 -126
105 -36 36 -86 95 -111 131 -25 36 -70 114 -98 173 l-53 108 -44 39 -45 39
-44 7 -44 6 -44 -6 -43 -7 -41 -27 c-22 -15 -81 -55 -130 -89 -50 -34 -121
-78 -159 -97 -37 -19 -86 -42 -108 -51 -22 -9 -49 -21 -60 -25 -11 -4 -33 -12
-50 -18 -16 -5 -46 -14 -65 -19 -19 -6 -55 -15 -80 -21 -25 -6 -72 -16 -105
-23 l-60 -12 -156 1 -156 0 -59 11 c-32 7 -79 17 -104 22 -25 6 -72 20 -105
31 -33 11 -89 34 -125 51 -36 17 -92 48 -124 70 -32 22 -87 67 -121 101 -34
33 -79 88 -101 121 -22 33 -50 81 -62 106 -11 26 -31 77 -44 115 l-23 69 1
180 0 180 17 75 c9 41 21 91 26 110 6 19 14 51 19 70 6 19 19 62 30 95 11 33
30 85 42 115 12 30 33 79 47 110 13 30 43 93 66 140 23 47 63 123 90 170 27
47 59 101 70 120 11 19 25 44 31 55 6 12 29 49 51 84 22 35 97 150 167 255 70
105 161 238 203 296 41 58 81 112 88 120 6 8 41 56 77 105 35 50 127 173 204
275 77 102 167 219 200 261 34 42 94 119 133 170 40 52 125 162 190 244 64 83
130 168 147 190 17 22 37 46 44 53 6 7 17 22 22 33 6 10 16 19 22 19z m5747
-2480 c9 0 23 -6 32 -13 9 -7 21 -22 27 -34 7 -12 12 -24 12 -27 0 -3 -30 -6
-66 -6 l-65 0 7 23 c3 12 13 30 22 40 8 9 22 17 31 17z m4404 -142 l19 -3 24
-60 c14 -33 37 -94 51 -135 14 -41 29 -88 34 -105 4 -16 13 -48 18 -70 6 -22
17 -71 25 -110 8 -38 19 -114 26 -167 l11 -97 -11 -83 c-6 -46 -16 -101 -22
-123 -6 -22 -20 -65 -31 -95 -12 -30 -34 -80 -50 -110 -16 -30 -47 -79 -69
-107 -22 -29 -69 -80 -104 -113 -35 -32 -90 -76 -121 -98 -32 -21 -87 -52
-123 -69 -36 -16 -78 -35 -95 -40 -16 -6 -48 -16 -70 -21 -22 -6 -62 -16 -90
-22 -27 -5 -95 -14 -150 -19 l-100 -10 -110 14 c-60 7 -137 21 -170 29 -33 9
-73 21 -90 27 -16 6 -46 18 -65 26 -19 8 -66 31 -105 50 -38 19 -102 57 -141
84 -39 27 -100 74 -135 105 -35 30 -79 62 -97 71 l-32 16 -65 0 -64 0 -46 -27
-45 -27 -25 -37 c-13 -20 -31 -57 -40 -82 -9 -25 -20 -54 -25 -65 -4 -11 -26
-58 -49 -104 l-43 -84 -55 -69 c-30 -37 -58 -68 -62 -68 -3 0 -20 -13 -38 -30
-17 -16 -47 -38 -66 -49 -19 -10 -43 -24 -53 -29 -11 -5 -30 -14 -44 -20 -14
-5 -38 -15 -55 -20 -16 -6 -52 -16 -80 -24 l-50 -13 -150 0 -150 0 -60 14
c-33 7 -91 22 -130 33 -38 11 -79 24 -90 28 -11 4 -47 18 -80 31 -33 13 -91
40 -130 59 -38 20 -87 47 -109 59 -21 12 -73 45 -115 73 -42 28 -78 54 -81 57
-3 3 -31 26 -62 50 -32 24 -58 46 -58 48 0 3 12 15 28 26 15 12 49 42 76 67
27 25 72 77 101 115 28 39 66 99 83 135 17 36 39 92 50 125 10 33 24 81 30
108 l12 47 0 115 0 115 -11 47 c-7 27 -20 77 -31 113 -10 36 -29 85 -41 110
-11 25 -39 72 -61 105 -22 33 -48 69 -58 79 -10 11 -18 24 -18 28 l0 9 33 -5
c17 -3 75 -10 127 -16 52 -6 131 -15 175 -20 44 -5 130 -14 190 -20 61 -5 169
-14 240 -20 72 -5 258 -15 415 -21 l285 -11 315 11 c173 6 365 16 425 21 61 6
160 15 220 20 61 6 146 15 190 21 44 6 112 15 150 20 39 6 97 15 130 20 33 6
87 15 120 20 33 6 78 14 100 19 22 4 65 13 95 20 30 6 75 16 100 21 25 6 108
26 185 45 77 20 155 39 173 44 19 5 36 11 40 15 3 3 15 5 25 3z m-4398 -220
l70 1 55 -13 c30 -8 64 -17 75 -21 11 -4 44 -18 73 -32 30 -14 80 -47 113 -75
32 -27 59 -54 59 -61 l0 -13 -62 -13 c-35 -7 -85 -18 -113 -24 l-50 -12 -205
0 -205 0 -65 13 c-36 7 -85 18 -110 24 -25 5 -52 12 -60 15 l-15 5 60 54 60
54 60 29 c33 16 69 33 80 37 11 4 40 13 65 20 l45 12 70 0z m-512 -433 c12 -4
36 -11 52 -15 17 -5 55 -13 85 -19 30 -6 84 -15 120 -20 36 -6 119 -12 185
-15 l120 -6 115 10 c63 5 140 14 170 20 30 5 73 14 95 19 22 5 60 15 84 21
l44 11 11 -11 10 -10 4 -94 4 -93 -10 -19 -10 -19 -49 -13 c-26 -7 -61 -17
-78 -21 -16 -5 -59 -14 -95 -20 -36 -6 -100 -15 -143 -21 -43 -5 -120 -10
-172 -10 -52 0 -129 5 -172 10 -43 6 -109 16 -148 22 -38 6 -95 17 -125 25
-30 8 -69 18 -86 23 -18 4 -37 10 -43 14 l-11 7 0 89 0 89 10 26 10 26 23 -6z
m134 -522 c21 -3 54 -9 73 -14 l35 -9 205 -6 205 -6 100 11 c55 6 121 15 148
20 l47 8 0 -8 c0 -4 -23 -27 -50 -52 l-50 -45 -63 -30 c-34 -17 -71 -33 -82
-37 -11 -4 -49 -13 -85 -21 -36 -8 -79 -14 -97 -14 -17 0 -62 7 -98 15 -37 9
-85 23 -108 32 -23 9 -62 30 -87 46 -25 17 -61 44 -80 60 -19 17 -38 36 -43
43 l-7 13 37 -6z m-2369 -965 c4 -1 36 -17 72 -34 36 -18 83 -39 105 -49 22
-9 49 -20 60 -25 11 -4 31 -12 45 -18 14 -6 79 -29 145 -50 66 -22 158 -49
205 -60 47 -12 108 -25 135 -31 28 -5 82 -14 120 -20 39 -6 111 -15 161 -21
l90 -10 225 0 224 0 80 10 c44 6 112 16 150 21 39 6 88 14 110 19 22 5 81 19
130 31 50 12 122 32 160 44 39 13 105 37 148 54 43 17 80 31 84 31 l6 0 -7
-292 c-4 -161 -11 -373 -14 -470 l-7 -177 -21 -28 c-11 -15 -34 -35 -50 -43
l-29 -15 -585 3 c-322 1 -829 5 -1128 8 l-543 6 -28 29 -28 28 -12 45 -11 45
0 486 0 487 8 -4z"/>
<path d="M11062 14639 l-77 0 -25 -11 c-14 -6 -44 -20 -68 -31 l-43 -20 -39
-43 c-22 -24 -51 -66 -64 -95 l-25 -51 -7 -75 -7 -75 -26 -11 c-14 -6 -60 -34
-101 -61 l-75 -49 -71 -71 c-38 -40 -88 -98 -110 -131 -22 -33 -49 -80 -61
-105 -12 -25 -30 -72 -41 -105 -11 -33 -26 -82 -33 -110 l-14 -50 1 -170 1
-170 32 -94 c18 -52 42 -113 53 -135 11 -23 38 -66 58 -96 21 -30 62 -80 91
-110 30 -31 68 -67 84 -81 17 -13 50 -38 75 -55 25 -17 71 -43 102 -58 32 -15
72 -32 90 -37 18 -6 49 -15 68 -21 19 -5 80 -16 135 -23 l100 -13 80 9 c44 5
100 14 125 20 25 6 59 15 75 21 17 5 39 13 50 18 11 4 43 18 70 31 28 13 77
41 110 63 33 22 92 72 130 111 39 38 89 97 111 130 22 33 50 83 63 110 13 28
27 59 31 70 5 11 12 34 18 50 5 17 15 48 20 70 6 22 16 80 23 128 l11 89 -12
96 -13 97 -29 89 c-16 49 -44 118 -62 155 -19 36 -55 94 -80 128 -25 33 -73
86 -107 117 -33 31 -86 73 -117 94 -31 21 -73 46 -93 55 l-37 17 -7 57 c-3 32
-12 74 -18 93 -6 19 -28 60 -48 91 l-37 55 -39 25 c-21 13 -49 29 -63 35 -14
7 -38 17 -53 23 l-28 11 -77 -1z m3 -279 l34 0 15 -22 c8 -12 13 -25 10 -30
l-5 -8 -55 0 -54 0 0 11 c0 6 5 19 10 30 l11 19 34 0z m-5 -341 c25 1 74 -5
110 -13 36 -8 74 -17 85 -21 11 -4 40 -16 65 -28 25 -12 71 -38 103 -60 31
-21 57 -40 57 -43 0 -2 -12 -9 -27 -16 -16 -6 -46 -14 -68 -19 -22 -5 -76 -15
-120 -24 l-80 -15 -120 0 -120 0 -75 14 c-41 8 -102 22 -135 31 -33 9 -64 20
-69 25 l-8 8 74 50 74 50 49 17 c28 10 75 23 105 30 30 7 75 13 100 14z m-510
-376 c14 -3 30 -9 35 -13 6 -4 21 -10 35 -14 14 -4 41 -12 60 -17 19 -5 69
-17 110 -26 l75 -17 210 0 210 -1 45 12 c25 6 72 17 105 23 33 7 85 21 116 31
30 11 60 19 67 19 l11 0 10 -37 10 -37 -10 -12 c-5 -6 -22 -14 -37 -17 -15 -3
-45 -11 -67 -17 -22 -6 -58 -15 -80 -21 -22 -5 -76 -15 -120 -24 l-80 -15
-185 0 -185 0 -80 15 c-44 8 -96 19 -115 24 -19 5 -57 16 -85 25 -27 10 -62
22 -77 28 l-28 10 0 17 c0 9 6 29 13 44 l12 26 25 -6z m-47 -326 c12 -3 49
-13 82 -22 33 -9 76 -20 95 -25 19 -5 67 -14 105 -21 l70 -13 220 0 220 -1 65
13 c36 7 90 18 120 24 30 5 69 15 85 20 17 6 40 15 52 20 l22 11 15 -6 14 -6
-5 -23 c-2 -13 -9 -33 -15 -45 l-10 -21 -27 -5 c-14 -3 -69 -16 -121 -29 -52
-14 -126 -31 -165 -38 l-70 -14 -200 -1 -200 0 -65 13 c-36 7 -83 18 -105 23
-22 6 -71 20 -110 32 l-70 21 -12 16 -12 15 -1 34 0 33 23 -5z m955 -368 l13
1 -6 -10 c-4 -6 -25 -22 -46 -36 -22 -14 -55 -33 -72 -43 -18 -9 -52 -23 -77
-30 -25 -7 -55 -17 -68 -22 l-23 -9 -111 0 -112 0 -35 11 c-20 7 -61 21 -91
32 -30 12 -76 35 -102 51 -26 17 -48 35 -48 40 l0 8 38 -5 c20 -3 105 -12 187
-21 l150 -16 130 11 c72 6 159 17 195 24 36 8 71 14 78 14z"/>
<path d="M12212 10619 l-77 0 -25 -11 c-14 -6 -41 -18 -60 -26 l-34 -15 -41
-43 -41 -42 -27 -55 -27 -55 -4 -63 c-3 -35 -5 -67 -6 -71 0 -4 -17 -15 -37
-24 -21 -10 -65 -36 -98 -58 -33 -22 -86 -65 -119 -95 l-59 -56 -56 -85 c-32
-47 -64 -101 -73 -120 -9 -19 -22 -49 -29 -65 -6 -17 -16 -46 -21 -65 -5 -19
-15 -64 -23 -100 l-15 -65 0 -99 0 -100 11 -60 c7 -34 21 -88 32 -121 10 -33
33 -87 49 -119 16 -33 44 -80 61 -105 17 -25 60 -76 96 -112 36 -36 86 -79
111 -96 25 -16 72 -44 105 -60 33 -17 71 -35 85 -41 14 -5 39 -15 55 -20 17
-6 53 -16 80 -24 l50 -13 150 1 150 1 55 15 c30 9 69 21 85 28 17 6 55 23 85
38 30 14 82 44 115 66 33 22 82 60 109 85 26 25 67 71 91 101 23 30 60 89 81
130 22 41 48 100 58 130 10 30 24 84 32 120 l14 65 0 100 0 100 -14 65 c-8 36
-21 88 -31 115 -9 28 -32 83 -52 123 -19 40 -55 100 -80 133 -25 33 -66 80
-92 106 -25 26 -73 66 -105 90 -33 25 -79 53 -102 64 -24 10 -45 23 -48 28 -3
4 -9 35 -12 67 l-7 59 -24 54 -25 53 -38 42 -39 43 -43 20 c-24 11 -56 26 -71
32 l-28 11 -77 -1z m-8 -269 c6 0 21 -3 32 -6 l22 -6 10 -23 11 -24 -7 -4 c-4
-2 -32 -3 -62 -3 l-55 1 3 20 c2 11 11 26 20 33 9 6 21 12 26 12z m10 -351
l99 1 41 -11 c22 -6 50 -15 61 -19 11 -4 42 -18 69 -31 26 -13 71 -44 99 -69
28 -25 72 -71 99 -103 26 -32 48 -64 48 -71 l0 -14 -27 -9 c-16 -6 -44 -15
-63 -21 -19 -5 -57 -15 -85 -21 -27 -6 -72 -15 -99 -21 l-49 -11 -186 0 -186
1 -75 14 c-41 9 -93 19 -115 24 -22 5 -51 14 -65 20 -14 5 -38 15 -53 21 l-28
11 40 59 40 59 52 45 c28 25 74 58 102 73 28 15 80 38 116 50 l66 23 99 0z
m-565 -539 c11 0 22 -4 25 -9 3 -5 18 -11 33 -14 16 -3 57 -12 93 -21 36 -9
85 -20 110 -26 25 -5 105 -14 178 -21 l133 -12 127 12 c70 7 159 19 197 27 39
8 86 18 105 23 19 5 55 16 80 25 25 8 51 16 58 16 l12 0 0 -80 0 -79 -17 -9
c-10 -5 -45 -18 -78 -29 -33 -11 -78 -25 -100 -31 -22 -6 -69 -17 -105 -24
l-65 -13 -200 1 -200 0 -70 13 c-38 7 -104 22 -145 32 -41 11 -98 29 -127 40
l-51 21 -6 21 c-3 12 -6 48 -6 80 l0 57 19 0z m174 -454 c12 -3 49 -9 82 -15
33 -6 120 -15 194 -21 l135 -11 115 11 c64 6 139 14 166 19 28 5 68 13 90 16
l40 7 -25 -27 c-14 -15 -50 -44 -80 -64 -30 -20 -66 -42 -80 -48 -14 -6 -34
-14 -45 -18 -11 -4 -45 -13 -75 -21 l-55 -13 -62 -1 -62 0 -53 14 c-29 8 -75
22 -103 31 -27 10 -63 27 -80 38 -16 11 -51 36 -77 56 -27 19 -48 39 -48 43
l0 8 23 -4z"/>
<path d="M4950 8506 l-85 3 -30 -8 c-16 -4 -47 -16 -67 -25 -21 -10 -57 -35
-81 -57 l-44 -38 -29 -58 -28 -58 -10 -75 -11 -74 -55 -29 c-30 -16 -79 -47
-109 -70 -30 -23 -79 -66 -108 -96 -30 -29 -75 -85 -101 -125 -26 -39 -58 -93
-71 -121 -13 -27 -27 -59 -32 -70 -5 -11 -18 -56 -30 -100 l-22 -80 0 -150 0
-150 16 -55 c8 -30 23 -77 32 -105 9 -27 30 -77 47 -110 16 -33 48 -85 70
-115 22 -30 73 -86 113 -125 l73 -70 69 -41 c37 -22 100 -53 138 -69 39 -15
88 -32 110 -37 22 -5 72 -14 110 -20 l70 -10 105 6 c58 3 119 9 135 14 17 6
50 15 75 23 25 7 74 26 110 43 36 16 97 51 135 77 l70 46 71 75 c39 41 84 94
101 119 16 24 48 82 70 129 l41 85 21 87 21 87 0 127 0 127 -11 41 c-6 22 -20
73 -32 111 -12 39 -38 103 -59 144 -20 40 -50 90 -65 110 -15 20 -54 65 -88
100 l-60 64 -85 56 c-47 31 -100 63 -117 70 l-31 13 -7 66 -7 67 -30 63 -30
62 -44 39 c-25 22 -66 49 -92 61 l-47 23 -85 3z m-20 -266 c3 0 16 -7 28 -16
l23 -16 -3 -20 -3 -21 -55 0 -54 0 -3 9 c-1 5 3 16 10 25 7 8 21 21 32 27 11
6 22 12 25 12z m48 -376 c45 -3 97 -10 115 -16 17 -5 52 -19 77 -30 24 -11 70
-37 101 -59 l57 -38 46 -53 47 -53 35 -72 c20 -40 42 -99 50 -130 l13 -58 0
-65 0 -65 -13 -55 c-8 -30 -17 -64 -21 -75 -4 -11 -21 -49 -38 -85 l-32 -65
-70 -72 -70 -73 -73 -36 c-40 -20 -90 -41 -110 -47 -20 -6 -84 -12 -142 -14
l-104 -4 -46 12 c-25 7 -73 25 -108 40 -35 16 -82 43 -105 61 -23 18 -61 53
-84 78 -24 25 -56 70 -72 100 -16 30 -39 84 -50 119 l-21 64 0 108 0 107 24
72 24 71 42 65 c23 35 65 87 93 114 l51 50 75 38 c42 21 90 42 106 46 17 4 50
11 75 16 l45 8 83 -4z"/>
</g>
</svg>
