<?xml version="1.0" standalone="no"?>
<!DOCTYPE svg PUBLIC "-//W3C//DTD SVG 20010904//EN"
 "http://www.w3.org/TR/2001/REC-SVG-20010904/DTD/svg10.dtd">
<svg version="1.0" xmlns="http://www.w3.org/2000/svg"
 width="1422.009963pt" height="1692.022891pt" viewBox="0 0 1422.009963 1692.022891"
 preserveAspectRatio="xMidYMid meet">
<metadata>
Created by potrace 1.16, written by Peter Selinger 2001-2019
</metadata>
<g transform="translate(-199.971777,2044.000000) scale(0.100000,-0.100000)"
fill="#000000" stroke="none">
<path d="M8941 20439 l-76 -1 -30 -10 c-16 -6 -50 -20 -75 -32 l-45 -21 -55
-55 -55 -56 -50 -85 c-27 -46 -58 -100 -68 -119 -11 -19 -27 -48 -37 -65 -10
-16 -29 -50 -42 -75 -14 -25 -38 -67 -53 -95 -15 -27 -38 -68 -50 -91 -13 -22
-29 -51 -36 -65 -8 -13 -20 -32 -28 -41 l-14 -18 -36 -5 c-20 -4 -58 -11 -86
-16 -27 -6 -68 -14 -90 -19 -22 -4 -65 -13 -95 -18 -30 -6 -82 -15 -115 -21
-33 -6 -96 -18 -140 -27 -44 -9 -96 -20 -115 -24 -19 -4 -57 -15 -85 -25 -27
-10 -69 -30 -92 -46 -22 -16 -57 -47 -75 -69 -19 -22 -44 -59 -56 -82 -11 -24
-25 -58 -31 -77 l-11 -34 0 -81 0 -81 16 -45 c8 -24 23 -58 32 -75 9 -16 41
-59 71 -95 29 -36 141 -156 248 -267 107 -110 201 -211 210 -222 l14 -21 -11
-88 c-7 -48 -16 -112 -21 -142 -4 -30 -13 -84 -19 -120 -6 -36 -16 -94 -22
-130 l-11 -65 -3 -147 -2 -147 -31 -45 c-17 -24 -31 -47 -31 -51 0 -3 -18 -33
-40 -65 -22 -32 -40 -63 -40 -68 0 -5 -6 -15 -14 -21 l-13 -11 -34 17 -34 17
-50 4 -51 4 -46 -22 c-26 -12 -60 -34 -77 -50 -16 -16 -36 -44 -44 -62 -9 -18
-18 -54 -22 -80 l-6 -48 -13 0 c-8 0 -26 -7 -42 -15 l-28 -14 -23 -38 -23 -38
0 -117 0 -117 -29 -20 c-16 -12 -32 -21 -35 -21 -3 0 -16 -8 -28 -17 -13 -10
-45 -40 -73 -68 -27 -27 -59 -62 -70 -76 -11 -14 -27 -36 -35 -50 -8 -13 -26
-49 -41 -79 -15 -30 -37 -84 -48 -119 -12 -35 -21 -78 -21 -94 l0 -30 -87 -91
c-49 -50 -92 -93 -96 -97 -4 -3 -65 -62 -135 -130 -70 -69 -165 -159 -212
-200 -47 -40 -87 -76 -90 -79 -3 -3 -30 -25 -60 -50 -30 -25 -57 -47 -60 -50
-3 -3 -25 -21 -50 -40 -25 -19 -47 -37 -50 -40 -3 -3 -48 -37 -100 -76 -52
-39 -136 -99 -187 -132 -50 -34 -109 -71 -130 -83 -21 -12 -54 -31 -73 -42
-19 -11 -60 -33 -90 -50 -30 -17 -68 -39 -85 -50 -16 -11 -57 -48 -91 -81 -33
-34 -70 -74 -81 -91 -11 -16 -34 -57 -51 -90 -17 -33 -37 -81 -46 -107 -9 -26
-23 -80 -31 -120 l-15 -73 0 -107 0 -106 11 -54 c6 -29 15 -71 21 -93 6 -22
24 -76 41 -120 17 -44 44 -102 59 -129 16 -27 47 -76 70 -110 l41 -61 86 -85
c47 -47 114 -105 149 -128 34 -24 62 -47 62 -53 0 -6 -28 -45 -62 -87 -35 -42
-67 -82 -73 -88 -5 -7 -37 -43 -70 -82 -33 -39 -145 -155 -250 -259 -104 -103
-213 -208 -240 -233 -28 -25 -82 -73 -120 -106 -39 -34 -86 -74 -105 -90 -19
-16 -37 -31 -40 -34 -3 -4 -97 -80 -210 -170 -113 -91 -218 -176 -235 -190
-16 -14 -52 -45 -79 -70 -28 -25 -86 -81 -130 -125 -43 -44 -106 -116 -140
-160 -34 -44 -81 -111 -103 -150 -23 -38 -55 -99 -72 -135 -16 -36 -38 -92
-49 -125 -11 -33 -25 -82 -31 -110 -6 -27 -15 -71 -21 -97 l-10 -47 0 -143 0
-143 15 -80 c8 -44 20 -98 26 -120 6 -22 13 -52 16 -68 3 -15 9 -30 14 -33 5
-3 9 -12 9 -21 0 -8 19 -54 42 -101 22 -48 68 -127 101 -177 l60 -90 96 -96
96 -96 105 -70 c58 -38 128 -80 157 -94 29 -13 52 -28 53 -32 0 -5 -21 -35
-47 -67 -27 -32 -129 -139 -228 -237 -99 -98 -223 -217 -275 -263 -52 -47 -97
-87 -100 -90 -3 -3 -88 -77 -190 -164 -102 -87 -196 -168 -210 -180 -14 -11
-55 -46 -90 -76 -36 -30 -67 -57 -70 -60 -3 -3 -39 -34 -80 -70 -41 -35 -124
-109 -185 -165 -60 -55 -161 -152 -224 -215 -62 -63 -139 -146 -170 -185 -32
-38 -71 -90 -88 -115 -16 -25 -44 -72 -60 -105 -17 -33 -35 -71 -41 -85 -5
-14 -14 -38 -20 -55 -5 -16 -15 -48 -21 -70 -6 -22 -15 -76 -21 -119 l-10 -79
10 -86 c6 -47 15 -104 21 -126 6 -22 19 -69 31 -105 11 -36 43 -112 70 -170
28 -58 73 -139 101 -180 28 -41 68 -97 90 -125 22 -27 75 -84 116 -125 42 -42
108 -101 146 -131 39 -30 97 -74 131 -96 33 -23 80 -53 105 -67 24 -14 82 -44
129 -67 47 -23 119 -55 160 -71 41 -17 125 -46 185 -65 61 -18 126 -38 145
-43 19 -5 56 -14 83 -19 26 -6 66 -15 90 -20 23 -5 69 -14 102 -20 33 -6 96
-15 140 -20 44 -6 116 -15 160 -21 l80 -11 250 -5 250 -6 165 11 c91 7 201 16
245 21 44 5 109 14 145 19 36 6 94 15 130 21 36 5 85 14 110 19 25 5 70 14
100 20 30 6 78 16 105 22 28 6 66 15 85 19 19 5 71 18 115 30 44 12 94 25 110
30 17 5 46 13 65 19 19 5 51 15 70 21 19 6 51 16 70 21 19 6 49 14 65 19 17 4
56 15 88 24 32 9 67 16 78 16 l20 0 100 -73 c55 -39 137 -98 182 -130 45 -32
115 -80 155 -108 39 -27 125 -81 190 -119 64 -37 126 -75 136 -82 l19 -14 -12
-280 c-7 -153 -16 -345 -22 -427 -5 -81 -9 -226 -9 -322 l0 -174 15 -56 c8
-31 27 -82 42 -113 l27 -57 61 -60 60 -61 87 -42 c47 -23 93 -42 101 -42 9 0
18 -4 21 -9 3 -5 18 -11 33 -14 16 -3 57 -12 93 -21 36 -10 83 -21 105 -26 22
-5 67 -13 100 -19 33 -5 94 -15 135 -20 41 -6 118 -15 170 -21 52 -5 154 -14
225 -20 l130 -10 410 0 410 0 125 10 c69 6 175 15 235 21 61 5 135 14 165 19
30 5 89 14 130 21 41 6 109 20 150 31 41 11 95 26 120 34 25 8 73 29 107 46
l63 31 54 48 54 48 31 49 c17 27 43 80 57 118 l27 69 0 160 c0 88 -5 234 -11
325 -7 91 -17 244 -22 340 -6 96 -10 240 -10 320 l1 145 62 40 c34 22 118 82
187 134 69 51 137 103 151 115 14 11 39 31 55 43 16 12 49 36 74 55 25 19 72
52 105 74 33 22 87 54 120 71 33 17 83 39 110 48 28 9 91 23 140 31 l90 15 65
-11 c36 -6 83 -15 105 -20 22 -5 69 -16 105 -25 36 -9 81 -21 100 -25 19 -5
71 -18 115 -30 44 -12 97 -26 118 -31 20 -5 55 -13 77 -19 22 -5 59 -15 83
-20 23 -6 58 -15 77 -19 19 -5 60 -14 90 -21 30 -7 73 -16 95 -20 22 -5 67
-13 100 -20 33 -6 87 -16 120 -21 33 -6 92 -15 130 -20 39 -5 104 -14 145 -19
41 -5 161 -14 265 -20 l190 -12 225 6 c124 4 252 11 285 15 33 5 98 14 145 21
47 6 103 15 125 20 22 4 67 14 100 21 33 6 85 18 115 26 30 8 70 19 88 24 17
5 47 13 65 18 17 5 59 18 92 29 33 11 80 28 105 37 25 9 54 20 65 25 11 4 36
15 55 23 19 8 58 25 85 37 28 12 91 42 140 67 50 25 102 54 117 64 14 11 29
19 32 19 4 0 42 23 84 52 42 28 79 54 82 57 3 3 23 20 45 36 22 16 75 63 117
103 43 41 96 100 120 131 24 31 46 58 49 61 4 3 19 25 33 50 15 25 42 77 61
115 18 39 42 97 53 130 11 33 25 83 31 110 6 28 15 77 21 109 5 33 10 102 10
155 l0 96 -15 80 c-8 44 -19 96 -24 115 -4 19 -16 55 -26 80 -9 25 -32 77 -51
115 -19 39 -46 90 -60 114 -14 24 -53 80 -87 125 -33 45 -106 126 -162 181
-55 55 -134 127 -175 161 -41 33 -95 75 -120 92 -25 18 -110 76 -190 129 -80
53 -230 152 -335 221 -104 69 -226 152 -270 186 -44 34 -82 63 -85 66 -3 3
-21 17 -42 32 -20 15 -42 33 -50 40 -7 7 -47 42 -88 77 -41 35 -130 120 -197
189 l-123 126 0 13 0 13 15 0 c8 0 23 4 33 10 9 5 51 25 92 45 41 19 95 47
120 61 25 14 70 44 100 67 30 22 81 64 113 91 32 28 82 80 111 116 29 36 70
92 92 125 22 33 55 92 73 130 18 39 37 79 41 90 4 11 12 34 18 50 5 17 14 48
20 70 6 22 15 60 21 85 6 25 15 91 22 148 l11 102 -11 103 c-7 56 -17 125 -23
152 -6 28 -24 93 -40 145 -16 52 -47 130 -68 172 -21 43 -62 112 -91 155 l-53
78 -95 96 -96 96 -82 57 -83 58 0 14 c0 8 -12 32 -26 54 l-27 40 -36 23 c-20
12 -52 28 -71 34 -19 7 -53 13 -75 13 -22 0 -46 -4 -54 -9 l-14 -9 -141 72
c-78 40 -179 94 -226 121 -47 27 -104 61 -127 77 -23 15 -44 28 -48 28 -3 0
-41 23 -83 52 -42 29 -97 67 -122 86 -25 18 -58 43 -74 55 -16 12 -57 44 -90
70 -34 27 -95 79 -136 115 -41 36 -120 111 -176 166 -55 56 -132 137 -171 181
-39 44 -92 106 -117 137 -25 31 -46 61 -46 67 0 5 9 12 20 16 11 3 55 31 97
62 43 30 111 85 151 121 40 35 102 101 137 146 36 44 79 106 97 136 19 30 46
80 61 111 15 32 34 79 41 105 8 27 19 84 26 126 l13 76 -12 69 c-7 37 -17 82
-23 98 -5 17 -24 59 -41 95 l-31 65 -81 81 -80 81 -155 103 c-85 57 -173 117
-195 134 -22 17 -42 33 -45 36 -3 3 -25 21 -50 40 -25 19 -58 46 -74 60 -17
14 -95 84 -175 156 -80 72 -193 180 -251 240 -58 60 -132 138 -165 174 -33 36
-89 99 -125 140 -36 41 -67 77 -70 80 -3 3 -25 30 -50 60 -25 30 -47 57 -50
60 -3 3 -21 25 -40 50 -19 25 -40 52 -47 60 -6 8 -40 51 -75 95 -35 44 -75 96
-88 115 -13 19 -27 37 -30 40 -3 3 -17 21 -30 40 -13 19 -27 37 -30 40 -3 3
-17 21 -30 40 -14 19 -30 42 -37 50 -7 8 -45 60 -86 115 -40 55 -120 169 -176
254 -57 85 -109 168 -117 186 -7 18 -28 52 -47 77 -18 24 -48 71 -66 103 -18
33 -50 83 -71 110 -21 28 -71 104 -111 170 -40 66 -81 136 -92 155 -11 19 -29
51 -40 70 -11 19 -36 64 -55 99 l-34 63 -9 72 c-4 39 -13 107 -19 151 -6 44
-16 107 -21 140 -5 33 -12 88 -15 122 l-7 62 130 133 c71 73 168 174 215 223
47 50 106 114 131 143 25 29 60 81 78 115 l33 62 1 105 0 105 -14 35 c-7 19
-22 54 -34 78 l-21 44 -51 46 c-28 26 -71 57 -96 68 -24 12 -57 26 -74 32 -16
5 -52 14 -80 20 -27 6 -79 15 -115 22 -36 6 -87 15 -115 20 -27 5 -81 14 -120
20 -38 6 -86 15 -105 20 -19 4 -66 13 -105 20 -38 6 -81 17 -94 23 l-25 12
-26 45 c-15 25 -46 81 -70 125 -24 44 -52 96 -63 115 -11 19 -47 87 -80 150
-33 63 -82 147 -108 186 l-48 72 -37 30 c-20 16 -55 39 -77 50 -23 11 -57 25
-76 31 l-34 11 -76 -1z m11 -310 l28 1 29 -27 29 -28 50 -95 c27 -52 60 -115
74 -140 14 -25 43 -76 63 -115 21 -38 55 -103 77 -144 22 -40 49 -91 61 -112
12 -21 36 -53 53 -71 17 -19 51 -43 75 -55 24 -11 62 -26 84 -31 22 -6 63 -16
90 -21 28 -6 75 -15 105 -20 30 -6 78 -15 105 -20 28 -5 76 -14 108 -20 31 -6
81 -15 110 -21 28 -5 81 -14 117 -20 36 -6 75 -13 87 -16 12 -2 35 -16 52 -30
l31 -26 0 -45 0 -45 -26 -32 c-14 -17 -124 -132 -243 -256 -120 -124 -234
-243 -253 -265 -19 -22 -45 -60 -58 -84 l-22 -44 6 -96 c3 -53 10 -123 15
-156 6 -33 15 -91 21 -130 6 -38 15 -97 20 -130 5 -33 14 -91 20 -130 6 -38
14 -94 17 -123 l6 -53 -13 -23 -12 -23 -40 -23 -39 -22 -32 12 c-18 7 -66 28
-107 47 -41 20 -138 66 -215 103 -77 37 -169 81 -205 98 -36 16 -83 37 -105
47 -22 9 -49 21 -60 25 -11 5 -39 13 -63 18 l-43 10 -52 -12 c-29 -7 -92 -32
-142 -55 -49 -24 -124 -59 -165 -78 -41 -20 -106 -50 -145 -68 -38 -18 -113
-53 -165 -78 -52 -24 -112 -50 -132 -58 l-38 -13 -34 17 -35 16 -17 26 -17 26
1 37 c0 20 6 71 12 112 6 41 15 102 20 135 5 33 14 92 20 130 6 39 15 97 21
130 5 33 12 111 15 173 l7 113 -24 45 c-13 25 -41 67 -64 92 -22 26 -85 94
-140 152 -56 58 -130 137 -166 175 -36 39 -85 90 -108 115 -24 25 -54 62 -68
82 l-26 38 6 36 6 36 16 18 16 18 42 10 c23 6 68 15 100 21 31 6 81 15 110 20
28 6 78 15 110 20 31 6 83 16 115 22 31 6 75 14 97 19 22 5 67 14 100 20 33 7
76 17 95 22 19 5 50 17 69 25 18 8 45 27 60 42 15 14 36 40 48 56 11 17 37 62
58 100 21 39 51 95 68 125 16 30 41 75 55 100 14 25 39 70 55 100 17 30 48 84
69 119 21 34 38 65 38 67 0 3 10 19 23 36 12 16 31 34 42 38 11 5 32 9 47 9z
m8 -2664 c13 -4 67 -27 120 -52 52 -25 133 -63 180 -85 47 -22 121 -57 165
-78 44 -21 96 -45 115 -53 19 -9 64 -25 99 -36 l64 -21 66 0 65 0 67 21 66 21
53 40 52 39 14 -18 c7 -10 14 -24 14 -30 0 -7 4 -13 9 -13 5 0 13 -9 16 -20
l7 -21 -14 -22 c-8 -12 -19 -40 -26 -62 -6 -22 -13 -51 -14 -65 l-3 -25 -23
-3 -23 -4 -33 -33 -33 -33 -7 -46 c-4 -25 -6 -84 -5 -131 l2 -85 -13 -15 c-7
-8 -17 -15 -22 -15 -6 0 -29 -14 -52 -32 -22 -17 -67 -59 -99 -92 l-59 -61
-32 -55 c-17 -30 -37 -67 -44 -82 -6 -16 -16 -38 -21 -50 -5 -13 -13 -41 -19
-63 -6 -22 -15 -59 -21 -81 l-11 -41 0 -98 0 -98 11 -41 c6 -22 16 -59 22 -81
6 -22 20 -60 31 -85 11 -25 41 -77 67 -115 25 -39 64 -87 85 -108 22 -22 71
-60 109 -86 39 -26 90 -56 115 -68 25 -12 54 -24 65 -28 11 -4 45 -14 75 -22
l55 -16 120 0 120 0 55 16 c30 8 68 20 85 27 16 6 46 19 65 28 19 8 60 32 90
53 30 20 80 63 111 95 30 33 68 79 85 104 16 25 40 68 53 95 13 28 27 59 32
70 4 11 11 35 14 52 4 18 11 36 17 39 l11 7 9 -17 c6 -10 44 -59 86 -109 42
-51 79 -94 82 -97 3 -3 30 -34 60 -70 30 -36 57 -67 60 -70 3 -3 43 -48 89
-100 47 -52 179 -190 295 -305 116 -116 261 -253 321 -304 61 -51 119 -101
130 -110 11 -9 40 -32 65 -51 25 -19 50 -40 57 -46 7 -6 32 -24 57 -40 25 -16
46 -31 46 -34 0 -4 -15 -11 -32 -17 -18 -6 -53 -16 -78 -23 -25 -7 -56 -16
-69 -19 -14 -4 -29 -14 -34 -23 l-10 -15 6 -18 7 -17 43 5 c23 2 74 14 112 26
39 13 84 26 102 31 l32 8 50 -34 c27 -18 67 -43 88 -55 21 -11 53 -32 71 -46
18 -14 46 -43 62 -65 l29 -40 16 -53 c8 -29 15 -65 15 -79 0 -14 -6 -50 -14
-80 -8 -30 -23 -72 -32 -93 -10 -21 -36 -65 -57 -98 l-40 -60 -81 -81 -81 -81
-75 -49 c-41 -27 -97 -60 -125 -73 -27 -13 -59 -27 -70 -31 -11 -5 -33 -13
-50 -18 -16 -6 -52 -15 -80 -21 -27 -6 -74 -15 -103 -21 l-53 -10 -170 0 -170
0 -72 10 c-40 6 -92 15 -117 19 -25 5 -72 15 -105 22 -33 7 -103 23 -155 36
-52 14 -129 34 -170 45 -41 11 -95 24 -120 29 -25 6 -76 13 -113 16 l-68 5
-47 -12 c-26 -6 -76 -26 -112 -43 -36 -17 -85 -44 -110 -61 -25 -16 -47 -32
-50 -35 -3 -3 -23 -21 -45 -40 -22 -18 -81 -72 -130 -120 -50 -47 -113 -106
-141 -131 -27 -25 -63 -56 -79 -70 -17 -14 -46 -36 -65 -50 -19 -13 -37 -27
-40 -30 -3 -3 -18 -15 -35 -27 -16 -11 -50 -32 -75 -47 -25 -14 -94 -50 -155
-80 -60 -30 -137 -63 -170 -74 -33 -10 -78 -24 -100 -30 -22 -6 -62 -16 -90
-21 -27 -6 -77 -15 -110 -22 l-60 -12 -195 0 -195 0 -60 12 c-33 7 -85 17
-115 23 -30 5 -66 14 -80 18 -14 4 -45 13 -70 20 -25 7 -55 16 -67 21 -13 5
-33 13 -45 18 -13 5 -72 32 -132 62 -60 29 -144 75 -185 102 -42 27 -78 52
-81 56 -3 3 -23 19 -45 35 -22 17 -82 70 -133 120 -52 50 -119 123 -150 161
-31 39 -59 72 -62 75 -3 3 -17 21 -30 40 -14 19 -34 44 -45 56 -11 11 -33 30
-50 41 -16 10 -49 25 -71 31 l-42 12 -53 -11 c-30 -6 -70 -15 -89 -19 -19 -5
-60 -14 -90 -20 -30 -7 -71 -16 -90 -20 -19 -5 -62 -13 -95 -19 -33 -5 -87
-14 -120 -20 -33 -5 -100 -15 -150 -22 l-90 -13 -220 0 -220 0 -65 12 c-36 8
-85 18 -110 24 -25 6 -72 19 -105 30 -33 12 -80 30 -105 41 -25 11 -70 38
-101 58 -31 21 -81 61 -112 89 -31 28 -77 79 -103 113 -26 34 -61 91 -78 127
-17 36 -38 85 -45 110 -7 25 -17 58 -22 74 l-9 29 0 106 0 106 15 54 c7 29 25
76 39 105 14 28 39 65 56 83 17 18 45 43 63 56 17 14 66 43 107 64 41 22 99
54 127 71 29 17 94 59 145 93 50 34 139 98 197 142 58 44 124 94 146 111 22
17 42 33 45 36 3 3 30 25 60 50 30 25 57 47 60 50 3 3 43 37 90 77 47 39 101
87 119 107 19 20 39 36 44 36 5 0 35 -24 66 -52 31 -29 97 -87 146 -128 50
-41 124 -101 166 -133 42 -31 83 -57 91 -57 8 0 19 5 26 12 7 7 12 19 12 27
l-1 16 -75 55 c-42 30 -83 62 -92 70 -9 8 -42 35 -72 60 -30 24 -89 77 -130
117 l-75 73 85 81 84 81 11 -17 c5 -10 31 -50 56 -89 26 -39 62 -87 80 -107
19 -19 60 -56 91 -81 l57 -47 73 -34 c40 -19 93 -39 118 -45 25 -6 66 -16 92
-21 26 -6 81 -11 123 -11 42 0 97 5 123 11 26 5 65 15 87 21 22 6 50 14 63 19
12 5 34 15 50 21 15 7 59 33 97 59 l70 47 51 53 c27 30 64 74 81 99 17 25 39
63 50 85 12 22 28 63 38 90 9 28 23 79 31 115 l14 65 0 90 0 90 -20 80 c-11
44 -24 89 -29 100 -5 11 -21 46 -36 77 -14 32 -46 84 -71 117 -24 32 -66 78
-93 103 -27 25 -70 58 -94 73 l-45 29 -4 120 -4 121 -12 22 -13 23 23 32 c13
18 25 35 28 38 3 3 20 28 38 55 17 28 35 55 39 60 5 6 14 21 21 35 7 14 21 36
32 50 l18 24 24 -11 c12 -6 36 -16 51 -22 l28 -11 81 0 82 0 35 11 c20 7 46
16 59 20 12 5 32 13 45 18 12 6 69 32 127 59 58 27 155 73 215 102 61 29 142
68 180 87 l70 34 25 -6z m-1553 -425 l24 0 5 -14 6 -15 -29 -35 -28 -36 -22 0
-23 0 0 27 0 27 22 23 21 23 24 0z m2915 -210 l198 -1 0 -54 0 -54 -9 -6 -9
-5 -14 13 c-7 7 -25 17 -39 24 l-26 11 -29 -17 c-16 -10 -35 -25 -43 -34 -7
-10 -21 -17 -31 -17 l-17 0 -39 35 -38 35 -20 0 -19 0 -34 -26 c-19 -14 -36
-24 -37 -23 -2 2 -6 25 -8 51 l-5 47 11 11 11 11 197 -1z m-2908 -42 l201 -3
3 -35 c2 -20 -1 -46 -5 -58 l-8 -22 -37 25 c-20 14 -42 25 -47 25 -6 0 -31
-16 -57 -35 -25 -19 -49 -35 -54 -35 -4 0 -27 16 -50 35 l-42 35 -17 0 c-9 0
-32 -11 -51 -25 -19 -14 -38 -25 -42 -25 l-8 0 0 53 c0 30 3 57 7 61 l7 6 200
-2z m2793 -209 c2 1 17 -8 35 -19 l33 -20 45 0 44 0 42 16 42 16 38 -17 c22
-9 68 -31 104 -49 l65 -31 71 -70 71 -70 37 -75 c20 -41 43 -101 51 -133 l15
-58 0 -94 0 -94 -14 -53 c-8 -29 -22 -73 -32 -98 -9 -25 -35 -70 -55 -101
l-38 -57 -58 -51 -58 -52 -70 -34 c-38 -18 -88 -39 -110 -47 l-40 -12 -115 0
-115 0 -50 18 c-27 9 -66 25 -85 34 -19 8 -55 29 -80 45 -25 17 -62 46 -83 66
-22 20 -56 61 -76 91 -20 30 -42 66 -48 80 -7 14 -21 54 -33 89 l-20 64 0 107
0 107 20 64 c12 35 26 75 33 89 6 14 28 50 48 80 21 30 59 76 86 101 26 25 68
59 93 76 25 16 65 35 90 42 25 7 61 21 80 31 19 10 36 19 37 19z m-2900 -40
c2 1 17 -8 35 -19 l33 -20 42 0 42 0 35 20 35 19 78 -31 c43 -18 98 -45 123
-61 25 -16 73 -58 106 -93 l61 -64 31 -58 c17 -31 40 -86 52 -122 l21 -65 1
-120 0 -120 -22 -65 c-12 -36 -35 -90 -52 -120 l-30 -55 -71 -72 -72 -71 -70
-36 c-38 -20 -96 -43 -128 -51 l-58 -15 -94 0 -94 0 -58 15 c-32 8 -83 27
-113 42 -30 14 -73 40 -95 57 -22 17 -50 40 -61 52 -12 11 -37 41 -57 67 -19
25 -46 70 -60 99 -13 29 -29 67 -35 83 -6 17 -16 54 -21 83 -6 29 -11 76 -11
105 0 29 6 81 14 117 8 36 17 74 21 85 4 11 21 48 37 82 l31 63 50 56 51 56
72 49 c40 27 80 49 88 49 8 0 18 5 21 10 3 6 15 10 26 10 10 0 29 5 42 12 12
6 29 15 37 19 8 4 16 8 17 8z m3447 -3375 c17 -3 40 -8 51 -10 11 -3 36 -9 55
-14 19 -5 51 -13 70 -19 19 -5 71 -19 115 -31 44 -12 96 -25 115 -30 19 -4 60
-13 90 -20 30 -7 78 -16 105 -21 28 -4 91 -14 140 -21 l90 -13 205 0 205 0 70
12 c39 7 79 14 90 17 l20 6 40 -57 c22 -31 69 -93 105 -137 35 -45 82 -101
104 -126 23 -25 86 -90 141 -145 55 -56 134 -132 175 -169 41 -38 129 -112
195 -166 66 -53 140 -111 165 -128 25 -18 83 -59 130 -91 47 -32 117 -77 155
-101 39 -23 84 -50 101 -60 17 -10 75 -42 130 -71 54 -29 117 -62 139 -73 22
-12 46 -25 53 -30 l14 -8 -19 -22 c-10 -11 -24 -31 -30 -43 l-13 -23 0 -119 0
-119 -64 -42 -65 -42 -74 -77 -74 -78 -43 -89 c-23 -49 -46 -98 -50 -109 -4
-11 -13 -38 -19 -60 -6 -22 -15 -75 -21 -117 l-11 -77 12 -83 c6 -46 17 -108
25 -138 7 -30 32 -91 54 -136 23 -44 51 -94 63 -110 12 -16 47 -54 77 -84 30
-31 66 -63 80 -73 14 -9 45 -29 70 -45 25 -15 56 -32 70 -39 14 -6 52 -20 85
-31 33 -11 87 -25 120 -32 l60 -12 90 4 c50 2 98 8 109 12 l19 9 -5 -14 -4
-14 -120 -59 c-65 -32 -128 -63 -139 -67 -11 -4 -49 -17 -85 -28 -36 -11 -83
-24 -105 -30 -22 -5 -60 -14 -85 -20 -25 -5 -81 -15 -125 -20 -44 -6 -121 -15
-171 -21 l-90 -10 -159 0 c-87 0 -211 5 -274 10 -64 6 -159 15 -211 21 -52 5
-122 14 -155 20 -33 5 -85 15 -115 20 -30 6 -73 15 -95 19 -22 5 -62 14 -90
20 -27 6 -95 22 -150 36 -55 14 -134 35 -175 46 -41 11 -93 24 -115 29 -22 6
-65 14 -95 19 -30 5 -92 12 -137 16 l-83 7 -92 -13 c-51 -7 -118 -19 -148 -27
-30 -8 -68 -18 -85 -23 -16 -4 -39 -11 -50 -15 -11 -4 -36 -14 -55 -22 -19 -8
-60 -27 -90 -41 -30 -14 -66 -33 -80 -42 l-25 -17 -80 -11 c-44 -6 -158 -16
-252 -22 l-172 -11 -527 2 -526 2 -9 -16 -9 -15 6 -15 5 -14 52 -7 c29 -3 184
-9 345 -13 l293 -6 297 12 c163 6 322 14 352 17 l55 5 -11 -11 c-5 -5 -37 -26
-69 -46 -33 -20 -76 -45 -95 -56 -19 -11 -54 -33 -77 -49 -23 -16 -45 -29 -48
-29 -4 0 -19 -8 -33 -19 -15 -10 -47 -30 -72 -45 -25 -14 -103 -55 -175 -90
-71 -35 -146 -71 -165 -79 -19 -9 -55 -23 -80 -32 -25 -9 -54 -21 -65 -25 -11
-5 -49 -18 -85 -30 -36 -11 -78 -24 -95 -29 -16 -5 -68 -18 -115 -29 -47 -11
-110 -25 -140 -30 -30 -6 -85 -16 -122 -22 -37 -5 -149 -13 -250 -16 l-183 -6
-135 11 c-74 7 -164 16 -200 21 -36 5 -90 13 -120 19 -30 6 -73 15 -95 20 -22
5 -75 19 -118 30 -44 12 -113 33 -155 47 -43 14 -87 29 -99 34 -13 6 -35 15
-50 21 -16 7 -37 15 -48 20 -11 4 -81 37 -155 73 -74 37 -155 78 -178 92 -24
13 -85 52 -135 86 -51 34 -121 84 -157 112 -36 27 -92 72 -125 100 -33 28 -94
83 -135 122 -41 40 -91 85 -110 100 -19 16 -37 32 -40 35 -3 3 -24 16 -47 28
l-42 21 -52 0 c-29 0 -66 -4 -83 -10 -17 -5 -85 -27 -151 -49 -66 -21 -154
-48 -195 -60 -41 -12 -93 -26 -115 -32 -22 -6 -56 -14 -75 -19 -19 -5 -55 -13
-80 -19 -25 -5 -67 -14 -95 -20 -27 -5 -75 -14 -105 -19 -30 -6 -91 -15 -135
-21 -44 -6 -118 -16 -164 -21 l-84 -10 -239 0 -239 0 -72 10 c-40 6 -101 15
-137 21 -36 5 -85 15 -110 20 -25 6 -63 15 -85 21 -22 6 -53 15 -70 20 -16 6
-39 13 -50 17 -11 5 -63 29 -116 55 l-97 47 -63 49 c-35 26 -94 79 -130 116
-36 38 -84 96 -106 129 -22 33 -52 83 -66 112 -15 28 -38 85 -51 125 -13 40
-30 98 -37 128 l-13 55 0 145 -1 145 14 50 c7 28 20 70 28 95 8 25 30 79 50
120 20 41 58 107 84 145 26 39 59 84 73 100 l24 30 30 -28 30 -29 23 4 24 3 3
23 3 23 -32 30 -33 31 35 31 c19 18 57 52 85 77 27 25 63 56 79 70 17 14 122
99 235 190 113 90 207 166 210 169 3 4 30 26 60 51 30 25 57 47 60 50 3 3 39
34 80 70 41 36 102 89 135 120 33 30 132 125 219 212 88 87 161 156 163 154 3
-2 0 -12 -6 -23 -6 -10 -18 -40 -27 -68 -9 -27 -22 -88 -29 -135 l-13 -85 10
-80 c5 -44 16 -98 23 -120 7 -22 23 -65 35 -95 12 -30 32 -78 46 -108 13 -29
24 -55 24 -57 0 -2 14 -34 30 -70 17 -36 30 -68 30 -70 0 -2 14 -34 30 -70 17
-36 30 -68 30 -70 0 -3 8 -24 19 -48 10 -23 28 -63 40 -89 11 -26 21 -50 21
-53 0 -2 12 -30 26 -62 14 -32 33 -74 41 -93 8 -19 19 -44 23 -55 4 -11 15
-36 23 -55 9 -19 30 -71 47 -115 17 -44 37 -93 45 -110 7 -16 22 -51 34 -77
11 -26 21 -52 21 -58 0 -6 4 -18 9 -28 5 -9 19 -38 30 -64 12 -26 21 -50 21
-53 0 -3 15 -38 34 -79 l35 -74 36 -41 37 -40 54 -21 55 -20 42 0 42 0 53 19
c29 11 73 35 99 53 l47 34 25 49 25 50 -1 65 -1 65 -37 90 c-20 50 -43 104
-50 120 -7 17 -22 51 -34 77 -11 26 -21 50 -21 53 0 3 -10 27 -21 53 -12 26
-27 61 -34 77 -7 17 -20 48 -30 70 -10 22 -23 54 -30 70 -7 17 -25 56 -39 88
-14 32 -26 60 -26 62 0 2 -11 28 -24 57 -14 30 -34 78 -46 107 -11 30 -30 75
-42 100 -11 25 -31 70 -44 99 -13 29 -24 55 -24 57 0 3 -10 27 -21 53 -12 26
-27 61 -34 77 -7 17 -19 46 -28 65 -8 19 -24 55 -35 80 -11 25 -27 67 -36 94
l-17 50 7 40 6 41 20 28 c11 15 32 34 48 42 l29 15 43 0 43 0 35 -21 c19 -12
40 -29 47 -38 7 -9 19 -29 26 -46 8 -16 21 -46 30 -65 8 -19 24 -56 36 -82 11
-26 21 -52 21 -57 0 -5 18 -25 40 -45 22 -19 56 -42 76 -51 l36 -15 43 0 42 0
62 20 c34 12 78 30 98 41 19 11 41 26 49 33 7 7 27 35 43 62 l31 48 0 52 0 53
-11 28 c-6 15 -15 37 -19 48 -4 11 -16 38 -25 60 -9 22 -29 65 -43 95 -14 30
-44 82 -65 115 -22 33 -63 84 -91 113 -28 30 -76 71 -106 92 -30 20 -74 46
-96 57 -23 11 -63 26 -88 34 -25 7 -46 16 -46 20 l0 7 198 6 c108 3 229 10
267 15 39 6 99 14 135 20 36 5 92 15 125 21 33 7 78 16 100 20 22 5 60 14 85
20 25 6 64 13 87 17 l42 5 13 -13 c8 -8 25 -30 38 -49 14 -19 36 -48 50 -65
14 -16 45 -52 70 -79 25 -28 70 -75 100 -104 30 -30 91 -83 135 -118 44 -36
89 -73 100 -82 11 -9 70 -46 130 -82 61 -36 135 -78 165 -92 30 -14 71 -33 90
-41 19 -8 55 -22 80 -32 25 -9 63 -23 85 -30 22 -6 59 -17 83 -24 23 -6 59
-15 80 -21 20 -5 66 -14 102 -19 36 -6 94 -16 129 -22 l64 -11 197 0 197 0 64
11 c35 7 87 16 114 22 28 5 70 15 95 21 25 6 86 24 135 40 50 16 99 33 110 38
11 4 38 16 60 25 22 9 65 29 95 43 30 14 78 39 105 55 28 17 66 39 85 50 19
10 69 45 110 75 41 31 104 81 140 111 36 30 94 82 130 116 36 34 94 88 130
121 36 32 67 61 70 64 3 3 25 20 49 39 24 19 64 44 89 57 l45 23 31 -5z
m-5061 -84 c17 0 44 -4 61 -9 17 -6 63 -15 103 -22 l72 -12 -5 -9 -5 -8 -39 0
c-22 0 -49 -4 -62 -9 -13 -5 -41 -14 -63 -20 -22 -7 -49 -16 -60 -20 -11 -5
-33 -14 -50 -22 -16 -7 -42 -22 -58 -32 -15 -10 -32 -17 -37 -15 l-10 3 36 45
c19 25 42 53 50 63 8 10 20 29 26 43 l11 24 30 0z m272 -213 c39 1 84 -2 100
-6 l30 -6 -2 -25 c-1 -14 -4 -38 -8 -55 -3 -16 -10 -46 -15 -65 -5 -19 -12
-47 -15 -62 l-5 -28 -80 0 -79 0 -36 -20 c-20 -11 -44 -20 -54 -20 l-18 0 -24
26 c-13 14 -53 49 -88 77 l-64 51 34 29 c19 15 53 37 75 47 23 11 61 26 85 34
24 8 55 16 69 19 14 2 57 4 95 4z m300 -87 l15 0 78 -78 77 -78 47 -94 c26
-52 58 -124 72 -159 l26 -65 -5 -17 c-3 -9 -24 -29 -46 -43 l-40 -27 -56 -2
-56 -2 -16 30 c-9 17 -23 48 -30 70 -8 22 -24 63 -37 92 -13 28 -40 72 -59 97
-19 25 -35 51 -35 58 0 6 5 28 11 47 6 20 14 50 19 66 4 17 11 47 15 68 l6 37
14 0z m-758 -170 c3 0 48 -34 100 -76 l94 -76 -6 -16 c-4 -10 -11 -33 -16 -52
-5 -19 -9 -50 -9 -68 l0 -34 -42 7 c-24 4 -61 11 -83 17 -22 5 -57 15 -78 21
-21 6 -40 14 -43 18 -2 4 1 30 7 56 6 26 20 75 31 108 11 33 25 68 30 78 5 9
11 17 15 17z m-38 -435 c5 -3 31 -10 58 -16 26 -6 71 -14 98 -19 28 -4 62 -13
78 -19 l28 -11 5 -17 c3 -10 9 -27 14 -38 4 -11 16 -38 25 -60 10 -22 33 -73
52 -114 l34 -74 -8 -7 -8 -7 -80 14 c-44 8 -102 20 -129 26 l-48 12 -34 85
c-19 47 -41 101 -50 120 -9 19 -22 48 -30 64 -8 16 -14 38 -14 48 l0 19 9 -6z
m234 -505 c18 -5 59 -14 92 -20 33 -7 78 -17 101 -23 l41 -10 12 -31 c7 -17
19 -44 26 -61 7 -16 21 -50 31 -75 10 -24 28 -65 40 -90 l22 -45 -8 -8 -8 -9
-93 21 c-52 12 -109 25 -128 29 l-34 7 -8 15 c-4 8 -17 36 -28 62 -12 26 -21
50 -21 53 0 2 -11 28 -24 57 -13 29 -31 70 -39 90 -8 20 -13 38 -11 41 3 3 19
1 37 -3z m8427 -150 l210 0 0 -65 0 -65 -9 0 c-5 0 -23 11 -39 25 l-30 25 -24
0 -24 0 -34 -35 -34 -35 -16 0 -16 0 -34 35 -34 35 -31 0 -32 0 -23 -25 c-13
-14 -27 -25 -32 -25 l-8 0 0 65 0 65 210 0z m-118 -261 c4 1 22 -8 40 -19 l33
-20 43 0 43 0 38 20 39 19 40 -19 c23 -11 45 -20 51 -20 5 0 37 -14 70 -31
l60 -31 71 -70 70 -69 34 -58 c18 -32 43 -85 54 -117 11 -32 25 -92 31 -131
l11 -73 -11 -72 c-6 -40 -20 -100 -31 -133 -11 -33 -33 -83 -48 -111 -15 -28
-36 -62 -46 -75 -11 -13 -43 -47 -73 -76 l-54 -52 -72 -36 c-40 -20 -90 -41
-111 -47 l-39 -11 -115 -4 -115 -4 -45 11 c-25 7 -55 16 -67 21 -13 5 -35 15
-50 21 -16 7 -53 29 -83 49 l-56 37 -61 65 -61 66 -36 73 -35 73 -16 73 c-8
40 -15 99 -15 130 0 31 6 86 14 122 8 36 17 74 21 85 4 11 20 48 37 82 l30 62
46 51 c25 28 70 70 101 94 31 23 77 52 103 64 26 12 56 22 65 22 10 1 34 9 53
19 19 11 38 19 42 20z m-8114 -82 c15 -4 50 -11 77 -17 28 -5 68 -13 90 -16
22 -4 51 -12 65 -19 l25 -13 24 -64 c13 -34 36 -90 51 -123 15 -33 31 -68 34
-78 l6 -19 -42 7 c-24 4 -59 10 -78 15 -19 5 -61 14 -93 21 -31 7 -61 17 -65
23 -5 6 -15 27 -22 46 -7 19 -23 58 -36 85 -12 28 -31 72 -43 99 -11 27 -21
51 -21 53 0 3 12 3 28 0z m202 -477 c11 0 39 -4 62 -10 24 -5 72 -15 106 -22
l64 -13 8 -15 9 -16 -15 -30 c-8 -16 -24 -35 -35 -42 -11 -7 -42 -16 -68 -19
l-48 -5 -22 12 -23 12 -29 64 c-16 35 -29 68 -29 74 l0 10 20 0z m486 -1111
c7 1 47 -33 90 -75 44 -41 117 -108 164 -147 48 -40 99 -82 116 -94 16 -13 77
-56 134 -97 58 -41 116 -81 130 -88 14 -7 37 -20 51 -30 14 -9 55 -33 90 -53
35 -19 100 -52 144 -74 44 -21 96 -46 115 -54 19 -8 51 -22 70 -30 19 -8 62
-25 95 -37 33 -12 87 -30 120 -41 33 -11 94 -29 135 -40 41 -12 91 -25 110
-29 19 -4 58 -13 85 -19 28 -6 75 -16 105 -22 30 -6 82 -14 115 -19 33 -5 123
-14 200 -21 l140 -11 200 6 c110 3 236 11 280 16 44 6 105 16 135 21 30 6 75
15 100 20 25 6 62 14 83 20 20 5 56 14 80 20 23 7 83 25 132 41 50 16 99 33
110 38 11 4 36 14 55 21 19 7 60 23 90 37 30 13 107 49 170 80 63 31 153 78
200 105 47 27 99 58 117 68 17 10 62 37 100 62 37 24 95 61 128 82 33 21 94
59 135 85 41 25 111 64 155 86 44 23 105 50 135 61 30 11 71 25 90 30 19 6 62
16 96 23 l61 12 94 -5 c52 -3 114 -10 139 -16 25 -5 63 -14 85 -20 22 -5 76
-19 120 -31 44 -12 100 -26 125 -32 25 -5 63 -14 85 -20 22 -5 58 -13 80 -18
22 -4 67 -14 100 -20 33 -7 80 -16 105 -20 25 -5 74 -13 110 -20 36 -6 92 -15
125 -20 33 -5 110 -15 170 -22 l110 -13 270 0 270 0 110 13 c61 8 137 16 170
19 l60 5 62 -74 c34 -40 99 -111 145 -158 46 -47 115 -114 154 -150 38 -36 87
-81 109 -100 22 -19 63 -53 90 -76 28 -23 99 -78 160 -124 60 -46 189 -135
286 -199 97 -64 213 -138 258 -166 45 -27 132 -85 194 -128 61 -42 146 -104
187 -137 41 -33 90 -74 108 -91 19 -17 32 -32 30 -33 -1 -2 -31 -22 -65 -44
-34 -23 -65 -42 -68 -42 -4 0 -19 -8 -33 -19 -15 -10 -44 -28 -64 -40 -21 -11
-53 -29 -70 -40 -18 -10 -50 -28 -70 -40 -21 -11 -54 -30 -73 -41 -19 -11 -52
-30 -72 -42 -21 -11 -67 -37 -103 -56 -36 -19 -78 -42 -93 -50 l-28 -17 3 -19
c2 -10 11 -24 20 -30 l17 -10 43 23 c24 13 72 39 108 58 36 20 83 45 105 58
22 12 93 54 159 93 65 40 121 72 123 72 2 0 31 18 63 40 32 22 61 40 65 40 3
0 23 11 44 25 l38 26 14 -6 c8 -3 32 -29 54 -57 22 -28 61 -83 88 -122 26 -39
61 -104 78 -145 17 -41 38 -99 46 -130 l15 -56 0 -121 1 -120 -13 -55 c-6 -30
-19 -74 -27 -99 -8 -25 -26 -70 -41 -100 -14 -30 -44 -82 -66 -115 l-39 -60
-81 -80 -81 -80 -90 -61 c-49 -34 -108 -72 -130 -84 -22 -13 -80 -44 -130 -70
-49 -25 -139 -65 -200 -89 -60 -24 -119 -47 -130 -51 -11 -4 -33 -12 -50 -18
-16 -5 -64 -20 -105 -31 -41 -12 -91 -26 -110 -31 -19 -5 -57 -14 -85 -20 -27
-6 -68 -15 -90 -20 -22 -5 -69 -13 -105 -19 -36 -5 -105 -15 -155 -22 l-90
-13 -345 0 -345 0 -90 12 c-49 7 -121 17 -160 23 -38 5 -96 14 -127 19 -32 6
-86 15 -120 21 -35 6 -85 15 -113 21 -27 6 -88 19 -135 30 -47 10 -94 22 -105
24 -11 3 -36 9 -55 14 -19 5 -51 13 -70 19 -19 5 -71 19 -115 31 -44 12 -95
26 -112 31 -18 5 -48 13 -65 18 -18 5 -64 17 -103 26 -38 10 -77 19 -85 22
l-15 4 15 9 c8 4 71 22 140 40 69 17 158 40 198 51 39 10 107 28 150 40 42 11
91 24 107 29 17 5 62 18 100 30 39 12 81 24 95 27 14 3 31 10 38 16 6 5 12 16
12 24 0 8 -6 21 -14 29 -8 8 -21 14 -30 14 -8 0 -17 -4 -20 -9 -3 -5 -18 -11
-33 -14 -16 -3 -45 -10 -65 -16 -21 -6 -55 -16 -75 -22 -21 -5 -53 -14 -70
-20 -18 -5 -48 -13 -65 -18 -18 -5 -69 -19 -113 -31 -44 -12 -93 -25 -110 -30
-16 -5 -59 -16 -95 -25 -36 -9 -81 -20 -100 -25 -19 -5 -57 -14 -85 -20 -27
-6 -68 -15 -90 -20 -22 -5 -71 -14 -110 -20 -38 -6 -97 -16 -130 -21 -33 -6
-85 -15 -115 -21 -30 -5 -66 -14 -80 -18 -14 -5 -47 -13 -75 -19 -27 -5 -75
-15 -105 -20 -30 -5 -86 -14 -125 -20 -38 -6 -108 -15 -155 -20 -47 -6 -121
-15 -165 -21 -44 -5 -101 -10 -126 -10 l-47 0 -12 -15 -12 -15 6 -25 6 -25 18
0 c9 0 55 5 102 10 47 6 123 15 170 21 47 6 110 15 140 20 30 6 71 9 90 7 l35
-4 -25 -11 c-14 -6 -54 -32 -90 -59 -36 -26 -101 -74 -145 -107 -44 -33 -98
-74 -120 -91 -22 -17 -42 -33 -45 -36 -3 -3 -21 -17 -40 -30 -19 -13 -37 -27
-40 -30 -3 -4 -68 -49 -145 -100 -76 -51 -166 -108 -200 -127 -33 -18 -87 -46
-120 -62 -33 -16 -81 -38 -106 -49 -25 -12 -70 -31 -100 -42 -30 -12 -88 -33
-129 -46 -41 -13 -88 -28 -105 -33 -16 -5 -51 -14 -77 -20 -27 -6 -67 -15 -90
-20 -24 -5 -70 -14 -103 -20 -33 -5 -100 -15 -150 -22 l-90 -13 -285 0 -285 0
-100 12 c-55 7 -129 17 -165 23 -36 5 -90 14 -120 20 -30 6 -75 15 -100 20
-25 6 -61 14 -80 19 -19 5 -69 19 -110 31 -41 12 -102 30 -135 41 -33 11 -69
23 -80 28 -11 4 -69 27 -130 51 -60 24 -150 64 -200 89 -49 26 -112 59 -140
75 -27 15 -84 48 -125 73 -41 25 -122 77 -180 115 -58 39 -150 104 -205 144
-55 41 -107 80 -116 87 -9 8 -50 36 -90 63 -41 27 -88 55 -105 62 l-32 13 -78
-5 -79 -4 -80 -22 c-44 -12 -93 -26 -110 -31 -16 -4 -50 -14 -75 -22 -25 -8
-65 -21 -90 -28 -25 -7 -56 -16 -70 -20 -14 -4 -44 -13 -67 -19 -24 -6 -62
-16 -85 -22 -24 -6 -59 -14 -78 -19 -19 -5 -56 -14 -82 -19 -27 -6 -67 -15
-90 -20 -24 -5 -68 -14 -98 -20 -30 -6 -71 -13 -90 -16 -19 -4 -66 -11 -105
-16 -38 -6 -106 -14 -150 -19 -44 -5 -181 -16 -305 -24 l-226 -14 -229 14
c-127 8 -248 17 -270 20 -22 2 -74 9 -115 15 -41 6 -93 14 -115 19 -22 5 -67
14 -100 21 -33 6 -85 18 -115 26 -30 8 -68 18 -85 23 -16 4 -52 15 -80 24 -27
9 -58 21 -67 26 -10 6 -22 10 -28 10 -6 0 -32 9 -58 21 -26 12 -85 40 -132 62
-47 23 -124 68 -171 99 -47 31 -122 90 -166 130 -45 40 -107 105 -139 143 -33
39 -80 102 -105 140 -25 39 -59 99 -77 135 -17 36 -40 92 -51 125 -10 33 -24
84 -30 113 -6 29 -11 76 -11 105 1 29 7 77 14 107 8 30 22 75 32 100 10 25 27
61 38 80 11 19 48 72 82 116 l63 81 141 141 142 141 119 -79 c65 -44 120 -80
123 -80 2 0 41 -22 86 -50 45 -27 83 -50 85 -50 3 0 26 -13 52 -30 l47 -30 22
0 23 0 6 20 7 21 -12 14 c-6 7 -33 25 -59 38 -26 14 -63 34 -83 45 -19 11 -66
39 -104 62 -38 24 -99 61 -136 83 -37 22 -79 50 -95 63 l-28 22 29 23 c16 12
38 32 50 44 11 11 68 60 126 109 58 49 130 110 160 136 30 26 93 80 140 120
47 40 110 93 140 119 30 25 111 95 180 155 69 60 168 150 220 200 52 50 117
114 145 141 27 28 88 91 135 140 47 50 115 124 150 165 36 41 75 85 86 98 l22
25 33 -7 c19 -3 61 -10 94 -16 33 -6 96 -15 140 -21 l80 -11 235 -5 235 -5
115 11 c63 7 149 16 190 22 41 5 107 14 145 20 39 6 88 14 110 19 22 5 67 14
100 21 33 7 119 27 190 45 72 18 159 42 195 52 36 11 106 34 155 50 50 17 95
31 101 31z m870 -4429 c1 0 22 -8 46 -19 24 -10 72 -28 108 -40 36 -12 74 -26
85 -31 11 -4 34 -12 50 -18 17 -5 50 -15 75 -22 25 -7 56 -16 70 -20 14 -4 43
-12 65 -18 22 -6 60 -15 85 -21 25 -5 65 -14 90 -20 25 -5 72 -14 105 -20 33
-5 87 -14 120 -20 33 -5 105 -15 160 -20 55 -6 170 -16 256 -22 l157 -10 148
10 c82 6 194 16 249 22 55 6 120 14 145 19 25 4 72 13 105 20 33 6 78 16 100
21 22 6 54 14 70 18 17 5 50 14 75 21 25 7 77 23 115 36 39 12 94 32 124 44
30 11 75 30 100 42 25 11 61 27 79 35 l33 16 9 -9 9 -9 11 -270 c6 -148 15
-362 20 -475 4 -113 5 -223 3 -245 -3 -22 -9 -53 -15 -70 -6 -16 -25 -45 -42
-63 -17 -18 -44 -39 -61 -46 -16 -8 -43 -18 -60 -24 -16 -5 -48 -14 -70 -20
-22 -6 -67 -15 -100 -21 -33 -5 -87 -14 -120 -20 -33 -6 -109 -15 -170 -20
-60 -6 -164 -15 -230 -21 l-120 -11 -420 0 -420 0 -115 11 c-63 6 -167 15
-230 21 -63 5 -141 14 -172 20 -32 5 -86 14 -120 20 -35 5 -80 14 -100 20 -21
5 -57 14 -80 21 -24 6 -72 25 -108 41 -36 16 -78 41 -93 55 -16 15 -36 41 -45
57 l-17 30 3 210 c1 116 7 273 12 350 5 77 10 210 10 296 0 86 3 159 7 162 3
4 7 7 9 7z"/>
<path d="M8422 18920 l-49 0 -35 -32 c-19 -18 -39 -46 -46 -61 -7 -15 -12 -43
-12 -61 l0 -33 16 -32 c8 -17 30 -42 48 -56 l33 -25 53 0 53 0 34 26 c18 14
40 38 48 54 l15 29 0 35 c0 19 -6 48 -12 63 -7 15 -20 36 -28 46 -8 10 -27 25
-42 33 l-27 14 -49 0z"/>
<path d="M9468 18920 l-43 -1 -20 -11 c-11 -7 -25 -17 -32 -23 -6 -7 -21 -27
-32 -46 l-21 -34 0 -38 0 -38 15 -29 c8 -16 30 -40 48 -54 l34 -26 45 0 45 0
33 23 34 22 23 45 24 45 -5 28 c-3 16 -13 43 -21 60 l-15 32 -35 23 -35 22
-42 0z"/>
<path d="M9124 18620 l-23 0 -21 -22 -20 -22 0 -21 c0 -12 -7 -36 -15 -52 -9
-17 -26 -38 -40 -47 l-24 -16 -45 0 -44 0 -31 29 -30 28 -7 42 -7 42 -21 14
c-11 8 -31 15 -44 15 l-23 0 -24 -25 -25 -24 0 -29 c0 -16 5 -44 12 -63 6 -19
24 -52 39 -75 l28 -41 57 -29 56 -29 72 2 71 1 36 16 c20 8 51 28 69 43 l33
27 24 53 23 54 0 38 0 38 -26 27 -27 26 -23 0z"/>
<path d="M8903 15580 l-68 -1 -40 -20 c-21 -10 -51 -31 -65 -44 -15 -14 -36
-43 -48 -66 l-21 -40 -7 -49 -7 -50 -36 -10 -37 -10 -22 -23 c-13 -13 -27 -39
-32 -58 l-10 -34 0 -116 0 -117 -34 -16 c-19 -9 -61 -37 -93 -64 -32 -26 -76
-65 -98 -87 -22 -23 -54 -59 -71 -80 -17 -22 -49 -74 -72 -115 -22 -41 -48
-97 -57 -125 -9 -27 -24 -75 -32 -105 l-15 -55 0 -135 0 -135 15 -55 c8 -30
23 -77 32 -105 10 -27 26 -68 38 -90 11 -22 37 -65 57 -95 21 -30 59 -78 86
-105 27 -28 60 -59 74 -71 14 -11 46 -33 70 -50 25 -17 70 -42 100 -57 30 -14
69 -31 85 -37 17 -7 53 -18 80 -25 28 -7 91 -19 141 -26 l92 -13 88 13 c49 7
105 17 124 23 19 6 49 15 65 21 17 6 62 25 102 44 40 18 94 50 120 69 26 20
70 57 96 83 27 25 68 71 91 101 23 30 56 82 73 115 17 33 43 96 58 140 15 44
29 101 32 127 l6 48 38 0 38 0 15 16 c9 8 16 19 16 24 0 5 -7 16 -16 24 l-15
16 -34 0 -33 0 -7 78 c-4 42 -13 100 -20 127 -8 28 -18 64 -23 80 -5 17 -21
56 -36 88 -14 32 -47 89 -72 127 l-46 70 -78 73 c-44 40 -92 80 -107 87 -15 8
-40 23 -55 33 l-28 18 0 123 0 123 -16 32 c-8 17 -30 42 -47 55 -18 13 -41 26
-52 28 l-20 3 -5 45 c-3 25 -15 63 -25 85 -10 22 -33 54 -50 71 -16 17 -49 41
-72 53 l-42 21 -68 0z m0 -160 c16 0 37 -5 48 -10 10 -6 26 -24 35 -41 8 -17
14 -38 12 -46 l-3 -16 -85 1 c-47 1 -89 1 -93 2 l-9 0 7 33 7 32 26 22 27 23
28 0z m-2 -265 c127 -3 235 -8 240 -11 l9 -5 0 -57 0 -57 -9 -14 -9 -13 -32
31 c-18 17 -40 32 -49 32 -9 1 -23 0 -31 -1 -8 -1 -32 -17 -52 -36 -21 -19
-44 -34 -52 -34 -7 0 -31 14 -52 31 -22 17 -47 35 -56 40 l-17 9 -23 -9 c-13
-5 -36 -21 -53 -35 -16 -14 -34 -24 -40 -23 l-10 4 -3 63 c-2 34 -1 69 2 76
l5 14 232 -5z m-124 -276 c7 1 28 -8 48 -19 l36 -20 57 0 57 0 25 20 c14 11
30 20 36 20 5 0 29 -9 52 -20 22 -11 46 -20 52 -20 5 0 18 -4 28 -9 9 -5 31
-15 47 -22 17 -7 55 -30 85 -50 l55 -36 70 -74 70 -74 31 -60 c18 -33 40 -82
49 -110 10 -27 24 -81 31 -120 8 -38 14 -94 14 -123 0 -29 -5 -74 -11 -100 -5
-26 -15 -67 -21 -92 -7 -25 -29 -79 -50 -120 -21 -41 -58 -101 -83 -132 l-46
-57 -67 -51 c-37 -27 -95 -63 -129 -80 -34 -16 -67 -30 -73 -30 -5 0 -18 -4
-28 -9 -9 -5 -38 -14 -65 -20 l-47 -11 -101 0 -102 0 -41 11 c-22 6 -59 16
-81 22 -22 6 -72 28 -112 49 -40 21 -82 46 -94 55 -12 10 -41 35 -65 56 -23
21 -64 70 -91 110 -27 40 -54 83 -60 97 -5 14 -15 36 -21 50 -6 14 -15 41 -21
60 -5 19 -15 72 -22 118 l-12 83 13 77 c6 42 18 95 25 117 7 22 21 60 31 85
10 25 35 72 57 105 l40 60 73 71 73 72 84 41 c46 22 92 41 103 41 10 1 35 9
54 19 19 11 40 19 47 20z"/>
<path d="M8587 14680 l-42 0 -30 -18 c-16 -10 -53 -43 -80 -73 l-50 -55 -32
-65 c-17 -35 -37 -82 -44 -104 -6 -22 -15 -50 -20 -63 -5 -13 -9 -48 -9 -78
l0 -56 21 -29 21 -29 35 -15 36 -15 34 12 35 13 17 25 c9 14 23 50 29 80 7 30
18 73 24 95 7 22 23 57 36 78 13 22 48 63 78 93 l54 54 0 40 0 39 -35 36 -36
35 -42 0z m0 -60 l24 0 15 -14 c8 -8 14 -23 14 -34 l0 -20 -37 -33 c-21 -18
-50 -48 -64 -66 -15 -18 -38 -61 -52 -95 -14 -35 -31 -91 -38 -126 l-12 -64
-23 -14 -23 -15 -26 17 -27 17 5 56 c2 31 9 74 15 95 6 22 27 71 46 110 20 39
50 87 68 106 18 20 46 45 62 58 l29 22 24 0z"/>
<path d="M7417 14800 c-7 0 -18 -9 -25 -21 l-13 -21 12 -15 c7 -8 66 -41 131
-74 65 -32 127 -59 138 -59 l21 0 6 16 6 17 -9 14 c-5 8 -20 21 -34 28 -14 8
-52 27 -85 43 -33 16 -77 39 -98 51 -21 11 -43 21 -50 21z"/>
<path d="M11608 14244 c-7 2 -33 0 -58 -5 -25 -4 -76 -13 -115 -19 -38 -6
-106 -16 -150 -21 -44 -6 -118 -14 -165 -19 -47 -5 -184 -14 -305 -20 l-220
-12 -12 -16 c-7 -9 -13 -19 -13 -23 0 -4 7 -14 15 -22 l15 -15 97 4 c54 2 159
9 233 14 74 6 178 15 230 21 52 5 129 14 170 20 41 5 100 14 130 19 30 5 83
14 118 21 l62 12 0 28 0 29 -9 0 c-5 0 -15 2 -23 4z"/>
<path d="M7144 16360 l-41 0 -34 -23 c-18 -12 -50 -45 -71 -72 -21 -28 -49
-72 -62 -100 -14 -27 -32 -70 -40 -95 -9 -25 -19 -72 -22 -106 l-6 -61 17 -37
18 -37 28 -14 c15 -8 37 -15 49 -15 12 0 33 6 48 14 l28 14 11 24 c6 12 16 44
22 70 6 26 11 57 11 68 0 12 12 45 26 74 l25 51 47 48 47 48 -1 49 0 50 -30
25 -29 25 -41 0z m-3 -60 l28 0 9 -17 c5 -10 7 -25 4 -33 -3 -8 -24 -36 -48
-62 l-43 -46 -25 -52 -25 -52 -12 -74 -13 -75 -17 -14 -16 -15 -17 6 c-10 4
-21 17 -26 30 l-9 23 5 38 c3 21 10 56 16 78 6 22 24 69 41 104 l31 64 44 48
44 49 29 0z"/>
<path d="M11960 12659 c-41 -1 -93 -5 -115 -10 -22 -5 -56 -14 -75 -20 -19 -6
-46 -15 -60 -21 -14 -6 -43 -20 -65 -31 -22 -11 -60 -34 -85 -51 -25 -16 -70
-55 -101 -85 -30 -31 -78 -90 -107 -132 -28 -42 -60 -93 -72 -113 -11 -20 -30
-53 -42 -73 l-22 -38 0 -60 -1 -60 17 -35 c10 -19 28 -47 40 -61 13 -14 43
-39 68 -55 25 -16 59 -36 75 -43 17 -7 38 -17 47 -22 10 -5 44 -9 76 -9 l58 0
45 29 45 28 37 50 c20 28 37 56 37 62 0 6 3 11 8 11 4 0 13 13 20 30 7 16 33
51 57 78 l44 48 41 13 41 12 37 -12 c20 -6 47 -21 60 -32 12 -12 29 -34 37
-51 l15 -29 0 -38 0 -37 -29 -54 c-15 -30 -51 -89 -80 -131 -28 -42 -51 -79
-51 -82 0 -3 -18 -33 -40 -65 -22 -32 -40 -61 -40 -65 0 -3 -16 -31 -37 -63
-20 -31 -60 -94 -90 -139 -29 -46 -53 -85 -53 -89 0 -3 -13 -24 -29 -47 -16
-23 -38 -58 -49 -77 -11 -19 -57 -96 -102 -170 -46 -74 -88 -145 -94 -157 -6
-13 -14 -23 -18 -23 -5 0 -8 -5 -8 -11 0 -6 -13 -30 -30 -54 -16 -24 -30 -47
-30 -50 0 -4 -8 -19 -19 -33 -10 -15 -29 -45 -41 -67 -13 -22 -36 -64 -52 -93
l-30 -53 0 -71 0 -71 24 -45 c12 -26 39 -63 59 -83 20 -20 51 -43 70 -51 19
-9 47 -20 62 -27 l28 -11 55 0 54 0 45 21 44 21 34 38 c19 20 51 66 72 101 21
35 46 78 55 94 10 17 54 90 99 164 44 73 81 135 81 138 0 2 14 24 30 48 17 24
30 46 30 50 0 4 14 26 30 50 17 24 30 47 30 50 0 4 8 19 19 33 10 15 28 43 39
62 11 19 57 96 102 170 46 74 132 216 192 315 60 99 122 203 137 230 15 28 36
75 48 105 11 30 25 76 32 103 l11 47 0 108 -1 107 -13 55 c-8 30 -22 75 -32
100 -10 25 -33 71 -51 103 l-34 57 -52 53 c-29 29 -79 71 -112 93 -33 22 -77
48 -99 58 -21 10 -53 22 -70 27 -17 5 -65 16 -106 24 l-75 15 -75 -1z m12
-159 c13 0 59 -6 103 -14 44 -7 100 -21 125 -31 25 -10 63 -31 85 -46 22 -15
57 -43 78 -63 l39 -35 -4 -11 c-2 -6 -35 -29 -73 -51 -39 -22 -78 -42 -87 -45
-10 -4 -18 -10 -18 -15 0 -5 -8 -9 -18 -9 -10 0 -22 4 -27 9 -6 5 -26 18 -45
28 -19 11 -55 25 -80 31 -25 6 -58 13 -75 14 l-30 3 -3 104 c-1 58 0 111 2
118 l5 13 23 0z m-199 -50 l7 0 0 -47 c0 -27 3 -78 6 -114 l7 -67 -28 -23
c-15 -13 -67 -84 -116 -156 l-89 -133 -23 0 c-12 1 -38 8 -57 18 -19 9 -50 28
-68 41 l-32 25 0 21 0 21 31 50 c18 27 41 65 53 86 12 20 32 51 45 70 14 18
53 60 87 93 l62 60 53 27 c30 15 57 28 62 28z m711 -294 c6 -1 15 -27 22 -57
l13 -54 1 -82 0 -82 -17 -9 c-10 -5 -59 -12 -110 -15 -51 -4 -98 -8 -105 -9
l-13 -3 4 78 3 77 -11 14 -11 13 18 15 c9 9 35 26 57 39 22 12 63 35 90 50 28
15 54 26 59 25z m-48 -448 c6 1 14 -1 17 -4 l6 -7 -18 -26 c-10 -14 -33 -51
-51 -81 -18 -30 -42 -71 -53 -90 -11 -19 -27 -47 -34 -62 -8 -15 -17 -29 -21
-32 -4 -2 -67 -7 -140 -11 l-132 -7 7 18 c4 11 24 46 45 79 21 33 42 65 48 72
5 7 10 15 10 18 0 3 18 33 40 65 l40 59 113 4 c61 1 117 4 123 5z m-353 -470
c53 1 97 0 97 -3 0 -3 -26 -45 -58 -93 -32 -48 -61 -94 -65 -102 -4 -8 -17
-33 -30 -55 l-24 -40 -138 -3 -137 -3 6 16 c3 8 24 42 46 75 22 32 40 61 40
64 0 3 18 34 41 68 l40 63 42 6 c23 3 86 7 140 7z m-316 -458 c73 0 133 -3
133 -6 0 -3 -13 -25 -30 -49 -16 -24 -30 -46 -30 -50 0 -3 -17 -32 -38 -63
-21 -31 -44 -69 -51 -84 l-14 -28 -92 0 c-51 0 -113 -3 -139 -6 l-46 -7 0 11
c0 5 19 41 41 78 23 38 55 88 70 111 16 23 29 45 29 49 0 4 7 16 17 26 l16 18
134 0z m-167 -442 c3 1 10 -2 17 -6 l12 -8 -39 -59 -39 -59 -22 -12 -22 -11
-36 9 c-20 6 -48 19 -62 29 l-26 18 -13 31 -12 30 5 14 6 15 113 4 c62 1 115
4 118 5z"/>
<path d="M8281 12246 c-31 1 -65 1 -76 -2 -11 -3 -33 -12 -50 -20 -16 -7 -39
-22 -51 -32 -11 -9 -29 -30 -39 -45 -10 -16 -23 -51 -30 -79 l-11 -52 -15 -7
c-8 -4 -26 -12 -40 -19 l-26 -12 -22 -38 -21 -38 0 -118 0 -119 -32 -14 -33
-15 -80 -80 c-44 -45 -89 -92 -100 -106 -10 -14 -36 -56 -55 -95 -20 -38 -40
-81 -44 -95 -4 -14 -14 -50 -23 -80 l-16 -55 0 -130 0 -130 16 -55 c9 -30 19
-66 23 -80 4 -14 23 -54 42 -90 19 -36 46 -81 60 -100 15 -19 40 -50 56 -68
16 -17 53 -50 81 -72 29 -22 86 -58 126 -78 41 -21 92 -43 114 -49 22 -7 61
-17 87 -22 l47 -11 105 0 106 0 47 11 c27 6 56 15 65 20 10 5 23 9 30 9 7 0
38 13 68 28 30 16 66 35 79 42 14 8 34 22 45 30 11 8 42 35 69 60 27 25 68 72
92 105 23 33 55 89 72 125 16 36 35 83 41 105 6 22 15 59 21 81 l11 41 0 98 0
98 -11 41 c-6 22 -15 59 -21 81 -6 22 -14 49 -18 60 -4 11 -22 50 -41 87 -18
37 -45 82 -59 100 -14 18 -48 56 -76 85 -29 28 -77 68 -108 89 l-56 37 0 96 0
96 -11 38 -10 37 -26 26 c-14 14 -39 31 -54 36 l-29 10 0 28 c0 15 -7 44 -15
64 -8 20 -30 51 -48 70 -18 18 -48 41 -66 51 l-34 17 -56 4z m-16 -156 l26 0
24 -26 c14 -15 25 -33 25 -40 l0 -13 -33 -6 c-18 -4 -49 -5 -68 -3 l-34 3 -3
22 -3 22 20 20 21 21 25 0z m-67 -230 c75 0 167 -3 205 -7 l67 -6 0 -48 0 -48
-10 -6 -10 -6 -26 20 -27 21 -21 0 -22 0 -34 -30 -35 -29 -21 -1 -20 0 -29 30
-29 30 -31 0 -32 0 -18 -20 c-10 -11 -24 -20 -32 -20 l-13 0 0 60 0 60 138 0z
m-57 -260 c9 0 30 -7 45 -15 16 -8 44 -18 62 -21 l32 -6 54 22 54 21 18 -9
c11 -5 30 -14 44 -20 14 -5 41 -16 60 -23 19 -7 55 -26 80 -42 25 -17 65 -48
88 -71 24 -23 60 -66 81 -96 20 -30 42 -67 49 -82 6 -16 16 -38 21 -50 5 -13
14 -41 19 -63 6 -22 13 -65 15 -95 3 -30 1 -84 -3 -120 -5 -36 -13 -82 -18
-102 -5 -21 -23 -66 -40 -101 -17 -34 -49 -85 -71 -113 -22 -28 -64 -69 -93
-92 -29 -22 -69 -49 -88 -60 -20 -10 -65 -29 -100 -42 l-65 -23 -110 -1 -110
-1 -45 14 c-25 7 -58 18 -75 24 -16 6 -55 26 -85 43 -30 18 -78 54 -106 81
-27 26 -64 68 -80 93 -17 25 -38 62 -48 84 -10 21 -23 53 -28 70 -5 17 -16 67
-24 111 l-13 80 10 70 c6 39 17 90 26 115 8 25 22 61 31 80 8 19 32 60 53 90
20 30 54 71 76 91 21 20 58 49 83 66 25 16 72 40 105 53 33 13 64 27 70 32 5
4 17 8 26 8z"/>
<path d="M4423 11080 c-10 0 -24 -5 -31 -12 -7 -7 -12 -18 -12 -24 0 -7 17
-26 38 -41 20 -15 39 -31 42 -34 3 -3 79 -55 170 -116 91 -60 196 -129 234
-151 37 -23 69 -42 71 -42 2 0 33 -18 69 -40 l66 -40 24 0 25 0 6 20 c3 11 4
24 1 29 -3 4 -54 37 -113 71 -59 35 -182 113 -273 173 -91 60 -195 131 -231
158 l-66 49 -20 0z"/>
<path d="M5706 10340 c-2 0 -9 -7 -16 -14 l-12 -15 4 -23 3 -23 110 -44 c61
-24 119 -47 130 -52 11 -4 84 -29 162 -55 l143 -47 15 13 c8 7 15 21 15 31 l0
18 -18 10 c-11 6 -68 26 -128 46 -60 20 -118 40 -129 45 -11 5 -42 16 -70 25
-27 9 -63 22 -80 30 -16 7 -51 22 -77 34 -26 11 -50 21 -52 21z"/>
<path d="M12821 10029 c-3 -1 -15 -3 -26 -6 -11 -3 -40 -12 -65 -20 -25 -8
-61 -20 -80 -25 -19 -5 -48 -13 -65 -18 -16 -5 -66 -18 -110 -30 -44 -12 -96
-25 -115 -30 -19 -4 -47 -12 -61 -18 -15 -6 -29 -17 -32 -25 l-6 -15 13 -18
13 -17 74 17 c41 9 85 21 99 25 14 5 45 14 70 21 25 7 56 16 70 20 14 4 45 13
70 20 25 7 72 22 105 32 33 11 66 26 74 34 l15 13 -19 21 c-10 11 -21 19 -24
19z"/>
<path d="M7694 9820 l-22 0 -12 -15 -12 -15 6 -24 6 -24 26 -6 c14 -4 34 -4
44 -1 l19 6 7 21 6 21 -23 18 c-13 10 -34 19 -45 19z"/>
<path d="M8275 9725 c-11 2 -28 -1 -37 -6 l-18 -10 0 -18 c0 -10 6 -24 13 -30
l14 -11 94 -10 c52 -6 140 -15 195 -20 56 -5 117 -12 136 -15 l34 -6 17 19 18
20 -13 21 -13 21 -24 0 c-14 0 -61 4 -105 10 -45 5 -128 15 -186 21 -58 6
-114 12 -125 14z"/>
<path d="M13860 11083 c-19 3 -44 3 -55 0 -11 -3 -35 -16 -52 -29 -18 -14 -50
-51 -72 -82 -21 -32 -48 -78 -59 -102 -11 -25 -25 -61 -31 -80 -5 -19 -14 -54
-20 -76 -6 -23 -11 -57 -11 -76 l0 -35 23 -34 c12 -18 34 -40 47 -47 l25 -13
38 5 39 4 22 21 22 20 12 46 c7 25 12 59 12 75 0 17 6 49 13 71 l12 41 60 72
60 71 0 47 0 48 -25 24 -25 25 -35 4z m-16 -65 l31 -3 3 -28 3 -28 -44 -48
-45 -48 -23 -49 -22 -49 -16 -90 -16 -90 -32 -3 -32 -3 -11 22 -12 21 7 57 c3
31 13 76 21 101 9 25 27 69 41 98 l26 54 45 44 45 45 31 -3z"/>
<path d="M12543 9259 l-108 -1 -35 -10 c-19 -5 -53 -15 -75 -21 -22 -6 -75
-29 -118 -50 l-77 -39 -76 -71 -76 -72 -51 -74 c-27 -41 -73 -118 -101 -170
l-50 -96 0 -55 -1 -55 17 -35 17 -36 38 -34 c22 -19 50 -41 63 -49 14 -8 38
-21 53 -29 16 -8 52 -20 80 -28 l52 -14 53 12 52 11 39 33 c21 18 46 48 55 66
9 18 29 54 44 80 15 26 42 67 59 92 l33 46 32 20 33 20 38 0 37 0 23 -12 c12
-7 30 -22 40 -33 10 -11 25 -35 33 -54 8 -18 14 -48 14 -65 l-1 -31 -28 -55
c-15 -30 -38 -73 -50 -95 -13 -22 -27 -44 -31 -50 -4 -5 -18 -28 -30 -50 -13
-22 -31 -53 -40 -70 -9 -16 -27 -48 -40 -70 -13 -22 -31 -54 -40 -71 -10 -17
-37 -62 -59 -99 -23 -37 -41 -68 -41 -70 0 -2 -18 -33 -41 -70 -22 -37 -49
-83 -60 -101 -10 -19 -27 -49 -38 -66 -10 -18 -28 -51 -41 -73 -13 -22 -32
-56 -42 -75 -11 -19 -24 -39 -28 -45 -4 -5 -18 -28 -30 -50 -13 -22 -31 -55
-41 -72 -11 -18 -29 -50 -40 -70 -12 -21 -31 -54 -42 -73 -11 -19 -25 -44 -31
-55 -7 -11 -27 -47 -46 -80 -19 -33 -41 -76 -47 -95 -7 -19 -13 -53 -13 -75 0
-22 6 -57 13 -78 8 -21 27 -57 44 -80 l30 -43 54 -36 54 -36 57 -12 58 -13 42
12 c24 7 57 19 75 27 l32 14 29 35 c15 19 37 52 49 73 11 20 30 54 41 75 12
20 30 52 41 70 10 17 28 49 40 70 11 20 31 54 43 75 11 20 33 60 48 87 15 28
37 67 48 88 12 20 31 53 42 72 11 19 29 51 40 70 11 19 30 52 41 73 12 20 30
51 39 67 9 17 32 55 50 85 18 30 41 70 51 88 11 17 28 48 39 67 11 19 30 52
41 73 12 20 30 49 40 64 11 14 19 29 19 33 0 4 8 19 19 33 10 15 28 43 38 62
11 19 30 53 43 75 12 22 30 51 40 65 9 14 34 60 55 103 20 43 42 95 47 115 5
20 14 69 20 107 l10 70 -6 94 c-3 51 -11 110 -17 130 -7 20 -15 45 -19 56 -4
11 -22 51 -41 88 l-33 69 -65 70 -64 69 -56 38 c-31 20 -77 47 -103 59 -26 12
-52 22 -58 22 -6 0 -18 4 -28 9 -9 5 -38 14 -64 20 l-47 11 -108 -1z m18 -159
c33 0 81 -5 107 -11 26 -6 56 -14 67 -19 11 -4 40 -17 65 -29 25 -12 71 -42
103 -67 l57 -46 0 -13 0 -13 -17 -5 c-10 -4 -38 -18 -63 -33 -25 -14 -64 -40
-88 -56 l-42 -29 -28 19 c-15 10 -45 27 -67 37 l-40 19 -56 4 -56 4 -6 112
c-3 61 -3 114 0 119 l4 7 60 0z m-243 -61 l22 1 0 -87 c0 -49 3 -98 6 -110 l6
-21 -27 -24 c-15 -13 -48 -54 -74 -93 -26 -38 -58 -92 -71 -118 -14 -26 -35
-60 -46 -74 l-21 -27 -41 12 -41 13 -43 32 -43 33 -3 20 -3 20 29 55 c16 30
39 72 51 94 13 22 42 64 64 94 23 30 63 72 89 95 26 22 64 50 85 63 21 12 48
22 61 22z m732 -269 c3 0 12 -21 18 -47 7 -26 16 -91 19 -144 l6 -97 -29 -5
c-16 -3 -47 -8 -69 -11 -22 -3 -66 -7 -99 -8 l-58 -3 -1 98 -1 98 20 13 c10 8
37 24 59 36 22 13 60 34 85 47 25 12 47 23 50 23z m-35 -455 l10 -2 -3 -19
c-2 -10 -17 -37 -33 -60 -16 -24 -29 -45 -29 -47 0 -2 -24 -44 -53 -93 l-53
-89 -90 -12 c-49 -6 -110 -12 -136 -12 l-48 -1 0 10 c0 6 18 40 40 76 22 36
40 68 40 71 0 3 8 17 19 31 10 15 30 47 44 72 l25 45 23 6 c13 4 53 8 89 9 36
0 83 5 105 9 22 5 45 8 50 6z m-280 -487 l9 -8 -13 -22 c-7 -11 -21 -36 -32
-54 -10 -19 -29 -51 -40 -71 -12 -21 -33 -58 -47 -83 -13 -25 -29 -50 -33 -56
l-9 -11 -103 -6 c-56 -4 -117 -9 -134 -13 l-33 -6 0 11 c0 6 18 41 40 77 22
36 40 68 40 71 0 2 14 24 30 48 17 24 30 47 30 50 0 4 9 20 21 36 l20 29 67 1
c37 1 92 4 122 8 l55 7 10 -8z m-327 -470 l72 2 0 -10 c0 -5 -4 -10 -9 -10 -5
0 -11 -8 -14 -17 -4 -10 -20 -40 -36 -68 -17 -27 -44 -78 -62 -111 l-31 -61
-140 -13 c-76 -7 -142 -10 -145 -7 -3 3 4 19 16 35 12 17 21 33 21 37 0 3 13
25 28 48 15 23 38 63 52 90 13 26 30 53 38 60 l15 12 61 6 c34 3 94 7 134 7z
m-211 -439 c6 0 14 -3 17 -8 l6 -9 -30 -56 c-16 -31 -37 -64 -46 -74 l-18 -17
-48 1 -48 0 -31 30 c-17 16 -37 44 -45 63 -8 18 -11 37 -8 42 l5 9 62 1 c34 1
87 4 117 9 30 4 60 8 67 9z"/>
<path d="M4770 8928 c-25 0 -56 -3 -70 -7 -14 -3 -39 -14 -56 -23 -17 -9 -45
-33 -62 -52 -17 -19 -37 -50 -46 -68 -8 -18 -16 -51 -18 -72 l-4 -39 -14 -8
c-8 -4 -33 -16 -54 -26 l-40 -19 -20 -40 -21 -39 -3 -125 -4 -126 -26 -12
c-15 -6 -54 -32 -87 -57 -33 -25 -82 -67 -110 -93 -27 -27 -69 -73 -91 -103
-23 -30 -59 -88 -81 -129 -21 -41 -48 -106 -60 -145 -12 -38 -28 -92 -35 -120
l-13 -50 1 -145 1 -145 16 -55 c8 -30 23 -77 32 -105 9 -27 30 -79 47 -115 16
-36 49 -92 73 -125 24 -33 57 -74 72 -91 15 -16 61 -58 101 -91 l73 -62 84
-40 c46 -23 89 -41 97 -41 8 0 18 -4 23 -8 6 -5 35 -14 65 -20 30 -6 79 -16
108 -22 29 -5 81 -10 115 -10 34 0 98 7 142 15 44 8 96 19 115 24 19 4 66 21
104 36 l69 28 86 57 86 57 52 54 c29 30 72 80 95 111 24 32 58 88 77 125 18
37 37 77 41 88 5 11 13 34 18 50 6 17 16 53 24 80 l13 50 0 165 0 165 -13 50
c-8 28 -18 64 -24 80 -5 17 -13 39 -18 50 -4 11 -26 58 -50 105 -23 47 -60
108 -82 137 -21 28 -69 80 -106 115 l-67 63 -72 45 -72 45 -1 123 0 123 -15
29 c-8 16 -28 38 -44 49 l-29 21 -26 0 -25 0 -12 60 -12 60 -27 44 c-15 24
-44 56 -64 71 -20 15 -53 33 -73 41 l-38 13 -45 -1z m-3 -159 c12 1 33 -3 48
-9 l26 -10 14 -35 c8 -19 15 -41 15 -50 l0 -15 -95 0 -96 0 -5 14 -6 15 17 34
16 34 22 11 c12 6 32 11 44 11z m-8 -269 c132 0 246 -3 255 -6 l16 -6 0 -63 0
-64 -10 -6 -11 -7 -26 19 c-14 10 -37 26 -52 35 -14 10 -29 18 -34 18 -4 0
-27 -18 -51 -40 l-43 -40 -27 0 -26 0 -41 40 -41 40 -17 0 c-9 0 -32 -13 -51
-29 -19 -15 -45 -31 -57 -35 l-23 -7 0 75 0 76 239 0z m-90 -279 c14 -9 39
-22 54 -29 15 -7 42 -12 59 -12 l30 0 50 25 49 25 20 -11 c11 -5 47 -19 80
-29 33 -11 76 -27 97 -37 20 -9 57 -30 82 -46 25 -16 81 -66 125 -111 l80 -82
38 -73 39 -72 -5 -13 -5 -13 -29 -6 c-15 -3 -48 -11 -73 -17 -25 -6 -67 -16
-95 -21 -27 -5 -84 -14 -125 -20 l-75 -10 -245 -6 -245 -5 -95 12 c-52 6 -126
18 -165 26 -38 8 -86 18 -105 23 -19 5 -59 17 -87 26 -29 10 -53 21 -53 25 0
3 16 33 36 66 19 32 53 82 75 110 21 28 54 64 72 80 18 17 66 53 107 80 41 28
89 55 105 61 17 6 50 17 75 24 25 7 58 21 74 31 l29 17 26 -18z m-621 -606 c9
-4 35 -12 57 -19 22 -7 58 -18 80 -24 22 -6 65 -15 95 -21 30 -5 82 -15 115
-20 33 -6 132 -16 220 -21 l160 -11 195 16 c107 9 222 20 255 25 33 6 80 14
105 19 25 6 65 15 90 21 25 6 59 14 77 17 l31 5 7 -46 c4 -26 6 -49 3 -51 -2
-2 -56 -17 -118 -33 -63 -16 -144 -34 -180 -40 -36 -6 -99 -17 -140 -23 l-75
-12 -245 0 -245 1 -80 11 c-44 7 -107 17 -140 22 -33 6 -80 15 -105 20 -25 6
-63 15 -85 21 -22 6 -56 16 -75 23 l-35 13 3 44 c1 23 5 49 7 57 l5 13 18 -7z
m-5 -270 c18 -3 43 -10 57 -14 14 -5 43 -13 65 -19 22 -6 65 -15 95 -21 30 -5
82 -15 115 -20 33 -6 129 -15 212 -22 l153 -12 107 7 c60 3 153 11 208 16 55
5 129 14 165 20 36 5 88 14 115 20 28 5 70 15 95 21 25 6 60 13 78 16 l32 5 0
-7 c0 -4 -5 -26 -12 -49 -6 -22 -15 -46 -19 -51 -4 -6 -27 -15 -51 -22 -24 -6
-63 -16 -88 -22 -25 -5 -72 -14 -105 -20 -33 -5 -100 -15 -150 -22 l-90 -13
-250 0 -250 0 -100 13 c-55 7 -134 20 -175 28 -41 9 -93 20 -115 25 -22 5 -52
12 -67 15 -15 3 -31 10 -36 17 -5 6 -12 35 -15 64 l-6 53 32 -6z m86 -291 c9
-3 34 -11 56 -15 22 -5 69 -14 105 -20 36 -6 99 -14 140 -20 41 -5 154 -12
250 -15 l175 -7 130 12 c72 7 164 16 205 22 41 5 100 14 130 20 30 6 67 14 82
19 l28 8 5 -9 6 -9 -32 -47 c-18 -27 -60 -75 -93 -109 -34 -33 -88 -79 -121
-100 -33 -22 -72 -45 -87 -52 -16 -6 -38 -16 -50 -21 -13 -5 -39 -14 -58 -20
-19 -5 -54 -14 -76 -20 l-41 -11 -116 0 -116 0 -53 14 c-29 8 -67 19 -84 24
-17 6 -49 18 -70 28 -22 10 -64 34 -94 55 -30 20 -75 56 -100 80 -25 24 -69
75 -97 113 l-52 70 6 9 5 8 17 -7z"/>
<path d="M9456 8525 c-28 2 -64 1 -81 -4 -16 -4 -47 -16 -69 -26 l-38 -18 -30
-41 c-17 -23 -35 -52 -41 -66 -5 -14 -13 -45 -16 -70 l-6 -44 -39 -11 -39 -11
-27 -31 -27 -30 -12 -64 -12 -64 3 -78 3 -78 -45 -26 c-25 -14 -63 -38 -85
-53 -23 -16 -70 -59 -107 -98 -36 -38 -79 -89 -95 -113 -16 -24 -46 -78 -66
-119 -20 -41 -42 -95 -50 -120 -8 -25 -21 -67 -28 -95 l-14 -50 0 -155 0 -155
14 -50 c7 -27 22 -77 33 -110 12 -33 30 -78 41 -100 11 -22 41 -71 67 -110
l48 -70 68 -66 c38 -36 85 -77 104 -91 19 -14 60 -39 90 -55 30 -16 80 -38
110 -50 30 -11 73 -25 95 -31 22 -6 64 -15 93 -21 30 -6 89 -11 132 -11 43 0
102 5 132 11 29 6 71 15 93 21 22 5 48 14 57 19 10 5 23 9 28 9 6 0 41 14 78
32 37 17 100 54 140 81 l72 50 55 59 c30 33 72 85 93 116 21 31 52 86 69 122
17 36 40 94 51 130 11 36 25 92 31 126 6 33 11 99 11 147 0 47 -5 110 -10 139
-6 29 -16 73 -21 98 -6 25 -20 70 -32 100 -11 30 -34 80 -50 110 -16 30 -48
80 -70 110 -23 30 -64 78 -92 105 -27 28 -75 70 -106 93 -31 23 -60 42 -64 42
-5 0 -18 9 -30 20 l-22 21 5 49 c2 27 1 83 -3 124 l-7 76 -22 32 -22 33 -49
25 c-28 14 -50 30 -50 35 -1 6 -4 27 -9 48 -4 21 -16 55 -28 75 -11 20 -32 47
-47 60 -14 13 -43 32 -65 43 l-39 21 -51 3z m-30 -156 c6 1 24 -4 41 -9 l30
-11 21 -40 c12 -23 22 -43 22 -45 0 -2 -45 -4 -100 -4 l-100 0 0 20 c0 12 8
32 17 46 9 14 26 30 37 34 12 5 26 9 32 9z m-4 -269 l243 -1 12 -11 13 -10 0
-28 c0 -15 -3 -42 -6 -59 l-6 -31 -12 0 c-6 1 -27 14 -46 30 l-34 30 -21 0
-21 0 -39 -40 -39 -40 -26 0 -26 0 -44 40 -44 40 -23 0 -22 0 -34 -30 c-19
-16 -42 -30 -51 -30 l-16 0 0 70 0 71 242 -1z m-119 -270 c5 0 18 -5 30 -12
12 -7 38 -18 57 -25 19 -7 44 -13 55 -13 11 0 47 12 80 25 l59 25 21 -13 c11
-8 52 -26 90 -41 l70 -27 88 -57 87 -57 -3 -15 -2 -15 -40 -7 c-22 -5 -65 -13
-95 -18 -30 -6 -111 -15 -180 -21 l-125 -10 -145 6 c-80 3 -172 11 -205 17
-33 6 -89 17 -124 25 -35 8 -73 18 -84 22 l-21 8 75 53 c41 29 97 62 124 74
28 12 70 28 95 36 25 8 54 20 65 27 11 7 23 13 28 13z m-477 -330 c8 0 22 -4
32 -9 9 -5 35 -14 57 -19 22 -6 58 -15 80 -20 22 -6 72 -15 110 -21 39 -6 108
-15 155 -21 47 -5 135 -10 195 -10 61 0 155 5 210 11 55 6 125 15 155 20 30 6
84 17 120 26 36 8 79 17 97 20 l31 5 32 -67 32 -67 -18 -13 c-10 -7 -32 -16
-49 -19 -16 -3 -50 -10 -75 -16 -25 -6 -72 -15 -105 -20 -33 -6 -121 -17 -195
-25 -74 -8 -183 -15 -242 -15 -59 0 -154 5 -210 10 -57 6 -134 15 -173 21 -38
6 -101 17 -140 25 -38 8 -86 18 -105 23 -19 5 -45 13 -57 16 l-23 7 0 14 c0 7
10 30 22 51 12 21 28 50 35 66 l14 27 15 0z m-122 -300 c3 0 31 -7 63 -16 32
-9 76 -20 98 -25 22 -5 76 -15 120 -23 44 -8 123 -20 175 -26 l95 -12 250 5
250 6 65 10 c36 5 90 14 120 20 30 6 73 15 95 20 22 6 62 15 88 21 27 7 50 10
51 8 2 -1 6 -20 9 -40 l6 -38 -32 -14 c-18 -8 -45 -17 -62 -21 -16 -3 -48 -10
-70 -15 -22 -6 -65 -15 -95 -21 -30 -6 -86 -15 -125 -20 -38 -6 -171 -13 -295
-16 l-225 -5 -115 12 c-63 6 -140 16 -170 21 -30 6 -95 20 -145 31 -49 11
-108 26 -130 33 l-40 13 1 31 c1 17 5 38 8 46 3 8 8 15 10 15z m9 -247 c5 -3
23 -9 41 -14 17 -4 58 -14 91 -22 33 -8 85 -20 115 -25 30 -6 89 -15 130 -21
41 -6 147 -13 235 -16 l160 -7 160 12 c88 6 187 15 220 19 33 5 85 14 115 20
30 6 75 16 100 22 25 5 58 13 74 16 l29 6 -7 -19 c-4 -11 -10 -32 -13 -47 l-6
-28 -21 -11 c-11 -6 -39 -15 -61 -20 -22 -5 -60 -13 -85 -19 -25 -5 -72 -14
-105 -19 -33 -5 -145 -17 -248 -27 l-188 -17 -167 13 c-92 6 -196 17 -232 22
-36 6 -84 15 -107 20 -24 5 -64 14 -90 20 -27 6 -67 16 -90 22 l-42 11 -10 21
c-5 11 -12 34 -15 51 -3 18 -2 34 1 38 3 3 10 3 16 -1z m155 -294 c42 -10 102
-23 132 -28 30 -6 105 -16 165 -22 l110 -12 230 6 c127 4 262 11 300 16 39 5
95 14 125 20 30 6 74 14 98 18 l42 6 0 -8 c0 -4 -16 -29 -37 -54 -20 -25 -52
-63 -72 -85 -20 -21 -67 -59 -106 -85 -38 -26 -87 -55 -109 -65 -21 -10 -53
-22 -70 -28 -17 -5 -55 -16 -84 -24 l-53 -14 -109 0 -109 0 -53 14 c-29 8 -67
19 -84 24 -17 6 -49 18 -70 28 -22 10 -64 34 -94 55 -30 20 -81 63 -113 95
-32 32 -72 79 -88 103 -16 24 -29 47 -29 51 0 4 35 -1 78 -11z"/>
<path d="M14363 7223 l-18 15 -60 -28 c-33 -16 -87 -41 -120 -56 -33 -14 -75
-33 -92 -41 l-33 -15 -32 5 c-18 3 -62 10 -98 17 l-65 12 -85 -6 -85 -6 -54
-20 c-30 -10 -79 -34 -109 -52 l-54 -33 -52 -57 -52 -57 -32 -64 c-18 -34 -39
-87 -48 -117 l-16 -55 0 -102 0 -102 22 -63 c12 -35 36 -88 52 -118 l29 -55
62 -60 62 -60 65 -31 c36 -18 85 -38 110 -45 l45 -14 110 0 110 0 35 14 c19 7
68 29 108 48 l73 35 58 56 57 57 31 55 c17 30 41 84 52 119 l21 64 0 102 0
102 -21 64 c-11 35 -35 90 -52 122 l-30 58 -74 69 c-40 37 -73 71 -73 74 0 3
5 6 10 6 6 0 43 15 83 34 40 18 90 42 112 52 22 10 46 24 53 30 6 7 12 17 12
22 0 5 -8 16 -17 25z m-563 -244 c8 0 42 -6 75 -13 33 -7 82 -23 109 -35 l49
-23 52 -52 52 -52 32 -68 33 -68 0 -93 0 -94 -13 -38 c-7 -21 -27 -60 -45 -88
-17 -27 -49 -67 -72 -87 l-41 -37 -58 -27 -58 -27 -95 -1 -95 -1 -45 14 c-25
8 -65 28 -90 45 -25 16 -59 46 -77 66 -18 19 -41 53 -52 75 -10 22 -25 56 -32
75 l-14 35 0 95 1 95 34 70 33 69 47 46 46 45 50 24 c27 14 73 30 104 37 30 6
62 12 70 13z"/>
<path d="M6295 6410 c-2 0 -8 -7 -15 -15 l-12 -14 4 -17 3 -17 40 -13 c22 -7
67 -18 100 -24 33 -6 78 -15 100 -20 22 -5 66 -13 98 -19 31 -6 83 -16 115
-22 31 -6 80 -15 107 -21 28 -5 70 -14 94 -19 l43 -10 14 12 14 11 0 24 0 23
-17 5 c-10 2 -45 10 -78 16 -33 6 -85 16 -115 21 -30 6 -80 15 -110 20 -30 6
-73 14 -95 19 -22 5 -53 11 -70 14 -16 3 -72 15 -124 26 -52 11 -95 20 -96 20z"/>
<path d="M8033 6136 l-72 7 -7 -28 -7 -28 16 -12 17 -12 97 -7 c54 -3 136 -10
183 -15 l85 -8 18 9 17 9 0 23 0 24 -17 7 c-10 4 -72 11 -138 16 -66 5 -152
11 -192 15z"/>
<path d="M9922 6092 c-9 1 -69 0 -132 -3 -63 -4 -183 -7 -267 -8 l-152 -1 -9
-17 -10 -18 9 -22 8 -23 48 0 c26 0 155 5 285 12 l237 12 5 19 c2 10 2 25 0
32 -3 7 -13 15 -22 17z"/>
</g>
</svg>
