<?xml version="1.0" standalone="no"?>
<!DOCTYPE svg PUBLIC "-//W3C//DTD SVG 20010904//EN"
 "http://www.w3.org/TR/2001/REC-SVG-20010904/DTD/svg10.dtd">
<svg version="1.0" xmlns="http://www.w3.org/2000/svg"
 width="1324.397123pt" height="1918.498489pt" viewBox="0 0 1324.397123 1918.498489"
 preserveAspectRatio="xMidYMid meet">
<metadata>
Created by potrace 1.16, written by Peter Selinger 2001-2019
</metadata>
<g transform="translate(-233.602877,2231.998489) scale(0.100000,-0.100000)"
fill="#000000" stroke="none">
<path d="M9015 22317 l-70 3 -54 -21 -55 -22 -48 -50 c-26 -28 -48 -54 -48
-60 0 -5 -8 -21 -18 -35 -11 -15 -33 -52 -49 -82 -17 -30 -63 -111 -103 -180
-40 -69 -80 -138 -90 -155 -9 -16 -27 -48 -40 -70 -13 -22 -35 -62 -50 -89
-15 -27 -35 -53 -44 -58 -9 -5 -42 -14 -74 -19 -31 -6 -75 -15 -97 -19 -22 -4
-66 -13 -97 -19 -32 -6 -82 -15 -110 -21 -29 -5 -96 -19 -148 -30 -52 -11
-117 -25 -145 -30 -27 -5 -66 -13 -85 -18 -19 -5 -52 -17 -72 -26 l-38 -18
-34 -38 c-19 -21 -41 -53 -49 -71 -8 -19 -19 -47 -26 -62 l-11 -28 0 -60 0
-59 13 -41 12 -40 41 -54 c22 -30 62 -78 89 -107 27 -29 72 -78 99 -108 28
-30 106 -114 173 -185 66 -72 131 -142 143 -157 l21 -28 -11 -92 c-6 -51 -16
-127 -21 -168 -5 -41 -13 -113 -19 -160 -5 -47 -14 -132 -20 -190 l-11 -105 6
-56 6 -57 24 -49 23 -49 36 -31 c19 -17 42 -36 51 -41 l17 -9 -17 -34 c-10
-19 -35 -60 -56 -91 -22 -31 -39 -60 -39 -63 0 -3 -32 -54 -72 -113 -39 -59
-74 -109 -78 -112 -3 -3 -21 -27 -40 -55 -18 -27 -79 -113 -134 -190 -55 -77
-115 -160 -134 -185 -18 -25 -39 -52 -45 -60 -7 -8 -23 -31 -37 -50 -13 -19
-27 -37 -30 -40 -3 -3 -34 -43 -69 -90 -36 -47 -78 -103 -95 -125 -17 -22 -33
-42 -36 -45 -3 -3 -21 -25 -40 -50 -19 -25 -40 -52 -47 -60 -6 -8 -42 -53 -79
-100 -38 -47 -71 -87 -74 -90 -3 -3 -21 -25 -40 -50 -19 -25 -45 -56 -57 -70
-12 -14 -45 -55 -75 -91 -29 -37 -154 -188 -278 -335 -123 -148 -227 -271
-230 -274 -3 -3 -52 -61 -110 -130 -57 -69 -158 -188 -225 -265 -66 -77 -126
-146 -133 -154 -7 -7 -70 -79 -140 -160 -69 -80 -129 -148 -132 -151 -3 -3
-34 -39 -70 -80 -36 -41 -67 -77 -70 -80 -3 -3 -30 -34 -60 -70 -30 -36 -57
-67 -60 -70 -3 -3 -30 -34 -60 -70 -30 -36 -57 -67 -60 -70 -3 -3 -42 -48 -85
-101 -44 -52 -95 -114 -114 -137 -19 -23 -58 -74 -87 -113 l-53 -71 -44 -92
-45 -91 -23 -90 -24 -90 1 -170 1 -170 22 -80 c12 -44 26 -90 31 -102 6 -13
14 -33 19 -45 4 -13 17 -41 28 -63 11 -22 30 -58 43 -80 12 -22 32 -53 43 -70
12 -16 33 -43 47 -60 14 -16 54 -59 90 -95 36 -36 79 -77 97 -92 17 -15 56
-43 87 -64 31 -20 54 -39 52 -43 -2 -3 -25 -42 -51 -86 -27 -44 -98 -154 -158
-245 -61 -91 -113 -167 -117 -170 -3 -3 -26 -34 -50 -69 -23 -35 -49 -71 -56
-80 -7 -9 -48 -63 -91 -121 -42 -58 -80 -107 -83 -110 -3 -3 -34 -43 -70 -90
-35 -47 -67 -87 -70 -90 -3 -3 -44 -52 -90 -110 -46 -58 -129 -159 -184 -225
-56 -66 -103 -122 -106 -125 -3 -3 -66 -79 -140 -170 -74 -91 -137 -167 -140
-170 -4 -3 -71 -86 -151 -186 -79 -99 -154 -194 -166 -210 -12 -16 -46 -62
-76 -102 -29 -41 -77 -112 -105 -159 -29 -46 -75 -133 -103 -191 -29 -59 -55
-116 -60 -127 -4 -11 -16 -47 -27 -80 -11 -33 -24 -78 -30 -100 -6 -22 -16
-67 -23 -100 l-12 -60 1 -147 0 -147 12 -53 c6 -29 16 -71 22 -93 5 -22 14
-48 19 -57 5 -10 9 -23 9 -29 0 -7 19 -49 41 -94 23 -46 64 -112 91 -149 27
-36 75 -91 106 -123 32 -32 80 -76 107 -98 28 -22 52 -42 55 -45 3 -3 19 -15
35 -27 17 -11 50 -33 75 -47 25 -15 80 -44 124 -66 43 -22 81 -41 83 -44 2 -2
-5 -20 -17 -40 -11 -20 -30 -53 -41 -73 -12 -21 -30 -50 -40 -65 -11 -14 -19
-29 -19 -32 0 -4 -58 -93 -128 -199 -71 -106 -227 -322 -346 -482 -120 -159
-223 -297 -229 -305 -7 -8 -23 -31 -37 -50 -14 -19 -30 -42 -37 -50 -6 -8 -33
-44 -59 -80 -26 -36 -59 -81 -74 -100 -15 -19 -68 -97 -118 -172 -51 -76 -92
-139 -92 -142 0 -2 -17 -33 -38 -67 -21 -35 -50 -89 -64 -119 -14 -30 -34 -73
-43 -95 -9 -22 -21 -49 -25 -60 -4 -11 -12 -33 -18 -50 -5 -16 -15 -48 -20
-70 -6 -22 -17 -65 -24 -95 l-12 -55 0 -150 0 -150 13 -55 c8 -30 22 -84 33
-120 10 -36 22 -74 27 -85 5 -11 19 -42 32 -70 13 -27 37 -72 54 -100 16 -27
55 -84 87 -125 31 -41 80 -100 110 -130 29 -31 87 -85 128 -120 42 -36 104
-85 138 -110 34 -25 97 -66 140 -93 42 -26 122 -69 177 -96 55 -27 126 -61
158 -75 32 -14 62 -26 67 -26 6 0 18 -4 28 -10 9 -5 64 -25 122 -44 58 -19
148 -45 200 -59 52 -13 122 -30 155 -36 33 -7 80 -17 105 -21 25 -5 83 -13
130 -19 47 -6 131 -15 188 -21 56 -5 175 -10 264 -10 89 0 214 5 277 10 64 6
152 15 196 20 44 6 112 15 150 21 39 6 104 18 145 26 41 9 95 20 120 25 25 6
61 14 80 18 19 5 52 13 72 18 l38 10 56 -72 c32 -39 98 -111 148 -161 51 -49
134 -122 186 -161 52 -40 115 -83 140 -98 25 -14 88 -46 140 -72 52 -25 104
-50 115 -55 11 -4 61 -21 110 -37 50 -16 110 -34 135 -40 25 -6 70 -15 100
-21 30 -6 93 -15 139 -21 46 -5 101 -10 123 -10 l38 0 0 -31 c0 -18 4 -59 10
-93 5 -33 14 -100 20 -148 5 -49 15 -127 20 -175 6 -49 15 -117 20 -153 5 -36
14 -101 20 -145 7 -44 16 -102 22 -130 6 -27 20 -77 31 -110 11 -33 29 -75 39
-95 11 -19 37 -58 58 -85 22 -28 49 -60 62 -71 13 -11 44 -33 68 -50 25 -17
61 -38 80 -46 19 -9 53 -23 75 -31 22 -8 67 -21 100 -28 l60 -14 1145 0 1145
0 60 14 c33 7 80 20 105 28 25 8 61 22 80 31 19 8 60 33 91 53 31 21 76 60
100 87 24 27 58 76 76 109 17 32 40 88 51 123 11 36 25 90 30 120 6 30 16 87
21 125 6 39 15 108 21 155 6 47 15 117 20 155 5 39 14 108 20 155 6 47 16 109
21 139 5 30 9 67 9 83 l0 28 36 0 c19 0 68 5 107 10 40 6 99 15 132 21 33 5
83 15 110 21 28 6 91 24 140 40 50 17 108 37 130 46 22 10 86 40 142 69 56 28
130 71 165 94 35 23 97 70 138 103 41 34 108 95 148 136 41 41 97 105 124 142
l51 68 26 -6 c14 -3 37 -9 51 -14 14 -4 52 -13 85 -20 33 -6 78 -15 100 -20
22 -5 65 -13 95 -19 30 -5 87 -14 125 -20 39 -6 108 -15 155 -20 47 -6 157
-16 246 -22 l161 -11 159 11 c87 6 197 16 244 22 47 5 112 15 145 20 33 6 83
15 110 20 28 6 88 19 135 31 47 11 139 38 205 60 66 21 129 43 140 47 11 5 31
13 45 18 14 6 82 38 152 72 70 34 165 84 210 112 46 28 124 82 174 120 50 38
120 97 155 131 36 35 81 81 100 103 19 22 58 74 85 115 28 41 62 100 76 130
15 30 32 69 39 85 6 17 16 46 21 65 5 19 15 64 23 100 l15 65 0 112 0 111 -11
54 c-6 29 -18 81 -26 116 -8 35 -23 89 -33 120 -10 31 -28 81 -39 111 -12 30
-31 75 -43 100 -11 25 -35 75 -52 111 -18 36 -48 92 -66 125 -18 33 -60 104
-92 158 -32 54 -95 153 -140 220 -45 67 -131 192 -192 277 -61 85 -116 162
-123 170 -7 8 -32 43 -57 78 -25 34 -67 90 -92 125 -25 34 -55 75 -67 90 -12
16 -36 50 -54 75 -18 26 -77 112 -132 192 -54 80 -132 202 -174 272 -43 70
-77 129 -77 132 0 3 42 26 93 51 50 25 112 57 136 71 25 14 72 44 105 67 34
22 93 67 132 98 39 32 91 80 115 107 24 27 63 73 85 103 23 30 60 88 82 130
23 42 52 111 66 152 14 42 32 109 41 149 l15 73 0 135 0 135 -15 70 c-8 39
-21 97 -30 130 -8 33 -30 96 -47 140 -18 44 -53 121 -79 170 -25 50 -61 115
-79 145 -17 30 -49 78 -69 105 -20 28 -69 93 -108 145 -40 52 -82 107 -95 121
-13 15 -61 73 -108 130 -47 56 -89 107 -95 114 -5 6 -35 40 -65 75 -30 36 -57
67 -60 70 -3 3 -46 52 -95 110 -50 58 -112 132 -140 165 -27 32 -64 75 -81 94
-17 20 -66 79 -110 131 -44 52 -114 138 -155 190 -42 52 -111 142 -154 200
-43 58 -95 128 -115 155 -20 28 -64 88 -98 135 -33 47 -84 123 -113 170 -29
47 -70 114 -91 148 -22 35 -50 83 -63 105 -14 23 -39 70 -57 104 -18 34 -30
64 -28 65 3 2 37 18 75 37 39 19 104 57 145 85 41 27 107 75 145 107 39 31 89
79 110 105 22 27 42 51 45 54 4 3 24 32 46 65 22 33 55 89 72 125 17 36 38 86
46 112 9 26 23 80 31 120 l15 73 0 98 0 98 -11 47 c-5 26 -15 65 -21 87 -6 22
-14 49 -18 60 -4 11 -22 52 -40 90 -19 39 -47 90 -63 115 -17 25 -60 81 -96
125 -36 44 -112 134 -170 200 -58 66 -108 122 -111 125 -3 3 -30 32 -60 65
-30 33 -116 125 -190 205 -74 80 -169 181 -210 225 -41 44 -82 86 -90 95 -8 8
-71 76 -140 150 -69 74 -132 142 -140 150 -8 9 -44 47 -80 85 -36 39 -115 124
-176 190 -60 66 -132 145 -160 175 -27 30 -51 57 -54 60 -3 3 -43 48 -90 100
-47 52 -87 97 -90 100 -3 3 -34 39 -70 80 -36 41 -67 77 -70 80 -3 3 -34 39
-70 80 -36 41 -67 77 -70 80 -3 3 -30 34 -60 70 -30 36 -57 67 -60 70 -3 3
-30 34 -60 70 -30 36 -65 76 -76 90 -12 14 -46 54 -76 90 -29 36 -93 115 -141
175 -49 61 -95 119 -104 129 -8 10 -43 55 -77 100 -33 45 -63 83 -66 86 -3 3
-17 21 -30 40 -14 19 -30 42 -37 50 -6 8 -27 35 -45 60 -19 25 -49 68 -68 95
-19 28 -39 55 -45 61 -5 6 -65 94 -131 195 -67 101 -142 217 -168 258 -25 41
-46 79 -46 85 0 6 16 22 35 36 l34 25 33 51 34 51 14 56 13 57 -12 103 c-7 56
-16 129 -21 162 -5 33 -14 107 -20 165 -6 58 -15 135 -20 172 -6 37 -10 86
-10 108 l0 42 26 32 c15 17 89 96 164 176 76 80 184 197 241 261 l104 115 22
45 c12 24 28 66 34 92 l12 49 -13 56 c-7 32 -19 71 -28 87 -8 17 -24 43 -36
58 -11 15 -42 41 -68 58 -26 17 -65 35 -86 40 -20 5 -93 20 -162 34 -69 13
-145 29 -170 34 -25 6 -72 15 -105 21 -33 7 -78 16 -100 20 -22 5 -65 14 -95
20 -30 7 -74 17 -97 22 -24 6 -47 16 -52 22 -5 6 -33 52 -61 101 -29 50 -61
106 -72 125 -11 19 -24 40 -28 45 -4 6 -21 35 -37 65 -17 30 -54 96 -83 145
-29 50 -62 106 -72 125 -11 19 -29 49 -41 65 -11 17 -34 43 -51 58 -17 16 -51
38 -76 50 l-45 21 -70 3z m-6 -577 c3 0 12 -10 20 -21 7 -12 21 -37 32 -55 10
-19 27 -49 38 -66 10 -18 32 -55 48 -83 16 -27 49 -86 73 -130 24 -44 51 -94
61 -112 10 -17 29 -50 43 -71 14 -22 36 -51 49 -64 l24 -24 44 -16 c24 -9 71
-21 104 -28 33 -6 80 -16 105 -20 25 -5 68 -13 95 -18 28 -6 77 -15 110 -22
33 -6 74 -15 91 -21 17 -5 39 -9 49 -9 10 0 35 -5 56 -12 22 -6 39 -14 39 -17
0 -3 -51 -58 -112 -122 -62 -63 -163 -168 -224 -231 l-111 -116 -23 -57 -23
-57 12 -101 c6 -56 16 -138 21 -182 5 -44 14 -127 20 -185 6 -58 13 -122 16
-142 l4 -38 -17 0 c-10 0 -53 18 -98 39 -44 21 -116 56 -160 76 -44 20 -116
54 -160 75 -44 21 -102 48 -130 60 -27 12 -66 25 -87 28 l-38 5 -32 -13 c-18
-7 -49 -19 -68 -28 -19 -8 -80 -36 -135 -62 -55 -26 -149 -71 -210 -100 -60
-28 -129 -61 -152 -73 -24 -11 -45 -19 -47 -16 -2 2 0 40 5 84 4 44 13 118 19
165 7 47 16 121 21 165 5 44 12 123 15 175 l6 95 -21 45 -21 45 -61 65 c-34
36 -96 101 -138 145 -42 44 -111 117 -153 163 -43 46 -78 86 -78 91 0 4 24 13
53 20 28 6 70 16 92 21 22 4 66 13 98 19 31 6 83 16 115 22 31 6 75 15 97 19
22 5 65 14 95 21 30 6 73 18 95 26 22 8 49 22 60 31 11 9 30 31 41 47 12 17
34 55 51 85 17 30 41 75 55 100 14 25 36 65 50 90 14 25 34 61 45 80 11 19 44
74 73 123 28 48 55 87 59 87z m-6 -2221 c15 1 35 -3 45 -8 9 -5 28 -14 42 -19
14 -6 61 -27 105 -47 44 -20 96 -43 115 -52 19 -8 44 -19 55 -25 l21 -9 26
-47 c14 -26 40 -74 58 -107 18 -33 51 -89 72 -124 21 -34 38 -65 38 -67 0 -2
21 -37 47 -77 25 -39 97 -148 159 -242 63 -93 130 -192 149 -220 19 -27 41
-57 48 -65 7 -8 23 -31 37 -50 13 -19 69 -96 124 -170 55 -74 118 -158 141
-186 22 -28 51 -66 65 -84 14 -18 54 -70 90 -114 36 -45 67 -83 70 -86 3 -3
35 -41 70 -85 35 -44 91 -111 124 -150 32 -38 80 -94 105 -124 25 -30 89 -104
141 -165 52 -61 97 -113 100 -116 3 -3 34 -39 70 -80 36 -41 67 -77 70 -80 3
-3 39 -43 80 -90 41 -47 77 -87 80 -90 3 -3 43 -48 90 -100 47 -52 87 -97 90
-100 3 -3 57 -61 120 -130 63 -69 144 -156 180 -195 36 -38 103 -110 150 -160
47 -49 92 -96 100 -105 8 -9 49 -51 90 -95 41 -44 134 -143 206 -220 71 -77
174 -188 227 -247 53 -59 97 -111 97 -116 l0 -10 -32 -5 c-18 -3 -51 -10 -73
-15 -22 -6 -69 -18 -105 -27 -36 -9 -84 -20 -107 -25 -24 -6 -62 -14 -85 -19
-24 -5 -68 -14 -98 -19 -30 -6 -86 -16 -125 -22 -38 -6 -92 -15 -118 -21 -27
-5 -64 -9 -82 -9 -18 0 -55 -4 -82 -9 -26 -6 -95 -14 -153 -20 -58 -6 -186
-16 -286 -22 l-181 -12 -24 22 c-13 13 -41 31 -61 42 -21 10 -47 19 -59 19
l-21 0 -31 -22 c-17 -12 -43 -36 -57 -52 l-27 -29 -15 6 -16 5 5 25 5 24 -11
41 -11 41 -38 30 -37 31 -58 0 -57 0 -53 36 c-28 20 -67 42 -86 50 -18 8 -49
14 -67 14 l-34 0 -45 -21 -46 -21 -32 -39 -33 -38 -24 -70 -23 -70 -45 -7 -45
-7 -136 6 c-75 2 -165 10 -201 15 -36 6 -103 16 -150 22 -47 6 -116 16 -155
21 -38 5 -99 14 -135 20 -36 5 -89 14 -117 19 -29 6 -79 15 -110 21 -32 5 -83
15 -113 21 -30 6 -68 14 -85 18 -16 4 -57 13 -90 20 -33 7 -121 29 -195 47
-74 19 -150 39 -167 44 -18 5 -49 14 -68 19 -19 6 -52 15 -72 21 -21 5 -51 14
-68 18 -16 5 -82 25 -145 46 -63 21 -124 41 -135 46 -11 4 -68 24 -126 43 -58
19 -137 47 -175 61 -38 15 -78 30 -89 35 -11 4 -32 12 -47 19 -16 6 -38 15
-50 20 -13 5 -39 15 -59 22 l-36 12 1 126 1 126 -14 50 c-8 27 -30 80 -48 117
l-33 68 -67 68 -68 68 -48 27 c-26 14 -76 36 -110 48 l-62 23 -115 0 -115 1
-40 -13 c-22 -8 -51 -18 -65 -24 -14 -6 -34 -15 -45 -21 -11 -6 -33 -17 -49
-25 -16 -9 -58 -44 -92 -78 l-63 -63 -46 25 c-25 14 -45 28 -45 31 0 3 55 71
122 152 68 80 125 148 128 151 3 3 75 88 160 190 85 102 157 187 160 190 3 3
25 30 50 60 25 30 47 57 50 60 3 3 25 30 50 60 25 30 47 57 50 60 3 3 44 52
90 110 46 58 87 107 90 110 3 3 36 43 74 90 37 47 73 92 79 100 7 8 23 29 37
46 14 17 36 46 50 64 14 18 44 57 68 87 23 29 113 146 198 260 86 115 161 215
168 224 7 9 33 44 57 79 24 34 70 99 102 144 31 44 115 167 186 271 70 105
147 222 171 260 24 39 61 99 82 134 22 35 49 80 60 100 12 20 30 53 42 74 l20
38 61 28 c33 16 96 45 140 65 44 20 96 45 115 56 19 10 47 19 63 19z m-2168
-3380 l40 1 53 -19 c30 -11 69 -32 88 -46 18 -14 45 -41 59 -60 15 -18 35 -57
46 -85 l19 -50 0 -53 0 -52 -13 -35 c-6 -19 -22 -51 -34 -70 -12 -19 -34 -47
-50 -62 -15 -14 -44 -35 -63 -45 -19 -11 -60 -25 -91 -32 l-56 -14 -54 13
c-30 7 -70 22 -89 32 -19 11 -52 36 -72 56 l-37 36 -21 44 -21 44 -6 63 -6 64
18 53 17 53 31 41 32 42 42 26 c23 15 61 33 85 40 24 8 61 14 83 15z m-843
-239 c5 0 39 -19 76 -41 37 -23 83 -51 102 -62 19 -11 48 -27 65 -37 l30 -17
12 -53 c6 -29 27 -85 47 -124 l35 -71 48 -50 c26 -28 64 -62 83 -77 19 -14 51
-35 70 -45 19 -10 55 -25 80 -32 25 -7 55 -17 68 -22 l23 -9 102 0 102 1 47
12 c26 7 50 16 54 20 4 4 14 7 22 7 7 0 27 9 43 21 l30 21 32 -15 c18 -8 50
-22 72 -32 22 -9 49 -20 60 -25 11 -4 31 -12 45 -18 14 -5 63 -24 110 -42 47
-18 94 -36 105 -40 11 -4 36 -13 55 -20 19 -7 44 -16 55 -21 11 -4 101 -35
200 -67 99 -33 205 -67 235 -77 30 -9 69 -21 85 -25 17 -5 64 -18 105 -29 41
-11 111 -29 155 -41 44 -12 98 -26 120 -31 22 -6 56 -14 75 -18 19 -5 60 -14
90 -21 30 -7 73 -16 95 -21 22 -5 65 -14 95 -20 30 -6 75 -15 100 -20 25 -5
68 -13 95 -18 28 -5 79 -14 115 -21 36 -6 94 -15 130 -20 36 -6 99 -15 140
-20 41 -6 111 -15 155 -21 44 -6 120 -14 170 -18 l90 -6 3 -20 c2 -11 8 -31
15 -45 7 -14 17 -30 22 -36 6 -6 20 -16 32 -22 l22 -12 61 0 60 0 11 -27 10
-26 -13 -9 c-7 -5 -25 -11 -40 -14 l-28 -6 -30 -29 -30 -29 -6 -24 -6 -25 11
-101 c6 -55 11 -133 11 -172 l0 -70 22 -39 22 -40 24 -6 c13 -3 42 -3 66 -1
l42 5 13 -31 c7 -17 18 -42 24 -56 7 -14 25 -46 41 -71 l29 -45 33 -22 34 -22
39 0 39 0 28 29 c16 16 41 43 55 60 l27 31 41 0 41 0 0 -18 c0 -10 -4 -22 -9
-28 -6 -5 -11 -31 -13 -59 l-3 -49 -35 -9 c-19 -4 -53 -13 -75 -18 -22 -5 -84
-15 -138 -21 l-97 -11 -108 11 c-59 6 -127 15 -152 21 -25 5 -72 16 -105 25
-33 9 -85 26 -115 38 -30 11 -102 43 -160 71 -58 27 -124 63 -147 79 -23 15
-44 28 -48 28 -3 0 -38 21 -78 48 -40 26 -88 53 -108 60 -19 6 -49 12 -65 12
-16 0 -45 -6 -64 -13 -20 -6 -48 -20 -64 -30 -15 -10 -35 -25 -44 -33 -9 -7
-44 -34 -76 -58 -32 -24 -93 -64 -135 -89 -42 -25 -103 -59 -136 -75 -33 -17
-76 -37 -95 -45 -19 -8 -55 -23 -80 -32 -25 -10 -58 -22 -75 -27 -16 -5 -46
-14 -65 -18 -19 -5 -66 -16 -105 -25 l-70 -17 -155 -1 -155 0 -55 15 c-30 9
-77 23 -103 33 -26 9 -75 32 -109 52 -33 19 -86 58 -117 86 -31 28 -76 74 -99
102 -24 27 -66 82 -93 121 -26 40 -64 85 -84 101 l-35 29 -48 13 -48 12 -59
-16 c-33 -9 -76 -21 -95 -26 -19 -6 -51 -15 -70 -20 -19 -6 -53 -15 -75 -20
-22 -6 -60 -14 -85 -20 -25 -5 -72 -14 -105 -20 -33 -5 -94 -15 -135 -20 -41
-5 -139 -12 -218 -16 l-143 -6 -107 12 c-59 7 -126 16 -149 22 -24 5 -64 14
-90 20 -27 6 -68 18 -93 26 -25 8 -79 30 -120 50 -41 20 -101 53 -132 74 -31
22 -86 69 -123 106 l-66 67 -33 56 c-19 32 -43 84 -54 116 -11 32 -25 83 -31
112 -6 29 -11 76 -11 105 1 29 7 77 14 107 8 30 22 75 31 100 10 25 42 79 72
120 29 41 85 113 124 160 39 47 80 96 92 110 12 14 67 77 121 140 54 63 108
126 120 140 11 14 50 59 86 100 36 41 84 95 107 120 22 25 63 71 89 103 27 31
52 57 56 57z m4467 -770 c9 0 33 -11 53 -25 20 -14 42 -25 47 -25 6 0 11 -4
11 -9 0 -5 -22 -25 -49 -44 l-49 -36 -18 -30 -18 -31 -13 0 -12 0 -16 30 c-8
16 -15 34 -15 40 0 5 10 32 22 58 12 26 26 53 31 60 5 6 17 12 26 12z m2557
-221 l22 1 33 -67 33 -68 1 -110 0 -110 -15 -45 c-8 -25 -25 -65 -38 -90 -14
-25 -41 -65 -60 -90 -20 -25 -48 -55 -62 -68 -14 -13 -50 -40 -80 -61 -30 -21
-77 -50 -105 -64 -27 -14 -66 -32 -85 -40 -19 -8 -48 -19 -65 -24 -16 -6 -46
-15 -65 -20 -19 -6 -55 -15 -80 -21 -25 -6 -74 -16 -110 -23 l-65 -13 -220 0
-220 0 -70 13 c-38 7 -78 16 -89 20 l-18 7 -14 39 -13 39 13 31 c8 16 19 45
25 64 6 19 11 54 11 78 l0 43 -20 43 -21 44 -35 34 -35 34 -72 0 -72 0 -12 8
-13 8 0 22 1 22 39 44 40 43 127 9 c71 4 144 10 163 13 19 3 76 10 125 16 50
6 117 16 150 21 33 5 85 14 115 20 30 6 80 15 110 20 30 6 73 14 95 19 22 5
67 14 100 21 33 7 139 32 235 56 96 25 189 48 205 53 17 5 44 13 60 18 17 6
40 11 51 11z m-2845 -29 l48 0 20 -29 c12 -16 21 -39 21 -50 l0 -21 -18 0
c-10 0 -40 -11 -67 -24 -26 -14 -52 -31 -56 -38 -4 -7 -10 -10 -13 -7 -3 2 -8
36 -12 73 l-7 69 18 14 19 13 47 0z m860 -60 l39 0 -7 -27 c-5 -16 -8 -58 -7
-95 l1 -68 -12 0 c-7 0 -33 3 -59 6 l-47 7 -32 46 c-17 25 -39 55 -49 66 l-19
19 3 15 3 15 67 -3 66 -2 7 10 6 11 40 0z m-442 -30 l11 0 0 -15 c0 -8 -4 -23
-9 -33 -5 -9 -19 -37 -30 -62 -12 -25 -28 -52 -34 -61 -7 -10 -29 -26 -48 -37
-19 -11 -53 -23 -75 -26 l-41 -7 -13 15 -12 16 12 15 c7 9 29 23 49 32 l36 17
72 73 c39 40 76 73 82 73z m153 -226 c6 -4 25 -23 41 -41 16 -19 50 -46 76
-61 l46 -27 105 -2 c58 -2 106 -3 107 -3 1 0 -14 -25 -32 -56 -19 -31 -41 -81
-50 -110 l-15 -52 10 -27 c5 -14 10 -37 10 -50 l0 -24 -12 -7 -11 -7 -125 2
-125 2 -56 -22 c-31 -13 -71 -31 -89 -41 l-33 -18 -10 5 c-5 4 -7 10 -4 14 2
5 0 37 -6 72 -6 35 -15 78 -22 94 -6 17 -28 56 -49 87 -21 31 -38 62 -38 67
l0 11 28 6 c15 3 36 9 47 14 11 4 42 18 69 31 l49 24 30 40 c16 22 33 50 38
63 l9 23 12 -7z m599 -289 c19 -4 58 -8 87 -8 l52 0 0 -8 c0 -4 -20 -29 -44
-56 l-45 -48 -23 25 c-13 14 -30 39 -38 55 -8 17 -16 34 -18 39 l-5 9 34 -8z
m-1087 -15 l21 -1 40 -56 c22 -30 45 -69 52 -86 8 -16 11 -32 9 -35 -3 -2 -12
3 -21 12 -10 9 -30 23 -47 32 l-29 15 -30 -6 -29 -7 0 60 c0 32 3 62 7 65 3 4
16 7 27 7z m588 -356 c18 -1 36 -3 41 -3 4 -1 7 -5 7 -10 0 -5 -13 -19 -29
-30 l-29 -21 -16 25 c-9 14 -14 29 -12 34 l6 9 32 -4z m457 -274 c3 0 32 -6
65 -14 34 -8 86 -19 116 -25 30 -5 82 -15 115 -20 33 -5 105 -15 160 -22 l100
-11 230 5 c127 3 242 8 256 12 l27 7 41 -84 c23 -45 53 -103 68 -128 14 -25
34 -58 43 -75 9 -16 31 -53 48 -81 16 -28 76 -121 132 -205 57 -85 125 -185
153 -224 28 -38 82 -113 121 -165 39 -52 76 -102 83 -110 7 -8 57 -71 112
-140 l99 -125 -7 -8 c-4 -4 -43 -12 -87 -18 -43 -5 -113 -14 -154 -19 -41 -6
-118 -15 -170 -20 -52 -6 -142 -15 -200 -21 -58 -6 -154 -14 -215 -19 -60 -5
-211 -15 -335 -22 l-225 -12 -430 0 -430 0 -245 12 c-135 7 -308 17 -385 22
-77 5 -189 14 -250 19 -60 6 -150 15 -200 20 -49 6 -128 15 -175 21 -47 5
-116 14 -155 19 -38 6 -106 15 -150 21 -44 6 -109 15 -145 20 -36 5 -94 14
-130 20 -36 6 -91 15 -122 20 -32 6 -86 15 -120 21 -35 6 -83 14 -108 19 -25
4 -72 13 -105 20 -33 6 -79 16 -102 21 -24 5 -64 14 -90 19 -27 6 -66 15 -88
20 -22 5 -58 13 -80 18 -22 6 -62 15 -90 21 -27 6 -122 29 -210 51 -88 23
-194 50 -235 61 -41 11 -90 25 -107 30 -18 5 -49 14 -68 19 -19 6 -52 15 -72
21 -21 5 -51 14 -68 19 -16 4 -55 16 -85 25 -30 9 -64 21 -75 25 -11 4 -110
37 -220 73 -110 36 -237 79 -283 96 -45 16 -86 32 -91 35 -5 3 -21 32 -37 63
l-28 58 -70 70 -71 70 -65 32 c-36 17 -74 34 -85 38 -11 4 -49 13 -85 21 -36
8 -85 14 -110 14 -25 0 -75 -6 -112 -14 -37 -8 -81 -21 -99 -30 -18 -9 -36
-16 -41 -16 -5 0 -48 18 -96 41 -48 22 -133 63 -189 91 -57 28 -103 53 -103
57 0 3 9 20 21 36 11 17 25 41 30 54 l9 23 23 -6 c12 -4 47 -12 77 -17 30 -6
80 -15 110 -20 30 -5 126 -13 212 -18 l157 -10 143 9 c79 5 172 14 208 19 36
6 92 15 125 21 33 5 80 14 105 19 25 6 65 15 90 21 25 6 59 14 76 17 l32 5 18
-30 c9 -17 63 -75 118 -130 l101 -98 75 -50 c41 -28 100 -62 130 -76 30 -14
71 -33 90 -41 19 -8 62 -24 95 -35 33 -11 85 -24 115 -31 30 -6 79 -15 108
-21 l53 -10 115 0 c63 0 148 5 187 10 40 6 97 16 127 22 30 6 80 17 110 25 30
8 69 18 85 23 17 4 39 11 50 15 11 4 29 10 40 15 11 4 36 14 55 21 19 7 60 23
90 37 30 13 82 37 115 53 33 16 83 43 110 59 28 17 57 33 65 37 8 4 42 24 75
46 33 22 63 45 67 51 l7 11 22 -13 c12 -8 38 -23 58 -35 20 -11 77 -41 126
-67 50 -25 110 -54 135 -64 25 -10 59 -24 75 -31 17 -7 59 -23 95 -34 36 -12
79 -25 95 -30 17 -5 48 -13 70 -19 22 -6 65 -15 95 -21 30 -5 85 -15 121 -20
l66 -11 118 0 118 0 66 11 c36 6 95 18 131 26 36 8 85 22 110 30 25 7 54 18
65 22 11 5 45 21 75 35 30 15 75 38 99 52 24 14 62 40 85 57 22 18 74 64 114
102 41 39 95 98 120 133 25 34 48 62 51 62z m-5964 -610 c8 0 36 -12 62 -28
26 -15 89 -47 138 -72 50 -24 92 -45 94 -47 2 -1 -5 -26 -15 -55 l-18 -53 0
-125 0 -125 23 -65 c13 -36 36 -88 52 -117 17 -28 50 -75 76 -103 25 -28 64
-64 87 -79 23 -16 57 -37 76 -48 19 -10 55 -25 80 -32 25 -7 55 -17 68 -22
l23 -9 113 0 113 0 64 20 c35 12 75 26 89 33 14 6 45 25 70 41 25 16 65 47 88
70 24 23 56 59 72 81 15 22 37 57 49 78 11 21 21 44 21 52 0 8 4 15 10 15 5 0
97 -29 202 -63 106 -35 218 -72 248 -81 30 -10 84 -27 120 -38 36 -11 81 -24
100 -29 19 -6 51 -15 70 -20 19 -6 49 -14 65 -19 17 -5 47 -14 68 -19 20 -6
52 -15 70 -20 17 -5 68 -19 112 -31 44 -12 96 -26 115 -30 19 -5 54 -14 78
-20 23 -5 59 -14 80 -19 20 -5 60 -14 87 -21 28 -6 66 -15 85 -19 19 -5 60
-14 90 -21 30 -7 73 -16 95 -21 22 -5 65 -14 95 -20 30 -6 75 -15 100 -20 25
-5 72 -14 105 -20 33 -6 80 -14 105 -19 25 -5 72 -13 105 -19 33 -6 89 -15
125 -21 36 -6 94 -15 130 -21 36 -5 95 -14 133 -19 37 -6 100 -15 140 -20 39
-6 113 -15 162 -21 50 -6 126 -14 170 -19 44 -5 132 -14 195 -20 63 -6 161
-15 217 -19 57 -4 105 -10 108 -13 4 -3 -9 -21 -27 -40 -19 -18 -52 -60 -74
-93 -22 -33 -48 -77 -58 -99 -10 -21 -22 -53 -28 -70 -5 -17 -16 -56 -23 -86
l-14 -55 -1 -79 0 -79 11 -41 c6 -22 16 -59 22 -81 6 -22 24 -63 38 -92 15
-29 41 -73 58 -97 17 -25 57 -68 89 -96 31 -27 73 -59 92 -70 19 -11 51 -27
70 -36 19 -9 44 -20 55 -24 11 -4 40 -14 65 -21 l45 -14 125 0 125 0 45 13
c25 8 53 18 62 23 10 5 22 9 27 9 6 0 38 16 73 37 l63 36 76 76 75 76 41 81
40 80 19 70 18 69 0 85 c1 47 -3 100 -7 118 l-9 32 16 0 c8 0 40 11 70 25 l55
25 48 47 48 48 22 42 c12 24 28 67 34 97 l13 53 210 7 c116 3 274 11 351 16
77 5 190 14 250 19 61 6 153 15 205 20 52 6 136 15 185 21 50 6 122 15 160 20
39 5 99 13 135 19 36 5 97 15 135 20 39 6 93 15 120 20 28 4 57 11 65 14 l15
7 11 -8 c5 -4 95 -106 198 -227 104 -121 198 -231 210 -245 12 -14 67 -81 122
-150 55 -69 132 -170 172 -225 l71 -100 59 -115 c32 -63 64 -135 71 -160 7
-25 17 -56 21 -70 5 -14 14 -62 21 -108 l13 -83 -13 -77 c-7 -42 -19 -97 -27
-122 -9 -25 -23 -61 -32 -80 -8 -19 -29 -55 -46 -80 -16 -25 -53 -69 -80 -99
l-51 -53 -85 -57 c-47 -32 -110 -69 -140 -83 -30 -14 -73 -34 -95 -43 -22 -9
-49 -21 -60 -26 -11 -4 -49 -17 -85 -28 -36 -11 -83 -24 -105 -30 -22 -5 -60
-14 -85 -20 -25 -5 -70 -14 -100 -20 -30 -6 -84 -15 -120 -20 -36 -6 -131 -15
-211 -22 l-146 -12 -224 7 c-123 3 -269 11 -324 16 -55 5 -134 14 -175 19 -41
5 -103 15 -137 20 -35 6 -89 16 -120 21 -32 6 -78 14 -103 20 -25 5 -65 14
-90 19 -25 5 -65 14 -90 20 -25 6 -99 24 -165 42 -66 17 -138 35 -160 40 -22
5 -56 12 -75 15 l-35 6 -57 -22 -57 -21 -30 -35 c-17 -19 -40 -56 -52 -82 -12
-26 -28 -63 -37 -82 -9 -19 -38 -69 -66 -110 l-50 -75 -65 -66 c-36 -36 -93
-83 -126 -105 -33 -22 -76 -48 -95 -56 -19 -9 -55 -23 -80 -31 -25 -8 -67 -21
-95 -28 l-50 -14 -155 0 -155 0 -60 13 c-33 8 -78 18 -100 24 -22 6 -67 19
-100 30 -33 11 -70 24 -82 29 -13 5 -33 13 -45 18 -13 5 -63 28 -113 52 -49
24 -119 61 -155 83 -36 21 -99 62 -140 89 -41 28 -119 84 -174 124 -54 41
-114 80 -133 88 l-35 15 -49 0 -49 0 -44 -20 c-24 -12 -52 -29 -62 -38 -11 -9
-38 -31 -59 -48 -22 -17 -89 -64 -150 -104 -60 -41 -146 -94 -190 -120 -44
-25 -96 -53 -115 -62 -19 -9 -61 -28 -93 -42 -32 -14 -63 -26 -70 -26 -7 0
-17 -4 -23 -8 -5 -4 -25 -13 -44 -19 -19 -6 -75 -20 -125 -31 -49 -11 -120
-25 -156 -31 -37 -6 -104 -11 -150 -11 l-84 0 -75 15 c-41 8 -91 19 -110 24
-19 5 -48 14 -65 20 -16 7 -46 20 -65 29 -19 8 -60 32 -90 53 -30 20 -81 63
-114 95 l-58 59 -57 85 c-32 47 -74 121 -96 164 l-38 79 -29 28 c-16 15 -46
35 -66 45 l-37 19 -60 -1 -60 0 -40 -13 c-22 -7 -56 -17 -75 -22 -19 -6 -53
-15 -75 -20 -22 -6 -58 -14 -80 -20 -22 -6 -59 -14 -82 -20 -24 -5 -62 -13
-85 -18 -24 -5 -68 -14 -98 -21 -30 -7 -75 -16 -100 -20 -25 -5 -74 -13 -110
-20 -36 -6 -96 -15 -135 -21 -38 -5 -113 -14 -165 -20 l-95 -11 -280 -5 -280
-5 -105 11 c-58 7 -134 16 -170 22 -36 6 -90 15 -120 20 -30 6 -75 15 -100 20
-25 6 -63 15 -85 21 -22 6 -80 24 -130 40 -49 17 -139 54 -200 83 l-110 53
-60 45 c-33 25 -80 65 -105 89 -25 23 -59 61 -77 83 -17 22 -39 56 -50 75 -11
19 -27 54 -36 77 -9 23 -23 75 -32 115 -8 40 -15 93 -15 117 0 25 5 72 11 105
7 34 21 93 32 131 l20 70 57 110 c31 61 85 153 120 205 35 52 100 142 144 200
44 58 116 150 160 205 44 55 83 102 86 105 3 3 25 30 50 60 25 30 55 66 66 80
12 14 57 68 100 120 43 52 81 97 84 100 3 3 25 30 50 60 25 30 47 57 51 60 3
3 88 109 189 235 102 127 227 286 278 355 52 69 102 136 112 150 10 14 47 64
83 112 36 47 84 114 106 147 l42 61 14 0z m864 -41 l73 1 65 -31 65 -31 36
-37 c21 -20 47 -57 59 -81 12 -25 26 -60 32 -79 6 -19 11 -53 11 -76 0 -23 -5
-57 -11 -76 -6 -19 -20 -54 -32 -78 l-22 -44 -42 -42 -42 -42 -43 -20 c-24
-11 -69 -25 -101 -32 l-58 -13 -52 13 c-29 7 -67 18 -85 26 -18 7 -51 30 -73
50 -22 20 -49 49 -60 65 -12 16 -30 52 -40 81 l-19 52 0 62 0 62 21 55 20 55
44 48 43 49 44 21 c23 11 54 25 68 31 l25 11 74 0z m5171 -1329 l100 0 0 -13
0 -13 -37 -21 c-21 -11 -52 -24 -69 -27 l-31 -7 -32 36 c-17 20 -31 38 -31 40
0 3 45 5 100 5z m-753 -51 l62 1 37 -21 c20 -11 42 -25 48 -32 6 -7 23 -28 36
-47 l25 -35 0 -75 0 -75 -20 -35 -21 -35 -48 -32 -48 -33 -63 0 -63 0 -35 15
-36 15 -31 37 c-18 21 -38 56 -46 78 -7 22 -14 54 -14 71 0 17 7 48 15 67 8
20 29 52 47 72 17 20 45 42 62 50 l31 13 62 1z m401 -619 c13 0 33 -5 45 -11
12 -6 30 -21 39 -33 l18 -21 0 -41 0 -41 -25 -26 -25 -25 -25 -4 c-14 -3 -36
-3 -50 0 l-25 4 -25 25 -25 26 0 43 0 43 37 30 38 31 23 0z m-4514 -1764 l28
-1 25 -45 c14 -25 50 -77 80 -116 30 -40 84 -100 121 -135 37 -35 81 -76 98
-90 16 -14 57 -43 89 -65 33 -22 98 -59 145 -81 47 -22 112 -50 145 -61 33
-11 80 -24 105 -30 25 -5 70 -16 100 -23 l55 -13 180 0 180 0 70 13 c39 7 86
16 105 21 19 5 58 14 85 21 28 6 91 25 140 41 50 16 99 33 110 37 11 5 31 13
45 19 14 6 77 36 140 66 63 31 134 67 158 81 24 14 91 57 150 97 59 39 117 79
128 90 l22 20 18 -16 c11 -9 46 -36 78 -60 32 -24 95 -66 140 -92 45 -27 104
-61 131 -76 28 -15 77 -41 110 -57 33 -16 78 -36 100 -46 22 -9 51 -22 65 -27
14 -6 34 -14 45 -19 11 -4 49 -17 85 -29 36 -11 79 -24 95 -29 17 -5 48 -13
70 -19 22 -6 65 -15 95 -21 30 -5 85 -15 121 -20 l66 -11 118 0 118 0 66 11
c36 5 91 15 121 21 30 6 89 22 130 35 41 13 109 41 150 60 41 20 102 55 135
77 33 21 96 69 140 106 l80 67 64 80 c36 44 84 111 107 149 l42 69 18 -1 c11
-1 42 -7 69 -13 28 -7 70 -16 95 -21 25 -6 65 -14 90 -20 25 -6 70 -15 100
-21 30 -6 78 -15 105 -20 28 -5 79 -14 115 -19 36 -6 97 -15 135 -21 39 -5
111 -14 160 -19 50 -5 164 -15 255 -21 l165 -11 240 5 c132 3 283 11 335 17
52 6 124 15 160 21 36 6 76 12 90 15 l26 5 44 -78 c24 -43 56 -97 72 -120 15
-23 28 -44 28 -46 0 -3 19 -36 41 -73 23 -38 48 -74 55 -82 8 -7 14 -15 14
-17 0 -2 -24 -15 -52 -28 l-53 -25 -85 -13 -85 -12 -72 -33 -72 -32 -48 -44
c-26 -24 -59 -49 -73 -55 -14 -6 -79 -32 -145 -58 -66 -26 -131 -51 -145 -55
-14 -5 -63 -22 -110 -40 -47 -17 -119 -42 -160 -56 -41 -14 -84 -29 -95 -33
-11 -5 -81 -28 -155 -51 -74 -24 -155 -50 -180 -58 -25 -8 -60 -18 -77 -23
-18 -5 -49 -13 -68 -19 -19 -5 -50 -14 -67 -19 -18 -5 -69 -19 -113 -31 -44
-12 -97 -26 -117 -31 -21 -5 -57 -14 -80 -19 -24 -6 -61 -15 -83 -21 -22 -5
-56 -14 -75 -18 -19 -5 -60 -14 -90 -21 -30 -7 -73 -16 -95 -21 -22 -5 -65
-14 -95 -20 -30 -6 -73 -15 -95 -19 -22 -4 -67 -13 -100 -19 -33 -7 -85 -16
-115 -22 -30 -5 -81 -14 -112 -19 -32 -6 -86 -15 -120 -20 -35 -6 -92 -15
-128 -21 -36 -5 -96 -14 -135 -20 -38 -5 -104 -14 -145 -19 -41 -6 -113 -15
-160 -20 -47 -6 -132 -15 -190 -20 -58 -6 -159 -15 -225 -20 -66 -5 -212 -15
-325 -22 l-205 -12 -285 0 -285 -1 5 40 c3 22 5 85 4 140 l-1 100 -22 65 c-13
36 -37 91 -53 122 l-30 57 -51 56 -51 57 -55 37 c-31 20 -68 42 -83 49 -16 6
-38 16 -50 21 -13 5 -42 14 -64 20 l-41 11 -101 0 -101 0 -58 -15 c-32 -8 -92
-32 -133 -52 l-74 -37 -76 -76 -75 -75 -32 -65 c-18 -36 -41 -94 -53 -129
l-20 -64 0 -109 0 -109 -62 6 c-35 3 -103 10 -153 16 -49 5 -128 14 -175 20
-47 5 -114 14 -150 19 -36 5 -101 14 -145 20 -44 6 -105 15 -135 20 -30 5 -86
14 -125 20 -38 6 -94 16 -122 21 -29 5 -78 14 -108 19 -30 6 -81 15 -112 21
-32 6 -76 14 -98 19 -22 5 -67 14 -100 20 -33 7 -71 16 -85 20 -14 4 -50 13
-80 19 -30 7 -71 16 -90 21 -19 5 -75 19 -125 30 -49 12 -99 23 -110 26 -11 3
-69 18 -130 34 -60 16 -141 39 -180 50 -38 12 -83 25 -100 30 -16 4 -50 14
-75 22 -25 8 -79 25 -120 38 -41 13 -115 36 -165 52 -49 16 -99 33 -110 38
-11 5 -54 20 -95 34 -41 14 -111 38 -155 54 -44 16 -100 37 -125 47 -25 9 -55
21 -67 26 -13 5 -33 13 -45 18 -13 5 -44 18 -70 30 -26 12 -50 21 -53 21 -2 0
-33 13 -67 28 -35 16 -78 35 -95 43 -18 8 -33 17 -33 22 0 4 23 41 50 82 28
41 50 77 50 80 0 3 32 53 70 110 39 57 70 107 70 110 0 4 13 25 28 48 15 23
33 53 40 67 7 14 19 33 26 43 l14 18 63 -12 c35 -6 89 -15 119 -21 30 -5 89
-13 130 -18 41 -5 174 -16 294 -24 l219 -14 231 14 c127 7 251 16 276 19 25 3
83 10 130 16 47 6 110 14 140 19 30 5 82 14 115 19 33 6 96 18 140 27 44 9 99
21 123 25 23 5 61 13 85 18 23 5 65 16 92 24 28 8 63 14 79 13z m7301 -877
l60 1 35 -13 c19 -6 52 -22 72 -35 20 -12 50 -38 67 -57 16 -19 36 -49 44 -67
8 -18 20 -48 26 -67 6 -19 11 -51 11 -71 0 -20 -5 -52 -11 -71 -6 -19 -20 -53
-31 -76 -12 -23 -35 -56 -53 -72 -18 -16 -50 -38 -71 -49 -22 -10 -61 -25 -87
-32 l-48 -13 -57 13 c-31 7 -75 21 -97 32 -22 12 -57 38 -77 59 -20 21 -43 53
-51 71 -8 18 -20 48 -26 67 -6 19 -11 53 -11 77 l0 43 20 54 20 54 35 41 c20
22 52 51 73 64 20 13 50 28 67 34 l30 12 60 1z m-10142 -159 c9 0 25 -4 35 -9
9 -5 33 -16 52 -24 19 -9 134 -54 255 -102 121 -48 230 -91 243 -96 12 -5 32
-13 45 -18 12 -5 38 -14 57 -21 19 -7 44 -16 55 -21 11 -4 40 -15 65 -23 25
-8 90 -31 145 -50 55 -20 108 -36 118 -36 l17 0 0 -10 0 -10 -31 0 c-16 0 -51
-5 -77 -11 -26 -5 -65 -15 -87 -21 -22 -6 -50 -14 -62 -19 -13 -5 -34 -13 -48
-19 -14 -5 -37 -15 -52 -22 -16 -7 -65 -36 -109 -66 l-82 -53 -59 -62 c-33
-34 -82 -96 -109 -137 -27 -41 -55 -87 -62 -102 -6 -16 -16 -38 -21 -50 -6
-13 -17 -44 -25 -70 -9 -26 -23 -80 -31 -120 l-15 -73 0 -92 0 -91 11 -54 c6
-29 20 -84 32 -123 12 -38 34 -97 50 -129 16 -32 47 -86 69 -119 23 -33 69
-88 103 -122 l62 -62 74 -50 c41 -27 90 -57 109 -65 19 -9 49 -22 65 -29 17
-6 46 -16 65 -21 19 -5 64 -15 100 -23 l65 -15 108 0 108 0 47 11 c26 5 65 15
87 21 22 6 49 14 60 18 11 4 52 22 90 40 39 17 97 51 130 75 33 23 92 76 131
117 39 41 84 94 101 119 16 24 44 73 61 109 17 36 39 88 48 115 9 28 22 79 30
115 l14 65 0 105 0 105 -14 65 c-8 36 -21 88 -31 115 -9 28 -30 78 -46 113
-16 35 -47 90 -69 122 -22 33 -66 86 -98 118 -31 32 -73 71 -92 86 l-35 28 20
-5 c11 -3 54 -15 95 -27 41 -11 95 -25 120 -31 25 -5 61 -14 80 -18 19 -5 60
-14 90 -21 30 -7 73 -16 95 -22 22 -5 60 -13 85 -18 25 -6 65 -14 90 -20 25
-6 70 -15 100 -21 30 -6 73 -15 95 -19 22 -4 67 -13 100 -19 33 -7 85 -16 115
-22 30 -5 82 -15 115 -20 33 -6 83 -15 110 -19 28 -5 82 -13 120 -20 39 -6
102 -15 140 -21 39 -5 104 -14 145 -19 41 -6 116 -15 165 -20 50 -6 133 -15
185 -20 52 -6 147 -15 210 -20 63 -6 177 -14 254 -20 l138 -10 64 -16 65 -16
107 5 c59 3 361 7 672 9 l565 5 145 12 c80 6 204 16 275 22 72 5 177 14 235
20 58 5 146 14 195 20 50 5 128 14 175 20 47 5 117 15 155 20 39 6 99 15 135
20 36 6 91 15 123 20 31 5 85 14 120 19 34 6 85 15 112 20 28 5 76 14 108 19
31 6 83 16 115 22 31 6 75 15 97 19 22 5 65 14 95 20 30 7 71 16 90 20 19 5
55 13 80 19 25 5 86 19 135 31 50 12 99 23 110 26 11 3 70 18 130 34 61 16
137 36 170 45 33 8 92 25 130 37 39 11 95 28 125 38 30 9 89 28 130 40 41 13
116 36 165 52 50 16 99 33 110 38 11 5 40 16 65 24 25 8 79 27 120 41 41 15
85 31 97 37 l22 11 15 -6 15 -6 7 -38 c4 -21 16 -58 27 -83 11 -25 34 -65 50
-90 17 -25 44 -60 61 -78 17 -18 58 -50 91 -72 33 -22 92 -51 130 -65 l70 -26
115 -1 115 -1 50 17 c28 10 66 25 85 34 19 8 60 32 90 53 30 20 69 52 85 70
17 19 44 54 61 79 17 25 38 61 47 80 8 19 21 49 28 65 7 17 15 50 18 74 l6 44
11 4 11 4 46 -68 c26 -37 74 -106 107 -153 34 -47 97 -138 141 -202 43 -65 79
-120 79 -123 0 -3 17 -32 38 -63 21 -31 41 -64 45 -72 4 -8 20 -37 37 -65 17
-27 59 -109 95 -181 36 -72 65 -139 65 -147 0 -9 4 -18 9 -21 5 -3 11 -16 14
-28 3 -13 13 -50 23 -83 l17 -60 1 -125 1 -125 -24 -64 c-13 -35 -33 -80 -44
-100 -11 -20 -39 -58 -61 -86 -23 -27 -50 -59 -61 -70 -11 -11 -47 -43 -80
-71 -33 -28 -87 -69 -121 -92 -33 -22 -80 -52 -105 -66 -24 -14 -71 -39 -104
-55 -33 -16 -81 -38 -106 -49 -25 -12 -70 -31 -100 -42 -30 -12 -85 -32 -124
-45 -38 -12 -110 -32 -160 -44 -49 -12 -108 -26 -130 -31 -22 -5 -71 -13 -110
-19 -38 -5 -106 -15 -150 -21 l-80 -10 -222 0 -222 0 -78 10 c-43 6 -116 15
-163 21 -47 6 -103 14 -125 19 -22 5 -67 14 -100 21 -33 6 -85 18 -115 26 -30
8 -73 19 -95 24 -22 6 -56 14 -75 18 -19 5 -61 16 -93 25 -32 9 -68 16 -80 16
-12 0 -38 -6 -57 -13 -20 -6 -49 -21 -65 -31 -17 -11 -35 -24 -41 -30 -6 -6
-43 -60 -83 -120 l-73 -108 -74 -78 c-41 -42 -108 -104 -149 -136 -41 -32 -96
-71 -123 -86 -26 -15 -78 -43 -117 -62 -38 -18 -97 -42 -130 -54 -33 -11 -80
-24 -105 -30 -25 -6 -67 -16 -95 -22 l-50 -12 -177 0 -176 0 -59 12 c-32 6
-78 16 -103 22 -25 6 -61 15 -80 21 -19 5 -60 19 -90 29 -30 11 -64 23 -75 28
-11 4 -31 12 -45 18 -14 5 -43 18 -65 27 -22 10 -74 34 -115 55 -41 20 -104
53 -140 72 -36 19 -81 44 -101 56 -20 11 -67 39 -104 61 -37 23 -69 41 -72 41
-2 0 -23 13 -46 29 -23 16 -58 37 -77 48 -19 11 -53 31 -75 43 -22 13 -71 40
-110 60 -38 21 -99 48 -135 61 l-65 24 -125 0 -125 0 -65 -24 c-36 -13 -96
-40 -135 -61 -38 -20 -95 -52 -125 -70 -30 -18 -66 -40 -80 -50 -14 -10 -41
-27 -60 -38 -19 -11 -66 -38 -104 -62 -38 -23 -84 -50 -102 -61 -19 -10 -50
-28 -69 -39 -19 -11 -50 -28 -68 -39 -18 -10 -64 -34 -102 -53 -39 -20 -97
-48 -130 -63 -33 -15 -70 -31 -82 -36 -13 -5 -33 -13 -45 -18 -13 -5 -50 -18
-83 -29 -33 -11 -80 -25 -105 -30 -25 -6 -70 -17 -100 -23 l-55 -13 -165 0
-165 1 -78 16 c-42 10 -112 29 -155 43 -42 14 -106 40 -142 57 -36 17 -112 62
-168 100 l-104 69 -82 81 c-46 45 -105 109 -131 142 -26 33 -61 83 -77 112
l-29 51 -44 41 -43 40 -44 11 -43 12 -48 -6 c-27 -3 -63 -10 -80 -15 -18 -5
-52 -15 -77 -21 -25 -6 -61 -15 -80 -20 -19 -5 -55 -13 -80 -19 -25 -5 -72
-15 -105 -21 -33 -7 -80 -16 -105 -20 -25 -5 -79 -13 -120 -19 -41 -6 -118
-16 -170 -22 l-95 -12 -250 0 -250 0 -95 12 c-52 6 -120 16 -150 22 -30 5 -77
14 -105 20 -27 5 -68 14 -90 20 -22 6 -96 28 -165 50 -69 22 -134 44 -145 49
-11 4 -40 17 -65 27 -24 10 -90 41 -146 70 -56 28 -149 83 -206 121 -57 38
-130 94 -163 123 -32 30 -77 74 -99 98 -23 24 -58 66 -79 94 -21 28 -56 87
-78 131 -21 45 -46 107 -54 139 l-15 58 0 84 0 84 14 53 c8 29 22 76 31 103 9
28 31 79 48 115 17 36 43 84 59 107 15 23 28 44 28 48 0 3 46 74 102 157 55
84 121 179 145 213 25 33 53 71 63 85 10 14 51 68 90 120 39 52 120 159 178
237 l107 143 18 0z m4519 -81 c9 1 41 -4 70 -10 29 -6 71 -20 94 -31 l41 -19
45 -45 45 -45 20 -42 c11 -23 26 -55 32 -70 l11 -28 0 -61 0 -61 -12 -41 c-6
-22 -27 -65 -46 -94 l-34 -53 -42 -27 c-22 -15 -52 -33 -66 -39 -14 -6 -40
-16 -59 -22 -19 -6 -58 -11 -87 -11 l-53 0 -58 21 c-32 12 -73 33 -91 46 -18
13 -44 36 -58 51 -14 15 -38 52 -52 82 l-26 55 0 91 -1 91 33 66 34 67 40 34
c22 19 57 43 77 52 20 10 56 23 81 30 25 7 53 13 62 13z m-3391 -600 l96 1 29
-9 c16 -5 49 -15 74 -22 25 -7 70 -26 100 -42 30 -16 78 -46 106 -68 28 -22
71 -64 95 -94 24 -30 54 -72 66 -94 12 -21 29 -61 38 -87 10 -27 23 -74 31
-104 l13 -55 1 -79 0 -79 -11 -41 c-6 -22 -16 -59 -22 -81 -6 -22 -24 -65 -40
-95 -16 -30 -47 -79 -69 -108 -23 -29 -66 -73 -97 -97 -31 -25 -85 -59 -121
-76 -36 -18 -74 -35 -85 -39 -11 -4 -41 -12 -68 -19 l-47 -11 -90 0 -89 0 -53
14 c-29 8 -62 17 -73 21 -11 4 -47 20 -80 36 -34 17 -81 46 -105 67 -25 20
-62 55 -83 77 -22 22 -54 66 -72 97 -19 32 -41 79 -51 105 -9 26 -22 77 -30
113 -8 36 -14 90 -14 120 0 30 6 84 14 120 7 36 22 85 32 110 10 25 26 61 37
80 10 19 37 58 58 86 21 28 54 64 71 80 18 16 47 40 65 52 17 12 55 35 85 50
29 15 73 34 98 41 25 7 56 17 70 21 14 5 68 9 121 9z m4226 -2234 l41 -4 39
-22 c21 -12 54 -31 73 -42 19 -10 46 -27 60 -37 14 -10 72 -46 130 -80 58 -35
120 -71 138 -81 17 -11 49 -29 70 -41 20 -11 73 -41 117 -64 44 -24 125 -66
180 -93 55 -27 125 -60 155 -73 30 -14 71 -30 90 -37 19 -7 44 -17 55 -21 11
-5 61 -22 110 -39 50 -16 101 -31 115 -33 l25 -3 4 -25 c2 -14 -2 -63 -8 -110
-7 -47 -16 -118 -22 -157 -5 -40 -13 -106 -18 -145 -6 -40 -15 -113 -21 -163
-6 -49 -16 -124 -21 -165 -6 -41 -15 -92 -21 -112 -6 -21 -23 -51 -37 -68
l-26 -30 -55 -20 -55 -20 -1095 0 -1095 0 -40 13 c-22 6 -54 20 -70 30 -17 10
-39 33 -51 50 l-20 32 -11 55 c-7 30 -17 100 -23 155 -6 55 -15 132 -20 170
-5 39 -14 106 -19 150 -6 44 -15 125 -21 180 -6 55 -15 117 -19 138 l-8 37 8
5 c4 3 50 19 101 36 51 16 102 33 113 38 11 5 34 14 50 21 17 7 39 16 50 21
11 4 79 36 150 70 72 35 168 85 215 112 47 27 101 59 120 69 19 11 47 29 62
39 14 11 29 19 32 19 4 0 37 20 74 43 37 24 93 60 125 81 32 20 74 46 93 57
19 10 49 28 67 38 19 10 43 21 53 24 10 3 38 4 61 2z"/>
<path d="M8625 18299 l-110 -1 -40 -9 c-22 -6 -58 -15 -80 -21 -22 -6 -69 -25
-105 -42 -36 -16 -92 -47 -125 -69 l-60 -39 -70 -73 -70 -73 -41 -69 c-22 -37
-50 -93 -61 -123 -11 -30 -26 -73 -32 -95 -5 -22 -15 -64 -21 -93 -5 -29 -10
-83 -10 -120 0 -37 7 -101 15 -142 7 -41 17 -86 20 -100 4 -14 10 -34 14 -45
4 -11 26 -58 50 -105 23 -47 53 -99 67 -115 14 -17 42 -48 63 -70 20 -22 50
-51 66 -65 17 -14 44 -35 60 -47 17 -11 57 -34 90 -51 33 -17 81 -37 107 -46
26 -9 80 -23 120 -31 l73 -15 85 0 85 0 65 14 c36 8 88 22 115 31 28 9 77 30
110 47 33 16 83 47 110 68 28 20 68 55 91 77 22 21 53 57 69 79 17 21 33 41
36 44 4 3 24 39 46 80 22 41 47 100 57 130 9 30 24 89 32 130 7 41 14 102 14
135 0 33 -7 92 -14 130 -8 39 -19 86 -24 105 -5 19 -21 61 -35 93 -15 32 -27
60 -27 63 0 3 -19 33 -42 67 -23 34 -64 86 -92 115 -27 29 -73 70 -101 92 -27
21 -76 52 -108 69 -32 17 -80 38 -105 47 -26 9 -76 22 -112 30 l-65 14 -110
-1z m5 -261 l55 1 55 -13 c30 -8 64 -17 75 -21 11 -4 44 -18 73 -32 29 -14 74
-43 100 -65 26 -23 64 -64 86 -92 21 -28 49 -73 61 -101 13 -27 29 -66 36 -85
l14 -35 -1 -125 -1 -125 -27 -69 c-14 -38 -40 -91 -56 -117 -17 -25 -54 -69
-83 -96 -29 -27 -73 -62 -99 -77 -26 -15 -69 -35 -95 -45 -26 -10 -83 -23
-125 -30 l-76 -14 -69 12 c-37 7 -93 22 -123 34 -30 11 -80 37 -110 58 -30 20
-76 58 -101 85 -25 27 -57 69 -71 94 -15 25 -37 77 -49 115 l-23 70 0 105 0
105 13 40 c7 22 16 49 20 60 5 11 19 43 32 70 l24 50 70 71 71 71 76 37 76 38
58 13 c33 7 84 13 114 13z"/>
<path d="M11074 16619 l-79 -1 -44 -14 c-25 -8 -67 -25 -94 -39 -27 -15 -65
-40 -84 -58 -19 -18 -52 -57 -73 -88 l-38 -56 -21 -63 -21 -63 0 -86 0 -86 16
-44 c8 -25 24 -63 34 -85 10 -23 37 -63 60 -89 23 -26 61 -60 84 -76 22 -15
68 -38 101 -52 l60 -24 95 0 95 0 35 14 c19 7 46 18 60 24 14 6 45 25 70 41
25 16 62 48 83 70 l38 41 33 70 34 70 12 66 12 67 -12 58 c-6 33 -16 73 -22
89 -5 17 -20 50 -32 75 l-21 44 -53 57 -53 57 -62 30 c-34 16 -78 34 -98 41
l-35 11 -80 -1z m29 -255 l49 -5 38 -25 38 -26 28 -41 27 -41 1 -66 0 -66 -27
-46 -27 -47 -29 -20 c-16 -12 -36 -21 -44 -21 -9 0 -19 -4 -22 -10 l-6 -10
-48 0 -49 0 -33 14 c-19 8 -47 24 -63 37 l-29 23 -23 53 -24 54 0 34 c0 19 5
47 12 62 7 15 23 44 35 63 l23 35 32 19 c17 11 45 23 62 27 l31 8 48 -5z"/>
<path d="M7182 11839 l-97 -1 -35 -10 c-19 -5 -51 -14 -70 -19 -19 -6 -62 -24
-95 -40 -33 -16 -86 -49 -117 -72 -32 -24 -70 -60 -85 -80 -16 -20 -34 -39
-42 -42 l-13 -5 -39 10 -38 11 -29 24 -30 25 -17 52 c-9 29 -23 60 -31 69 -8
9 -32 22 -54 29 l-39 13 -31 -13 c-17 -7 -42 -26 -55 -42 l-25 -30 0 -61 0
-62 14 -39 c7 -21 30 -62 52 -91 l38 -54 53 -34 c28 -19 73 -41 98 -48 l46
-14 -7 -20 c-3 -11 -9 -58 -11 -103 l-5 -84 12 -46 c6 -26 16 -65 23 -87 6
-22 28 -73 49 -112 21 -40 48 -85 60 -100 13 -16 49 -53 81 -84 l58 -56 57
-30 c31 -17 84 -39 117 -51 33 -11 95 -26 139 -33 l78 -12 82 12 c44 7 101 20
126 28 25 8 61 22 80 31 19 8 62 34 95 56 33 22 77 58 98 79 21 22 49 54 62
71 13 17 36 56 52 86 16 30 35 75 42 100 7 25 17 58 22 74 l9 29 0 100 0 100
-11 41 c-6 22 -15 57 -21 76 -6 19 -20 55 -31 80 -11 25 -34 65 -51 90 -16 25
-48 65 -71 89 -22 24 -65 60 -95 80 -30 21 -72 45 -94 55 -21 10 -53 22 -70
28 -17 5 -55 16 -84 24 l-53 14 -97 -1z m189 -239 l67 0 47 -32 48 -33 23 -43
24 -43 0 -55 0 -55 -16 -32 c-9 -18 -30 -47 -48 -65 -17 -19 -46 -40 -65 -48
l-33 -14 -59 0 -58 0 -38 21 c-21 12 -46 31 -56 43 -11 11 -26 35 -35 51 l-15
30 -1 60 -1 60 17 35 c9 19 29 47 45 61 15 15 42 34 58 42 l30 16 66 1z m-412
-620 l46 0 29 -25 28 -24 1 -52 1 -52 -34 -29 -33 -30 -44 5 -44 5 -24 22 -23
21 -5 27 c-3 15 -3 39 0 54 l5 28 25 25 26 25 46 0z"/>
<path d="M13270 11343 c-41 3 -91 3 -110 1 -19 -2 -53 -9 -75 -15 -22 -6 -51
-16 -65 -21 -14 -6 -33 -15 -44 -20 -10 -5 -34 -19 -53 -29 -19 -11 -55 -39
-80 -62 -25 -23 -58 -60 -73 -82 -15 -22 -36 -56 -47 -75 -10 -19 -25 -55 -32
-80 -7 -25 -17 -58 -22 -74 -5 -16 -9 -66 -9 -111 0 -45 4 -95 9 -111 5 -16
15 -49 22 -74 7 -25 22 -61 32 -80 11 -19 32 -53 48 -76 15 -23 51 -62 79 -87
l50 -45 63 -30 c34 -17 76 -35 92 -40 17 -6 62 -16 101 -23 l71 -12 69 12 c38
7 83 17 99 23 17 6 59 25 95 42 l65 30 70 71 70 71 32 64 c17 36 34 74 38 85
4 11 13 49 21 85 8 36 14 82 14 102 0 20 -7 67 -15 103 -9 37 -23 85 -32 108
-9 23 -38 74 -64 114 l-48 71 -43 35 c-24 19 -63 46 -88 60 -25 13 -72 34
-105 45 l-60 21 -75 4z m-52 -264 c7 1 34 -4 60 -10 26 -6 61 -17 79 -25 17
-8 51 -33 75 -57 l44 -42 22 -47 22 -48 0 -67 0 -67 -12 -35 c-7 -20 -25 -55
-40 -78 l-29 -42 -42 -29 c-23 -15 -58 -33 -78 -40 l-35 -12 -62 0 -61 0 -54
25 c-30 13 -67 37 -84 52 -16 15 -43 51 -59 78 l-29 50 0 90 0 90 28 48 c16
27 42 61 57 76 16 15 49 37 72 49 24 12 59 26 78 31 19 5 41 10 48 10z"/>
<path d="M4975 11045 c-38 2 -79 2 -90 -1 -11 -2 -38 -10 -60 -16 -22 -7 -58
-24 -80 -39 -22 -15 -54 -42 -72 -61 l-32 -33 -28 -60 -28 -60 -3 -84 -4 -84
13 -41 c7 -23 22 -57 32 -76 10 -19 37 -53 59 -76 l39 -41 47 -24 c26 -13 67
-29 92 -36 25 -7 63 -12 85 -13 l39 0 66 21 65 20 47 35 48 34 34 48 35 47 20
65 21 66 0 44 0 44 -21 66 -20 65 -35 48 -35 48 -44 31 c-24 17 -61 37 -82 45
-21 7 -69 15 -108 18z m-32 -225 c15 0 41 -7 57 -15 16 -8 40 -30 54 -48 l26
-34 0 -44 0 -44 -20 -32 -19 -32 -30 -16 -30 -15 -38 0 -38 0 -31 19 -31 19
-17 37 -18 38 6 45 6 46 18 19 c9 11 31 28 47 38 l30 19 28 0z"/>
<path d="M8495 11019 c-5 0 -25 -8 -44 -17 l-35 -17 -17 -30 -18 -30 0 -55 0
-55 13 -55 c8 -30 17 -64 21 -75 4 -11 18 -44 32 -73 14 -29 41 -74 61 -100
19 -26 54 -64 76 -85 23 -21 67 -54 99 -73 32 -19 62 -34 68 -34 5 0 17 -4 27
-9 9 -5 37 -15 61 -22 l44 -13 106 -1 106 0 45 14 c25 7 81 30 125 52 l80 38
56 53 c30 29 73 80 95 113 22 33 45 71 51 85 6 14 14 34 18 45 4 11 13 45 21
75 l13 55 0 60 0 60 -13 23 c-7 13 -26 32 -42 43 l-29 19 -33 0 -33 0 -29 -15
-30 -15 -15 -30 -15 -29 0 -58 0 -58 -22 -65 -23 -65 -55 -55 -55 -56 -45 -21
c-25 -11 -75 -26 -112 -33 l-67 -13 -58 13 c-32 7 -78 24 -103 36 l-45 22 -47
49 -47 48 -28 60 -27 60 -4 65 -3 65 -16 33 -15 34 -41 19 c-23 10 -46 18 -52
18z"/>
<path d="M6635 10523 l-140 5 -80 -8 c-44 -4 -105 -12 -135 -18 -30 -6 -84
-20 -119 -32 -36 -11 -88 -32 -116 -46 -29 -14 -68 -39 -86 -57 -19 -18 -44
-46 -56 -62 -12 -17 -24 -47 -28 -68 l-7 -37 6 -45 7 -45 49 -53 49 -53 63
-32 c35 -17 92 -40 128 -51 36 -11 88 -24 115 -30 28 -6 103 -16 168 -22 l119
-12 111 12 c62 7 137 17 167 23 30 6 82 19 115 30 33 11 80 29 105 41 25 12
51 28 58 35 8 6 22 17 32 22 11 6 34 32 52 58 l33 47 0 65 0 65 -33 48 -34 48
-41 31 c-23 16 -67 41 -97 55 -30 14 -64 29 -75 33 -11 4 -38 12 -60 18 -22 6
-60 15 -85 21 -25 5 -108 12 -185 14z m-20 -119 l150 -4 80 -20 c44 -11 91
-25 105 -31 14 -7 43 -21 65 -32 22 -12 56 -36 75 -53 l35 -33 0 -40 0 -40
-24 -25 c-13 -14 -52 -39 -85 -55 -34 -16 -70 -33 -81 -36 -11 -4 -38 -11 -60
-16 -22 -5 -87 -16 -145 -24 -58 -8 -132 -15 -165 -15 -33 0 -107 7 -165 15
-58 8 -123 19 -145 24 -22 5 -49 12 -60 16 -11 3 -48 20 -81 36 -34 17 -76 43
-92 59 -17 15 -33 38 -37 49 l-6 20 15 30 16 30 43 29 c23 15 60 37 82 47 22
10 56 22 75 27 19 5 53 14 75 19 22 6 72 14 110 19 l70 9 150 -5z"/>
<path d="M11540 10518 l-115 7 -120 -6 c-66 -4 -131 -10 -145 -14 -14 -3 -45
-11 -70 -17 -25 -5 -58 -14 -75 -20 -16 -6 -58 -24 -91 -40 -34 -16 -78 -43
-98 -60 -21 -17 -48 -47 -60 -67 l-24 -37 -6 -41 -7 -41 11 -42 11 -42 45 -48
44 -47 58 -31 c31 -16 84 -39 117 -50 33 -11 85 -24 115 -30 30 -6 87 -16 127
-22 39 -5 109 -10 155 -10 46 0 130 7 188 15 58 8 123 19 145 24 22 5 57 14
77 19 20 5 71 26 113 47 l76 38 42 47 43 48 12 40 c7 21 12 49 12 61 0 12 -10
42 -21 67 l-22 45 -38 37 -37 37 -74 37 c-40 20 -86 41 -103 46 -16 6 -50 15
-75 20 -25 6 -56 14 -70 17 -14 4 -77 10 -140 13z m-67 -114 l138 -4 47 -11
c26 -6 65 -16 87 -21 22 -6 49 -14 60 -18 11 -4 42 -18 70 -31 27 -13 66 -40
87 -60 l38 -36 0 -29 0 -29 -18 -21 c-9 -12 -37 -35 -62 -51 -25 -17 -72 -39
-105 -50 -33 -11 -85 -25 -115 -31 -30 -6 -87 -16 -127 -22 -39 -5 -110 -10
-156 -10 l-84 0 -94 15 c-52 8 -110 19 -129 24 -19 5 -57 16 -85 26 -27 10
-71 31 -96 48 l-46 30 -17 28 c-9 15 -16 36 -16 48 l0 20 32 36 31 36 46 23
c25 13 73 32 106 44 33 11 78 23 100 27 22 4 69 11 105 15 l65 8 138 -4z"/>
<path d="M11296 7145 c-72 2 -144 1 -161 -1 -16 -2 -50 -9 -75 -15 -25 -6 -58
-16 -75 -21 -16 -6 -49 -19 -72 -29 -24 -11 -45 -19 -48 -19 -3 0 -34 -17 -68
-38 -35 -21 -79 -52 -98 -68 -19 -16 -53 -48 -76 -71 -23 -23 -64 -75 -90
-115 -27 -40 -58 -93 -70 -118 -12 -25 -30 -72 -41 -105 -10 -33 -24 -87 -31
-121 -6 -33 -11 -98 -11 -144 0 -46 5 -111 11 -144 7 -34 21 -88 31 -121 11
-33 29 -80 41 -105 12 -25 39 -72 61 -105 22 -33 63 -84 90 -113 28 -30 80
-76 116 -103 36 -27 92 -62 125 -78 33 -16 83 -37 110 -46 28 -9 79 -23 115
-31 l65 -14 114 0 114 0 41 11 c22 6 73 20 111 32 39 12 97 36 129 53 32 17
85 50 116 73 32 23 82 68 112 99 30 31 72 84 94 117 22 33 49 80 61 105 12 25
30 72 41 105 10 33 24 81 30 108 l12 47 0 115 0 115 -12 47 c-6 27 -20 75 -31
108 -11 33 -29 80 -40 105 -11 25 -39 72 -61 105 -22 33 -65 86 -95 119 -31
32 -82 78 -115 102 -32 24 -90 59 -130 77 -39 19 -91 39 -116 46 -25 7 -56 17
-69 23 l-24 9 -131 4z m-11 -261 l90 -4 47 -15 c27 -8 65 -22 85 -31 21 -10
58 -31 83 -47 25 -16 72 -57 105 -91 l60 -62 32 -64 c17 -36 36 -81 42 -100 5
-19 14 -54 20 -76 l11 -41 0 -69 -1 -69 -13 -55 c-8 -30 -17 -64 -21 -75 -4
-11 -16 -40 -27 -65 -11 -25 -34 -65 -51 -90 -17 -25 -45 -59 -61 -75 -17 -17
-49 -44 -71 -61 -22 -16 -62 -40 -90 -53 -27 -13 -59 -27 -70 -31 -11 -4 -41
-12 -68 -19 l-47 -11 -90 0 -89 0 -57 15 c-32 8 -91 31 -133 52 l-75 36 -71
71 -71 71 -26 48 c-15 26 -36 73 -47 105 -10 31 -24 81 -30 110 -6 29 -11 74
-11 100 l0 47 20 77 c11 43 33 106 50 140 l30 63 56 63 56 63 57 38 c31 20 76
46 101 58 25 11 65 25 90 31 25 6 56 14 70 16 14 3 66 3 115 0z"/>
</g>
</svg>
