<?xml version="1.0" standalone="no"?>
<!DOCTYPE svg PUBLIC "-//W3C//DTD SVG 20010904//EN"
 "http://www.w3.org/TR/2001/REC-SVG-20010904/DTD/svg10.dtd">
<svg version="1.0" xmlns="http://www.w3.org/2000/svg"
 width="1404.000000pt" height="2124.026926pt" viewBox="0 0 1404.000000 2124.026926"
 preserveAspectRatio="xMidYMid meet">
<metadata>
Created by potrace 1.16, written by Peter Selinger 2001-2019
</metadata>
<g transform="translate(-194.000000,2342.000000) scale(0.100000,-0.100000)"
fill="#000000" stroke="none">
<path d="M8881 23419 l-76 -1 -35 -12 c-19 -6 -57 -22 -85 -35 l-50 -24 -50
-52 -50 -51 -272 -547 -273 -546 -17 -4 c-10 -3 -47 -10 -83 -17 -36 -6 -85
-15 -110 -20 -25 -5 -76 -14 -115 -20 -38 -7 -88 -16 -110 -20 -22 -5 -69 -14
-105 -20 -36 -6 -85 -15 -110 -20 -25 -5 -74 -14 -110 -20 -36 -6 -89 -15
-117 -20 -29 -6 -79 -15 -110 -20 -32 -6 -80 -16 -108 -21 -27 -6 -78 -24
-113 -41 l-62 -31 -46 -49 -45 -49 -23 -52 c-13 -29 -28 -81 -34 -117 l-11
-65 13 -82 13 -82 28 -58 28 -58 286 -280 c157 -154 342 -334 410 -401 l124
-122 -11 -43 c-6 -24 -16 -78 -22 -119 -6 -41 -15 -97 -20 -125 -5 -27 -13
-79 -19 -115 -5 -36 -15 -94 -20 -130 -6 -36 -15 -99 -21 -140 -6 -41 -15
-100 -20 -130 -5 -30 -14 -89 -20 -130 -6 -41 -15 -97 -20 -123 -6 -27 -10
-86 -10 -131 l0 -83 11 -34 c6 -19 20 -54 32 -78 l22 -44 43 -44 44 -43 54
-25 c30 -14 61 -25 69 -25 8 0 15 -3 15 -6 0 -3 -15 -34 -33 -68 -19 -33 -44
-79 -57 -101 -12 -22 -31 -53 -40 -70 -9 -16 -31 -52 -47 -80 -17 -27 -52 -86
-80 -130 -27 -44 -67 -107 -88 -140 -21 -33 -85 -132 -143 -220 -57 -88 -136
-205 -175 -260 -39 -55 -102 -145 -141 -200 -39 -55 -73 -102 -76 -105 -4 -3
-22 -27 -40 -55 -19 -27 -63 -88 -98 -135 -35 -47 -72 -96 -82 -110 -10 -14
-67 -90 -127 -170 -59 -80 -113 -152 -120 -160 -7 -8 -35 -44 -63 -80 -28 -36
-56 -72 -63 -80 -7 -8 -28 -35 -47 -60 -19 -25 -40 -51 -48 -58 -7 -8 -25 -30
-40 -50 -15 -21 -29 -39 -32 -42 -3 -3 -17 -21 -32 -42 -15 -20 -34 -42 -41
-50 -7 -7 -51 -60 -97 -118 -46 -58 -87 -107 -90 -110 -3 -3 -45 -53 -93 -112
-48 -58 -92 -112 -99 -120 -7 -7 -33 -38 -58 -68 -25 -30 -47 -57 -50 -60 -3
-3 -25 -30 -50 -60 -25 -30 -47 -57 -50 -60 -3 -3 -25 -30 -50 -60 -25 -30
-50 -62 -57 -70 -7 -8 -34 -42 -60 -76 -26 -33 -58 -74 -70 -90 -12 -16 -41
-56 -65 -89 -24 -33 -54 -78 -67 -100 -13 -22 -31 -53 -40 -70 -10 -16 -27
-55 -38 -85 -11 -30 -27 -75 -34 -100 l-14 -45 0 -120 1 -120 13 -40 c7 -22
22 -65 34 -95 11 -30 34 -75 49 -100 15 -25 36 -56 45 -70 9 -14 56 -63 103
-110 47 -47 94 -92 105 -100 11 -9 41 -30 67 -48 25 -17 72 -46 104 -63 33
-17 65 -37 73 -45 l14 -13 -39 -48 c-22 -26 -58 -73 -80 -103 -22 -30 -72 -98
-110 -150 -39 -52 -130 -180 -204 -283 -74 -103 -156 -218 -183 -255 -26 -37
-83 -119 -127 -182 -44 -63 -116 -167 -160 -230 -44 -63 -166 -242 -270 -397
-105 -156 -190 -285 -190 -288 0 -3 -40 -65 -88 -138 -49 -72 -107 -161 -129
-197 -22 -36 -63 -102 -91 -148 -29 -46 -52 -85 -52 -87 0 -1 -17 -32 -38 -66
-21 -35 -58 -100 -83 -144 -24 -44 -64 -123 -90 -175 -26 -52 -60 -135 -77
-185 -16 -49 -36 -112 -43 -140 l-14 -50 0 -155 0 -155 14 -45 c8 -25 20 -65
28 -90 8 -25 30 -76 49 -115 19 -38 56 -100 84 -136 27 -36 88 -103 136 -149
l87 -82 84 -56 83 -55 -8 -11 c-5 -6 -28 -36 -53 -67 -24 -30 -55 -71 -69 -89
-14 -18 -45 -59 -70 -90 -25 -31 -56 -72 -70 -90 -14 -18 -47 -61 -73 -94 -26
-34 -53 -68 -60 -76 -7 -8 -23 -31 -37 -50 -14 -19 -30 -42 -37 -50 -7 -8 -61
-81 -120 -162 -59 -80 -128 -174 -153 -209 -25 -35 -59 -81 -75 -104 -17 -22
-65 -89 -106 -150 -42 -60 -94 -137 -116 -170 -22 -33 -75 -113 -117 -178 -42
-65 -117 -185 -165 -265 -48 -81 -102 -174 -121 -207 -18 -33 -74 -141 -124
-240 -50 -99 -104 -209 -120 -245 -15 -36 -35 -80 -43 -98 -8 -19 -28 -70 -45
-115 -16 -45 -34 -95 -40 -112 -5 -16 -13 -43 -18 -60 -5 -16 -19 -73 -33
-125 -13 -52 -29 -120 -35 -150 -6 -30 -16 -82 -22 -114 l-10 -59 0 -153 0
-152 11 -54 c6 -29 15 -71 21 -93 6 -22 15 -53 20 -70 6 -16 13 -39 18 -50 4
-11 16 -38 27 -60 11 -22 30 -58 43 -80 12 -22 52 -75 88 -118 36 -42 68 -77
71 -77 3 0 27 -20 52 -43 25 -23 73 -62 107 -87 35 -25 84 -57 110 -73 26 -15
108 -57 182 -93 74 -36 145 -70 158 -75 12 -5 32 -13 45 -19 12 -5 85 -30 162
-56 77 -25 154 -50 170 -54 17 -5 84 -22 150 -40 66 -17 143 -35 170 -41 28
-6 68 -15 90 -20 22 -5 64 -14 93 -19 28 -6 78 -15 110 -21 31 -5 82 -14 112
-20 30 -5 84 -13 120 -18 36 -6 103 -15 150 -21 47 -6 119 -16 160 -21 41 -5
116 -14 165 -19 50 -6 133 -15 185 -21 52 -5 149 -14 215 -19 66 -6 179 -14
250 -20 72 -6 198 -15 280 -20 83 -6 229 -15 325 -20 96 -5 263 -15 370 -21
107 -6 256 -14 330 -17 l135 -7 7 -60 c5 -33 12 -96 18 -140 5 -44 15 -119 20
-167 6 -49 15 -130 21 -180 5 -51 14 -127 19 -168 5 -41 11 -100 14 -130 4
-30 11 -91 16 -135 5 -44 14 -123 20 -175 6 -52 15 -135 21 -185 5 -49 14
-130 20 -180 5 -49 14 -126 19 -170 5 -44 15 -129 21 -190 l12 -110 13 -30 c7
-16 26 -49 43 -72 l30 -41 43 -29 c24 -16 61 -34 83 -41 22 -6 69 -16 105 -21
36 -6 97 -15 135 -20 39 -6 106 -15 150 -20 44 -6 125 -15 180 -20 55 -6 145
-15 200 -20 55 -6 174 -15 265 -21 91 -5 271 -15 400 -20 129 -6 402 -10 605
-10 l370 0 240 10 c132 6 303 15 380 20 77 6 183 15 235 21 52 5 133 14 180
20 47 5 119 14 160 20 41 5 107 14 145 20 39 6 97 17 129 25 l59 13 41 27 c23
15 51 39 63 52 12 14 31 44 41 66 11 23 23 52 27 66 3 14 10 68 15 120 5 52
14 138 19 190 6 52 15 138 21 190 5 52 15 136 20 185 6 50 15 131 20 180 5 50
14 131 20 180 6 50 15 131 21 180 5 50 14 128 20 175 5 47 14 121 19 165 5 44
14 121 19 170 6 50 15 124 20 166 4 42 11 81 14 86 l6 10 148 6 c82 4 220 11
308 17 88 6 232 15 320 20 88 5 221 14 295 20 74 5 191 14 260 20 69 5 172 14
230 20 58 5 147 14 198 20 50 5 131 14 180 20 48 5 123 14 167 20 44 5 112 14
150 20 39 5 102 14 140 20 39 6 95 16 125 21 30 5 78 13 105 18 28 5 77 14
110 20 33 6 80 15 105 21 25 5 68 14 95 19 28 6 120 28 205 50 85 22 209 57
275 79 66 22 174 62 240 88 66 26 152 64 190 84 39 20 88 47 110 60 22 12 80
50 130 84 l90 61 80 80 c45 44 95 99 112 121 18 23 42 59 54 80 12 22 28 50
35 64 6 14 19 41 27 60 8 19 18 44 22 55 4 11 11 36 16 55 5 19 16 77 24 129
l15 94 0 86 c0 47 -7 133 -15 191 -8 58 -16 114 -19 125 -2 11 -10 47 -16 80
-7 33 -16 71 -20 85 -4 14 -13 45 -20 70 -7 25 -21 72 -32 105 -11 33 -23 69
-28 80 -4 11 -25 63 -45 115 -20 52 -44 111 -52 130 -9 19 -55 116 -103 215
-48 99 -114 225 -145 280 -32 55 -77 132 -100 170 -24 39 -62 102 -85 140 -24
39 -115 178 -203 310 -88 132 -182 272 -210 310 -28 39 -67 93 -87 120 -20 28
-58 79 -84 115 -26 36 -56 76 -66 90 -10 14 -53 72 -96 130 -43 58 -81 107
-84 110 -3 3 -17 21 -30 40 -13 19 -27 37 -30 40 -3 3 -38 48 -77 100 -40 52
-92 120 -115 150 -24 30 -132 166 -240 302 -109 136 -198 252 -198 258 l0 11
48 19 c26 11 83 39 126 61 44 23 111 62 150 87 l71 46 90 91 90 91 38 75 c20
41 44 102 53 134 l16 60 0 110 0 110 -22 80 c-11 44 -30 105 -42 135 -12 30
-52 115 -89 188 -38 73 -78 146 -89 162 -11 15 -20 31 -20 34 0 4 -20 37 -43
74 -24 37 -77 119 -117 182 -40 63 -133 205 -206 315 -73 110 -172 257 -221
327 -48 69 -117 168 -153 218 -36 51 -85 121 -110 155 -25 35 -83 117 -130
182 -46 65 -96 134 -110 153 -15 19 -48 64 -74 100 -26 36 -53 72 -59 80 -7 8
-23 31 -37 50 -13 19 -27 37 -30 40 -3 3 -25 32 -49 65 -25 33 -63 85 -85 115
-23 30 -46 61 -53 70 -7 8 -33 44 -60 80 -26 36 -50 67 -53 70 -3 3 -45 58
-93 122 -48 64 -87 121 -87 127 0 6 6 11 14 11 8 0 68 36 134 79 l120 79 70
66 70 66 51 75 c29 41 63 99 77 129 13 30 32 80 40 113 l16 58 0 115 0 115
-15 55 c-8 30 -25 79 -36 109 -12 29 -33 73 -46 98 -14 24 -53 85 -87 136 -34
51 -107 148 -162 217 -55 69 -201 247 -324 395 -123 149 -234 281 -246 295
-12 14 -59 72 -106 129 -47 57 -116 143 -155 191 -38 48 -82 103 -96 121 -15
19 -64 82 -110 140 -46 58 -95 121 -109 139 -14 19 -34 45 -46 59 -12 14 -102
134 -201 266 -98 132 -190 256 -203 275 -14 19 -30 42 -37 50 -7 8 -33 44 -58
80 -25 36 -130 191 -233 346 -103 154 -205 310 -227 345 -22 35 -45 72 -51 84
-6 11 -30 51 -54 89 -23 38 -50 84 -61 102 -10 19 -29 51 -41 72 -11 20 -37
65 -56 100 -18 35 -32 64 -30 66 1 1 24 12 50 25 26 13 62 38 80 55 19 17 44
46 57 64 13 18 32 56 42 85 l19 52 0 73 c0 40 -4 92 -9 115 -5 23 -15 80 -21
127 -6 47 -15 108 -20 135 -5 28 -14 84 -20 125 -6 41 -15 100 -20 130 -5 30
-14 89 -20 130 -6 41 -15 100 -20 130 -5 30 -13 87 -19 125 -6 39 -13 94 -17
123 l-6 53 381 383 c210 210 400 407 423 437 22 30 45 65 50 79 6 14 16 49 24
78 l14 53 0 58 0 58 -20 59 c-10 33 -25 71 -32 85 -7 13 -24 39 -38 58 -14 18
-50 50 -80 70 -30 21 -74 45 -97 54 -24 9 -78 24 -120 32 -43 8 -105 20 -138
26 -33 6 -78 14 -100 19 -22 5 -74 14 -115 20 -41 6 -95 15 -120 20 -25 5 -73
13 -107 19 -35 6 -91 16 -125 22 -35 6 -83 14 -108 19 -25 5 -76 14 -115 21
-38 6 -82 16 -97 21 l-27 10 -42 86 c-23 48 -99 204 -169 347 -70 143 -160
328 -199 410 -40 83 -82 169 -94 193 -12 24 -37 61 -55 83 -19 22 -53 52 -76
68 l-42 29 -64 21 -63 21 -76 -1z m5 -809 c2 0 88 -170 190 -377 102 -208 200
-407 217 -443 l32 -65 41 -41 41 -41 57 -22 c31 -11 66 -21 78 -21 11 0 37 -4
57 -9 20 -5 68 -14 106 -21 39 -6 97 -15 130 -21 33 -5 83 -14 110 -19 28 -4
77 -13 110 -19 33 -5 89 -15 125 -21 36 -6 88 -15 115 -20 28 -5 74 -14 103
-21 28 -6 52 -15 52 -19 0 -4 -150 -156 -333 -336 l-334 -329 -27 -41 -27 -42
-15 -53 -14 -54 10 -70 c6 -38 15 -104 21 -145 5 -41 14 -102 19 -135 5 -33
14 -96 20 -140 6 -44 15 -105 20 -135 5 -30 14 -91 20 -135 6 -44 16 -106 21
-138 6 -33 8 -61 5 -64 -3 -3 -18 2 -33 13 -15 10 -84 47 -153 82 -69 35 -147
77 -175 92 -27 15 -90 49 -140 75 -49 26 -117 62 -150 80 -33 18 -89 48 -125
67 l-65 34 -56 13 -56 14 -54 -13 c-29 -7 -82 -29 -118 -48 -36 -19 -88 -47
-116 -62 -27 -15 -86 -47 -130 -70 -44 -24 -159 -83 -255 -132 -96 -50 -198
-103 -227 -119 -29 -16 -56 -29 -61 -29 l-9 0 9 58 c4 31 13 89 18 127 6 39
15 98 20 133 6 34 14 90 20 125 5 34 14 96 20 137 6 41 15 102 20 135 5 33 14
101 21 150 l11 90 -6 47 -7 47 -21 43 -22 43 -338 340 c-186 187 -338 343
-338 346 0 4 28 12 63 18 34 7 78 16 98 22 20 5 49 9 64 9 15 0 44 4 64 9 20
5 68 15 106 21 39 6 90 15 115 20 25 5 72 14 105 20 33 6 83 15 110 20 28 5
79 14 115 20 36 6 83 16 105 23 22 6 55 19 74 30 19 10 49 35 67 55 18 20 48
68 67 107 19 38 94 187 165 330 72 143 152 303 179 355 27 52 52 101 56 108 5
6 10 12 13 12z m-6 -3170 c8 0 134 -59 278 -132 l264 -133 20 -45 c11 -25 58
-121 105 -215 46 -93 99 -197 117 -230 18 -33 43 -78 56 -100 12 -22 31 -53
40 -70 9 -16 26 -46 37 -65 11 -19 48 -82 83 -140 34 -58 76 -124 91 -147 16
-23 29 -44 29 -48 0 -3 95 -148 211 -323 117 -174 237 -353 269 -397 31 -44
90 -127 131 -185 41 -58 162 -222 269 -365 108 -143 220 -291 250 -330 29 -38
67 -88 84 -110 17 -22 33 -42 36 -45 3 -3 21 -25 40 -50 19 -25 40 -51 48 -58
7 -8 25 -30 40 -50 15 -21 29 -39 33 -42 3 -3 61 -75 129 -160 69 -85 134
-166 146 -180 12 -14 57 -68 100 -120 44 -52 89 -106 100 -120 12 -14 54 -63
94 -110 40 -47 82 -96 94 -110 12 -14 67 -81 122 -150 55 -69 119 -152 141
-186 23 -33 51 -78 63 -99 l22 -39 0 -42 1 -42 -22 -30 c-12 -17 -41 -48 -65
-69 -24 -21 -75 -56 -112 -79 -38 -22 -100 -53 -139 -68 -38 -15 -88 -34 -110
-41 -22 -6 -58 -17 -80 -23 -22 -6 -60 -15 -85 -21 -25 -5 -70 -14 -100 -20
-30 -6 -91 -15 -135 -21 -44 -5 -126 -14 -183 -20 -56 -5 -175 -10 -263 -10
l-160 0 -97 10 c-53 6 -135 15 -182 21 -47 6 -112 15 -145 20 -33 6 -78 14
-100 19 -22 5 -62 14 -90 20 -27 6 -68 16 -90 21 -22 6 -53 14 -70 18 -16 5
-50 14 -75 21 -25 7 -98 30 -164 52 l-118 38 -40 0 c-23 0 -59 -5 -82 -12 -22
-7 -57 -22 -77 -34 -20 -12 -42 -28 -50 -36 -8 -8 -55 -50 -105 -94 -50 -44
-131 -107 -180 -140 l-89 -61 -110 -53 c-60 -29 -119 -56 -130 -61 -11 -4 -47
-16 -80 -27 -33 -11 -87 -26 -120 -33 l-60 -14 -165 0 -165 0 -50 14 c-27 7
-77 22 -110 33 -33 11 -89 34 -125 51 -36 17 -98 52 -137 79 -40 27 -115 88
-166 136 l-94 88 -39 19 c-21 10 -60 22 -86 26 l-46 8 -54 -9 c-29 -5 -69 -13
-88 -18 -19 -6 -60 -17 -90 -25 -30 -8 -80 -19 -110 -25 -30 -6 -79 -15 -108
-21 -30 -6 -70 -11 -90 -11 l-37 0 3 117 4 118 -12 55 c-7 30 -19 75 -27 100
-8 25 -26 70 -41 100 -14 30 -42 80 -63 110 -20 30 -58 79 -84 108 l-48 54
-71 47 c-39 26 -91 56 -116 68 -25 12 -74 31 -110 42 -36 11 -105 25 -153 32
l-88 12 -82 -12 c-45 -7 -111 -21 -146 -32 -35 -11 -84 -30 -110 -41 -25 -12
-73 -40 -105 -61 -33 -22 -73 -53 -89 -69 -17 -15 -32 -26 -35 -23 -3 2 7 20
21 39 15 19 32 40 39 48 7 7 33 38 58 68 25 30 47 57 50 60 3 3 44 52 90 110
46 58 90 111 97 118 7 8 52 62 100 120 48 59 90 109 93 112 3 3 44 52 90 110
46 58 90 111 97 118 7 8 26 30 41 50 15 21 29 39 32 42 3 3 21 25 40 50 19 25
40 51 47 58 7 7 37 46 68 85 30 40 96 126 147 192 50 66 134 176 186 245 51
69 102 136 113 150 10 14 53 73 94 130 42 58 99 138 128 179 29 40 87 123 130
185 42 61 137 201 210 311 74 110 164 246 200 302 37 57 67 105 67 109 0 3 14
25 30 49 17 24 30 46 30 49 0 2 23 41 50 86 28 45 50 83 50 85 0 1 17 32 38
66 21 35 57 98 79 139 23 41 57 104 77 140 19 36 78 151 131 255 l95 190 113
58 c61 32 166 87 232 122 66 35 127 65 135 65z m-2730 -4581 l65 1 35 -13 c19
-6 51 -22 70 -34 20 -12 49 -39 66 -60 16 -21 34 -49 41 -63 6 -14 16 -40 22
-59 6 -19 11 -47 11 -64 0 -16 -5 -48 -12 -71 -7 -22 -19 -54 -28 -71 l-17
-30 -69 3 c-38 1 -100 7 -139 13 -38 5 -95 14 -125 20 -30 6 -71 14 -90 19
-19 5 -47 11 -62 15 -15 3 -34 12 -42 21 l-16 15 0 62 0 62 13 35 c6 20 21 49
31 65 11 17 33 43 50 59 17 16 54 39 81 52 l50 23 65 0z m3725 -875 c17 -3 41
-9 55 -14 14 -5 66 -18 115 -30 50 -11 109 -25 133 -31 23 -5 61 -13 85 -18
23 -5 69 -14 102 -20 33 -5 87 -14 120 -20 33 -5 96 -14 140 -20 44 -6 143
-15 220 -22 l140 -12 230 6 c127 4 268 11 315 16 47 5 119 14 160 20 42 5 83
13 91 16 l16 6 44 -58 c24 -32 47 -60 50 -63 3 -3 28 -34 55 -70 28 -36 86
-112 130 -170 44 -58 109 -143 145 -190 35 -47 66 -87 70 -90 3 -3 79 -104
169 -225 90 -121 175 -236 190 -255 14 -19 41 -57 60 -85 19 -27 40 -56 47
-65 7 -8 29 -37 48 -65 19 -27 58 -84 87 -125 28 -41 54 -77 58 -80 3 -3 32
-42 63 -87 31 -46 83 -120 114 -165 31 -46 60 -85 64 -88 3 -3 83 -120 176
-260 93 -140 188 -284 210 -320 22 -36 59 -96 82 -134 24 -38 52 -85 64 -105
11 -20 41 -76 66 -126 25 -49 52 -106 59 -126 6 -19 12 -54 12 -77 l0 -41 -46
-44 -46 -45 -82 -40 c-44 -22 -97 -45 -116 -52 -19 -7 -44 -16 -55 -20 -11 -4
-39 -13 -62 -19 -24 -6 -60 -15 -80 -20 -21 -5 -63 -14 -93 -20 -30 -5 -81
-15 -113 -21 -32 -7 -61 -9 -64 -6 -3 3 0 26 7 52 l13 46 -6 176 -6 177 35 40
c20 22 71 82 114 133 l78 93 22 47 22 46 0 75 0 76 -22 47 -22 47 -39 35 c-21
20 -53 42 -71 49 -18 8 -73 24 -123 36 -49 13 -101 26 -115 31 -14 5 -47 14
-73 21 l-48 14 -13 15 c-8 8 -37 60 -66 115 -29 55 -70 126 -92 157 -21 31
-53 68 -71 81 -17 13 -48 30 -67 38 l-35 14 -81 0 -80 0 -48 -25 c-27 -13 -64
-40 -84 -60 -19 -19 -70 -87 -112 -150 -43 -63 -86 -122 -96 -131 l-19 -16
-70 -12 c-38 -6 -95 -16 -125 -22 -30 -6 -75 -15 -100 -21 -25 -6 -63 -20 -85
-31 -22 -11 -52 -33 -68 -50 -15 -16 -39 -54 -52 -84 l-25 -54 0 -64 0 -64 12
-28 c7 -15 39 -68 72 -118 33 -49 82 -119 109 -154 l49 -64 -7 -51 c-3 -28
-10 -87 -15 -131 -5 -44 -12 -110 -16 -147 l-7 -67 13 -46 c7 -25 10 -48 7
-51 -3 -3 -41 0 -84 6 -43 6 -109 16 -148 21 -38 6 -95 14 -125 20 -30 5 -89
16 -130 24 -41 9 -104 20 -140 26 l-65 10 -55 -6 -54 -7 -42 -20 c-23 -10 -60
-35 -82 -54 l-41 -34 -108 26 c-59 15 -117 30 -129 34 l-21 8 -32 64 c-18 34
-54 99 -79 142 -26 44 -63 96 -82 116 l-36 36 -47 22 -47 22 -81 0 -81 0 -52
-26 c-28 -14 -62 -35 -75 -47 -13 -12 -51 -62 -84 -112 -33 -49 -63 -92 -67
-95 -3 -3 -20 -26 -37 -51 l-31 -45 -84 -13 c-45 -7 -108 -17 -138 -22 -30 -6
-73 -15 -95 -21 -22 -6 -55 -17 -73 -25 -18 -8 -48 -30 -67 -48 -18 -19 -40
-49 -48 -67 -8 -18 -19 -46 -26 -61 l-11 -28 0 -59 0 -58 19 -46 c11 -25 48
-87 82 -138 34 -51 65 -95 69 -98 3 -3 21 -26 39 -52 l33 -46 -7 -41 c-3 -22
-12 -44 -18 -49 -7 -5 -25 -12 -42 -16 -16 -4 -46 -11 -65 -15 -19 -5 -69 -15
-110 -24 -41 -8 -106 -20 -145 -26 -38 -6 -116 -15 -173 -21 -56 -5 -153 -10
-215 -10 -62 0 -179 7 -262 15 -82 8 -179 19 -215 25 -36 5 -87 14 -115 20
-27 5 -68 14 -90 19 -22 5 -75 19 -118 30 -43 12 -99 28 -125 37 -26 8 -56 19
-67 23 -11 5 -36 15 -55 22 -19 7 -60 23 -90 37 -30 13 -91 42 -135 63 -44 22
-98 50 -120 63 -22 13 -68 41 -101 62 -34 22 -88 57 -120 80 -33 22 -72 45
-89 52 -16 6 -50 16 -74 22 l-43 11 -52 -11 c-28 -6 -60 -15 -71 -20 -11 -5
-56 -21 -100 -36 -44 -14 -114 -35 -155 -46 -41 -11 -91 -23 -110 -28 -19 -4
-60 -13 -90 -20 -30 -7 -75 -16 -100 -21 -25 -5 -72 -14 -105 -20 -33 -5 -91
-14 -130 -19 -38 -5 -144 -14 -235 -20 l-165 -11 -160 6 c-88 3 -194 10 -235
16 -41 5 -101 14 -132 19 -32 6 -86 15 -120 21 -35 7 -88 18 -118 26 -30 8
-68 18 -85 23 -16 4 -66 20 -110 35 -44 15 -118 45 -165 67 -47 23 -117 62
-155 88 l-70 47 -60 65 -60 64 -25 48 -24 48 0 66 0 67 13 50 c8 28 18 54 22
59 5 6 9 16 9 24 0 8 19 53 42 100 23 48 67 130 97 182 29 52 73 127 96 165
23 39 66 107 94 153 28 45 73 117 99 160 27 42 97 151 157 242 59 91 123 188
141 215 18 28 79 115 134 195 55 80 137 199 182 265 45 66 131 190 191 275 61
85 127 178 147 205 20 28 69 95 110 150 41 55 90 123 110 150 20 28 62 84 92
125 31 41 86 113 122 160 36 47 103 136 148 198 l83 112 35 -6 c19 -3 67 -9
105 -14 39 -5 152 -15 253 -21 l182 -12 213 11 c116 7 241 16 277 21 36 5 97
14 135 20 39 6 93 16 120 22 28 5 67 13 87 16 l37 5 43 -34 c24 -18 45 -36 48
-39 3 -3 32 -24 66 -46 33 -23 78 -51 100 -64 21 -12 62 -34 89 -49 28 -14 82
-39 120 -54 39 -16 97 -37 130 -48 33 -11 78 -25 100 -30 22 -5 63 -13 90 -19
28 -5 91 -14 140 -20 l90 -11 152 6 c84 3 174 10 200 16 27 6 71 15 98 21 28
5 68 15 90 21 22 6 67 19 100 30 33 11 69 23 80 28 11 4 38 16 60 25 22 9 83
38 135 63 52 25 114 58 137 74 23 15 45 28 49 28 3 0 50 31 103 70 53 38 114
85 136 104 l40 36 30 -6z m2574 -2254 c5 0 11 -8 14 -17 4 -10 17 -36 30 -58
13 -22 39 -68 57 -103 19 -34 46 -77 61 -95 l26 -32 49 -13 c27 -8 60 -18 74
-22 14 -5 58 -16 98 -26 40 -9 75 -21 78 -26 l6 -9 -111 -115 -111 -115 0
-179 0 -179 -72 37 c-40 21 -106 52 -146 70 -40 17 -83 32 -97 32 -13 0 -37
-5 -52 -11 -15 -6 -37 -15 -48 -20 -11 -4 -40 -15 -65 -23 -25 -8 -69 -24 -98
-35 -29 -12 -55 -21 -57 -21 -3 0 -5 12 -5 28 0 15 4 43 9 62 5 19 14 80 21
135 l13 101 -16 31 c-9 17 -57 81 -107 142 l-90 111 26 10 c14 6 41 10 60 10
19 0 54 4 77 9 23 5 69 15 102 22 33 7 67 16 76 20 9 4 44 52 79 106 35 54 74
115 87 136 13 20 27 37 32 37z m-2384 -1170 c3 0 10 -10 15 -22 5 -13 23 -45
40 -73 16 -27 41 -72 55 -100 14 -27 35 -62 48 -76 l22 -26 90 -30 c50 -17
108 -35 130 -41 22 -6 50 -14 63 -17 l23 -7 -3 -8 c-2 -5 -50 -59 -108 -121
l-105 -113 3 -168 4 -168 -8 0 c-4 0 -30 11 -58 24 -28 13 -90 42 -138 65 -47
22 -95 41 -107 41 -11 0 -33 -5 -48 -11 -15 -6 -37 -15 -48 -19 -11 -5 -47
-18 -80 -30 -33 -12 -71 -27 -85 -32 -14 -6 -35 -15 -47 -21 -13 -6 -25 -8
-27 -6 -2 2 1 31 5 64 5 33 13 102 18 153 6 51 13 97 16 101 2 5 -13 35 -34
67 -21 33 -68 95 -105 138 -36 43 -66 83 -66 87 l0 9 36 0 c20 0 53 4 73 9 20
6 71 16 114 23 l79 12 29 18 c16 10 40 35 54 55 14 21 53 80 85 131 33 50 62
92 65 92z m1034 -566 c8 -2 44 -9 80 -15 36 -5 95 -14 131 -20 36 -5 94 -14
130 -20 36 -5 103 -14 150 -19 47 -6 130 -15 185 -20 55 -6 163 -15 240 -20
77 -5 223 -12 325 -16 l185 -6 250 17 c138 9 268 18 290 21 l40 6 55 -73 c30
-40 60 -77 65 -83 6 -6 26 -31 45 -56 19 -25 37 -47 40 -50 4 -3 96 -117 206
-255 109 -137 219 -276 244 -308 25 -32 74 -95 108 -140 35 -45 103 -134 150
-197 48 -63 92 -122 99 -130 7 -8 47 -63 90 -121 43 -58 98 -134 123 -169 25
-34 60 -83 79 -108 19 -25 110 -159 202 -298 93 -139 177 -267 187 -286 11
-18 38 -64 62 -102 23 -38 50 -83 60 -100 9 -17 29 -51 44 -76 14 -25 65 -124
113 -220 49 -96 99 -200 112 -230 13 -30 37 -89 53 -130 16 -41 41 -109 54
-150 13 -41 28 -88 33 -105 5 -16 14 -52 20 -80 6 -27 15 -71 21 -97 l10 -47
0 -107 0 -108 -21 -60 c-12 -34 -33 -77 -47 -96 -14 -19 -46 -54 -71 -78 -25
-24 -64 -56 -86 -72 -22 -15 -58 -38 -80 -50 -22 -13 -56 -31 -75 -41 -19 -10
-64 -31 -100 -47 -36 -16 -81 -34 -100 -41 -19 -7 -44 -17 -55 -21 -11 -4 -33
-13 -50 -18 -16 -6 -55 -18 -85 -27 -30 -9 -71 -21 -90 -27 -19 -5 -51 -13
-70 -18 -19 -5 -53 -14 -75 -19 -22 -6 -62 -16 -90 -22 -27 -6 -68 -15 -90
-20 -22 -5 -60 -13 -85 -18 -25 -5 -72 -14 -105 -21 -33 -6 -86 -15 -117 -20
-32 -6 -86 -15 -120 -20 -35 -6 -97 -15 -138 -21 -41 -6 -106 -15 -145 -20
-38 -5 -108 -14 -155 -19 -47 -6 -125 -15 -175 -20 -49 -5 -139 -14 -200 -20
-60 -6 -164 -15 -230 -21 -66 -5 -181 -14 -255 -19 -74 -6 -205 -15 -290 -20
-85 -6 -238 -15 -340 -20 -102 -6 -275 -15 -385 -20 -110 -6 -362 -15 -560
-20 -198 -6 -515 -14 -705 -20 -190 -5 -528 -12 -753 -16 l-407 -7 -493 11
c-270 7 -620 14 -777 17 -157 3 -359 8 -450 10 -91 3 -298 10 -460 15 -162 6
-378 15 -480 20 -102 5 -273 14 -380 20 -107 6 -262 15 -345 20 -82 6 -220 15
-305 20 -85 6 -207 15 -270 20 -63 6 -164 15 -225 20 -60 6 -150 15 -200 21
-49 5 -128 14 -175 20 -47 5 -119 15 -160 20 -41 5 -102 14 -135 20 -33 6 -86
14 -117 20 -32 5 -86 14 -120 20 -35 6 -85 15 -113 20 -27 6 -69 14 -92 20
-24 5 -64 14 -90 20 -27 5 -66 15 -88 20 -22 6 -53 14 -70 18 -16 5 -50 14
-75 21 -25 7 -85 26 -135 42 -49 16 -99 33 -110 38 -11 4 -36 14 -55 21 -19 7
-73 30 -120 51 -47 22 -120 60 -163 85 l-78 46 -64 59 c-35 32 -73 74 -85 94
-12 19 -30 58 -41 87 l-19 52 0 125 0 125 15 70 c8 39 20 87 25 108 6 20 14
52 19 70 5 17 16 55 25 82 9 28 21 59 26 70 4 11 18 47 31 80 12 33 36 89 52
125 16 36 58 124 93 195 35 72 83 164 105 205 23 41 66 118 97 170 31 52 73
121 94 152 21 31 38 59 38 63 0 3 59 94 132 203 72 108 158 235 192 282 33 47
78 110 101 141 22 31 65 91 95 134 30 43 60 83 65 89 6 6 44 56 85 111 41 55
146 192 234 305 87 113 162 207 165 210 4 3 54 64 111 135 56 72 109 135 117
142 l15 11 46 -12 c26 -8 74 -19 107 -26 33 -6 80 -16 105 -20 25 -5 79 -13
120 -19 41 -5 116 -16 165 -22 l90 -12 290 -1 290 0 105 13 c58 6 137 16 175
22 39 6 97 15 130 20 33 5 85 15 115 20 30 6 75 15 100 20 25 6 62 14 83 20
20 5 55 14 77 19 22 6 59 15 83 21 23 6 50 15 59 20 10 5 26 9 36 9 10 0 23 5
29 11 l11 11 29 -19 c15 -11 33 -22 38 -24 6 -2 40 -22 78 -44 37 -21 67 -42
67 -45 0 -3 -14 -14 -31 -24 -18 -11 -63 -49 -102 -85 l-70 -66 -46 -70 c-26
-38 -57 -90 -68 -115 -11 -25 -28 -66 -37 -92 -8 -26 -23 -80 -31 -120 l-15
-73 0 -105 0 -105 20 -80 c11 -44 30 -105 42 -135 12 -30 36 -78 54 -107 18
-30 49 -75 70 -101 22 -26 48 -56 59 -67 11 -11 43 -38 70 -61 28 -23 84 -59
125 -82 41 -22 98 -48 125 -57 28 -10 79 -23 115 -31 l65 -14 112 0 113 0 47
12 c27 6 75 20 108 30 33 11 80 29 105 41 25 12 72 39 105 61 33 22 88 68 121
102 34 34 84 95 111 135 27 41 58 94 70 119 12 25 29 67 38 95 9 27 23 85 30
130 8 44 15 105 15 135 0 30 -7 93 -14 140 -8 47 -24 112 -35 144 l-20 59 102
-7 c56 -3 156 -9 222 -13 l119 -6 156 12 c85 6 193 16 240 22 47 5 108 14 135
19 28 5 100 18 160 30 61 11 166 34 235 51 69 16 159 40 200 53 41 13 121 42
178 65 56 23 107 41 113 41 6 0 39 -13 73 -29 33 -16 79 -36 101 -46 22 -9 49
-20 60 -25 11 -4 31 -12 45 -17 14 -6 41 -15 61 -22 19 -6 58 -11 85 -11 l49
0 55 20 c30 11 69 32 88 48 l35 27 31 55 31 55 2 175 1 175 59 45 c33 25 74
56 93 70 19 14 73 57 120 97 l85 72 14 -5z m-3707 -950 l66 -5 51 -25 51 -24
40 -41 40 -42 30 -62 30 -63 0 -82 0 -82 -30 -64 -31 -63 -42 -41 -42 -42 -55
-25 -55 -26 -90 -1 -90 0 -56 27 -56 26 -42 41 -43 42 -26 56 -26 57 0 91 -1
91 13 26 c6 15 18 39 24 53 7 15 30 46 51 70 l38 43 56 27 c30 15 72 31 92 35
l36 8 67 -5z m184 -4540 c181 -3 474 -9 652 -14 177 -6 591 -10 920 -10 l597
0 300 10 c165 5 403 11 529 13 l228 4 -6 -51 c-4 -28 -11 -91 -17 -141 -6 -49
-14 -126 -19 -170 -5 -44 -14 -120 -20 -170 -6 -49 -15 -133 -21 -185 -5 -52
-14 -138 -19 -190 -6 -52 -14 -135 -20 -185 -5 -49 -14 -130 -19 -180 -5 -49
-12 -117 -16 -150 -3 -33 -11 -95 -17 -137 l-10 -78 -32 -4 c-17 -3 -65 -9
-106 -15 -41 -6 -115 -15 -165 -20 -49 -6 -148 -15 -220 -20 -71 -6 -236 -16
-365 -22 l-235 -12 -510 6 -510 6 -145 10 c-80 6 -206 15 -280 21 -74 5 -180
14 -235 20 -55 5 -138 14 -185 20 -47 5 -112 14 -145 18 l-59 7 -13 110 c-7
61 -17 148 -22 195 -5 47 -15 130 -21 185 -6 55 -15 136 -20 180 -5 44 -14
122 -20 173 -5 50 -14 131 -20 180 -5 48 -14 134 -20 192 -6 58 -15 137 -20
175 -5 39 -12 107 -16 152 l-6 83 328 -6z"/>
<path d="M8940 18359 c-52 -1 -113 -5 -135 -10 -22 -6 -58 -14 -80 -20 -22 -5
-65 -20 -95 -32 -30 -11 -80 -36 -111 -53 -31 -18 -73 -49 -95 -68 -21 -20
-42 -36 -45 -36 -4 0 -32 -31 -62 -68 -31 -38 -73 -102 -94 -143 -22 -41 -47
-99 -57 -129 -10 -30 -24 -89 -32 -130 -7 -41 -14 -97 -14 -124 0 -27 5 -79
10 -115 6 -36 16 -84 22 -106 5 -22 20 -65 31 -95 12 -30 36 -81 55 -113 18
-31 55 -84 82 -116 l48 -58 69 -52 c37 -28 100 -67 140 -86 39 -20 86 -41 105
-46 18 -6 62 -17 98 -25 l65 -14 104 0 104 0 41 11 c22 6 59 16 81 22 22 6 69
24 104 39 35 16 91 48 125 70 33 23 83 62 110 88 27 25 70 77 95 115 26 39 61
99 78 135 l31 65 21 87 21 87 0 93 0 93 -14 65 c-8 36 -21 88 -30 115 -10 28
-27 70 -39 95 -12 25 -42 77 -68 115 -26 39 -69 91 -96 116 -26 26 -75 65
-108 87 -33 22 -78 49 -100 60 -22 11 -62 27 -90 37 -27 9 -79 23 -115 31
l-65 14 -95 -1z m20 -513 l76 -4 45 -21 45 -22 36 -37 c20 -20 45 -53 55 -72
11 -19 25 -61 33 -92 l13 -58 -13 -57 c-8 -32 -22 -74 -33 -93 -10 -19 -35
-51 -54 -71 -19 -20 -54 -46 -76 -57 -23 -11 -57 -25 -76 -31 -19 -6 -51 -11
-71 -11 -20 0 -52 5 -71 11 -19 6 -54 20 -78 32 l-43 21 -32 38 c-18 21 -44
59 -57 85 l-24 47 1 85 0 86 27 51 26 51 50 45 49 45 49 16 48 17 75 -4z"/>
<path d="M7670 16663 l-85 5 -50 -8 c-27 -4 -66 -12 -85 -17 -19 -6 -53 -18
-75 -28 -22 -10 -60 -32 -85 -48 -25 -16 -72 -58 -106 -93 l-61 -64 -31 -62
c-16 -35 -33 -72 -37 -83 -4 -11 -13 -44 -21 -73 l-14 -53 0 -79 0 -79 14 -53
c8 -29 17 -62 21 -73 4 -11 21 -49 38 -85 l32 -64 70 -71 71 -70 64 -32 c36
-18 94 -41 129 -53 l64 -20 100 0 101 0 35 11 c20 7 61 21 91 32 30 11 75 34
100 51 25 16 61 42 80 58 20 15 52 49 72 76 20 26 45 63 55 82 11 20 29 62 41
95 12 33 25 90 30 128 l9 67 -9 68 c-4 37 -13 85 -20 107 -6 22 -25 67 -41
100 -16 33 -43 78 -61 100 -17 22 -40 48 -51 59 -11 10 -38 33 -60 51 -22 18
-70 46 -106 64 -37 17 -74 31 -84 31 -9 0 -24 4 -33 9 -9 5 -55 11 -102 14z
m-52 -384 c2 1 24 -4 50 -10 l47 -12 32 -23 c17 -13 41 -37 52 -53 11 -15 26
-48 32 -73 l12 -45 -12 -46 -13 -46 -34 -40 c-19 -22 -49 -47 -66 -55 l-31
-16 -62 0 -62 0 -31 15 c-17 9 -43 30 -57 47 -14 17 -32 46 -40 65 l-15 35 0
38 0 38 20 47 c11 25 25 52 32 58 7 7 27 22 43 34 17 12 46 26 65 31 19 6 36
11 38 11z"/>
<path d="M10799 16119 l-124 -1 -69 -19 c-37 -11 -100 -34 -140 -53 -39 -18
-98 -54 -132 -79 -33 -26 -78 -66 -100 -90 -21 -24 -48 -54 -58 -68 -11 -13
-36 -55 -57 -94 -20 -38 -46 -97 -56 -130 -11 -33 -25 -87 -32 -121 -6 -33
-11 -94 -11 -135 l0 -74 14 -65 c8 -36 22 -87 31 -115 9 -27 31 -77 48 -110
17 -33 45 -78 62 -100 16 -22 48 -58 70 -80 22 -23 58 -55 80 -71 22 -17 67
-45 100 -61 33 -17 71 -35 85 -41 14 -6 34 -13 45 -17 11 -4 49 -13 85 -21
l65 -14 104 0 104 0 41 11 c22 6 59 16 81 22 22 6 67 24 99 40 32 16 84 46
115 67 31 21 77 60 102 87 26 26 62 69 82 95 19 26 46 71 60 100 14 29 33 76
42 103 10 28 23 75 31 105 l13 55 1 90 0 90 -14 65 c-8 36 -22 88 -31 115 -10
28 -26 68 -38 90 -11 22 -37 65 -57 95 -21 31 -60 78 -87 106 -27 27 -65 62
-85 77 -20 15 -69 45 -109 65 -41 21 -92 43 -114 49 -22 6 -59 16 -81 22 l-41
11 -124 -1z m13 -502 l57 -3 58 -30 57 -29 36 -47 35 -47 14 -46 13 -46 -4
-52 -4 -52 -18 -36 c-9 -20 -33 -55 -53 -78 l-35 -41 -54 -25 -55 -25 -58 0
-59 0 -49 21 -48 20 -38 37 -38 37 -21 45 -21 45 -5 55 -4 55 22 58 22 57 43
44 43 44 53 21 54 21 57 -3z"/>
<path d="M10550 13423 l-75 5 -60 -8 c-33 -4 -82 -15 -110 -25 -27 -9 -77 -31
-109 -49 l-60 -31 -65 -66 -66 -65 -31 -60 c-18 -32 -42 -88 -54 -124 l-22
-65 0 -115 0 -115 22 -65 c12 -36 35 -90 52 -120 l29 -55 72 -70 72 -71 70
-34 c39 -18 79 -37 90 -40 11 -4 41 -12 68 -19 l47 -11 75 0 74 0 53 14 c29 8
72 21 96 29 23 8 67 30 98 48 30 19 75 53 100 77 24 24 62 69 82 100 21 32 47
77 56 102 10 25 24 69 32 98 l14 53 0 84 0 84 -15 58 c-8 32 -30 90 -50 128
-19 39 -51 90 -72 115 -20 25 -58 63 -83 83 -25 21 -65 49 -90 61 -25 13 -56
28 -70 33 -14 6 -41 15 -60 21 -19 6 -69 13 -110 15z m-58 -384 c10 1 39 -5
65 -11 l48 -13 47 -46 46 -46 7 -47 7 -46 -7 -42 c-4 -24 -14 -56 -24 -73
l-17 -30 -48 -32 -48 -33 -64 0 -64 0 -23 13 c-12 6 -37 26 -55 42 l-34 30
-14 34 -14 33 0 53 0 53 23 43 22 42 32 26 c18 14 47 31 65 38 18 6 41 12 50
12z"/>
<path d="M7975 12939 l-80 0 -43 -21 -43 -21 -42 -42 c-23 -23 -54 -59 -68
-81 -14 -21 -45 -69 -68 -106 -23 -37 -50 -75 -59 -85 l-17 -19 -85 -12 c-47
-7 -112 -17 -145 -23 -33 -6 -82 -17 -110 -25 -27 -8 -62 -22 -76 -32 -15 -9
-37 -30 -50 -47 -14 -16 -29 -41 -36 -55 -6 -14 -16 -38 -22 -53 l-11 -28 0
-65 0 -65 18 -37 c10 -20 29 -55 41 -77 13 -22 31 -49 41 -60 9 -11 45 -61 79
-112 l61 -92 -10 -48 c-5 -26 -14 -84 -20 -128 -5 -44 -10 -119 -10 -166 l0
-87 15 -36 c9 -21 34 -57 57 -82 l41 -44 31 -14 c17 -7 44 -18 59 -25 15 -6
48 -11 72 -11 24 0 68 6 97 14 29 8 100 30 158 50 58 19 119 41 135 47 l30 12
110 -52 c61 -29 120 -56 133 -62 12 -5 32 -13 45 -18 12 -5 37 -14 54 -21 l33
-12 62 4 63 4 45 21 45 22 37 38 37 38 22 50 22 50 5 200 4 200 57 60 c31 33
76 83 102 110 25 28 59 70 75 95 17 25 36 64 42 86 7 23 12 59 12 80 l0 39
-19 52 c-10 29 -29 66 -41 82 -12 17 -40 44 -63 59 -23 16 -62 34 -87 41 -25
7 -56 17 -70 21 -14 4 -45 13 -70 20 -25 6 -63 16 -85 22 -22 5 -51 15 -65 22
l-24 11 -36 70 c-20 39 -51 97 -69 129 -18 33 -46 79 -64 103 l-31 44 -35 22
c-20 12 -52 28 -71 34 l-35 13 -80 -1z m8 -432 c5 -1 40 -60 76 -131 36 -70
76 -137 87 -149 l22 -22 63 -21 c35 -12 84 -27 109 -34 25 -6 55 -16 68 -21
13 -5 32 -9 42 -9 l20 0 0 -12 c0 -7 -52 -65 -116 -129 l-115 -117 7 -166 7
-166 -9 0 c-5 0 -77 34 -160 76 l-151 75 -84 -31 c-46 -17 -109 -41 -139 -52
-30 -11 -65 -25 -77 -31 -13 -6 -25 -8 -28 -5 -3 3 -1 25 4 49 6 24 15 74 21
110 5 37 10 92 10 123 l0 57 -32 47 c-17 26 -46 65 -62 87 -17 21 -39 48 -50
60 -10 11 -25 31 -34 43 l-15 24 14 9 c8 5 28 9 46 9 17 0 55 5 85 11 29 6 78
15 108 21 30 6 64 16 75 21 10 6 27 19 37 31 10 12 35 48 56 81 22 33 54 84
72 113 l33 53 10 -4z"/>
<path d="M5570 12362 c-41 2 -109 1 -150 -2 -41 -4 -88 -10 -105 -14 -16 -4
-66 -22 -110 -39 -44 -17 -105 -46 -136 -64 l-56 -32 -77 -72 -78 -72 -38 -57
c-22 -32 -52 -84 -69 -116 -16 -33 -37 -81 -46 -108 -9 -28 -23 -84 -31 -125
l-14 -76 0 -82 c0 -45 5 -105 11 -135 6 -29 15 -71 21 -93 6 -22 14 -49 18
-60 4 -11 22 -51 39 -89 18 -38 46 -89 63 -114 17 -25 59 -73 92 -107 34 -34
88 -80 121 -102 33 -22 78 -49 100 -60 22 -12 63 -28 90 -38 28 -9 75 -24 105
-32 l55 -15 125 -1 125 0 55 12 c30 7 82 22 115 33 33 11 78 30 100 41 22 11
67 38 100 60 33 22 87 67 120 101 34 34 79 88 101 121 22 33 52 85 66 115 15
30 33 75 41 100 8 25 20 70 27 100 l14 55 -1 125 0 125 -22 80 c-12 44 -25 89
-30 100 -5 11 -19 43 -32 70 -13 28 -40 75 -60 105 -20 30 -68 87 -107 125
l-71 70 -68 41 c-37 22 -97 52 -133 66 -36 14 -94 33 -130 41 -36 9 -99 17
-140 19z m-60 -503 c19 1 53 -4 75 -10 22 -5 60 -20 85 -32 24 -12 63 -40 86
-62 22 -22 50 -58 62 -80 11 -22 25 -55 31 -74 6 -19 11 -57 11 -85 l0 -51
-15 -50 -16 -50 -34 -52 -34 -51 -43 -29 c-24 -16 -54 -33 -68 -39 -14 -6 -41
-16 -61 -23 -19 -6 -54 -11 -76 -11 -22 0 -55 5 -74 11 -19 6 -53 20 -77 31
-23 12 -60 36 -81 54 l-39 34 -31 64 -31 65 0 83 0 83 13 35 c6 19 22 52 35
72 13 20 45 57 72 81 l49 44 63 21 c35 11 79 21 98 21z"/>
<path d="M12660 8739 l-115 -2 -58 -12 c-31 -7 -81 -20 -110 -30 -28 -9 -88
-35 -132 -57 -44 -22 -103 -57 -131 -79 -28 -22 -76 -65 -106 -97 -29 -31 -65
-73 -80 -92 -14 -19 -39 -60 -55 -90 -16 -30 -37 -75 -47 -100 -10 -25 -22
-58 -26 -75 -5 -16 -16 -57 -26 -90 l-17 -60 -1 -195 -1 -195 14 -45 c7 -25
24 -68 36 -95 l23 -51 46 -45 46 -46 43 -20 c23 -12 56 -26 72 -31 17 -6 54
-16 84 -21 l53 -11 67 11 66 11 62 29 62 30 45 46 45 46 30 59 30 59 7 47 c3
26 7 100 8 164 l1 116 19 21 20 22 30 -3 29 -3 20 -27 21 -28 8 -62 c5 -35 12
-99 18 -143 5 -44 14 -123 20 -175 6 -52 15 -138 21 -190 5 -52 14 -135 19
-185 5 -49 15 -128 20 -175 6 -47 15 -125 21 -175 6 -49 14 -126 19 -170 5
-44 14 -122 19 -172 6 -51 16 -135 21 -185 6 -51 15 -131 19 -178 5 -47 12
-105 16 -130 3 -25 11 -63 18 -85 6 -22 19 -54 28 -72 10 -17 28 -47 40 -66
l23 -35 53 -38 c30 -22 79 -49 111 -61 l57 -22 90 0 90 -1 43 15 c24 9 62 25
85 36 l40 21 52 52 51 51 31 65 c17 36 37 87 44 113 l12 48 -7 67 c-4 37 -11
103 -16 147 -5 44 -14 121 -20 170 -6 50 -15 128 -20 175 -5 47 -14 123 -19
170 -6 47 -15 124 -21 173 -5 48 -15 126 -21 175 -6 48 -14 123 -19 167 -5 44
-13 123 -19 175 -6 52 -15 134 -21 183 -5 48 -15 126 -20 175 -6 48 -15 123
-20 167 -5 44 -14 107 -19 140 -5 33 -19 88 -30 122 -11 33 -31 87 -46 118
-14 31 -48 91 -77 132 -28 42 -79 104 -113 138 l-62 62 -74 50 c-41 27 -95 59
-121 71 -26 12 -54 22 -62 22 -8 0 -17 4 -20 9 -3 5 -18 11 -33 14 -16 3 -59
12 -98 21 l-70 16 -115 -1z m51 -354 l96 -4 27 -12 c14 -7 25 -15 24 -18 -2
-4 -20 -40 -42 -82 l-39 -75 -94 4 -95 4 -25 -13 -25 -14 -24 30 c-14 17 -40
47 -59 68 -19 20 -35 43 -35 50 l0 14 68 21 c37 12 81 24 97 26 17 2 73 3 126
1z m-540 -285 c4 0 34 -30 68 -66 l62 -66 -8 -11 c-5 -7 -14 -28 -20 -47 -7
-19 -15 -59 -19 -88 -4 -29 -11 -55 -15 -58 l-9 -5 -44 30 c-25 17 -48 31 -52
31 -4 0 -15 7 -25 16 l-17 16 4 36 c3 21 10 55 16 77 6 22 20 61 31 88 11 26
24 47 28 47z m1065 -171 l12 1 6 -31 c3 -17 6 -51 6 -76 0 -24 5 -76 12 -115
l12 -72 -80 -73 c-43 -40 -85 -73 -91 -73 l-13 0 0 48 c0 26 -5 91 -12 144
l-12 96 75 75 c41 41 79 75 85 76z m94 -704 l10 -6 0 -57 c0 -31 5 -94 12
-140 l12 -83 -32 -26 c-18 -14 -55 -47 -83 -74 -28 -27 -54 -49 -58 -49 l-8 0
-7 108 c-3 59 -9 126 -12 150 l-6 42 28 23 c16 12 53 44 82 70 l53 48 9 -6z
m76 -685 l11 0 7 -102 c3 -57 9 -122 12 -145 l6 -42 -14 -13 c-7 -7 -44 -39
-81 -70 -38 -32 -72 -58 -76 -58 l-8 0 -7 83 c-3 45 -9 108 -12 140 l-7 59 79
73 c44 41 84 74 90 75z m67 -680 c4 0 7 -3 7 -6 0 -3 -6 -12 -14 -20 -8 -8
-19 -14 -25 -14 -6 0 -11 4 -11 10 0 5 8 14 18 19 9 6 20 11 25 11z"/>
<path d="M10182 8639 l-137 -2 -40 -9 c-22 -6 -69 -19 -104 -30 -35 -10 -84
-29 -110 -40 -25 -12 -79 -44 -120 -71 l-73 -49 -60 -61 c-33 -33 -81 -92
-107 -131 -26 -39 -61 -100 -78 -136 -17 -36 -40 -92 -51 -125 -11 -33 -25
-82 -31 -110 -5 -27 -15 -74 -20 -103 -6 -30 -11 -91 -11 -137 l0 -84 11 -28
c6 -15 20 -46 31 -68 10 -22 33 -56 51 -75 18 -20 52 -50 77 -67 25 -16 72
-40 106 -52 l60 -21 81 0 80 0 34 11 c19 6 58 22 87 36 l52 25 50 48 49 48 25
54 c13 29 28 73 34 98 6 25 16 71 23 103 l12 58 30 25 29 24 18 0 19 0 21 -22
20 -22 0 -60 c0 -34 -5 -97 -10 -141 -6 -44 -15 -118 -21 -165 -5 -47 -14
-122 -19 -167 -6 -46 -14 -120 -20 -165 -5 -46 -14 -123 -20 -173 -6 -49 -15
-121 -20 -160 -5 -38 -14 -113 -20 -165 -6 -52 -15 -133 -21 -180 -6 -47 -14
-121 -20 -165 -5 -44 -14 -118 -20 -165 -5 -47 -14 -116 -19 -155 -5 -38 -15
-114 -21 -167 l-12 -97 13 -58 c7 -32 24 -81 37 -110 l23 -52 53 -54 52 -54
50 -24 c28 -13 70 -29 95 -36 l45 -12 71 -1 71 0 34 11 c19 6 62 24 96 41 l62
30 49 52 50 52 26 50 26 50 14 84 c8 47 20 126 26 175 6 50 15 122 20 160 5
39 14 113 20 165 6 52 15 131 20 175 5 44 14 123 20 175 6 52 15 129 20 170 5
41 14 114 19 163 6 48 16 126 22 175 5 48 14 119 19 157 5 39 14 111 20 160 6
50 15 124 20 165 5 41 14 113 20 160 5 47 10 110 10 140 0 30 -7 91 -15 135
-8 44 -19 96 -24 115 -5 19 -14 49 -19 65 -5 17 -21 56 -36 88 -14 32 -47 90
-73 130 l-47 72 -66 65 -65 65 -70 46 c-38 25 -91 55 -116 67 -26 11 -75 30
-110 40 -35 11 -85 24 -112 31 l-47 11 -138 -1z m-10 -339 l112 0 35 -12 c20
-6 62 -21 95 -32 32 -12 60 -26 63 -33 l4 -11 -63 -67 -64 -67 -65 22 -64 21
-40 -3 -40 -3 -42 85 c-24 47 -43 88 -43 93 l0 7 112 0z m-394 -180 l17 -1 35
-71 c19 -39 36 -75 38 -78 1 -4 -10 -23 -26 -43 -16 -19 -37 -57 -46 -84 -10
-26 -20 -56 -24 -65 l-7 -18 -68 65 -68 65 24 54 c14 30 44 82 66 115 l42 61
17 0z m947 -163 c5 -2 13 -19 18 -38 4 -19 12 -54 17 -79 5 -25 12 -64 16 -86
l6 -42 -68 -41 c-38 -22 -84 -50 -101 -62 l-33 -21 0 94 c0 51 -3 102 -6 114
l-5 20 73 72 c40 39 77 70 83 69z m-1 -658 l18 1 -7 -27 c-4 -16 -11 -62 -15
-103 -5 -41 -12 -94 -16 -118 l-7 -43 -61 -36 c-33 -20 -76 -44 -95 -55 -18
-10 -36 -16 -39 -13 -3 3 -1 43 6 88 7 46 12 103 12 128 l0 45 13 17 c6 10 48
39 92 66 44 27 88 49 99 50z m-80 -700 l18 1 -6 -32 c-3 -18 -10 -69 -16 -113
-6 -44 -14 -95 -18 -114 l-7 -34 -64 -34 c-35 -18 -76 -42 -91 -53 -16 -11
-31 -20 -35 -20 l-8 0 8 78 c4 42 10 108 14 146 l6 69 10 4 c6 2 46 25 90 52
44 27 88 49 99 50z m-82 -689 l7 0 -5 -52 c-3 -29 -10 -77 -15 -107 -5 -30 -9
-76 -9 -102 l0 -47 -31 -31 -31 -31 -42 0 -42 0 -23 21 -22 21 7 101 7 102 13
15 c7 9 42 31 76 49 35 19 72 40 83 47 11 8 23 14 27 14z"/>
<path d="M4882 7959 c-31 -1 -87 -7 -123 -14 -36 -6 -90 -19 -120 -29 -30 -9
-63 -20 -74 -25 -11 -5 -33 -14 -50 -22 -16 -7 -61 -34 -100 -60 l-70 -47 -61
-63 c-33 -35 -74 -84 -90 -109 -17 -25 -45 -74 -62 -110 -17 -36 -39 -87 -48
-115 -9 -27 -22 -95 -30 -149 l-13 -99 10 -86 c5 -47 14 -104 20 -126 6 -22
18 -58 26 -80 8 -22 22 -56 31 -75 9 -19 37 -66 63 -105 26 -38 69 -92 95
-119 27 -26 81 -69 119 -95 39 -26 90 -56 115 -68 25 -12 67 -29 95 -38 27 -9
85 -23 130 -30 44 -8 105 -15 135 -15 30 0 89 7 130 15 41 7 91 18 110 23 19
5 48 15 65 21 16 7 46 20 65 29 19 8 60 33 91 53 31 21 82 61 113 90 31 29 77
80 101 113 23 34 56 88 73 121 17 33 38 82 47 109 9 28 23 84 31 125 7 42 14
103 14 136 0 33 -7 94 -15 135 -7 41 -18 91 -23 110 -5 19 -18 55 -28 80 -10
25 -31 67 -47 95 -16 27 -42 69 -59 92 -16 24 -55 68 -86 99 -31 31 -75 68
-97 84 -22 15 -78 45 -125 67 l-85 40 -55 11 c-30 7 -79 16 -108 22 -29 5 -79
9 -110 9z m5 -520 l72 1 55 -24 54 -24 42 -42 42 -42 25 -56 26 -57 -1 -80 0
-80 -15 -35 c-8 -19 -29 -54 -46 -77 l-30 -41 -43 -29 c-24 -16 -59 -34 -79
-41 l-35 -12 -77 0 -76 0 -53 23 -53 24 -43 43 c-23 23 -49 57 -56 74 -8 17
-19 46 -25 65 l-11 34 0 58 0 58 11 28 c6 15 21 47 32 71 l21 43 37 34 c21 19
57 43 81 53 24 11 50 22 58 25 8 3 47 6 87 6z"/>
<path d="M7920 6503 c-30 2 -84 0 -120 -4 -36 -3 -87 -14 -115 -24 -27 -9 -71
-28 -96 -40 -25 -13 -70 -44 -101 -69 -31 -25 -72 -67 -91 -93 -19 -26 -44
-64 -55 -84 -11 -21 -28 -59 -38 -85 -9 -27 -22 -83 -29 -124 l-13 -75 10 -75
c5 -41 14 -88 20 -105 5 -16 14 -39 18 -50 4 -11 15 -37 24 -57 9 -21 33 -59
53 -85 20 -26 57 -67 82 -90 25 -24 71 -56 101 -72 30 -16 84 -39 120 -51 l65
-22 110 0 111 -1 39 12 c22 7 65 22 95 34 30 11 80 37 111 58 l55 37 53 59 52
58 35 70 c19 39 41 96 49 128 l15 58 0 84 0 84 -14 53 c-8 29 -17 62 -21 73
-4 11 -21 48 -37 83 l-31 62 -61 64 c-34 35 -81 77 -106 93 -25 16 -58 35 -75
42 -16 8 -39 17 -50 21 -11 5 -40 13 -65 19 -25 5 -70 12 -100 14z m-29 -397
l56 -4 32 -16 31 -17 35 -47 35 -47 0 -69 0 -69 -24 -42 -25 -42 -43 -28 -43
-29 -65 0 -65 -1 -42 24 -43 24 -27 41 -28 41 0 75 1 75 26 38 c14 22 41 49
60 62 18 12 42 25 53 28 11 3 45 4 76 3z"/>
</g>
</svg>
