<?xml version="1.0" standalone="no"?>
<!DOCTYPE svg PUBLIC "-//W3C//DTD SVG 20010904//EN"
 "http://www.w3.org/TR/2001/REC-SVG-20010904/DTD/svg10.dtd">
<svg version="1.0" xmlns="http://www.w3.org/2000/svg"
 width="1538.000000pt" height="2059.220450pt" viewBox="0 0 1538.000000 2059.220450"
 preserveAspectRatio="xMidYMid meet">
<metadata>
Created by potrace 1.16, written by Peter Selinger 2001-2019
</metadata>
<g transform="translate(-120.000000,2292.929088) scale(0.100000,-0.100000)"
fill="#000000" stroke="none">
<path d="M8872 22925 l-87 4 -32 -8 c-18 -5 -56 -20 -85 -34 -29 -15 -65 -37
-79 -49 -14 -13 -40 -45 -58 -71 -18 -26 -55 -92 -83 -145 -28 -53 -70 -134
-94 -179 -24 -46 -65 -122 -91 -170 -26 -49 -75 -142 -109 -207 l-62 -120
-118 -23 c-66 -12 -139 -27 -164 -32 -25 -5 -74 -14 -110 -21 -36 -6 -89 -15
-117 -20 -29 -6 -77 -14 -105 -20 -29 -5 -84 -14 -123 -21 -38 -6 -90 -16
-115 -22 -25 -5 -68 -20 -97 -33 l-52 -22 -44 -45 -45 -44 -33 -69 -34 -69 1
-105 0 -105 15 -30 c8 -17 27 -52 44 -77 l29 -47 314 -313 313 -313 -6 -50
c-3 -27 -10 -72 -15 -100 -5 -27 -14 -84 -20 -125 -6 -41 -16 -106 -21 -145
-6 -38 -14 -95 -19 -125 -5 -30 -13 -86 -19 -125 -6 -38 -15 -101 -20 -140
l-10 -70 13 -60 c8 -33 18 -71 24 -85 5 -14 27 -48 48 -75 20 -27 47 -57 58
-67 12 -9 41 -27 66 -40 25 -12 65 -28 90 -35 25 -7 62 -12 83 -13 20 0 37 -3
37 -7 0 -4 -9 -21 -20 -37 -11 -17 -73 -112 -139 -211 -66 -99 -153 -227 -194
-285 -40 -58 -99 -141 -130 -185 -32 -44 -81 -114 -109 -155 -28 -41 -54 -77
-58 -80 -3 -3 -22 -27 -40 -55 -19 -27 -49 -70 -68 -95 -18 -25 -39 -52 -45
-60 -7 -8 -23 -31 -37 -50 -13 -19 -57 -80 -98 -135 -40 -55 -82 -111 -92
-125 -10 -14 -53 -72 -96 -130 -43 -58 -81 -107 -84 -110 -3 -3 -17 -21 -30
-40 -13 -19 -27 -37 -30 -40 -3 -3 -48 -61 -100 -130 -52 -69 -121 -161 -155
-205 -33 -44 -65 -86 -72 -95 -7 -8 -71 -89 -143 -180 -72 -91 -136 -172 -143
-180 -7 -8 -28 -35 -47 -60 -19 -25 -37 -47 -40 -50 -3 -3 -17 -21 -32 -42
-15 -20 -34 -42 -41 -50 -7 -7 -60 -71 -117 -143 -57 -71 -129 -159 -159 -195
-29 -36 -71 -85 -91 -110 -21 -25 -73 -88 -116 -140 -43 -52 -95 -113 -115
-134 -20 -22 -52 -64 -70 -95 l-34 -55 0 -76 0 -75 14 -35 c7 -19 18 -46 24
-60 6 -14 28 -50 49 -82 21 -31 63 -81 94 -112 31 -31 81 -74 112 -94 32 -21
87 -53 124 -70 37 -18 72 -32 78 -32 5 0 18 -4 28 -9 9 -5 35 -14 57 -19 22
-6 64 -15 93 -21 l54 -11 99 0 99 0 0 -10 c0 -5 -11 -29 -24 -52 -13 -24 -39
-72 -58 -108 -19 -36 -45 -82 -56 -102 -12 -21 -32 -55 -43 -75 -12 -21 -30
-50 -40 -65 -11 -14 -19 -29 -19 -33 0 -3 -18 -33 -40 -65 -22 -32 -40 -61
-40 -65 0 -3 -15 -29 -33 -58 -19 -28 -65 -101 -103 -160 l-69 -108 -25 6
c-14 4 -58 9 -99 12 l-74 5 -56 -12 c-31 -7 -83 -22 -116 -33 l-60 -20 -60
-40 c-33 -22 -78 -59 -101 -81 -22 -23 -54 -61 -70 -86 -17 -25 -40 -65 -51
-90 -11 -25 -25 -61 -31 -80 -6 -19 -16 -66 -22 -104 l-11 -69 11 -76 c7 -42
16 -89 22 -106 6 -16 22 -54 35 -83 l25 -53 -24 -33 c-12 -19 -47 -69 -77
-112 -30 -44 -57 -81 -60 -84 -4 -3 -40 -52 -81 -110 -40 -58 -90 -127 -110
-155 -20 -27 -65 -90 -100 -140 -35 -49 -74 -105 -87 -122 l-24 -33 -19 0
c-10 0 -32 -5 -47 -11 -15 -6 -56 -25 -91 -42 l-63 -30 -59 -54 -59 -54 -44
-67 -44 -67 -20 -60 c-11 -33 -26 -83 -32 -112 l-13 -52 3 -83 4 -83 -41 -60
c-22 -33 -53 -82 -70 -110 -16 -27 -35 -63 -41 -79 l-13 -28 0 -60 0 -61 31
-61 c17 -33 52 -85 77 -114 25 -30 83 -85 130 -122 l84 -68 127 -63 c69 -34
135 -66 146 -70 11 -4 34 -11 50 -17 17 -5 50 -15 75 -22 25 -6 59 -15 75 -20
17 -4 50 -11 75 -14 25 -4 50 -10 57 -14 l12 -8 -51 -104 c-28 -58 -89 -179
-134 -270 -45 -91 -102 -203 -127 -250 -24 -47 -58 -110 -74 -140 -17 -30 -44
-80 -60 -110 -17 -30 -43 -77 -58 -105 -15 -27 -38 -68 -50 -90 -12 -22 -32
-58 -45 -80 -13 -22 -31 -55 -41 -72 -11 -18 -29 -50 -40 -70 -12 -21 -29 -51
-39 -68 -9 -16 -49 -84 -89 -150 -40 -66 -84 -135 -97 -152 l-25 -33 -54 0
-54 0 -53 -14 c-29 -8 -73 -22 -98 -32 -25 -10 -75 -37 -112 -62 l-67 -43 -46
-51 c-25 -28 -61 -79 -81 -114 -19 -34 -40 -78 -45 -96 -6 -18 -17 -58 -24
-88 l-14 -55 -1 -69 0 -69 11 -41 c6 -22 15 -57 20 -76 6 -19 17 -50 26 -68
l15 -34 -36 -51 c-20 -29 -51 -73 -69 -99 -18 -25 -42 -59 -54 -75 -12 -15
-90 -120 -175 -233 -84 -113 -200 -263 -257 -335 -58 -71 -107 -132 -111 -135
-3 -3 -25 -30 -50 -60 -25 -30 -47 -57 -50 -60 -3 -3 -34 -39 -70 -80 -36 -41
-67 -77 -70 -80 -3 -3 -39 -43 -80 -90 -41 -47 -100 -112 -130 -145 -30 -33
-84 -91 -120 -130 -36 -38 -164 -171 -286 -295 -122 -124 -244 -250 -272 -282
-28 -31 -57 -71 -65 -90 -8 -18 -19 -46 -26 -61 -6 -15 -11 -44 -11 -64 0 -20
5 -54 12 -77 6 -22 24 -60 40 -82 15 -23 41 -53 58 -68 17 -14 57 -41 88 -59
31 -18 93 -47 137 -64 44 -17 100 -36 125 -43 25 -7 56 -16 70 -20 14 -5 50
-14 80 -20 30 -7 73 -16 95 -20 22 -5 76 -14 120 -20 44 -5 118 -15 164 -20
46 -6 139 -10 205 -10 67 0 159 5 206 10 47 6 110 16 140 21 30 6 75 15 100
21 25 5 77 19 115 31 39 11 76 25 83 30 7 5 14 8 16 6 1 -2 18 -35 36 -74 18
-38 54 -102 80 -140 26 -39 72 -96 101 -126 30 -30 77 -74 104 -96 28 -22 68
-51 90 -64 22 -12 65 -35 95 -50 30 -14 82 -36 115 -47 33 -11 80 -24 105 -30
25 -6 70 -15 100 -21 30 -6 107 -15 170 -20 l115 -9 140 14 c77 7 158 16 180
19 22 3 58 10 80 15 22 5 81 19 130 31 50 12 135 36 190 54 55 18 124 43 154
55 30 11 75 30 100 41 25 12 91 43 146 70 55 27 114 58 130 69 17 11 33 20 37
20 3 0 18 -20 32 -44 14 -24 46 -70 72 -102 26 -32 77 -88 113 -124 36 -36
100 -90 141 -120 42 -30 87 -61 100 -69 14 -8 57 -32 97 -52 39 -21 111 -51
160 -67 48 -16 106 -34 128 -40 22 -6 65 -15 95 -21 30 -6 85 -15 121 -21 l66
-10 144 0 144 0 80 11 c44 5 105 15 135 21 30 5 82 17 115 25 33 8 71 17 85
20 14 3 30 10 36 14 l11 9 6 -7 7 -6 0 -715 0 -715 11 -41 c6 -22 16 -59 22
-81 6 -22 20 -56 30 -75 11 -19 32 -53 47 -75 15 -22 39 -51 52 -65 13 -14 39
-38 57 -53 18 -16 56 -41 84 -57 29 -15 79 -37 112 -48 33 -11 80 -24 105 -30
25 -6 70 -15 100 -20 30 -6 105 -15 165 -21 61 -6 170 -16 243 -22 l133 -11
502 0 502 -1 150 12 c83 6 188 16 235 22 47 6 112 15 145 21 33 6 83 16 110
23 28 7 78 24 112 38 34 14 87 42 117 62 30 20 79 62 109 94 l53 58 28 58 c16
31 33 74 38 94 6 20 16 81 24 136 l13 100 1 315 c0 173 5 536 11 805 6 270 13
492 15 494 2 2 21 -7 41 -21 21 -14 97 -53 168 -88 72 -34 140 -66 153 -71 12
-5 32 -13 45 -18 12 -5 49 -18 82 -29 33 -11 78 -24 100 -30 22 -6 58 -15 80
-20 22 -6 72 -16 110 -23 l70 -13 165 0 165 0 55 13 c30 7 96 26 145 41 l90
29 83 43 c45 24 110 64 144 88 34 25 92 76 129 113 37 38 83 88 101 112 l33
44 13 1 c7 0 32 -13 55 -28 23 -16 81 -47 129 -70 47 -23 93 -42 101 -42 9 0
18 -4 21 -9 3 -5 18 -11 33 -14 16 -3 55 -12 88 -20 33 -8 90 -20 126 -26 l66
-11 120 0 120 0 59 10 c32 6 82 15 109 21 28 6 66 16 85 21 19 6 71 25 115 41
44 17 105 44 135 61 30 16 73 41 95 56 l40 27 75 12 c41 7 89 17 105 23 17 5
41 15 55 21 14 6 50 28 80 48 30 20 73 56 95 80 23 24 56 70 75 101 19 32 39
58 43 58 5 0 27 -13 50 -28 23 -16 62 -37 87 -47 25 -9 70 -23 100 -31 l55
-13 65 -1 c36 0 83 5 105 10 22 6 58 16 80 22 22 7 65 25 95 42 30 16 57 32
60 35 3 3 26 26 52 50 l46 43 99 -1 98 -1 145 15 c80 8 154 17 165 19 11 2 47
10 80 16 33 7 101 26 150 43 50 16 110 39 135 50 25 12 69 36 97 54 29 19 69
49 88 69 19 19 42 51 50 71 l15 35 0 54 0 53 -12 28 c-7 15 -27 51 -44 78 -18
28 -48 70 -68 95 l-36 45 0 55 c-1 30 -7 80 -14 110 -8 30 -22 75 -32 100 -9
25 -32 69 -51 98 -18 29 -53 72 -77 96 -23 24 -68 60 -99 79 l-56 36 -70 24
-69 23 -78 104 c-42 58 -89 121 -104 140 -14 19 -50 69 -78 110 -28 41 -83
120 -122 175 -39 55 -139 201 -223 325 -84 124 -189 279 -234 345 -44 66 -131
199 -193 295 -62 96 -143 222 -180 280 -37 58 -94 148 -127 200 -33 52 -84
133 -113 180 -29 47 -73 115 -97 152 -23 37 -43 70 -43 74 0 3 -8 18 -19 32
-10 15 -28 43 -38 62 -11 19 -43 71 -70 115 l-50 81 24 36 c13 20 35 68 49
108 l24 72 6 82 6 81 -10 55 c-6 30 -15 71 -20 90 -5 19 -17 53 -27 75 -10 22
-35 65 -56 96 -20 30 -54 72 -75 93 -21 21 -63 54 -93 75 -31 20 -69 43 -86
50 -16 8 -39 17 -50 21 -11 4 -40 13 -64 20 l-45 12 -93 1 -93 0 -9 11 c-5 6
-19 29 -31 51 -13 22 -30 54 -40 70 -9 17 -38 69 -63 116 l-47 86 63 12 c34 7
87 17 117 23 30 6 80 18 110 25 30 8 65 17 78 20 12 3 25 9 28 14 3 5 12 9 21
9 8 0 54 19 101 42 48 23 119 63 158 89 l71 48 54 60 c30 33 65 81 78 106 13
26 29 72 37 103 7 31 13 80 14 107 0 28 -7 83 -15 123 -9 40 -27 107 -41 148
-14 41 -51 125 -83 187 -31 62 -72 136 -90 166 -17 29 -49 79 -70 110 -20 31
-49 77 -64 103 -15 26 -33 53 -40 60 -7 7 -41 54 -75 103 -34 50 -83 120 -109
156 -27 37 -64 89 -83 115 -18 27 -79 110 -134 184 -55 74 -116 158 -136 185
-20 28 -56 77 -81 111 -24 34 -67 94 -96 135 -29 41 -87 124 -129 184 -43 61
-108 153 -144 205 -37 52 -134 196 -215 320 -82 124 -182 277 -223 340 -42 63
-88 135 -102 160 -15 25 -51 83 -80 130 -29 47 -62 101 -73 120 -11 19 -29 51
-40 70 -10 19 -27 46 -37 60 -9 14 -21 35 -24 48 l-7 22 20 0 c11 0 44 6 73
14 29 8 62 17 73 21 11 4 29 10 40 15 11 4 43 18 70 31 28 13 77 41 110 63 33
22 78 58 101 80 22 23 50 55 61 71 12 17 31 61 43 98 l22 66 -16 55 -16 54
-47 59 c-26 32 -81 96 -122 143 -41 47 -83 96 -95 110 -12 14 -46 54 -76 90
-30 36 -57 67 -60 70 -3 3 -30 34 -60 70 -30 36 -62 72 -70 80 -9 8 -72 85
-140 170 -69 85 -130 162 -137 170 -6 8 -32 40 -56 70 -24 30 -90 116 -147
190 -57 74 -158 207 -224 295 -66 88 -151 203 -189 255 -39 52 -82 111 -97
130 -14 19 -50 69 -78 110 -28 41 -77 111 -109 155 -31 44 -108 154 -171 245
-62 91 -182 269 -266 395 -84 127 -183 276 -219 332 -37 57 -67 105 -67 108 0
3 -22 39 -50 80 -27 41 -50 77 -50 80 0 4 -13 25 -29 48 -16 23 -38 58 -48 77
-11 19 -43 72 -72 118 -28 46 -51 85 -51 87 0 2 -22 40 -50 85 l-50 81 18 5
c9 3 40 16 68 30 l52 24 46 50 47 51 27 57 26 57 0 100 0 100 -12 65 c-6 36
-16 101 -22 145 -6 44 -15 107 -20 140 -5 33 -14 96 -20 140 -6 44 -15 105
-21 135 -5 30 -11 76 -12 101 l-2 47 320 323 321 324 31 60 31 60 12 63 13 62
-13 63 c-7 34 -24 85 -36 113 l-23 50 -44 46 -44 46 -49 24 c-27 14 -69 30
-94 36 -25 6 -74 16 -110 22 -36 6 -85 15 -110 20 -25 4 -70 13 -100 19 -30 5
-84 15 -120 21 -36 6 -92 16 -125 21 -33 6 -82 15 -110 20 -27 5 -83 16 -124
23 l-75 15 -10 17 c-6 10 -43 79 -82 154 -39 74 -102 196 -141 270 -39 74 -86
164 -105 200 -20 36 -48 89 -64 119 -16 30 -48 75 -71 101 l-43 48 -66 32 -66
31 -86 4z m-19 -388 c6 -2 18 -17 27 -33 9 -16 39 -72 67 -124 28 -52 76 -144
108 -205 32 -60 70 -132 85 -160 15 -27 53 -97 83 -155 30 -58 65 -124 77
-146 13 -23 32 -53 44 -66 11 -13 32 -29 46 -35 14 -7 43 -16 65 -22 22 -5 63
-14 90 -19 28 -6 77 -15 110 -22 33 -6 80 -15 105 -20 25 -4 74 -13 110 -20
36 -6 88 -15 115 -20 28 -5 75 -13 105 -19 30 -5 80 -14 110 -20 30 -5 82 -14
114 -20 33 -6 64 -15 70 -21 l10 -10 -351 -353 -351 -352 -17 -40 -17 -40 6
-70 c3 -38 10 -101 15 -140 6 -38 14 -104 20 -145 6 -41 15 -109 21 -150 5
-41 15 -106 20 -145 6 -38 15 -104 21 -145 5 -41 12 -99 16 -129 l6 -54 -9 4
c-5 2 -77 37 -159 78 -83 40 -265 130 -405 198 -140 68 -266 130 -279 136
l-24 12 -56 0 -56 0 -285 -141 c-157 -78 -310 -153 -340 -167 -30 -13 -94 -43
-141 -66 -48 -22 -92 -41 -99 -41 l-12 0 5 53 c3 28 10 84 16 122 5 39 15 108
21 155 6 47 15 114 20 150 5 36 14 97 20 135 5 39 15 104 21 145 6 41 13 108
16 148 l5 72 -16 34 -16 34 -345 348 -345 348 0 13 0 13 34 0 c18 0 46 4 62 9
16 5 61 14 99 20 39 6 94 16 123 21 28 6 76 14 105 19 28 6 79 15 112 21 33 6
80 15 105 20 25 4 70 13 100 19 30 6 89 18 132 26 42 8 87 19 100 24 13 5 38
21 56 36 18 15 32 31 32 37 0 5 8 22 19 36 10 15 48 83 83 152 36 69 98 188
138 265 40 77 91 174 113 215 22 41 52 98 66 125 15 28 30 56 35 63 4 7 13 11
19 9z m-5 -2878 c7 1 20 -3 30 -8 9 -6 112 -55 227 -111 116 -56 220 -106 231
-112 l21 -10 21 -37 c11 -20 29 -52 40 -71 10 -19 29 -53 42 -75 13 -22 37
-65 53 -95 17 -30 48 -84 69 -119 21 -34 38 -65 38 -68 0 -2 14 -24 30 -48 17
-24 30 -46 30 -48 0 -3 35 -63 78 -133 43 -71 101 -165 129 -209 27 -44 69
-111 94 -149 24 -38 164 -249 311 -470 147 -220 298 -444 335 -497 38 -53 92
-130 120 -170 29 -41 67 -94 85 -119 17 -25 63 -88 102 -140 38 -52 99 -135
136 -185 37 -49 119 -160 182 -245 64 -85 155 -207 203 -270 48 -63 101 -130
118 -147 17 -18 29 -35 26 -37 -2 -2 -29 -15 -59 -29 -31 -14 -79 -44 -107
-67 l-52 -41 -46 -61 c-25 -34 -53 -78 -61 -97 -8 -20 -24 -63 -35 -95 l-19
-59 0 -68 0 -67 -30 -14 c-16 -7 -30 -16 -30 -20 0 -5 -7 -8 -15 -8 -8 0 -15
3 -15 6 0 3 6 20 14 37 7 18 19 51 25 73 l11 41 0 101 0 101 -14 54 c-8 30
-26 80 -41 112 -14 32 -40 79 -57 104 -17 25 -50 64 -72 87 -23 22 -68 59
-101 81 -33 22 -80 48 -105 57 -25 10 -69 24 -98 32 l-53 14 -89 0 -89 0 -53
-14 c-29 -8 -66 -19 -83 -26 -16 -6 -55 -23 -85 -38 l-55 -26 -80 -81 -80 -82
-32 -64 c-18 -35 -41 -93 -53 -128 l-20 -64 0 -120 0 -120 11 -41 c6 -22 20
-60 30 -83 11 -24 19 -45 19 -49 0 -3 14 -26 31 -52 18 -26 50 -67 73 -90 23
-24 66 -61 96 -81 30 -20 75 -46 100 -58 25 -11 59 -25 75 -31 17 -6 58 -16
92 -22 l63 -13 72 6 c40 4 85 9 101 13 l27 6 0 -10 c0 -6 -12 -24 -26 -41
l-26 -31 -32 0 c-17 0 -55 -9 -84 -19 -29 -11 -72 -31 -96 -45 -24 -14 -63
-44 -87 -66 l-44 -41 -140 5 -140 6 -50 14 c-27 8 -72 21 -100 31 -27 9 -79
30 -115 48 -36 17 -92 49 -125 71 -33 22 -82 58 -110 80 -27 23 -63 53 -80 68
-16 16 -49 37 -72 48 l-43 20 -45 0 -44 0 -38 -21 c-21 -12 -46 -28 -55 -36
-9 -8 -28 -38 -42 -66 -15 -29 -39 -73 -54 -99 -15 -25 -38 -61 -52 -79 -14
-18 -38 -48 -54 -67 -16 -18 -55 -53 -87 -78 -32 -24 -86 -59 -121 -77 -35
-18 -83 -39 -108 -46 -25 -7 -58 -17 -74 -22 l-29 -9 -97 0 -97 0 -29 9 c-16
5 -49 15 -74 22 -25 7 -70 26 -100 42 -30 16 -70 40 -88 54 -19 14 -48 40 -66
57 -17 18 -48 52 -68 77 -20 24 -46 62 -59 84 -12 22 -39 73 -60 113 -21 39
-44 78 -52 86 -8 8 -29 24 -48 35 l-34 21 -62 0 -63 0 -30 -19 c-17 -10 -64
-50 -103 -88 -40 -38 -92 -83 -117 -100 -25 -17 -63 -40 -86 -51 -22 -11 -72
-31 -110 -43 l-69 -22 -100 0 -100 0 -48 17 c-26 9 -66 25 -87 36 l-40 20 -52
53 -53 53 -33 64 c-18 36 -38 72 -45 80 -7 9 -28 27 -47 40 l-35 25 -85 -1
-85 -1 -28 -12 -28 -11 -102 0 -102 0 -53 14 c-29 8 -82 28 -118 45 l-65 30
-59 57 c-33 31 -60 62 -60 68 0 6 13 25 28 41 15 17 56 66 92 110 35 44 91
112 123 150 33 39 67 79 76 90 9 11 54 67 101 125 46 58 87 107 90 110 3 3 16
19 30 36 14 17 36 45 50 64 14 18 99 126 190 240 91 114 244 310 340 435 96
125 180 232 185 238 6 7 84 111 175 232 90 121 180 243 200 270 20 28 58 79
84 115 26 36 53 72 59 80 7 8 50 68 97 133 47 65 111 155 143 200 32 45 81
116 109 157 28 41 54 77 58 80 4 3 57 79 118 170 61 91 130 194 155 230 24 36
98 148 164 250 66 102 136 211 156 242 21 32 37 60 37 63 0 4 17 32 38 63 20
32 42 66 48 77 l11 20 139 71 c76 40 145 72 152 73z m1697 -3580 c11 0 45 -6
75 -13 30 -7 73 -22 95 -34 22 -11 57 -37 79 -59 l39 -38 31 -65 31 -65 3 -71
4 -70 -17 -50 c-9 -27 -28 -67 -42 -89 -15 -22 -40 -52 -57 -67 -17 -15 -56
-39 -86 -55 l-55 -27 -95 0 -95 0 -50 24 -50 24 -55 56 -55 55 -23 65 -22 65
0 56 c0 31 5 71 11 90 6 19 18 49 26 68 9 19 36 56 60 82 l45 48 41 22 c23 12
65 27 92 34 28 7 59 13 70 14z m1250 -244 c22 -2 63 -12 92 -21 l51 -17 46
-41 46 -41 25 -48 25 -48 0 -82 0 -82 -28 -51 c-15 -28 -35 -61 -44 -74 l-17
-24 -20 25 c-11 14 -32 39 -48 55 -15 16 -46 44 -69 61 -22 17 -69 45 -105 61
-35 16 -82 35 -104 41 -22 6 -62 12 -90 14 l-50 2 -3 26 -3 27 22 46 22 47 41
40 c22 22 54 46 71 54 16 8 46 19 65 24 l35 10 40 -4z m-283 -550 l77 -4 49
-25 48 -24 41 -45 41 -45 26 -56 26 -57 0 -72 0 -72 -16 -45 c-9 -25 -24 -59
-34 -76 -11 -16 -36 -46 -57 -65 -21 -19 -60 -45 -88 -58 l-50 -24 -90 0 -90
0 -46 22 c-26 12 -65 38 -88 57 l-41 36 -27 45 -27 46 -12 66 -13 66 13 60 c7
33 20 76 30 96 9 20 36 55 59 79 l42 43 45 20 c25 11 59 24 75 28 l30 8 77 -4z
m-772 -526 c14 0 50 -6 80 -13 30 -7 73 -22 95 -34 22 -11 56 -38 76 -59 20
-21 49 -60 65 -88 l28 -50 0 -100 0 -100 -24 -50 -24 -50 -46 -45 -45 -46 -39
-18 c-22 -10 -66 -25 -98 -32 l-58 -14 -53 11 c-28 5 -76 22 -106 37 l-53 27
-38 43 c-21 23 -48 64 -61 90 l-22 47 0 90 0 90 25 56 26 57 38 41 38 42 40
21 c23 12 61 27 86 34 25 7 56 12 70 13z m-1385 -13 c9 -3 43 -24 76 -46 33
-23 104 -64 157 -91 53 -27 103 -49 110 -49 6 0 12 -3 12 -7 0 -5 -24 -19 -53
-32 -28 -13 -70 -39 -92 -56 -22 -18 -54 -45 -71 -61 -16 -16 -49 -57 -72 -91
-23 -34 -42 -66 -42 -70 0 -5 -7 -19 -16 -31 l-16 -23 -21 13 c-12 8 -40 19
-62 26 -22 6 -58 16 -80 22 -22 5 -75 10 -117 10 l-78 0 -47 -11 c-27 -7 -73
-21 -103 -32 -30 -12 -79 -36 -108 -55 -30 -18 -72 -52 -94 -75 -22 -23 -53
-61 -69 -84 -16 -23 -29 -46 -29 -51 0 -5 -6 -15 -14 -21 l-14 -12 -49 29
c-27 16 -76 39 -109 50 -32 11 -92 25 -132 31 l-73 11 -67 -10 c-37 -6 -83
-15 -102 -21 -19 -6 -46 -15 -60 -21 -14 -6 -34 -15 -45 -21 -11 -6 -33 -17
-50 -26 -16 -8 -64 -49 -107 -91 l-78 -77 -27 23 c-15 13 -54 36 -87 53 -34
16 -70 32 -81 36 -11 4 -44 13 -73 21 l-53 14 -84 0 -84 0 -53 -14 c-29 -8
-73 -22 -98 -32 -25 -9 -57 -26 -72 -36 -14 -10 -29 -18 -32 -18 -3 0 -16 -8
-28 -17 -12 -10 -37 -33 -55 -51 l-33 -33 -57 49 -58 50 -60 29 c-33 16 -78
34 -100 40 -22 6 -64 16 -93 22 -30 6 -70 11 -90 11 -20 0 -68 -6 -107 -14
-38 -7 -92 -21 -119 -31 -27 -9 -73 -33 -103 -52 -29 -20 -55 -34 -58 -32 -2
3 2 16 9 29 7 14 50 86 96 160 45 74 91 151 102 170 11 19 29 47 39 62 11 14
19 28 19 31 0 3 36 64 80 137 44 73 80 134 80 135 0 2 18 35 41 74 22 39 44
71 47 71 4 0 18 -9 32 -20 14 -11 28 -20 33 -20 4 0 26 -8 50 -19 23 -10 56
-23 72 -29 17 -5 50 -15 75 -21 25 -5 82 -15 128 -21 l82 -11 83 11 c45 6 102
16 127 22 25 5 61 15 80 21 19 5 44 13 55 17 11 4 68 31 128 60 59 30 115 62
124 72 9 10 21 18 27 18 6 -1 28 -25 49 -54 21 -29 77 -92 125 -138 48 -47
114 -102 147 -124 33 -22 92 -55 130 -73 39 -18 79 -37 90 -42 11 -5 47 -16
80 -25 33 -9 107 -23 165 -31 l105 -15 95 12 c52 7 118 18 145 25 28 7 73 21
100 30 28 9 86 34 130 56 44 22 112 63 150 91 39 29 106 89 150 133 44 44 93
96 107 115 15 19 28 39 28 44 l0 8 15 -6z m2501 -288 l17 -3 16 -30 c9 -17 32
-55 50 -85 19 -30 57 -91 84 -135 28 -44 91 -143 140 -220 50 -77 141 -216
203 -310 62 -93 163 -242 224 -330 60 -88 138 -200 172 -250 34 -49 64 -92 68
-95 4 -3 30 -39 58 -80 29 -41 69 -98 89 -127 21 -28 76 -105 123 -170 47 -65
90 -125 97 -133 7 -8 47 -62 88 -120 42 -58 95 -131 118 -164 23 -32 68 -95
100 -140 31 -44 88 -127 127 -182 38 -56 95 -146 127 -200 33 -55 71 -124 86
-155 15 -31 38 -87 52 -125 14 -38 28 -91 31 -119 l6 -50 -22 -28 c-12 -15
-48 -45 -80 -67 -33 -22 -61 -40 -65 -40 -3 0 -24 -8 -48 -19 -23 -10 -55 -23
-72 -29 -16 -5 -50 -15 -75 -21 -25 -5 -70 -16 -100 -22 l-55 -13 -165 0 -165
-1 -65 13 c-36 7 -81 17 -100 22 -19 5 -82 23 -139 41 l-105 32 -45 -12 c-26
-7 -59 -20 -75 -29 l-30 -17 -61 -75 c-34 -41 -92 -101 -129 -132 l-67 -56
-102 -51 c-56 -27 -129 -59 -162 -69 -33 -11 -80 -25 -105 -30 -25 -6 -70 -17
-100 -24 l-55 -13 -220 0 -220 0 -65 13 c-36 7 -85 18 -110 24 -25 5 -56 13
-70 18 -14 4 -43 13 -65 19 -22 7 -50 17 -62 22 -13 5 -33 13 -45 18 -13 5
-57 25 -98 45 -41 20 -95 48 -119 62 -25 14 -72 44 -105 67 -34 22 -85 60
-115 84 -30 24 -70 51 -89 59 l-34 14 -44 0 -44 0 -46 -21 -45 -22 -24 -31
c-12 -17 -34 -50 -46 -73 -13 -22 -52 -75 -86 -116 l-62 -76 -85 -68 -85 -68
-103 -52 c-57 -29 -132 -61 -168 -72 -36 -11 -81 -24 -100 -29 l-35 -8 -70 65
-70 66 -55 27 c-30 15 -68 32 -85 38 -16 7 -59 18 -95 26 -36 8 -92 14 -125
14 -33 0 -90 -6 -127 -14 -37 -8 -93 -26 -125 -40 -31 -15 -61 -32 -65 -39
l-8 -12 -100 102 -101 103 -57 38 c-31 21 -84 49 -117 62 -33 13 -87 35 -120
51 -33 15 -76 32 -96 38 l-37 12 -48 -12 -49 -12 -60 -41 c-33 -22 -69 -48
-79 -58 -11 -10 -28 -18 -38 -18 l-19 0 -6 18 c-4 9 -23 42 -42 72 -19 30 -55
77 -80 104 -25 26 -64 61 -86 76 -22 15 -56 36 -75 47 -19 10 -55 25 -80 32
-25 7 -58 17 -74 22 l-29 9 -93 0 -93 0 -55 -14 c-30 -8 -76 -24 -102 -35
l-47 -21 -13 17 c-7 10 -14 24 -14 31 0 8 -8 26 -18 40 -10 15 -24 40 -32 56
-8 17 -44 59 -80 95 l-66 66 -59 31 c-33 18 -89 42 -125 55 l-65 23 -120 0
-120 1 -45 -14 c-25 -8 -49 -18 -55 -23 -5 -4 -18 -8 -30 -8 l-21 0 -13 38
c-8 20 -22 49 -32 64 -11 14 -19 31 -19 37 0 6 -37 48 -82 94 l-83 83 -57 28
c-32 15 -72 32 -90 37 -18 6 -58 17 -88 24 l-55 14 -80 0 -80 0 -60 -14 c-32
-8 -60 -13 -60 -12 -1 1 -12 29 -25 62 -13 33 -40 85 -61 115 -20 30 -52 71
-71 91 -18 19 -54 50 -80 68 -27 17 -48 37 -48 42 0 6 26 47 58 92 32 45 91
127 130 182 40 55 105 146 145 202 l72 102 12 1 c7 0 34 -7 60 -16 l48 -17
105 0 106 0 39 13 c22 7 63 22 92 32 29 11 73 33 98 49 25 16 50 29 55 29 5 0
30 -21 55 -47 l46 -48 -6 -40 c-3 -22 -8 -87 -11 -143 l-6 -104 12 -61 c7 -34
21 -89 32 -122 11 -33 34 -87 50 -120 16 -33 42 -76 56 -95 14 -19 49 -59 77
-89 l50 -54 70 -46 c39 -26 90 -56 115 -68 25 -12 72 -30 105 -41 33 -10 87
-24 121 -31 33 -6 88 -11 123 -11 34 0 83 5 109 11 26 5 67 15 92 21 25 6 92
33 150 62 l105 51 105 105 105 105 44 90 c24 50 47 99 51 110 4 11 13 38 19
60 5 22 16 72 22 111 l12 72 -5 71 -5 70 68 51 68 51 38 49 c21 27 43 49 48
50 6 0 25 -12 42 -28 18 -15 54 -38 80 -51 27 -13 57 -27 68 -31 11 -4 40 -14
65 -21 l45 -14 110 0 110 0 45 14 c25 7 74 27 110 44 36 17 85 46 110 66 24
20 58 50 73 66 16 17 42 49 58 72 16 23 29 46 29 52 0 6 6 11 14 11 8 0 39
-13 68 -29 29 -16 82 -39 118 -52 l65 -23 115 -1 115 0 45 14 c25 7 54 17 65
21 11 4 37 15 57 24 21 9 59 33 85 53 26 20 62 50 78 67 17 17 44 49 61 71 16
22 41 63 54 90 13 28 25 52 26 53 1 2 17 -3 36 -11 18 -8 42 -18 53 -22 11 -4
49 -13 85 -21 36 -8 87 -14 115 -14 28 0 79 6 115 14 36 8 74 17 85 21 11 4
44 18 73 32 29 14 74 41 100 61 26 19 64 54 85 76 21 23 53 67 72 98 19 32 41
79 50 105 9 26 21 53 27 60 l10 13 10 -6 c5 -3 39 -12 76 -20 37 -8 83 -14
102 -14 19 0 67 6 105 14 39 7 92 21 119 31 26 9 64 26 85 37 20 11 58 36 84
55 l48 36 50 61 c27 33 60 83 73 111 14 27 32 70 40 95 9 25 16 57 16 72 0 15
4 29 9 32 5 3 58 8 118 10 l108 4 65 22 c36 12 91 36 123 53 31 17 57 35 57
40 l0 8 16 -3z m-1922 -139 c16 1 47 -4 70 -10 22 -6 55 -17 71 -25 17 -7 48
-26 71 -42 l40 -30 35 -53 c20 -30 41 -73 48 -95 l13 -41 -3 -74 -4 -74 -29
-59 -29 -59 -36 -36 c-20 -20 -57 -46 -81 -58 -25 -12 -60 -26 -79 -32 -19 -6
-57 -11 -86 -11 -29 0 -67 5 -86 11 -19 6 -53 20 -75 31 l-42 20 -40 42 -41
41 -26 54 -27 53 -1 82 -1 81 14 40 c8 22 23 54 34 70 10 17 35 47 55 68 20
21 54 48 76 59 22 12 60 27 85 34 25 7 58 13 74 13z m-867 -339 l82 0 58 -26
57 -26 46 -47 45 -46 25 -50 24 -50 0 -100 0 -100 -24 -50 -24 -50 -46 -45
-45 -46 -50 -24 -50 -24 -95 0 -95 0 -50 24 -50 24 -45 46 -46 45 -24 50 -24
50 0 100 0 100 23 47 c12 26 41 68 63 92 l39 45 62 30 62 30 82 1z m-922 -221
c22 0 61 -6 86 -13 26 -8 64 -23 86 -35 l41 -20 40 -46 c22 -25 51 -67 63 -93
l23 -47 0 -95 0 -95 -24 -50 -24 -50 -46 -45 -45 -46 -45 -20 c-25 -11 -70
-26 -101 -34 l-56 -13 -54 13 c-30 7 -74 23 -99 36 -25 13 -62 41 -82 61 -20
21 -49 63 -65 93 l-28 55 0 95 0 95 28 57 28 57 53 49 54 49 63 20 64 21 40 1z
m-2690 -22 l90 -3 45 -21 45 -21 40 -40 40 -39 22 -44 c12 -24 26 -59 32 -78
6 -19 11 -52 11 -75 l0 -40 -22 -71 -22 -70 -56 -55 -55 -56 -50 -24 -50 -23
-86 -1 -86 -1 -26 13 c-15 6 -39 18 -54 25 -14 6 -45 31 -68 54 l-42 42 -24
48 -23 48 -1 100 0 100 29 49 c15 27 44 66 63 87 l35 39 62 30 61 30 90 -3z
m1810 -95 c17 -1 48 -8 70 -14 22 -7 54 -21 70 -31 17 -11 47 -36 68 -56 l39
-36 26 -50 26 -50 0 -95 0 -95 -23 -47 c-13 -26 -41 -68 -63 -93 l-40 -45 -14
0 -14 0 -19 38 c-10 21 -49 69 -85 108 l-65 71 -83 55 c-46 30 -108 64 -138
76 -30 11 -65 23 -77 27 -13 3 -23 10 -23 15 0 4 10 27 23 50 l22 43 47 42
c26 23 64 51 85 61 l38 18 50 6 c28 3 64 4 80 2z m-955 -3 l45 1 46 -14 c26
-8 64 -23 86 -35 l40 -20 47 -52 46 -51 0 -19 0 -18 -37 -6 c-21 -3 -56 -10
-78 -16 -22 -5 -65 -20 -95 -31 -30 -12 -86 -40 -125 -62 l-69 -41 -83 -82
c-45 -46 -84 -80 -86 -75 -3 4 -13 23 -24 42 -11 19 -25 61 -33 92 l-13 57 13
61 13 62 37 56 36 57 42 29 c23 16 66 37 95 47 l52 18 45 0z m420 -494 l95 -4
60 -22 c33 -12 85 -39 116 -60 31 -21 77 -61 101 -88 24 -28 55 -74 70 -103
14 -29 31 -66 36 -83 6 -16 15 -58 22 -92 l11 -62 -11 -68 c-6 -37 -21 -93
-33 -123 -11 -30 -37 -80 -58 -110 -20 -30 -54 -71 -76 -91 -21 -20 -58 -50
-83 -66 -25 -17 -74 -41 -110 -53 l-65 -24 -100 0 -100 0 -40 13 c-22 8 -68
27 -101 43 l-62 29 -66 69 -66 68 -31 66 c-17 36 -37 92 -45 123 -7 32 -13 84
-14 115 l0 57 14 53 c8 29 17 62 21 73 4 11 16 40 28 65 l21 45 76 75 76 75
54 26 c30 15 69 32 85 38 17 5 41 12 55 15 14 2 68 3 120 1z m-2210 -1102 c36
-2 69 -9 75 -14 5 -5 16 -9 25 -9 8 0 37 -16 63 -36 l48 -35 31 -44 c17 -24
38 -61 45 -82 l14 -38 1 -86 0 -85 -27 -57 -28 -57 -39 -39 c-22 -21 -58 -48
-81 -59 -23 -11 -57 -25 -76 -31 -19 -6 -57 -11 -86 -11 -29 0 -67 5 -86 11
-19 6 -49 18 -68 26 -19 9 -54 33 -77 55 -24 22 -53 56 -65 74 -11 19 -27 58
-35 87 -8 28 -14 67 -14 86 0 18 5 52 11 75 6 22 21 61 33 85 l21 44 43 44 44
43 46 22 c26 12 63 25 82 29 l35 8 65 -6z m772 -424 l77 1 28 -11 c15 -6 47
-21 71 -32 l43 -20 40 -44 41 -44 24 -55 24 -55 0 -77 0 -77 -13 -35 c-7 -19
-21 -50 -31 -69 -10 -18 -32 -49 -49 -68 l-31 -34 -66 -31 -65 -31 -90 -1 -90
0 -50 24 c-27 14 -59 31 -69 40 -11 8 -32 29 -48 45 -16 17 -41 55 -55 85
l-26 55 -1 90 0 90 29 58 28 57 40 40 c21 23 53 48 71 58 17 9 45 22 61 28
l30 12 77 1z m883 -373 l80 -4 50 -27 c28 -15 67 -44 88 -64 21 -20 48 -53 59
-75 11 -21 26 -59 34 -85 7 -25 14 -67 14 -92 0 -25 -5 -61 -11 -80 -6 -19
-20 -53 -31 -77 -12 -23 -36 -60 -54 -81 l-34 -39 -66 -32 -66 -31 -87 0 -87
0 -55 24 c-30 13 -72 39 -92 57 -21 18 -49 52 -62 75 -14 23 -32 64 -40 91 -8
27 -15 69 -15 94 0 25 7 66 14 91 8 26 23 64 35 86 l20 41 46 40 c25 22 62 48
83 58 20 9 51 21 67 25 l30 8 80 -3z m-1487 -137 l12 1 0 -15 c0 -9 9 -35 20
-57 11 -23 20 -45 20 -50 0 -4 -10 -8 -21 -8 -12 0 -40 5 -63 11 -22 6 -54 14
-71 18 -16 5 -50 14 -75 21 -25 7 -54 16 -65 20 -11 4 -36 14 -55 21 -19 7
-39 17 -45 22 l-10 9 35 -6 c19 -3 67 -9 105 -12 l70 -5 65 15 c36 8 71 15 78
15z m2377 -205 l70 -5 10 -10 c5 -5 16 -9 25 -9 8 0 36 -16 62 -35 l48 -35 35
-53 34 -52 16 -50 15 -50 0 -46 0 -46 -21 -64 -21 -64 -31 -41 c-17 -22 -49
-54 -71 -71 l-41 -31 -64 -21 -64 -21 -41 0 c-23 0 -62 7 -87 14 -26 8 -62 22
-80 31 -19 10 -52 36 -74 59 -22 23 -50 62 -61 86 -12 25 -27 64 -33 86 -6 23
-11 59 -11 81 l0 40 21 63 c11 35 34 83 49 105 16 23 44 53 62 66 18 14 51 34
73 44 22 10 56 22 75 26 l35 8 70 -5z m-1534 -204 c3 0 12 -12 20 -27 8 -15
28 -51 45 -81 18 -29 49 -74 70 -100 21 -26 58 -66 83 -89 24 -24 48 -43 53
-43 4 0 8 -6 8 -13 l0 -14 -100 -7 c-54 -3 -109 -10 -122 -15 -13 -5 -50 -19
-83 -32 l-60 -23 -70 -47 c-38 -25 -88 -66 -110 -90 -22 -24 -54 -62 -71 -84
-17 -22 -44 -67 -60 -100 -16 -33 -36 -80 -43 -105 -7 -25 -17 -58 -22 -74
l-9 -29 0 -118 0 -118 14 -53 c8 -29 19 -66 26 -83 6 -16 22 -53 36 -81 14
-28 49 -80 78 -115 29 -35 73 -81 97 -101 25 -20 68 -49 95 -65 27 -16 69 -37
94 -47 25 -10 69 -24 98 -32 l53 -14 116 0 116 0 41 11 c22 6 50 15 61 19 11
4 51 22 88 40 l68 32 69 54 68 54 47 62 c26 35 61 90 77 123 17 33 35 74 40
90 5 17 16 59 24 95 l14 65 0 70 0 70 -14 65 c-8 36 -21 87 -31 114 -9 26 -26
64 -37 85 -11 20 -36 59 -54 87 -19 28 -58 73 -87 100 -28 27 -63 57 -77 66
l-25 17 172 0 172 1 17 -32 c9 -18 47 -62 83 -98 l66 -65 55 -27 c30 -15 69
-32 85 -39 17 -6 55 -17 85 -25 l55 -13 77 -1 78 0 47 11 c27 7 73 21 103 32
30 11 59 24 64 29 6 4 18 8 28 8 l18 0 0 -15 c0 -8 9 -31 21 -52 12 -21 39
-62 62 -92 23 -29 57 -65 77 -79 19 -15 37 -30 40 -33 3 -3 32 -20 65 -36 33
-17 71 -35 85 -41 14 -5 44 -15 68 -21 l42 -12 106 0 106 0 71 22 c40 13 87
31 105 41 18 10 44 25 57 34 l23 15 47 -73 47 -73 56 -52 57 -53 55 -29 c30
-16 87 -40 125 -52 l70 -23 110 0 110 0 40 13 c22 7 49 16 60 20 11 5 38 17
60 28 22 11 51 26 65 34 13 8 31 20 39 28 l15 14 16 -24 c8 -13 37 -50 63 -82
27 -32 69 -73 95 -92 26 -19 70 -46 97 -59 28 -14 63 -30 80 -36 16 -6 66 -18
110 -27 l80 -15 80 12 c44 7 100 19 125 27 25 8 61 22 80 31 19 8 55 29 80 46
25 16 47 33 48 38 2 4 10 8 17 8 l13 0 21 -33 c11 -18 47 -59 80 -91 l61 -58
73 -37 c39 -20 90 -42 112 -49 22 -6 71 -16 108 -23 l68 -12 77 12 c42 7 91
17 107 23 17 5 59 24 94 40 36 16 83 44 105 61 23 17 47 37 54 44 7 7 15 13
17 13 2 0 28 -25 57 -56 29 -31 78 -73 108 -93 30 -21 80 -47 110 -58 30 -12
73 -27 95 -34 l40 -12 106 0 105 0 40 12 c21 7 64 22 94 34 30 11 80 37 110
58 30 20 71 53 89 73 19 20 39 36 43 36 5 0 23 -16 40 -36 18 -20 64 -57 102
-83 39 -26 91 -56 116 -65 25 -10 70 -24 100 -32 l55 -13 77 -1 77 0 53 14
c29 8 62 17 73 21 11 3 54 23 95 43 l74 37 65 63 c35 34 67 62 70 62 3 -1 30
-22 58 -49 l53 -48 62 -30 c35 -17 77 -35 93 -41 17 -6 58 -16 92 -22 l61 -12
69 5 c37 3 88 11 113 17 25 6 57 14 73 17 l27 5 0 -10 c0 -6 23 -48 51 -94 29
-46 60 -96 69 -113 10 -16 37 -61 60 -100 24 -38 56 -89 71 -112 16 -23 29
-44 29 -47 0 -4 24 -43 53 -89 30 -45 85 -131 124 -192 38 -60 106 -166 149
-234 43 -69 204 -312 356 -540 153 -229 309 -461 348 -516 39 -55 94 -134 122
-175 28 -41 54 -77 58 -80 4 -3 26 -34 50 -70 24 -36 52 -74 62 -84 10 -11 18
-25 18 -31 0 -6 -20 -26 -44 -43 -25 -18 -65 -56 -89 -85 l-45 -52 -37 -73
c-21 -39 -41 -72 -46 -72 -5 0 -26 6 -46 14 -21 8 -62 19 -91 25 -29 6 -70 11
-90 11 -20 0 -66 -6 -102 -14 -36 -8 -80 -19 -98 -25 -18 -5 -58 -22 -90 -38
l-57 -28 -66 -65 -66 -65 -28 -50 c-16 -27 -30 -52 -31 -54 -2 -2 -15 6 -31
17 -15 11 -44 28 -63 39 -19 10 -55 25 -80 32 -25 7 -58 17 -74 22 -16 5 -67
9 -114 9 l-85 0 -41 -11 c-22 -6 -50 -15 -61 -19 -11 -4 -42 -18 -70 -31 -27
-13 -59 -31 -70 -39 -11 -8 -53 -47 -93 -87 l-72 -72 -52 46 -52 46 -63 29
-63 30 -67 14 -68 14 -60 0 -60 -1 -55 -13 c-30 -8 -64 -17 -75 -21 -11 -4
-44 -18 -73 -32 -29 -14 -74 -41 -100 -61 -26 -19 -48 -39 -50 -44 -2 -4 -10
-8 -19 -8 -8 0 -34 17 -58 38 -24 21 -65 48 -92 61 -26 13 -57 27 -68 31 -11
4 -40 14 -65 21 l-45 14 -115 -1 -115 0 -65 -23 c-36 -13 -88 -36 -116 -52
-29 -16 -57 -36 -65 -45 -7 -8 -21 -19 -31 -25 l-18 -10 -54 53 -54 53 -63 32
c-35 17 -73 34 -84 38 -11 4 -45 13 -75 21 -30 7 -80 13 -110 14 -30 0 -84 -6
-120 -14 -36 -8 -74 -17 -85 -21 -11 -4 -40 -16 -65 -27 -25 -11 -59 -31 -77
-44 -17 -13 -34 -24 -38 -24 -3 0 -25 20 -48 43 -23 24 -62 58 -87 74 -25 17
-65 40 -90 51 -25 11 -54 23 -65 27 -11 4 -45 13 -75 21 l-55 13 -70 0 -70 0
-55 -13 c-30 -8 -64 -17 -75 -21 -11 -4 -31 -12 -45 -18 -14 -6 -37 -19 -52
-29 -14 -10 -36 -18 -47 -18 l-21 0 0 10 c0 5 -30 40 -67 77 l-68 68 -60 31
c-33 18 -89 42 -125 55 l-65 23 -120 -1 -120 0 -53 -16 c-30 -9 -73 -26 -98
-38 -24 -13 -45 -21 -47 -18 -2 2 -27 38 -55 80 l-51 77 -58 46 c-32 25 -85
59 -118 75 -33 16 -69 32 -80 36 -11 4 -45 13 -75 21 l-55 13 -67 1 c-36 0
-90 -5 -120 -11 -29 -6 -62 -15 -73 -19 -11 -4 -36 -14 -55 -21 -19 -7 -48
-21 -63 -32 -16 -10 -29 -18 -31 -16 -1 2 -15 29 -29 61 -15 31 -46 79 -68
106 l-40 51 -60 45 c-34 26 -77 53 -97 62 -21 9 -46 20 -57 24 -11 4 -40 14
-65 21 l-45 14 -120 -1 -120 0 -70 -23 c-38 -13 -76 -27 -82 -33 l-13 -10 -13
5 c-7 3 -28 34 -46 71 l-34 66 -55 60 -55 61 -56 38 c-31 20 -73 45 -94 55
-21 9 -63 24 -95 33 l-57 15 -110 2 -110 1 -45 -14 c-25 -7 -62 -20 -83 -27
-20 -8 -39 -14 -42 -14 -2 0 -23 39 -47 87 l-42 87 -76 76 -75 75 -65 32 c-36
18 -94 41 -129 53 l-64 20 -103 0 -103 0 -56 -15 c-31 -8 -70 -21 -86 -29
l-29 -14 -44 91 -44 92 -64 66 c-34 37 -83 80 -108 96 -25 16 -62 37 -83 47
-21 9 -61 25 -90 34 l-52 16 -130 0 -130 -1 -52 -20 -51 -21 -11 11 c-6 6 -11
16 -11 23 0 6 -16 44 -37 84 l-36 74 -71 71 -71 71 -48 28 c-26 15 -78 39
-115 53 l-67 26 -135 2 -135 2 -3 24 c-1 13 -7 42 -13 64 -6 22 -15 50 -20 63
-5 12 -14 34 -21 50 -7 15 -26 47 -42 72 -16 25 -49 66 -74 92 l-46 47 12 23
c7 13 20 37 30 53 9 17 35 59 56 95 21 36 46 79 56 95 9 17 26 46 37 65 11 19
29 51 40 70 11 19 34 58 50 85 16 28 47 82 68 120 21 39 54 99 73 135 19 36
38 70 42 75 4 6 36 64 70 130 35 66 77 145 93 175 16 30 66 125 110 210 44 85
97 188 116 229 20 41 59 120 86 175 l50 101 25 3 c14 1 63 12 110 23 47 11
103 24 125 29 22 4 67 14 100 21 33 7 67 16 75 20 8 5 18 9 21 9z m7209 -26
c8 -3 42 -12 75 -20 33 -8 73 -18 88 -22 l29 -7 22 -40 c13 -22 44 -80 71
-130 26 -49 61 -115 78 -145 16 -30 40 -73 52 -95 12 -22 32 -57 44 -78 11
-21 21 -46 21 -56 l0 -18 -25 -23 -24 -23 -62 58 -63 57 -70 33 c-39 18 -91
39 -116 46 l-45 14 -125 0 -125 -1 -50 -18 c-27 -9 -66 -25 -85 -34 -19 -8
-60 -33 -91 -53 -30 -21 -68 -53 -84 -73 -16 -20 -31 -36 -34 -36 -3 0 -36 28
-73 63 l-66 62 -64 32 c-34 18 -82 38 -106 46 l-42 13 7 7 c3 4 17 7 30 7 13
0 58 9 101 20 42 12 104 30 137 42 33 11 105 42 160 68 55 27 127 66 161 88
34 22 72 48 85 58 13 11 57 52 99 91 l75 73 15 -6z m-4814 -75 l61 1 34 -11
c19 -6 53 -20 77 -32 l42 -20 44 -47 c24 -25 50 -62 59 -81 8 -19 20 -49 26
-68 6 -19 11 -57 11 -85 l0 -50 -22 -70 -22 -69 -54 -59 -55 -59 -56 -26 -56
-26 -90 0 -90 -1 -46 23 c-26 12 -65 38 -87 56 l-40 35 -27 45 c-14 25 -33 67
-40 93 -8 26 -15 68 -15 93 l0 46 21 64 c12 35 31 77 42 94 12 16 31 39 42 50
11 11 35 31 53 44 19 13 55 32 80 41 l47 18 61 1z m2403 -29 c3 0 22 -11 42
-24 20 -14 53 -35 75 -47 21 -13 80 -44 129 -69 50 -26 115 -56 145 -67 30
-12 64 -25 75 -29 l20 -7 -65 -8 c-36 -4 -96 -14 -133 -24 -37 -9 -95 -30
-129 -47 -35 -17 -79 -43 -99 -59 -20 -16 -42 -29 -48 -29 -5 0 -16 10 -22 23
-7 12 -41 52 -77 90 l-65 67 -14 0 c-7 0 -16 6 -19 13 l-5 14 67 68 c36 38 77
84 91 102 14 18 28 33 32 33z m-1467 -211 l67 1 28 -11 c15 -6 47 -21 71 -32
l43 -20 39 -43 c22 -24 51 -67 66 -96 l26 -53 1 -95 1 -95 -32 -66 -32 -67
-41 -37 -41 -37 -57 -26 -56 -26 -90 0 -90 0 -45 22 c-25 12 -62 36 -83 53
-20 17 -50 49 -65 72 -16 23 -35 62 -43 87 l-14 45 1 80 0 80 32 67 32 67 47
41 c26 22 61 47 77 55 17 7 45 18 61 23 17 6 60 11 97 11z m2211 -103 c12 -4
47 -11 77 -17 30 -6 89 -14 130 -19 41 -5 103 -9 137 -9 l62 -1 6 -10 6 -9
-35 -15 c-20 -8 -57 -30 -83 -48 -27 -18 -58 -43 -71 -55 -13 -13 -26 -23 -31
-23 -4 0 -14 12 -21 26 -8 14 -40 49 -72 79 -31 30 -73 61 -93 71 -19 9 -35
21 -35 26 l0 10 23 -6z m-1247 -81 c23 -2 63 -12 90 -21 27 -9 68 -30 92 -46
l43 -30 31 -41 c16 -23 35 -53 40 -67 6 -14 16 -52 23 -84 l13 -60 -10 -60
c-6 -34 -20 -81 -32 -106 l-20 -45 -46 -45 -45 -45 -45 -21 c-25 -12 -64 -27
-86 -33 -23 -6 -56 -11 -75 -11 -18 0 -64 10 -101 21 l-69 22 -45 40 c-24 21
-57 58 -72 81 -15 22 -34 59 -41 80 l-14 40 1 82 1 83 30 65 31 65 44 38 c24
22 64 49 88 60 23 12 63 27 88 32 l45 10 41 -4z m-4057 -136 l85 1 60 -21 c34
-12 76 -33 95 -47 19 -14 52 -43 72 -64 l38 -39 29 -62 30 -62 12 -62 12 -62
-12 -68 c-7 -37 -23 -90 -36 -118 -12 -27 -36 -69 -53 -92 l-30 -42 -59 -40
-59 -39 -63 -21 -63 -21 -62 0 -62 0 -63 21 -64 21 -46 31 c-25 17 -54 40 -65
52 -12 11 -34 40 -51 65 -17 25 -34 54 -38 65 -4 11 -14 44 -22 73 -8 29 -14
73 -14 97 0 24 6 69 14 99 8 30 22 70 30 88 9 18 33 55 54 83 21 27 59 66 85
86 l48 36 57 20 57 21 84 1z m4991 0 l44 1 69 -22 68 -21 50 -44 49 -45 32
-66 32 -67 0 -95 -1 -95 -25 -55 -25 -55 -43 -43 c-24 -24 -62 -53 -83 -64
-22 -11 -64 -26 -94 -34 -30 -8 -69 -14 -87 -14 -18 0 -48 5 -67 11 -19 6 -53
20 -77 31 -23 12 -60 37 -82 55 l-40 34 -32 67 -33 67 1 95 0 95 23 46 c12 26
37 64 56 86 18 21 52 52 74 67 23 16 65 37 94 47 l52 18 45 0z m2927 -54 l73
-5 47 -22 48 -22 50 -51 51 -50 24 -50 24 -50 0 -95 0 -95 -25 -55 c-14 -30
-39 -70 -54 -88 -16 -19 -47 -45 -69 -60 -23 -14 -63 -34 -91 -44 l-50 -18
-55 0 -55 0 -54 20 c-30 11 -72 32 -93 46 -22 15 -51 41 -65 58 -14 17 -37 56
-51 86 l-25 55 0 90 0 90 32 68 33 67 44 39 c25 21 61 47 82 57 20 10 53 21
72 25 l35 8 72 -4z m-1963 -26 l78 1 64 -30 63 -31 38 -38 38 -39 27 -54 27
-53 10 -55 9 -55 -10 -55 c-5 -30 -19 -75 -31 -100 l-21 -45 -45 -48 -46 -48
-55 -27 -55 -26 -95 0 -95 0 -54 28 -53 27 -39 40 c-21 22 -47 54 -56 72 -10
18 -23 48 -30 67 l-13 35 0 87 0 87 25 55 25 55 50 50 50 50 33 14 c17 8 43
19 57 25 l25 11 79 0z m966 0 c14 0 48 -5 75 -13 28 -7 68 -21 89 -31 21 -10
58 -38 82 -61 23 -24 51 -58 61 -76 9 -18 23 -49 30 -68 l13 -35 0 -80 0 -80
-13 -35 c-6 -20 -27 -59 -46 -88 l-34 -53 -56 -37 c-31 -21 -72 -43 -92 -50
l-35 -12 -72 0 -71 0 -28 11 c-15 6 -48 21 -71 32 l-44 21 -37 42 c-20 23 -46
62 -58 86 -11 23 -26 62 -32 84 -6 23 -11 59 -11 80 0 22 5 57 11 79 5 22 20
60 32 85 l22 45 45 45 45 46 40 19 c22 11 60 25 85 31 25 6 56 12 70 13z
m-8998 -1340 l77 1 28 -11 c15 -7 43 -18 61 -26 19 -8 52 -33 73 -56 l40 -40
26 -56 27 -56 1 -96 0 -96 -33 -66 -34 -67 -40 -35 c-22 -18 -61 -44 -87 -57
l-46 -22 -95 0 -95 0 -55 27 c-30 14 -69 39 -85 54 -17 15 -40 42 -52 58 -11
17 -30 59 -42 94 l-21 64 0 42 c0 23 5 57 11 76 6 19 20 54 32 77 12 24 38 63
58 86 l37 42 44 21 c23 11 54 25 68 31 l25 11 77 0z m742 -540 c21 1 57 -4 80
-10 22 -6 61 -21 86 -33 24 -11 61 -37 81 -58 l37 -36 32 -67 32 -67 -4 -91
-3 -92 -29 -57 -28 -57 -45 -42 -44 -41 -55 -24 -55 -24 -85 0 -86 0 -63 30
-64 30 -39 46 c-22 24 -50 66 -63 92 l-23 47 0 100 0 100 16 35 c9 19 30 54
47 77 l30 41 44 30 c24 17 70 40 103 51 l59 20 39 0z m-1016 -379 c7 0 43 -10
80 -22 l67 -23 128 0 127 0 0 -29 c0 -16 5 -46 11 -65 7 -20 16 -47 22 -61 5
-14 15 -36 21 -50 6 -14 25 -48 43 -76 17 -28 49 -69 70 -91 21 -21 65 -57 98
-79 33 -22 71 -45 85 -51 14 -7 54 -21 89 -33 l64 -20 111 0 111 1 47 12 c26
7 50 16 54 20 4 4 12 7 18 7 l11 0 13 -32 c8 -18 27 -60 43 -94 l30 -60 52
-55 c29 -31 79 -73 112 -95 33 -22 71 -45 85 -51 14 -7 57 -22 95 -34 l70 -23
110 0 110 1 40 12 c22 8 55 20 73 27 18 8 37 14 42 14 6 0 10 -7 10 -15 0 -8
10 -37 22 -63 12 -26 38 -72 59 -103 21 -30 62 -78 93 -106 30 -28 76 -63 102
-77 26 -14 68 -33 93 -42 25 -9 71 -22 101 -30 30 -7 82 -13 115 -14 l60 0 65
14 c36 8 87 22 114 31 l50 17 13 -18 c7 -10 13 -24 13 -31 0 -7 10 -29 21 -50
12 -21 34 -56 49 -78 15 -22 53 -63 83 -92 l55 -52 53 -30 c30 -16 77 -37 104
-46 28 -10 87 -23 132 -30 l83 -12 77 13 c43 7 89 15 103 19 14 4 45 16 69 27
l43 19 14 -5 c8 -3 14 -12 14 -20 0 -9 10 -32 21 -53 12 -21 34 -56 49 -78 16
-23 57 -68 92 -101 l64 -60 55 -26 c30 -15 74 -33 99 -41 25 -8 80 -20 122
-27 l76 -13 69 12 c37 7 86 17 108 24 22 6 64 24 94 40 l55 28 12 -5 c6 -2 24
-30 40 -62 l28 -57 75 -77 76 -77 76 -37 c41 -21 93 -42 115 -48 l39 -11 110
-4 110 -5 55 13 c30 7 88 27 129 46 41 18 77 33 80 33 3 0 12 -14 19 -30 8
-17 37 -55 65 -86 28 -31 76 -72 106 -93 31 -20 70 -43 86 -50 17 -8 39 -17
50 -21 11 -4 40 -13 65 -20 l44 -12 103 0 103 1 38 12 c20 6 47 16 60 20 12 5
34 14 50 21 15 7 46 25 69 40 l42 28 25 -33 c14 -19 26 -38 26 -44 0 -5 -33
-41 -73 -79 -40 -38 -86 -81 -103 -95 -16 -14 -57 -43 -89 -66 -33 -22 -98
-58 -145 -81 -47 -22 -112 -50 -145 -60 -33 -11 -78 -24 -100 -30 -22 -5 -61
-15 -88 -21 l-47 -11 -166 0 -165 0 -47 10 c-26 6 -69 15 -97 21 -27 6 -77 20
-110 31 -33 10 -69 23 -80 27 -11 5 -60 28 -110 51 -49 24 -130 70 -178 103
-48 33 -119 89 -158 125 -38 35 -88 79 -111 98 l-42 32 -43 13 -43 12 -47 -13
c-27 -7 -61 -22 -78 -33 -16 -12 -50 -39 -75 -61 -25 -23 -60 -53 -78 -69 -18
-15 -78 -58 -134 -95 -57 -38 -141 -87 -188 -109 -47 -22 -110 -50 -140 -61
-30 -12 -82 -29 -115 -38 -33 -9 -78 -20 -100 -25 -22 -5 -67 -14 -100 -19
-33 -6 -114 -13 -179 -16 l-119 -7 -101 13 c-56 7 -126 19 -156 27 -30 8 -68
18 -85 23 -16 4 -50 16 -75 26 -25 10 -70 31 -100 47 -30 16 -78 47 -107 68
-28 21 -75 62 -103 91 -29 29 -72 80 -95 113 -23 33 -64 105 -91 160 -27 54
-61 114 -77 132 -16 18 -42 39 -59 48 l-31 15 -56 0 -56 0 -55 -34 c-30 -19
-80 -50 -110 -68 -30 -18 -75 -45 -100 -60 -25 -15 -81 -45 -125 -67 -44 -21
-98 -46 -120 -56 -22 -9 -49 -21 -60 -25 -11 -4 -36 -13 -55 -20 -19 -7 -44
-16 -55 -20 -11 -5 -29 -11 -40 -15 -11 -4 -33 -11 -50 -15 -16 -5 -55 -15
-85 -23 -30 -8 -80 -19 -110 -25 -30 -6 -82 -16 -115 -23 l-60 -12 -180 0
-180 -1 -55 13 c-30 6 -73 17 -95 23 -22 7 -76 30 -120 52 l-80 40 -70 70 -70
71 -31 60 c-18 33 -41 87 -51 120 -11 33 -26 85 -33 115 l-13 55 -28 41 -28
41 -45 22 -46 21 -35 0 -35 0 -48 -22 c-26 -12 -58 -29 -72 -38 -14 -9 -52
-27 -85 -39 -33 -13 -69 -27 -80 -31 -11 -5 -40 -13 -65 -19 -25 -5 -70 -16
-100 -23 l-55 -12 -235 -1 -235 0 -80 13 c-44 7 -105 18 -135 24 -30 6 -80 17
-110 25 -30 8 -68 19 -85 23 -16 5 -47 14 -67 20 -21 6 -38 14 -38 18 0 3 64
72 143 152 78 80 187 192 242 250 55 58 129 137 165 176 36 38 90 96 120 129
31 33 110 123 176 200 66 77 156 183 200 235 44 52 134 163 200 245 65 83 139
177 164 210 25 33 47 62 50 65 3 3 51 66 106 140 55 74 120 163 145 197 l44
62 13 1z m1862 -22 c19 1 55 -4 80 -11 25 -7 67 -23 94 -37 l49 -25 37 -43
c21 -23 46 -59 56 -80 9 -20 23 -64 30 -97 l13 -60 -13 -60 c-7 -33 -21 -77
-30 -97 -10 -21 -36 -58 -58 -83 l-39 -45 -67 -31 -67 -32 -85 -1 -85 0 -67
32 -67 33 -35 42 c-19 23 -47 67 -62 97 l-28 55 1 90 0 90 26 56 26 56 43 43
43 43 45 21 c25 11 63 26 85 32 22 6 56 12 75 12z m877 -399 l92 1 54 -24 53
-25 45 -45 45 -45 27 -55 27 -55 0 -89 0 -90 -16 -38 c-9 -22 -29 -61 -46 -87
l-31 -48 -41 -29 -42 -28 -64 -21 -63 -21 -41 0 c-23 0 -59 5 -81 11 -22 5
-60 20 -85 32 l-45 22 -40 40 -40 40 -21 45 c-12 25 -27 73 -34 107 l-12 61
12 54 c7 29 21 72 32 94 10 23 35 60 54 82 19 22 51 51 72 64 20 13 50 28 67
34 l30 12 92 1z m898 -364 c11 -2 38 -7 60 -11 22 -4 61 -17 86 -30 l46 -23
45 -50 c25 -28 56 -72 69 -98 l23 -48 0 -100 0 -100 -23 -46 c-12 -26 -38 -65
-56 -87 l-35 -40 -67 -34 -66 -33 -96 1 -96 0 -50 23 c-27 12 -65 37 -83 54
-19 18 -46 50 -61 72 -15 22 -33 57 -40 78 l-13 38 1 84 0 84 31 65 32 66 44
39 c25 21 61 47 82 57 20 10 62 23 92 30 30 7 64 11 75 9z m910 -349 l80 -4
48 -22 49 -23 46 -46 c26 -25 53 -58 60 -73 6 -16 18 -40 25 -55 l12 -26 0
-96 0 -96 -23 -50 -24 -50 -46 -48 -47 -48 -55 -27 -55 -26 -100 0 -100 0 -38
18 c-21 9 -59 36 -84 59 -25 23 -56 58 -67 77 -12 19 -28 53 -35 76 l-13 41 3
84 4 84 29 58 28 58 39 40 38 39 53 24 c29 14 62 27 73 30 11 3 56 3 100 2z
m7861 -207 c28 1 66 -4 85 -10 19 -6 48 -17 65 -25 17 -7 50 -32 73 -55 23
-23 47 -56 55 -73 7 -17 18 -44 25 -59 l11 -28 0 -59 0 -59 -21 -55 -20 -55
-44 -49 -45 -50 -47 -23 -48 -23 -95 0 -95 0 -40 23 c-22 12 -57 39 -78 59
l-39 37 -24 47 -24 47 0 86 0 85 22 48 22 47 51 51 51 51 54 21 55 21 51 0z
m-6970 -80 l61 1 34 -11 c19 -6 45 -16 59 -22 14 -6 48 -30 76 -54 l52 -43 32
-66 32 -67 0 -81 1 -82 -14 -39 c-7 -22 -27 -60 -43 -85 -16 -25 -41 -55 -55
-68 -14 -12 -54 -36 -87 -52 l-62 -30 -78 0 -79 0 -35 13 c-19 7 -49 20 -66
30 -18 9 -50 34 -71 57 l-40 40 -28 57 -28 58 0 90 0 90 23 50 c13 28 36 66
52 86 l28 37 52 33 c29 19 68 39 87 45 20 7 63 12 97 13z m880 -260 c0 1 27
-4 59 -10 l59 -11 47 -23 46 -24 45 -50 45 -50 21 -68 c12 -38 22 -84 22 -103
0 -19 -7 -57 -15 -85 -9 -27 -27 -68 -42 -90 -14 -22 -38 -50 -52 -63 -14 -13
-39 -31 -56 -40 -16 -9 -46 -22 -65 -29 l-35 -13 -74 0 -73 0 -63 30 -64 30
-38 44 -38 44 -23 65 -22 65 0 47 c0 26 5 66 12 89 6 22 29 66 49 97 l37 55
39 25 c21 13 49 30 63 36 14 7 45 16 70 21 25 6 45 10 46 11z m5284 -20 c14 1
49 -6 79 -13 l53 -15 42 -27 c22 -15 51 -39 63 -52 12 -14 32 -46 45 -71 l23
-45 0 -95 -1 -96 -23 -48 -23 -47 -50 -45 -49 -44 -55 -20 -55 -21 -43 0 c-24
0 -58 5 -77 11 -19 6 -45 16 -59 22 -14 6 -44 26 -67 44 l-42 34 -31 63 -30
64 0 75 0 75 21 49 c11 26 31 62 44 78 12 17 41 44 64 59 23 16 65 37 94 47
28 10 63 18 77 18z m-4408 -160 l67 1 28 -11 c15 -7 42 -18 58 -25 17 -8 44
-26 61 -41 17 -16 43 -46 57 -68 15 -22 33 -63 42 -90 8 -28 15 -66 15 -85 0
-19 -7 -57 -15 -85 -9 -27 -27 -68 -42 -90 -14 -22 -38 -50 -52 -63 -14 -12
-50 -35 -80 -49 l-54 -27 -60 -4 -59 -5 -41 14 c-23 7 -58 22 -77 32 -19 10
-48 31 -63 45 -16 15 -38 43 -50 62 -12 19 -28 51 -34 70 l-13 35 0 62 0 62
20 54 20 54 35 41 c20 22 52 51 73 64 20 13 50 28 67 34 l30 12 67 1z m3515
-60 l62 1 58 -21 57 -22 45 -46 46 -46 25 -49 25 -50 -1 -85 -1 -86 -23 -50
-24 -49 -36 -36 c-19 -19 -56 -45 -80 -57 -25 -12 -67 -28 -93 -34 l-49 -12
-56 14 c-32 7 -73 21 -92 32 -19 10 -50 33 -68 50 -18 18 -42 46 -53 63 -11
18 -26 54 -34 80 -8 27 -15 65 -15 84 0 19 7 57 15 85 9 27 27 68 41 90 14 22
40 53 58 69 17 16 54 39 81 52 l50 23 62 0z m-2652 -40 c22 1 62 -6 89 -14 26
-8 62 -23 80 -34 17 -11 45 -35 63 -53 17 -18 40 -49 50 -68 11 -19 25 -60 32
-91 l14 -56 -12 -54 c-7 -30 -22 -74 -34 -97 -11 -24 -39 -62 -60 -84 l-39
-40 -54 -24 -55 -24 -70 0 -71 0 -64 30 -63 31 -29 35 c-17 20 -40 57 -53 82
l-24 46 1 95 1 96 16 37 c9 21 31 53 48 73 17 19 45 45 62 57 17 12 54 30 81
39 28 10 69 18 91 18z m865 -40 c3 0 33 -6 68 -13 l62 -14 43 -27 c23 -15 55
-41 70 -58 16 -17 38 -52 50 -77 l21 -45 4 -73 4 -73 -12 -32 c-7 -17 -18 -46
-26 -63 -8 -17 -32 -50 -55 -73 -23 -23 -56 -47 -73 -55 -17 -7 -44 -18 -59
-25 l-28 -11 -66 0 -65 0 -63 30 -63 30 -32 37 c-18 20 -43 61 -56 90 l-24 54
0 74 0 74 25 54 24 54 40 41 c22 22 55 49 73 58 18 10 56 23 83 30 28 7 52 13
55 13z m873 0 l77 1 45 -21 c24 -11 65 -39 91 -62 l46 -40 26 -56 27 -56 0
-80 0 -80 -27 -55 -27 -55 -38 -36 c-21 -20 -54 -45 -73 -54 -19 -10 -60 -24
-92 -31 l-58 -14 -52 11 c-28 6 -67 20 -86 30 -18 11 -44 26 -57 35 -13 9 -38
37 -54 63 -17 26 -38 70 -46 97 -8 27 -15 69 -15 94 l0 45 19 52 c10 29 28 65
39 80 11 15 34 41 51 57 17 17 53 40 79 52 l47 23 78 0z m-2218 -659 l20 0 24
-36 c13 -19 32 -39 42 -44 10 -6 23 -16 31 -23 7 -7 39 -28 71 -45 32 -18 85
-41 119 -52 l61 -20 113 0 112 0 72 24 73 25 71 47 c39 26 73 51 74 56 2 4 7
8 11 8 4 0 30 -22 59 -49 29 -28 66 -56 82 -63 17 -7 30 -18 30 -23 0 -6 -24
-23 -52 -37 -29 -15 -69 -31 -88 -37 -19 -5 -54 -14 -76 -20 l-41 -11 -127 0
-127 0 -47 11 c-26 5 -67 15 -92 21 -25 6 -72 19 -105 30 -33 11 -69 23 -80
28 -11 4 -38 16 -60 25 -22 9 -80 37 -130 62 -49 24 -99 51 -110 59 l-20 15
15 9 c8 5 24 16 35 24 11 8 29 15 40 16z m-2997 -300 c8 0 58 -33 112 -74 54
-41 131 -93 170 -116 39 -23 97 -54 128 -70 31 -15 75 -35 97 -45 22 -9 49
-21 60 -25 11 -5 49 -18 85 -30 36 -11 79 -24 95 -29 17 -5 53 -14 80 -19 28
-6 79 -16 115 -24 l65 -13 195 0 195 0 65 13 c36 8 85 18 110 24 25 5 56 13
70 18 14 4 45 13 70 21 25 7 49 16 54 21 6 4 16 8 24 8 8 0 53 19 100 42 48
23 132 72 187 109 55 36 120 83 144 103 l44 37 6 -8 7 -8 -7 -145 c-4 -80 -8
-314 -9 -520 -1 -206 -5 -530 -9 -720 l-8 -345 -17 -38 -16 -37 -41 -29 -40
-29 -52 -15 c-29 -9 -77 -20 -107 -25 -30 -6 -104 -15 -165 -21 -60 -6 -180
-15 -265 -21 l-155 -10 -367 0 -368 0 -152 10 c-84 5 -209 15 -278 21 -69 6
-156 17 -195 25 -38 8 -86 18 -105 22 -19 5 -52 17 -73 27 l-37 17 -30 34 -29
34 -15 49 -15 50 6 774 6 773 71 47 c39 25 84 57 100 69 16 13 41 33 55 45 14
12 32 23 39 23z"/>
<path d="M9220 18159 c-30 -1 -75 -5 -100 -10 -25 -5 -67 -14 -95 -20 -27 -6
-59 -14 -70 -18 -11 -5 -42 -19 -70 -32 -27 -13 -81 -44 -120 -70 -38 -26 -91
-69 -116 -96 -26 -26 -65 -75 -87 -108 -22 -33 -53 -89 -70 -125 -16 -36 -39
-104 -51 -152 l-21 -87 0 -112 0 -112 11 -41 c6 -22 15 -59 21 -81 6 -22 29
-77 52 -123 l40 -83 53 -64 c29 -35 80 -86 115 -114 l62 -51 81 -39 c44 -22
94 -44 110 -49 17 -6 53 -16 80 -23 l50 -14 136 1 135 0 30 11 c16 6 49 16 74
24 25 7 79 30 121 51 l77 39 76 65 c42 36 76 69 76 72 0 4 13 21 28 37 15 17
38 48 51 70 13 22 31 54 40 70 10 17 27 55 38 85 12 30 27 78 35 105 l13 50 0
130 0 130 -13 50 c-8 28 -28 85 -44 128 -17 43 -48 106 -70 140 l-39 62 -83
80 -83 80 -89 45 c-49 24 -98 47 -109 51 -11 4 -31 10 -45 14 -14 3 -59 13
-100 20 -41 8 -100 14 -130 14z m40 -295 l75 -5 60 -21 c33 -11 83 -35 110
-53 28 -18 67 -49 88 -70 20 -21 51 -60 68 -87 17 -26 42 -80 55 -119 l24 -71
0 -93 0 -93 -24 -71 c-13 -39 -38 -93 -55 -119 -16 -26 -43 -60 -59 -77 -15
-16 -41 -41 -58 -55 -16 -14 -58 -40 -94 -57 -36 -17 -84 -36 -106 -42 l-41
-11 -86 0 -85 0 -71 24 c-39 13 -93 38 -120 55 -27 18 -72 56 -101 86 l-51 55
-33 73 -33 72 -13 62 -12 62 5 63 c3 35 10 81 15 103 5 22 18 61 30 86 11 25
38 68 59 96 21 28 60 69 86 92 27 22 69 51 95 62 26 12 61 26 77 32 17 5 50
13 75 17 l45 8 75 -4z"/>
<path d="M7325 16988 c-33 0 -82 -4 -110 -8 -27 -4 -72 -16 -100 -25 -27 -10
-68 -26 -90 -36 -22 -11 -69 -41 -105 -67 l-66 -49 -47 -55 -48 -56 -38 -74
c-20 -40 -42 -93 -49 -118 -6 -25 -16 -66 -21 -92 -6 -26 -11 -79 -11 -118 0
-39 5 -92 11 -118 5 -26 15 -65 22 -87 6 -22 29 -76 51 -120 l40 -80 71 -71
70 -70 63 -38 c34 -21 88 -47 120 -58 31 -11 89 -27 127 -34 39 -8 93 -14 120
-14 28 0 79 6 115 14 36 8 79 19 96 24 17 6 49 18 70 28 22 10 64 34 94 55 30
20 71 52 90 71 19 18 53 56 75 83 23 28 53 74 69 103 15 29 32 67 38 85 5 18
16 57 23 87 l14 55 1 94 0 94 -11 41 c-6 22 -15 57 -21 76 -6 19 -20 55 -31
80 -11 25 -37 70 -58 100 -20 30 -52 71 -71 91 -18 20 -54 52 -81 72 -26 20
-78 51 -114 68 -37 18 -83 36 -103 41 -19 6 -60 14 -90 18 -30 5 -82 8 -115 8z
m7 -289 l87 1 28 -11 c15 -6 48 -21 72 -33 24 -11 65 -40 91 -63 l47 -43 30
-57 29 -58 14 -64 13 -63 -13 -67 -12 -66 -29 -62 -30 -62 -43 -43 -43 -43
-44 -22 c-24 -11 -60 -27 -79 -34 l-35 -14 -85 0 -85 0 -35 14 c-19 7 -55 23
-79 34 l-44 22 -43 43 -43 42 -28 58 -28 57 -10 65 -11 65 9 60 8 60 23 50
c13 28 38 67 55 89 17 21 50 53 73 71 24 18 68 42 98 53 l55 21 87 0z"/>
<path d="M11810 13065 c-63 2 -131 1 -150 -1 -19 -2 -55 -9 -80 -15 -25 -6
-65 -18 -90 -26 -25 -8 -70 -26 -100 -41 -30 -14 -82 -44 -115 -65 -33 -22
-91 -69 -128 -106 l-69 -66 -47 -70 c-26 -38 -57 -92 -70 -120 -13 -27 -27
-59 -31 -70 -5 -11 -12 -33 -18 -50 -5 -16 -16 -57 -23 -90 l-14 -60 0 -135 1
-135 13 -50 c7 -27 20 -70 28 -95 8 -25 26 -70 41 -100 14 -30 47 -86 73 -125
25 -38 73 -96 105 -129 33 -32 91 -80 129 -105 39 -26 99 -61 135 -77 36 -17
84 -36 108 -42 23 -7 61 -18 85 -24 l42 -13 140 1 140 1 55 16 c30 9 66 19 80
22 14 4 36 11 50 17 14 6 52 24 85 41 33 16 89 51 125 77 36 27 88 72 116 102
27 29 68 80 90 113 22 33 54 89 71 125 16 36 35 79 41 95 6 17 15 53 21 80 6
28 15 71 21 97 5 26 10 80 10 120 l0 73 -15 75 c-8 41 -19 91 -23 110 -5 20
-22 65 -38 100 -16 36 -39 83 -51 105 -12 22 -47 71 -77 109 -30 38 -79 89
-108 114 -29 25 -76 60 -104 78 -28 18 -78 45 -110 61 -32 16 -77 34 -99 40
-22 6 -60 17 -85 23 l-44 12 -116 3z m-38 -286 l97 1 53 -14 c29 -8 73 -22 98
-32 25 -9 70 -34 100 -55 30 -20 66 -48 80 -61 14 -13 38 -39 53 -57 16 -18
41 -54 56 -80 16 -26 38 -74 49 -107 11 -32 25 -92 30 -132 l10 -72 -9 -68
c-5 -37 -14 -85 -20 -107 -6 -22 -25 -69 -42 -105 -17 -36 -46 -85 -66 -110
-20 -24 -49 -58 -66 -73 -16 -16 -55 -46 -85 -66 -30 -21 -80 -47 -110 -58
-30 -12 -80 -26 -110 -33 l-56 -12 -89 5 c-50 3 -109 9 -133 15 -24 5 -78 26
-120 47 l-77 38 -75 76 -75 77 -32 64 c-17 36 -34 74 -38 85 -4 11 -13 44 -21
73 l-14 53 0 96 0 96 11 41 c6 22 16 52 21 66 6 14 16 36 21 50 6 14 31 55 55
93 25 37 61 82 82 100 20 17 47 40 59 50 12 10 48 31 79 46 31 16 73 34 92 40
19 6 49 15 65 20 l30 9 97 1z"/>
<path d="M10080 8719 c-8 -1 -55 -7 -105 -14 -49 -7 -106 -16 -125 -20 -19 -4
-62 -16 -95 -27 -33 -11 -89 -34 -125 -51 -36 -17 -99 -53 -140 -80 l-75 -50
-86 -86 -86 -86 -50 -75 c-27 -41 -63 -104 -80 -140 -17 -36 -39 -87 -48 -115
-10 -27 -21 -66 -26 -85 -5 -19 -16 -73 -24 -120 -8 -47 -15 -116 -15 -154 0
-38 5 -98 11 -135 6 -36 20 -104 32 -151 11 -47 23 -92 27 -100 4 -8 23 -46
41 -85 18 -38 55 -104 82 -145 l50 -75 81 -80 c45 -45 108 -99 141 -121 33
-23 85 -54 115 -70 30 -17 80 -40 110 -52 30 -12 91 -31 135 -43 l80 -22 175
-1 175 0 80 22 c44 13 105 32 135 44 30 12 90 39 132 61 l76 40 84 67 c46 37
109 96 140 131 30 35 73 91 95 124 21 33 53 89 70 125 17 36 39 88 48 115 10
28 21 66 26 85 5 19 16 73 24 120 8 47 15 110 15 141 0 31 -7 98 -15 150 -8
52 -19 110 -24 129 -5 19 -16 58 -25 85 -10 28 -30 78 -47 113 -16 34 -55 102
-88 150 l-58 87 -70 70 c-38 39 -97 90 -130 114 -33 24 -87 58 -119 75 -32 18
-84 42 -114 54 -30 12 -82 29 -115 37 -33 9 -109 23 -170 31 -60 7 -117 13
-125 13z m4 -300 l109 1 41 -11 c22 -6 59 -15 81 -21 22 -6 49 -14 60 -18 11
-4 46 -20 78 -35 32 -15 79 -43 105 -62 26 -20 69 -56 95 -82 27 -25 70 -77
96 -116 26 -38 54 -86 63 -105 9 -19 24 -57 32 -85 9 -27 21 -66 28 -85 l11
-35 0 -135 0 -135 -16 -55 c-9 -30 -20 -70 -26 -88 -6 -19 -26 -66 -46 -105
-19 -40 -50 -90 -67 -112 -18 -22 -54 -61 -79 -86 -26 -26 -80 -69 -120 -96
-41 -27 -91 -57 -113 -67 -21 -10 -53 -22 -70 -28 -17 -5 -55 -16 -84 -24
l-53 -14 -122 0 -122 1 -55 14 c-30 7 -69 18 -86 23 -17 6 -49 18 -70 28 -22
10 -70 39 -109 65 -38 26 -90 66 -115 90 -25 24 -60 63 -79 87 -18 23 -50 75
-70 115 -21 39 -48 106 -61 147 l-25 75 1 155 1 155 32 93 32 94 42 69 c23 38
66 96 95 129 l54 60 71 49 c40 26 90 57 112 68 22 12 63 28 90 38 28 10 73 23
100 30 l50 13 109 1z"/>
<path d="M13594 8119 l-139 -1 -35 -10 c-19 -6 -62 -19 -95 -30 -33 -11 -80
-29 -105 -41 -25 -12 -70 -38 -100 -58 -30 -20 -82 -63 -116 -95 l-60 -59 -50
-75 c-28 -41 -58 -91 -66 -110 -9 -19 -22 -49 -29 -65 -6 -17 -16 -46 -21 -65
-5 -19 -16 -69 -23 -110 -8 -41 -15 -104 -15 -140 0 -36 7 -99 15 -140 7 -41
18 -91 23 -110 5 -19 18 -55 28 -80 10 -25 36 -76 58 -113 l41 -69 70 -72 c39
-40 89 -87 111 -104 23 -18 66 -44 95 -60 30 -15 79 -37 109 -49 30 -12 75
-26 100 -32 25 -5 82 -15 128 -21 l83 -11 77 11 c42 6 100 16 127 22 28 7 54
15 60 20 5 4 15 8 22 8 7 0 35 10 61 22 26 12 79 43 117 69 l70 47 61 64 c33
34 74 81 91 103 16 22 44 65 60 96 17 31 40 82 51 115 11 32 26 82 33 109 l14
50 -1 145 0 145 -16 55 c-9 30 -21 69 -28 85 -6 17 -23 55 -38 85 -14 30 -43
80 -63 111 -21 31 -66 84 -100 118 -34 34 -87 79 -118 100 -31 20 -85 51 -121
67 -36 17 -83 36 -105 42 -22 6 -59 15 -81 21 l-41 11 -139 -1z m2 -280 c39 1
84 -3 100 -8 16 -5 49 -15 74 -22 25 -7 59 -21 77 -30 17 -10 49 -29 70 -42
21 -13 52 -37 69 -53 17 -16 47 -51 67 -78 21 -26 46 -67 57 -90 10 -23 26
-62 34 -87 l16 -44 0 -111 0 -111 -21 -64 c-12 -35 -35 -90 -53 -123 l-31 -58
-70 -67 -70 -66 -56 -28 c-32 -15 -81 -35 -110 -44 l-54 -17 -100 0 -100 -1
-45 14 c-25 7 -79 29 -120 49 l-75 37 -60 60 -61 60 -25 45 c-14 25 -33 65
-43 90 -10 25 -25 77 -32 115 -8 39 -14 86 -14 105 0 19 6 64 14 100 7 36 22
85 32 110 10 25 29 65 43 90 l25 45 62 60 62 60 64 32 c34 17 79 36 98 42 19
6 51 15 70 20 19 5 67 10 106 10z"/>
<path d="M4095 6938 c-16 0 -64 -6 -105 -13 -41 -7 -91 -18 -110 -23 -19 -5
-48 -15 -65 -21 -16 -7 -46 -20 -65 -29 -19 -8 -62 -34 -95 -56 -33 -22 -85
-65 -116 -95 -30 -31 -73 -83 -95 -116 -22 -33 -49 -80 -61 -105 -12 -25 -29
-67 -39 -95 -9 -27 -23 -81 -30 -120 l-14 -70 0 -69 c0 -39 5 -97 11 -130 7
-34 21 -88 31 -121 11 -33 29 -80 41 -105 12 -25 38 -70 58 -100 20 -30 63
-80 95 -111 33 -30 79 -69 104 -85 25 -17 63 -40 85 -51 22 -11 51 -25 65 -31
14 -6 34 -13 45 -17 11 -4 45 -14 75 -22 l55 -15 125 0 125 0 55 15 c30 8 77
23 104 32 27 9 80 35 119 58 l71 42 72 68 71 67 46 68 c24 37 54 87 65 112 12
25 31 77 44 115 l23 70 0 150 0 150 -14 45 c-7 25 -23 70 -34 100 -11 30 -32
75 -46 100 -13 25 -42 69 -63 98 -22 30 -54 67 -71 84 -18 16 -58 49 -90 73
-31 24 -81 55 -110 69 -28 13 -74 32 -102 42 -27 9 -90 23 -140 30 -49 7 -103
13 -120 12z m45 -295 c30 -2 73 -9 95 -15 22 -6 68 -24 102 -40 l62 -31 64
-66 63 -66 26 -55 c14 -30 32 -71 39 -90 l14 -35 0 -105 -1 -105 -23 -65 -24
-65 -37 -55 c-21 -30 -53 -70 -71 -88 -19 -18 -55 -47 -81 -63 -26 -17 -80
-42 -119 -55 l-71 -24 -82 0 -83 0 -64 21 c-35 11 -84 32 -109 47 -25 14 -67
46 -94 71 -26 25 -61 64 -75 86 -15 22 -37 65 -49 95 -11 30 -26 87 -33 127
l-12 71 12 64 c7 35 17 77 22 93 6 17 21 50 33 74 11 25 43 69 70 99 27 29 75
71 105 92 31 21 79 45 106 55 28 10 75 21 105 25 30 4 80 6 110 3z"/>
</g>
</svg>
