<?xml version="1.0" standalone="no"?>
<!DOCTYPE svg PUBLIC "-//W3C//DTD SVG 20010904//EN"
 "http://www.w3.org/TR/2001/REC-SVG-20010904/DTD/svg10.dtd">
<svg version="1.0" xmlns="http://www.w3.org/2000/svg"
 width="1286.020244pt" height="1778.500000pt" viewBox="0 0 1286.020244 1778.500000"
 preserveAspectRatio="xMidYMid meet">
<metadata>
Created by potrace 1.16, written by Peter Selinger 2001-2019
</metadata>
<g transform="translate(-254.000000,2170.000000) scale(0.100000,-0.100000)"
fill="#000000" stroke="none">
<path d="M8977 21699 c-23 -1 -61 -7 -85 -15 -24 -7 -58 -22 -76 -33 l-32 -20
-33 -46 c-18 -25 -62 -102 -98 -172 -36 -71 -78 -150 -93 -178 -15 -27 -46
-85 -69 -127 -22 -43 -60 -113 -83 -155 -22 -43 -58 -111 -79 -151 -20 -40
-43 -79 -49 -87 l-12 -15 -38 0 c-21 0 -60 -4 -87 -10 -26 -5 -82 -14 -123
-20 -41 -6 -102 -15 -135 -20 -33 -5 -96 -14 -140 -20 -44 -6 -105 -15 -135
-20 -30 -5 -89 -14 -130 -20 -41 -6 -98 -18 -127 -27 l-52 -15 -39 -28 c-22
-15 -48 -41 -59 -57 -11 -15 -25 -41 -31 -58 -6 -16 -16 -50 -22 -74 l-11 -43
11 -52 c6 -28 21 -71 33 -96 l22 -45 79 -82 c43 -46 159 -165 258 -265 99
-101 213 -217 255 -259 l75 -76 -11 -64 c-6 -35 -15 -86 -21 -114 -5 -27 -14
-77 -20 -110 -7 -33 -16 -80 -20 -105 -5 -25 -14 -71 -20 -102 -5 -32 -15 -84
-21 -115 -6 -32 -14 -76 -18 -98 -5 -22 -16 -84 -26 -139 l-17 -99 12 -46 c7
-25 19 -60 26 -78 8 -18 26 -46 40 -62 14 -16 42 -40 62 -53 20 -13 53 -29 72
-35 l35 -13 55 0 55 0 35 13 c19 7 41 16 48 21 7 4 15 6 18 4 2 -3 -31 -74
-75 -159 -43 -85 -95 -185 -116 -224 -20 -38 -51 -95 -68 -125 -16 -30 -40
-73 -52 -95 -12 -22 -31 -56 -42 -75 -11 -19 -34 -57 -50 -85 -17 -27 -52 -86
-80 -130 -27 -44 -65 -104 -84 -134 -19 -29 -79 -121 -135 -205 -55 -83 -150
-223 -210 -311 -61 -88 -142 -205 -180 -260 -39 -55 -104 -147 -144 -205 -41
-58 -102 -145 -137 -195 -34 -49 -90 -128 -123 -175 -34 -47 -88 -123 -120
-170 -33 -47 -87 -123 -120 -170 -33 -47 -87 -123 -120 -170 -33 -47 -87 -123
-120 -170 -34 -47 -88 -123 -120 -170 -33 -47 -87 -123 -120 -170 -34 -47 -84
-119 -112 -160 -28 -41 -54 -77 -58 -80 -4 -3 -26 -34 -50 -70 -24 -36 -56
-81 -70 -100 -15 -19 -81 -111 -147 -205 -66 -93 -128 -182 -137 -196 -8 -14
-23 -47 -31 -75 -8 -27 -15 -65 -15 -84 l0 -35 19 -51 c10 -28 36 -77 59 -110
22 -32 59 -79 82 -104 22 -25 48 -55 57 -68 9 -12 55 -55 102 -95 48 -40 98
-80 111 -89 14 -10 52 -35 85 -56 33 -21 93 -54 133 -72 39 -19 72 -38 72 -43
0 -4 -60 -97 -132 -205 -73 -108 -137 -202 -143 -208 -5 -6 -67 -96 -137 -200
-71 -104 -160 -234 -198 -289 -39 -55 -110 -158 -159 -230 -50 -71 -126 -182
-171 -245 -45 -63 -112 -160 -150 -215 -38 -55 -101 -145 -140 -200 -39 -55
-98 -138 -130 -185 -33 -47 -87 -123 -120 -170 -33 -47 -87 -123 -120 -170
-32 -47 -86 -123 -120 -170 -33 -47 -87 -123 -120 -170 -33 -47 -76 -107 -95
-135 -20 -27 -42 -63 -50 -80 -7 -16 -19 -54 -26 -82 l-13 -53 13 -52 c8 -28
23 -69 34 -90 l21 -39 111 -107 c60 -59 153 -140 205 -179 52 -39 115 -83 140
-97 25 -14 87 -46 138 -72 l94 -45 -14 -19 c-7 -10 -114 -152 -238 -317 -123
-164 -227 -300 -230 -303 -3 -3 -32 -41 -66 -85 -33 -44 -90 -118 -125 -165
-35 -47 -66 -87 -69 -90 -3 -3 -58 -75 -122 -160 -64 -85 -155 -207 -204 -270
-48 -63 -108 -142 -134 -175 -25 -33 -69 -89 -96 -125 -28 -36 -80 -104 -117
-152 -37 -49 -97 -127 -134 -175 -37 -49 -88 -115 -113 -148 -26 -33 -84 -109
-130 -170 -46 -60 -124 -162 -173 -225 -50 -63 -104 -133 -121 -155 -17 -22
-34 -42 -37 -45 -3 -3 -23 -32 -45 -65 -22 -33 -45 -76 -52 -96 l-12 -35 0
-67 0 -66 25 -55 25 -54 45 -40 45 -40 83 -32 c45 -18 91 -36 102 -41 11 -4
68 -24 126 -43 59 -19 142 -45 185 -56 44 -12 124 -33 179 -46 55 -14 136 -33
180 -44 44 -10 106 -23 138 -29 31 -6 81 -15 110 -21 28 -5 81 -14 117 -20 36
-6 88 -15 115 -20 28 -5 82 -13 120 -19 39 -6 102 -15 140 -20 39 -6 104 -15
145 -20 41 -6 113 -15 160 -20 47 -6 130 -15 185 -20 55 -6 125 -13 155 -16
30 -3 98 -10 150 -16 52 -5 145 -14 205 -19 61 -6 164 -15 230 -20 66 -6 185
-15 265 -20 80 -6 210 -15 290 -20 80 -6 213 -15 295 -20 83 -6 236 -14 340
-20 105 -6 282 -14 395 -20 113 -5 275 -13 361 -16 l156 -7 7 -135 c3 -74 6
-284 7 -466 0 -182 4 -423 8 -536 l8 -205 26 -57 25 -56 41 -40 c23 -22 63
-51 89 -63 l47 -24 1110 0 1110 0 50 25 50 25 41 41 c23 23 49 56 57 75 8 19
20 50 25 69 l10 35 6 620 c3 341 9 636 12 656 l6 36 192 6 c105 4 277 11 381
17 105 5 267 14 360 20 94 5 238 14 320 20 83 5 215 14 295 20 80 5 204 15
275 20 72 5 180 14 240 19 61 5 142 12 180 16 39 3 113 10 165 15 52 5 142 14
200 20 58 6 146 15 195 21 50 5 128 14 175 20 47 5 119 14 160 20 41 5 105 14
143 19 37 6 100 15 140 20 39 6 101 15 137 21 36 5 92 14 125 20 33 5 85 14
115 19 30 6 91 17 135 26 44 9 91 18 105 21 14 2 45 9 70 14 25 6 61 14 80 19
19 5 76 19 125 31 50 11 104 25 120 30 17 5 91 29 165 53 74 24 159 54 189 66
30 11 73 30 95 40 23 10 55 32 72 48 18 16 43 46 56 68 13 21 29 58 36 80 7
23 12 57 12 75 l0 34 -22 62 -21 62 -134 178 c-73 98 -139 185 -146 193 -7 8
-23 31 -37 50 -14 19 -30 42 -37 50 -7 8 -57 74 -113 145 -55 72 -124 161
-153 198 -28 38 -59 77 -67 87 -8 10 -40 51 -70 90 -30 40 -73 96 -96 124 -22
28 -83 107 -135 176 -52 68 -99 131 -106 140 -6 8 -40 51 -75 95 -35 44 -107
136 -158 205 -52 69 -97 127 -100 130 -3 3 -19 23 -36 45 -17 22 -53 69 -80
105 -28 36 -115 151 -194 255 -79 105 -157 208 -174 230 -17 22 -34 42 -37 45
-3 3 -56 72 -117 155 -62 82 -112 153 -112 156 0 4 15 12 33 19 17 7 48 19 67
27 19 8 74 34 122 59 49 24 123 67 165 95 43 29 112 80 153 114 41 35 111 100
155 146 l81 84 23 50 24 50 0 75 0 76 -23 44 c-13 25 -48 79 -79 120 -32 41
-75 100 -97 130 -23 30 -62 84 -87 120 -26 36 -68 95 -94 131 -27 36 -68 94
-93 129 -25 34 -59 81 -76 104 -16 23 -53 75 -82 116 -28 41 -69 98 -89 127
-21 28 -89 125 -152 215 -63 90 -142 201 -175 248 -33 47 -85 121 -116 165
-31 44 -90 130 -130 190 -40 61 -76 112 -80 115 -3 3 -69 97 -145 210 -76 113
-217 321 -312 462 -95 141 -173 259 -173 262 0 4 -21 37 -46 75 l-46 70 7 10
c3 6 12 11 19 11 7 0 46 17 87 38 41 21 92 49 113 61 22 13 67 41 100 63 34
23 84 60 111 82 28 22 85 74 128 116 43 41 88 91 100 110 12 19 28 51 34 70
l13 35 0 67 0 67 -11 28 c-6 15 -17 39 -23 53 -6 13 -36 59 -66 101 -30 42
-89 123 -130 179 -41 56 -101 139 -134 184 -32 44 -82 114 -110 155 -28 40
-76 108 -106 151 -30 43 -74 104 -97 136 -24 33 -60 82 -80 111 -21 28 -121
168 -223 310 -101 142 -196 274 -211 293 -14 19 -83 116 -153 215 -70 99 -150
213 -179 254 -29 41 -70 99 -93 130 -22 31 -73 102 -112 159 -40 56 -104 148
-144 205 -39 56 -92 131 -118 167 -25 36 -93 137 -151 225 -59 88 -123 187
-144 220 -21 33 -61 96 -88 140 -27 44 -57 94 -67 110 -9 17 -27 48 -40 70
-13 22 -34 60 -48 85 -14 25 -36 65 -50 90 -14 25 -74 141 -134 259 -60 118
-107 215 -106 217 2 1 28 -6 58 -16 30 -11 69 -19 85 -20 17 0 51 7 76 14 26
8 62 22 80 32 19 9 47 31 63 48 16 17 40 55 53 84 l23 53 0 65 c0 36 -4 84 -9
107 -6 23 -19 94 -31 157 -12 63 -25 133 -30 155 -5 22 -14 69 -20 105 -6 36
-15 85 -20 110 -5 25 -18 95 -30 156 -12 60 -20 122 -18 136 l3 27 330 333
330 333 28 57 27 57 0 75 0 76 -22 48 c-11 26 -37 64 -57 85 l-36 38 -50 23
-50 22 -85 13 c-47 6 -119 16 -160 22 -41 6 -102 14 -135 19 -33 5 -96 14
-140 20 -44 6 -111 15 -150 21 -38 6 -92 15 -118 20 -26 5 -65 9 -86 9 l-39 0
-10 13 c-5 6 -43 77 -84 157 -42 80 -105 201 -140 270 -36 69 -101 194 -144
279 l-79 154 -40 39 c-21 21 -53 45 -70 52 -16 7 -43 18 -58 25 l-28 11 -42
-1z m-1 -669 l10 0 78 -152 c43 -84 102 -198 130 -254 28 -55 66 -133 85 -172
l34 -73 36 -37 36 -37 40 -12 c22 -7 69 -17 105 -22 36 -6 97 -15 135 -20 39
-6 102 -15 140 -21 39 -6 102 -15 140 -21 39 -6 94 -14 124 -20 30 -5 67 -9
83 -9 15 0 28 -3 28 -8 0 -4 -117 -124 -261 -267 l-261 -260 -29 -44 -29 -45
0 -59 c0 -32 4 -77 9 -100 5 -23 14 -70 20 -104 6 -35 16 -91 22 -125 6 -35
14 -83 19 -108 5 -25 14 -79 20 -120 6 -41 16 -94 22 -118 6 -23 8 -45 6 -48
-3 -3 -54 21 -114 52 -60 31 -145 75 -189 99 -44 23 -147 78 -230 121 l-150
78 -65 1 -65 0 -80 -44 c-44 -24 -96 -53 -115 -64 -19 -11 -80 -44 -135 -72
-55 -29 -138 -72 -185 -97 -47 -25 -99 -54 -117 -64 -17 -10 -34 -16 -37 -13
-3 3 -1 32 5 65 5 32 14 86 20 119 5 33 14 85 19 115 6 30 15 84 21 120 6 36
15 90 20 120 5 30 12 97 15 147 l6 93 -16 34 -16 34 -157 159 c-87 88 -204
208 -261 267 -56 59 -104 113 -105 119 l-2 12 50 6 c28 4 79 12 115 18 36 6
97 15 135 21 39 6 99 15 135 20 36 5 94 14 130 19 36 5 88 14 115 19 28 4 67
17 88 27 l38 18 24 31 c13 17 88 157 166 311 78 154 152 299 163 322 12 24 26
43 32 43z m-4 -2560 c3 0 99 -186 213 -412 113 -227 225 -449 249 -493 24 -44
60 -111 81 -150 20 -38 55 -101 78 -140 22 -38 74 -126 115 -195 41 -69 97
-157 123 -197 27 -40 49 -75 49 -78 0 -3 37 -61 82 -128 45 -67 94 -138 108
-157 15 -19 30 -43 33 -52 4 -10 5 -18 2 -18 -2 0 -10 6 -17 13 -7 7 -33 27
-58 43 -25 17 -62 38 -84 48 -21 10 -53 22 -70 28 -17 5 -55 16 -84 24 l-53
14 -119 0 -119 0 -53 -14 c-29 -8 -67 -19 -84 -24 -17 -6 -49 -18 -70 -28 -22
-10 -66 -35 -99 -57 -33 -22 -86 -65 -118 -96 -33 -31 -76 -81 -96 -111 -20
-30 -49 -80 -63 -110 -15 -30 -33 -75 -41 -100 -8 -25 -20 -72 -27 -106 l-12
-61 3 -96 c2 -54 1 -97 -2 -97 -3 0 -45 16 -95 36 -49 20 -105 43 -124 51 -19
8 -44 19 -55 23 -11 4 -96 45 -190 91 -93 45 -199 99 -234 121 -34 21 -65 38
-68 38 -2 0 -70 45 -151 100 -81 55 -155 106 -165 114 l-18 14 199 299 c109
164 218 330 242 368 23 39 61 102 85 140 23 39 60 102 82 140 22 39 53 93 68
120 15 28 47 86 71 130 24 44 113 220 197 390 85 171 183 370 218 443 35 72
67 132 71 132z m649 -2251 l66 1 34 -11 c19 -6 53 -20 77 -32 l43 -21 57 -61
57 -61 23 -64 22 -65 0 -61 0 -61 -11 -34 c-6 -19 -20 -54 -32 -79 l-22 -45
-50 -50 -50 -51 -40 -19 c-22 -10 -68 -24 -103 -32 l-62 -13 -53 11 c-28 6
-65 15 -82 21 -16 6 -46 17 -65 26 l-35 15 -45 46 -45 46 -21 45 c-12 25 -27
64 -33 86 -6 23 -11 61 -11 86 l0 45 21 63 21 64 29 42 c16 23 45 56 65 72 20
17 55 39 77 50 23 11 56 25 72 30 17 6 60 11 96 11z m745 -129 c5 0 33 -37 63
-83 29 -45 131 -190 225 -322 94 -132 179 -249 188 -259 l18 -20 -7 -7 -8 -8
-135 -2 c-74 -1 -201 2 -282 6 l-148 8 0 8 c0 4 13 32 29 61 16 29 37 80 48
113 11 33 25 81 31 108 l12 47 0 100 0 99 -15 53 c-8 29 -17 63 -21 76 l-6 22
8 0z m-2856 -110 c3 0 16 -10 30 -21 14 -11 70 -50 125 -88 55 -37 143 -92
195 -123 52 -31 129 -74 170 -97 41 -23 129 -67 195 -100 66 -32 143 -69 170
-81 28 -12 65 -28 83 -36 17 -8 47 -20 65 -28 17 -8 52 -22 77 -31 25 -9 54
-20 65 -25 11 -4 36 -13 55 -20 19 -7 44 -16 55 -20 11 -5 63 -23 115 -40 52
-16 109 -34 125 -39 17 -4 50 -14 75 -21 25 -7 61 -20 80 -30 19 -9 51 -26 71
-38 21 -11 59 -28 85 -37 27 -9 74 -24 104 -32 l55 -15 160 -3 160 -3 75 -11
c41 -7 111 -16 155 -22 44 -5 132 -14 195 -19 63 -5 198 -13 300 -16 l185 -6
180 16 c99 8 189 18 200 21 l20 6 115 -161 c63 -89 132 -185 153 -213 20 -29
59 -83 87 -122 27 -38 110 -155 185 -260 74 -104 156 -218 181 -253 25 -35 45
-64 43 -66 -2 -2 -31 -21 -64 -43 -33 -21 -80 -49 -105 -60 -25 -11 -72 -29
-105 -40 -33 -11 -78 -25 -100 -31 -22 -6 -62 -16 -90 -21 -27 -6 -82 -15
-122 -21 l-72 -10 -186 0 -186 0 -72 10 c-40 6 -101 15 -137 21 -36 5 -84 14
-107 20 -24 5 -64 14 -90 20 -27 6 -88 25 -138 41 -49 16 -99 33 -110 38 -11
5 -49 18 -84 30 l-64 20 -37 0 c-20 0 -52 -5 -71 -11 -19 -6 -49 -18 -68 -26
l-35 -16 -87 -83 -88 -83 -88 -59 c-48 -32 -126 -77 -173 -99 -47 -22 -112
-50 -145 -61 -33 -10 -78 -24 -100 -30 -22 -6 -60 -15 -85 -21 -25 -5 -96 -15
-157 -22 l-113 -12 -112 12 c-62 7 -138 20 -168 28 -30 8 -65 17 -78 20 -12 3
-25 9 -28 14 -3 5 -11 9 -19 9 -8 0 -42 16 -77 37 l-63 36 -80 77 c-44 42 -93
84 -110 93 -16 8 -45 20 -64 26 -19 6 -53 11 -76 11 l-42 0 -94 -30 c-52 -17
-111 -35 -131 -40 -21 -6 -55 -14 -75 -19 -21 -5 -65 -15 -98 -21 -33 -6 -78
-15 -100 -20 -22 -5 -78 -14 -125 -22 l-85 -13 -245 0 -245 0 -65 13 c-36 7
-90 18 -120 24 -30 6 -89 22 -130 35 -41 13 -100 36 -130 51 -30 14 -82 44
-115 66 -33 22 -70 50 -82 63 -13 12 -23 29 -23 37 0 8 4 16 8 18 5 2 64 84
130 183 67 99 142 209 167 245 25 36 51 72 58 80 7 9 28 38 47 65 18 28 106
151 194 275 87 124 185 261 216 305 31 44 79 114 107 155 28 41 99 143 157
225 59 83 125 175 147 205 21 30 75 107 120 170 44 63 88 127 97 143 9 15 19
27 22 27z m2599 -2743 c14 -3 60 -15 101 -27 41 -12 93 -26 115 -31 22 -5 65
-14 95 -20 30 -5 82 -15 115 -20 33 -6 92 -15 130 -20 l70 -10 261 -5 261 -6
34 -56 c18 -32 163 -250 321 -487 158 -236 347 -518 421 -625 73 -107 166
-242 207 -300 40 -58 112 -161 160 -230 47 -69 108 -156 135 -195 27 -38 67
-92 87 -120 21 -27 38 -53 38 -57 0 -5 -15 -8 -32 -8 -18 0 -78 -4 -133 -10
-55 -5 -206 -14 -335 -19 l-235 -10 -320 15 c-176 8 -367 18 -425 24 -58 5
-145 14 -195 19 -49 6 -126 15 -170 21 -44 6 -109 15 -145 19 -36 5 -81 12
-100 16 -19 3 -60 10 -90 16 -30 6 -73 14 -95 19 -22 5 -67 14 -100 20 -33 6
-78 15 -100 20 -22 5 -62 14 -90 20 -27 6 -66 15 -85 20 -19 5 -64 17 -100 25
-36 9 -81 21 -100 25 -19 5 -53 14 -75 20 -22 6 -55 15 -72 21 -18 5 -49 14
-68 19 -19 6 -51 15 -70 20 -19 6 -50 14 -67 19 -18 5 -82 25 -143 45 -60 20
-119 41 -130 46 -11 5 -40 16 -65 24 -25 8 -65 22 -90 31 -25 9 -55 21 -67 26
-13 5 -34 14 -48 19 -14 6 -35 14 -47 19 -13 5 -44 18 -70 30 -26 12 -50 21
-53 21 -3 0 -27 9 -53 21 -26 12 -56 25 -67 29 -11 5 -65 30 -120 55 -55 25
-147 70 -205 99 -58 29 -148 75 -200 103 -52 27 -116 62 -142 76 -27 15 -69
39 -95 54 -27 14 -64 35 -84 46 l-36 19 -17 30 c-10 16 -39 55 -65 86 -26 31
-72 76 -102 99 -30 23 -79 54 -109 70 -30 16 -75 37 -100 47 -25 10 -69 24
-98 32 -29 8 -64 14 -78 14 l-26 0 -31 22 c-18 12 -38 28 -45 35 -8 7 -30 26
-50 41 -21 15 -39 29 -42 32 -3 3 -21 17 -42 32 -20 15 -42 33 -50 40 -7 7
-38 33 -68 58 -30 25 -71 59 -90 77 -19 17 -47 41 -62 53 l-27 21 22 34 22 35
280 0 280 0 80 10 c44 6 112 15 150 21 39 5 90 14 115 18 25 5 72 14 105 21
33 6 83 18 111 26 l52 15 63 -44 c35 -25 82 -55 104 -68 22 -12 51 -28 65 -35
14 -6 47 -22 74 -34 27 -12 76 -31 110 -42 33 -11 84 -25 111 -33 28 -7 79
-18 115 -24 36 -6 95 -15 131 -21 36 -5 106 -10 155 -10 49 0 127 5 174 10 47
6 114 15 150 21 36 5 85 15 110 20 25 6 65 15 90 21 25 6 86 24 135 40 50 17
133 49 185 71 52 22 117 53 143 69 26 15 50 28 53 28 3 0 59 36 125 81 65 44
122 85 125 91 l6 10 27 -5z m-3691 -667 l17 -1 98 -94 c53 -52 97 -97 97 -100
0 -2 -13 -11 -29 -19 -15 -8 -53 -39 -83 -68 -30 -29 -73 -80 -95 -113 -22
-33 -49 -78 -60 -100 -12 -22 -28 -62 -38 -90 -9 -27 -23 -79 -31 -115 l-14
-65 0 -91 0 -91 9 -29 c5 -16 14 -54 21 -84 7 -30 16 -62 20 -70 4 -8 18 -37
31 -65 13 -27 42 -77 65 -110 23 -33 62 -79 86 -101 23 -23 71 -60 104 -83 34
-23 90 -54 125 -70 35 -16 87 -33 114 -39 28 -6 71 -16 97 -22 26 -5 66 -10
90 -10 24 0 77 7 118 15 41 7 91 18 110 23 19 5 48 15 65 21 16 7 46 20 65 29
19 8 61 33 93 55 32 21 82 63 112 92 30 30 77 88 105 129 27 41 50 78 50 81 0
3 8 24 19 48 10 23 23 55 30 70 6 15 11 37 11 48 0 11 5 29 10 39 l10 19 158
-78 c86 -43 187 -92 225 -110 37 -17 95 -44 130 -60 34 -16 88 -41 120 -55 32
-14 60 -26 62 -26 3 0 27 -9 53 -21 26 -12 57 -25 70 -30 12 -5 32 -13 45 -18
12 -4 33 -13 47 -18 14 -6 36 -15 50 -21 14 -5 50 -19 80 -30 30 -11 75 -28
99 -37 25 -9 117 -40 205 -69 89 -29 186 -61 216 -71 30 -9 70 -21 88 -26 17
-5 47 -13 65 -18 17 -5 68 -19 112 -31 44 -12 98 -26 120 -31 22 -6 56 -14 75
-19 19 -5 53 -13 75 -19 22 -5 65 -14 95 -21 30 -7 73 -16 95 -20 22 -4 76
-15 120 -24 44 -9 103 -20 130 -26 28 -5 77 -14 110 -19 33 -5 87 -14 120 -20
33 -5 94 -14 135 -20 41 -5 113 -15 160 -20 47 -6 108 -13 135 -16 28 -4 104
-11 170 -16 66 -6 255 -15 420 -22 l300 -12 245 7 c135 4 310 12 390 18 80 6
174 15 210 20 36 5 87 11 115 12 l50 2 43 -59 c23 -33 62 -86 85 -119 23 -32
63 -88 90 -125 26 -36 63 -89 83 -118 l36 -52 -6 -10 c-3 -5 -39 -29 -79 -53
-40 -24 -95 -54 -122 -67 -28 -13 -61 -28 -75 -34 -14 -5 -34 -13 -45 -17 -11
-4 -38 -13 -60 -18 -22 -6 -62 -16 -90 -21 -27 -6 -80 -15 -116 -21 -37 -5
-97 -10 -135 -10 -38 0 -105 5 -149 10 -44 6 -102 15 -130 21 -27 5 -68 15
-90 21 -22 6 -58 17 -80 24 -22 6 -65 22 -95 34 -30 12 -71 28 -90 37 -19 8
-43 19 -54 25 l-19 10 -76 0 -76 0 -47 -22 c-26 -12 -63 -36 -81 -54 -18 -17
-50 -52 -71 -79 -21 -26 -66 -68 -99 -93 -33 -24 -83 -55 -111 -68 -28 -13
-67 -28 -86 -34 -19 -6 -54 -15 -76 -21 l-41 -11 -103 0 -103 0 -41 11 c-22 6
-59 16 -81 22 -22 6 -77 27 -122 48 l-81 37 -89 61 c-48 34 -110 77 -138 97
-27 19 -65 42 -84 50 l-33 14 -79 0 -78 0 -6 -10 c-3 -5 -13 -10 -21 -10 -8 0
-31 -11 -50 -24 -20 -13 -70 -58 -112 -98 -43 -41 -104 -92 -137 -114 -33 -22
-91 -55 -130 -73 -38 -18 -80 -37 -92 -42 -13 -5 -33 -13 -45 -18 -13 -5 -34
-12 -48 -16 -14 -3 -41 -11 -60 -16 -19 -5 -73 -16 -120 -25 l-85 -15 -166 -1
-167 0 -58 12 c-33 6 -72 15 -89 19 -16 5 -50 14 -75 21 -25 7 -54 16 -65 20
-11 4 -51 22 -90 41 -38 18 -101 54 -140 79 l-70 47 -85 82 c-46 46 -98 90
-115 99 -16 9 -46 22 -65 29 l-35 13 -52 0 -52 0 -53 -20 -53 -20 -105 -78
c-58 -42 -119 -85 -135 -94 -17 -10 -55 -30 -85 -44 -30 -14 -64 -30 -75 -34
-11 -5 -29 -11 -40 -15 -11 -4 -45 -14 -75 -22 l-55 -15 -116 0 -116 -1 -39
12 c-21 7 -64 22 -94 34 -30 11 -80 37 -111 58 l-55 37 -90 98 -89 97 -55 25
-55 25 -71 0 -72 0 -33 -12 c-19 -7 -43 -17 -54 -21 -11 -4 -40 -17 -65 -28
-25 -11 -79 -31 -120 -45 -41 -14 -104 -32 -140 -40 -36 -8 -101 -20 -145 -26
-44 -6 -107 -11 -140 -11 -33 0 -103 7 -155 15 -52 7 -122 21 -155 30 -33 8
-73 21 -90 27 -16 6 -64 27 -105 45 -41 19 -108 55 -147 81 l-73 47 0 12 c0 6
10 24 23 40 13 15 49 65 80 111 31 45 83 118 115 163 31 44 83 118 115 162 31
45 85 123 119 172 34 50 64 92 68 95 4 3 34 46 68 95 34 50 90 131 125 180 35
50 96 137 137 195 41 58 113 162 162 233 48 70 129 187 180 260 50 72 134 195
187 272 52 77 97 142 101 145 3 3 43 60 88 127 45 67 82 126 82 132 l0 11 18
0z m636 -471 l90 1 35 -12 c20 -7 62 -30 94 -51 l58 -38 30 -42 c17 -23 36
-55 44 -72 7 -16 18 -45 24 -64 6 -19 11 -57 11 -85 -1 -28 -6 -71 -13 -96 -7
-25 -23 -65 -35 -90 -13 -25 -35 -59 -50 -76 -15 -16 -47 -44 -72 -60 -25 -17
-61 -37 -80 -45 l-35 -14 -95 0 -95 0 -35 14 c-19 8 -55 28 -80 45 -25 16 -58
44 -73 60 -15 17 -37 48 -48 70 -12 21 -27 59 -35 85 l-14 46 0 56 c0 31 5 71
11 90 6 19 17 48 24 64 8 17 27 49 44 72 l30 42 58 38 c32 21 72 44 88 50 l30
11 89 1z m-907 -2680 c6 0 49 -27 95 -62 l83 -62 110 -56 c61 -30 142 -65 180
-76 39 -12 88 -26 110 -31 22 -6 67 -15 101 -21 l60 -11 137 0 136 0 53 10
c29 6 78 15 108 21 30 6 66 15 80 19 14 4 45 13 70 21 25 7 49 16 55 21 5 4
16 8 24 8 8 0 71 28 140 61 69 34 128 65 129 70 2 5 10 9 19 9 8 0 29 -10 46
-22 18 -13 40 -30 50 -38 10 -8 39 -27 65 -42 26 -15 83 -45 127 -67 44 -21
96 -46 115 -54 19 -8 62 -24 95 -35 33 -11 79 -24 103 -31 23 -6 59 -15 80
-21 20 -5 66 -14 102 -19 36 -6 97 -15 137 -21 l72 -10 153 0 153 0 80 11 c44
5 105 15 135 20 30 6 93 20 140 31 47 11 103 26 125 33 22 7 72 26 110 41 39
15 115 50 170 77 55 28 132 72 172 99 40 26 79 48 89 48 9 0 28 -8 42 -18 15
-10 61 -35 102 -55 41 -19 100 -45 130 -57 30 -12 73 -28 95 -34 22 -7 58 -18
80 -24 22 -6 63 -16 90 -21 28 -6 77 -15 109 -21 l59 -10 126 0 126 0 80 15
c44 8 107 21 140 30 33 8 89 27 125 41 36 14 81 33 100 42 19 9 71 38 115 65
43 27 100 66 126 88 26 21 54 39 62 39 9 0 18 -4 21 -9 3 -5 18 -11 33 -14 16
-3 46 -11 68 -17 22 -6 60 -16 85 -21 25 -6 68 -14 95 -20 28 -5 110 -17 182
-26 l133 -17 94 -125 c51 -69 133 -178 182 -241 48 -63 110 -144 138 -180 27
-36 63 -83 80 -105 17 -22 36 -45 41 -51 6 -6 48 -62 95 -124 47 -61 128 -167
180 -234 52 -68 106 -138 120 -156 14 -19 34 -45 46 -59 11 -14 58 -75 104
-136 46 -60 120 -157 163 -215 44 -58 91 -116 104 -131 12 -14 23 -28 23 -31
0 -3 -24 -11 -52 -17 -29 -7 -78 -16 -108 -22 -30 -6 -77 -14 -105 -19 -27 -5
-77 -14 -110 -19 -33 -5 -91 -14 -130 -20 -38 -6 -104 -15 -145 -20 -41 -6
-120 -15 -175 -21 -55 -6 -131 -15 -170 -20 -38 -5 -71 -7 -73 -5 -3 2 14 41
35 87 22 46 45 101 51 123 6 22 15 59 21 81 l11 41 0 97 0 96 -12 47 c-6 27
-20 75 -31 108 -10 33 -32 85 -48 115 -16 30 -52 85 -79 122 l-49 67 -64 53
-65 53 -74 38 c-41 21 -90 42 -109 48 -19 6 -59 17 -89 24 l-55 14 -102 1
-103 0 -47 -12 c-27 -6 -75 -20 -108 -31 -33 -11 -78 -29 -100 -40 -22 -11
-65 -37 -96 -58 -31 -21 -78 -59 -103 -85 -26 -26 -69 -79 -95 -118 -26 -39
-55 -88 -65 -110 -10 -21 -22 -53 -28 -70 -5 -17 -16 -56 -25 -86 l-15 -55 0
-125 0 -125 15 -55 c8 -30 20 -68 27 -85 6 -16 19 -46 27 -65 9 -19 31 -56 50
-83 18 -26 33 -49 33 -52 0 -3 -24 -5 -52 -5 -29 0 -132 4 -228 10 -96 6 -238
15 -315 20 -77 6 -183 15 -235 21 -52 5 -131 14 -175 20 -44 5 -114 14 -155
20 -41 5 -106 14 -145 20 -38 6 -95 14 -125 19 -30 5 -84 14 -120 20 -36 6
-90 15 -120 21 -30 5 -75 14 -100 19 -25 4 -72 13 -105 20 -33 6 -78 16 -100
20 -22 5 -62 14 -90 20 -27 6 -131 32 -230 56 -99 25 -196 50 -215 54 -19 5
-51 13 -70 18 -19 6 -62 17 -95 26 -33 9 -71 20 -85 25 -14 5 -72 24 -130 42
-58 17 -145 45 -195 61 -49 16 -99 33 -110 38 -11 4 -36 13 -55 20 -19 7 -44
16 -55 20 -11 4 -47 18 -80 30 -33 12 -70 26 -82 31 -13 5 -33 13 -45 18 -13
5 -50 19 -83 32 -33 12 -88 35 -123 51 -34 15 -65 28 -67 28 -2 0 -28 11 -57
24 -29 13 -75 34 -103 46 -27 12 -79 36 -115 52 -36 17 -146 70 -245 119 -99
49 -222 111 -272 139 -51 27 -152 84 -225 126 -73 42 -146 84 -163 94 -16 10
-61 37 -100 60 -38 24 -162 105 -275 181 -113 77 -226 154 -252 172 -25 18
-61 44 -79 57 -18 14 -44 34 -58 46 -14 11 -47 35 -73 53 -27 17 -48 36 -48
41 l0 10 63 0 c34 0 78 4 97 9 19 5 62 14 95 21 33 7 83 19 110 26 28 7 68 19
90 27 22 8 45 15 52 16z m-861 -339 c3 0 15 -9 27 -21 12 -12 92 -74 177 -138
85 -64 193 -143 240 -176 47 -32 133 -92 192 -132 58 -40 144 -96 190 -125 45
-28 135 -83 198 -121 63 -39 131 -79 150 -90 19 -11 49 -27 65 -37 17 -9 65
-35 107 -58 42 -23 105 -58 140 -77 35 -19 122 -63 193 -98 72 -36 166 -81
210 -102 44 -20 107 -50 140 -65 33 -15 83 -38 110 -50 28 -12 66 -29 85 -37
19 -8 44 -19 55 -23 11 -4 36 -15 55 -23 19 -8 89 -36 155 -62 66 -26 129 -50
140 -55 11 -4 36 -13 55 -20 19 -7 44 -16 55 -20 11 -5 54 -20 95 -35 41 -14
111 -38 155 -52 44 -14 89 -29 100 -33 11 -4 54 -18 95 -30 41 -13 100 -31
130 -40 30 -10 75 -23 100 -30 25 -7 56 -16 70 -20 14 -4 45 -13 70 -20 25 -7
59 -16 75 -21 17 -4 48 -12 70 -17 22 -6 59 -15 83 -21 23 -6 59 -15 80 -21
20 -5 78 -19 127 -30 50 -12 108 -25 130 -30 22 -5 60 -13 85 -18 25 -6 71
-15 103 -21 31 -6 83 -16 115 -22 31 -6 75 -14 97 -19 22 -4 72 -13 110 -19
39 -7 95 -16 125 -21 30 -5 84 -13 120 -19 36 -5 103 -15 150 -21 47 -6 117
-15 155 -20 39 -5 117 -14 175 -19 58 -6 159 -15 225 -20 66 -6 206 -16 310
-22 l190 -11 480 5 480 6 150 10 c83 5 202 15 265 20 63 6 158 15 210 21 52 5
133 14 180 20 47 5 117 14 155 20 39 5 99 14 135 19 36 6 92 15 125 20 33 6
87 15 120 20 33 6 87 15 120 21 33 6 80 15 105 20 25 4 70 13 100 19 30 6 73
15 95 21 l40 10 20 -24 c11 -13 56 -70 100 -127 44 -56 117 -150 163 -208 45
-58 102 -132 127 -163 25 -32 45 -60 45 -62 0 -3 -19 -10 -42 -16 -24 -7 -59
-15 -78 -20 -19 -5 -55 -13 -80 -19 -25 -5 -65 -14 -90 -20 -25 -6 -81 -18
-125 -27 -44 -8 -105 -20 -135 -25 -30 -6 -82 -14 -115 -20 -33 -5 -87 -14
-120 -19 -33 -5 -89 -14 -125 -20 -36 -6 -101 -15 -145 -21 -44 -6 -114 -14
-155 -19 -41 -5 -120 -14 -175 -20 -55 -6 -140 -15 -190 -21 -49 -5 -133 -14
-185 -20 -52 -5 -140 -14 -195 -19 -55 -6 -154 -15 -220 -20 -66 -5 -176 -14
-245 -20 -69 -6 -190 -15 -270 -20 -80 -6 -219 -15 -310 -20 -91 -6 -246 -15
-345 -20 -99 -6 -265 -15 -370 -20 -104 -6 -307 -15 -450 -21 l-260 -10 -975
-6 -975 -5 -350 11 c-192 6 -449 16 -570 21 -121 6 -312 15 -425 20 -113 6
-279 15 -370 20 -91 6 -235 15 -320 20 -85 6 -218 15 -295 20 -77 6 -196 15
-265 21 -69 5 -174 14 -235 20 -60 5 -157 14 -215 20 -58 5 -148 14 -200 20
-52 5 -133 14 -180 20 -47 5 -123 14 -170 20 -47 5 -119 14 -160 20 -41 5
-106 14 -145 20 -38 6 -96 14 -127 20 -32 5 -86 14 -120 20 -35 6 -85 15 -113
20 -27 5 -75 14 -105 20 -30 6 -71 14 -90 19 -19 5 -55 13 -80 19 -25 5 -85
19 -135 31 -49 12 -109 26 -132 32 -24 6 -43 14 -43 18 0 5 4 10 8 12 4 2 50
59 102 128 51 69 107 143 124 165 17 22 33 42 36 45 3 3 17 21 30 40 13 19 27
37 30 40 3 3 41 52 84 110 44 58 109 143 145 190 36 47 142 186 235 310 93
124 194 257 225 295 31 39 104 133 161 210 58 77 107 142 110 145 3 3 51 66
108 140 56 74 128 169 160 210 32 41 100 131 152 200 52 68 102 134 112 145 9
11 35 44 57 73 23 28 44 52 47 52z m6827 -921 c16 0 49 -4 75 -10 26 -6 70
-22 98 -35 l52 -24 44 -44 44 -44 24 -49 c14 -26 30 -68 37 -93 7 -25 12 -63
12 -85 0 -22 -6 -60 -12 -85 -7 -25 -23 -66 -35 -91 l-21 -46 -59 -54 -58 -54
-66 -22 -66 -23 -64 0 -65 0 -34 11 c-19 6 -54 20 -79 32 l-45 22 -45 45 -45
45 -22 45 c-12 25 -26 60 -32 79 l-11 34 0 62 0 62 11 34 c6 19 20 54 32 78
l22 45 46 47 46 47 49 23 c27 13 69 29 94 35 25 6 58 12 73 13z m-3136 -2679
l736 0 -6 -97 c-4 -54 -7 -266 -7 -470 l0 -373 -723 0 -724 0 -6 203 c-4 111
-7 322 -7 470 l0 267 737 0z"/>
<path d="M7589 15319 l-114 -1 -35 -10 c-19 -5 -58 -16 -85 -24 -28 -8 -71
-25 -95 -37 -25 -13 -56 -30 -70 -38 -14 -8 -47 -32 -75 -54 -27 -22 -65 -56
-83 -75 -18 -19 -55 -67 -82 -107 -28 -40 -50 -75 -50 -78 0 -3 -9 -24 -19
-48 -10 -23 -22 -51 -26 -62 -4 -11 -13 -45 -21 -75 l-13 -55 -1 -122 0 -122
14 -53 c8 -29 19 -67 24 -84 6 -17 18 -49 28 -70 10 -22 36 -66 58 -99 22 -33
58 -79 80 -103 22 -23 62 -60 90 -81 28 -22 78 -53 111 -69 33 -16 87 -39 120
-49 33 -11 87 -25 121 -32 33 -6 90 -11 126 -11 37 0 90 5 120 11 29 6 69 15
88 20 19 6 60 20 90 32 30 11 88 42 128 69 l72 49 63 63 62 64 41 69 c22 37
50 93 61 123 11 30 27 75 34 100 l14 45 0 135 0 135 -13 50 c-8 28 -23 75 -35
105 -12 30 -36 81 -55 113 -18 31 -55 84 -82 116 l-48 58 -62 47 c-34 25 -94
61 -134 79 -39 19 -89 38 -111 44 -22 6 -59 16 -81 22 l-41 11 -114 -1z m7
-400 l51 1 64 -21 c35 -12 77 -31 94 -42 16 -12 47 -39 68 -62 l38 -40 27 -55
26 -55 0 -100 1 -100 -33 -67 -32 -66 -50 -45 c-27 -24 -69 -53 -92 -64 -24
-11 -71 -26 -106 -33 l-63 -13 -57 13 c-31 7 -77 22 -102 33 l-44 21 -52 51
c-29 27 -59 64 -68 81 -8 18 -22 51 -30 75 l-16 44 0 72 0 72 11 28 c7 15 18
43 26 62 8 18 31 51 51 73 20 22 54 52 77 68 23 16 68 38 101 49 l59 20 51 0z"/>
<path d="M10652 12799 l-127 -1 -35 -10 c-19 -5 -53 -15 -75 -21 -22 -6 -74
-28 -116 -49 l-76 -38 -68 -58 -69 -57 -53 -70 c-29 -38 -65 -93 -79 -122 -14
-29 -30 -67 -35 -85 -6 -18 -17 -58 -26 -88 l-16 -55 1 -130 0 -130 15 -55 c8
-30 18 -64 22 -75 4 -11 16 -40 27 -64 11 -25 41 -76 68 -115 26 -39 68 -90
92 -112 23 -23 65 -58 91 -78 26 -19 80 -51 120 -69 40 -19 92 -39 117 -45 25
-6 66 -16 92 -21 l47 -11 85 0 86 0 47 11 c27 6 64 15 83 21 19 5 44 13 55 17
11 5 51 24 89 42 l68 34 66 55 c37 31 89 83 115 115 l49 60 43 90 c23 50 46
104 49 120 4 17 14 73 23 125 l16 95 -12 89 c-7 49 -22 116 -33 150 -11 34
-33 88 -50 121 -16 33 -42 76 -56 95 -14 19 -49 59 -77 89 l-50 54 -70 46
c-38 26 -87 55 -109 65 -21 10 -53 22 -70 28 -17 5 -55 16 -84 24 l-53 14
-127 -1z m4 -400 l71 1 34 -11 c19 -6 53 -20 77 -32 l44 -21 47 -52 48 -52 20
-44 c11 -24 26 -69 34 -101 l13 -59 -13 -61 -12 -62 -27 -54 -27 -53 -44 -45
-45 -44 -45 -22 c-26 -11 -66 -27 -91 -34 -25 -6 -63 -12 -86 -13 l-41 0 -63
21 -63 20 -48 33 c-27 18 -62 50 -79 71 -17 21 -37 53 -44 69 -8 17 -19 46
-25 65 l-11 34 0 73 0 73 11 28 c6 15 21 48 33 73 l21 45 45 45 45 45 45 22
c25 12 59 26 75 31 17 6 62 11 101 11z"/>
<path d="M6190 8185 l-125 4 -40 -9 c-22 -4 -56 -13 -75 -18 -19 -5 -48 -15
-65 -21 -16 -7 -46 -20 -65 -29 -19 -8 -62 -34 -95 -55 -33 -22 -83 -63 -111
-91 -27 -28 -64 -69 -80 -91 -17 -22 -45 -65 -61 -96 -17 -31 -39 -82 -50
-115 -11 -32 -25 -80 -31 -107 l-12 -47 0 -108 1 -107 14 -55 c7 -30 18 -70
24 -88 5 -19 26 -66 46 -107 l36 -73 53 -64 54 -65 68 -51 c38 -28 96 -65 129
-81 33 -17 83 -37 110 -47 28 -9 89 -22 137 -28 l87 -13 98 13 c54 7 114 17
133 22 19 5 55 18 80 28 25 10 76 36 113 58 l69 41 63 62 c35 34 82 88 103
120 22 32 48 76 59 98 12 22 28 61 37 87 8 26 23 80 31 120 l15 73 0 65 0 65
-15 73 c-8 40 -22 94 -31 120 -9 26 -35 83 -57 127 l-42 80 -90 90 -90 90 -73
38 c-40 21 -107 49 -150 63 l-77 25 -125 4z m2 -401 l68 -4 53 -24 c29 -13 70
-38 91 -56 20 -18 50 -52 66 -75 15 -22 38 -70 49 -105 l21 -63 0 -46 0 -45
-21 -66 -20 -65 -34 -47 -34 -47 -58 -38 c-32 -22 -78 -46 -103 -54 l-45 -14
-85 1 -85 1 -59 29 -60 29 -46 46 -46 46 -18 38 c-11 22 -25 62 -32 90 -8 27
-14 70 -14 94 0 24 5 62 11 85 6 22 20 60 32 84 11 23 35 60 54 81 18 22 55
52 81 68 26 16 65 34 87 41 22 6 49 14 60 16 11 3 50 3 87 0z"/>
</g>
</svg>
