<?xml version="1.0" standalone="no"?>
<!DOCTYPE svg PUBLIC "-//W3C//DTD SVG 20010904//EN"
 "http://www.w3.org/TR/2001/REC-SVG-20010904/DTD/svg10.dtd">
<svg version="1.0" xmlns="http://www.w3.org/2000/svg"
 width="1365.998651pt" height="1856.629779pt" viewBox="0 0 1365.998651 1856.629779"
 preserveAspectRatio="xMidYMid meet">
<metadata>
Created by potrace 1.16, written by Peter Selinger 2001-2019
</metadata>
<g transform="translate(-220.001177,2192.629779) scale(0.100000,-0.100000)"
fill="#000000" stroke="none">
<path d="M8735 21925 c-49 2 -101 1 -115 -1 -14 -3 -38 -10 -55 -15 -16 -6
-50 -21 -75 -32 -25 -12 -64 -37 -88 -56 -24 -19 -58 -55 -75 -80 -17 -25 -69
-118 -114 -206 -45 -88 -122 -239 -170 -335 -48 -96 -92 -178 -98 -183 -5 -4
-19 -9 -30 -11 -11 -2 -51 -9 -90 -16 -38 -6 -92 -15 -120 -20 -27 -5 -84 -14
-125 -20 -41 -6 -100 -15 -130 -20 -30 -5 -89 -14 -130 -20 -41 -6 -95 -16
-120 -22 -25 -5 -74 -24 -110 -41 l-65 -31 -60 -61 -60 -60 -28 -57 c-15 -31
-34 -82 -42 -113 l-15 -56 0 -77 0 -77 15 -49 c8 -27 26 -72 40 -101 l26 -52
62 -64 c34 -36 105 -103 157 -149 52 -47 97 -87 100 -90 3 -3 48 -43 99 -90
52 -47 114 -103 138 -124 l43 -40 0 -29 c0 -16 -4 -46 -10 -66 -5 -20 -17 -74
-26 -121 -9 -47 -21 -105 -26 -130 -6 -25 -14 -63 -19 -85 -5 -22 -14 -62 -19
-90 -5 -27 -15 -70 -21 -95 -6 -25 -13 -93 -16 -152 l-5 -107 23 -63 22 -63
47 -70 48 -70 38 -28 c22 -16 46 -32 54 -37 l14 -9 -20 -38 c-12 -21 -36 -65
-54 -98 -18 -33 -41 -72 -52 -87 -10 -14 -18 -29 -18 -33 0 -3 -13 -26 -30
-50 -16 -24 -30 -46 -30 -50 0 -3 -22 -39 -50 -80 -27 -41 -50 -77 -50 -80 0
-3 -55 -87 -122 -188 -66 -100 -148 -220 -182 -267 -33 -47 -80 -112 -104
-145 -24 -33 -52 -71 -62 -85 -10 -14 -40 -54 -67 -90 -26 -36 -53 -72 -60
-80 -7 -8 -51 -64 -100 -125 -48 -60 -112 -139 -141 -175 -30 -36 -64 -76 -76
-90 -12 -14 -59 -69 -105 -122 -46 -54 -88 -98 -93 -98 -6 0 -22 8 -36 18 -15
10 -47 27 -72 37 -25 9 -58 22 -75 27 -16 5 -61 16 -100 24 l-70 14 -85 0 -85
0 -65 -14 c-36 -8 -87 -22 -115 -31 -27 -10 -68 -26 -90 -38 -22 -11 -65 -37
-95 -57 -31 -21 -81 -63 -112 -94 -31 -32 -76 -87 -100 -124 -24 -37 -53 -87
-65 -112 -11 -25 -25 -58 -31 -75 -6 -16 -16 -52 -23 -80 l-14 -50 0 -130 0
-130 14 -45 c7 -25 18 -58 23 -75 6 -16 21 -54 35 -82 13 -29 28 -55 34 -58 5
-4 9 -10 9 -15 0 -4 -42 -39 -92 -78 -51 -38 -149 -107 -218 -152 -69 -45
-142 -95 -162 -112 -20 -16 -55 -53 -76 -81 -22 -29 -49 -68 -59 -87 -11 -19
-27 -55 -37 -80 -10 -25 -24 -69 -32 -98 l-14 -53 0 -113 0 -113 9 -29 c5 -16
14 -49 22 -74 7 -25 26 -74 43 -110 16 -36 48 -92 69 -125 l40 -60 81 -80 c45
-45 109 -100 143 -123 35 -24 98 -60 140 -81 43 -22 119 -52 168 -69 50 -16
108 -34 130 -40 22 -6 57 -14 78 -17 l37 -6 0 -10 c0 -5 -41 -71 -92 -147 -50
-75 -103 -153 -118 -172 -15 -19 -66 -88 -114 -152 -47 -64 -89 -124 -92 -132
-3 -9 -12 -16 -20 -16 -7 0 -28 8 -46 18 -18 10 -51 23 -73 29 -22 7 -62 17
-90 25 l-50 12 -125 -1 -125 -1 -55 -15 c-30 -8 -68 -20 -85 -27 -16 -6 -58
-25 -92 -41 -34 -16 -84 -46 -110 -66 -27 -20 -71 -59 -99 -87 -28 -28 -69
-78 -90 -111 -22 -33 -49 -80 -61 -105 -12 -25 -29 -67 -39 -95 -9 -27 -23
-81 -30 -120 -8 -38 -14 -95 -14 -125 0 -30 7 -89 14 -131 8 -41 22 -97 31
-125 9 -27 30 -76 47 -109 17 -33 40 -73 51 -90 12 -16 25 -33 30 -36 l10 -7
-103 -118 c-56 -66 -120 -145 -141 -176 -22 -32 -52 -81 -68 -110 -16 -29 -37
-75 -46 -103 -9 -27 -23 -79 -31 -115 l-14 -65 0 -91 0 -91 9 -29 c5 -16 15
-49 22 -74 7 -25 26 -68 40 -97 15 -29 42 -74 60 -100 18 -26 72 -87 121 -135
l88 -88 102 -68 c57 -38 159 -97 227 -130 68 -34 130 -62 137 -62 8 0 14 -2
14 -4 0 -3 -23 -44 -51 -93 -28 -48 -59 -101 -69 -118 -9 -16 -32 -54 -49 -84
-18 -29 -50 -80 -71 -112 -22 -32 -40 -60 -40 -64 0 -3 -26 -45 -57 -93 -31
-48 -82 -125 -113 -172 -31 -47 -88 -130 -125 -185 -37 -55 -85 -122 -105
-150 -20 -27 -70 -97 -111 -155 -41 -58 -79 -112 -86 -120 -7 -8 -21 -26 -31
-39 l-19 -25 -24 16 c-13 8 -51 24 -84 35 -33 11 -80 27 -105 34 l-45 14 -140
0 -140 -1 -82 -26 c-46 -15 -100 -35 -120 -44 -21 -10 -70 -39 -109 -65 l-71
-47 -62 -69 c-35 -37 -77 -93 -95 -123 -18 -30 -42 -80 -53 -110 -12 -30 -27
-75 -33 -100 -6 -25 -16 -61 -21 -81 -5 -20 -9 -74 -9 -120 l0 -84 14 -70 c8
-38 19 -84 24 -102 6 -17 24 -61 41 -97 18 -36 48 -87 68 -113 20 -27 40 -50
44 -53 l9 -6 -39 -79 c-22 -44 -53 -123 -69 -175 -17 -52 -35 -113 -41 -135
-5 -22 -16 -69 -23 -105 l-13 -65 0 -195 1 -195 12 -55 c7 -30 18 -75 24 -100
6 -25 17 -65 25 -90 8 -25 30 -83 50 -130 20 -47 39 -89 43 -95 5 -5 18 -28
30 -50 12 -22 46 -74 76 -115 30 -42 85 -107 122 -146 37 -38 97 -93 132 -123
36 -29 72 -58 80 -65 9 -6 36 -26 62 -44 26 -18 49 -32 51 -32 3 0 34 -17 68
-38 35 -21 80 -45 99 -54 19 -9 61 -28 93 -42 32 -14 62 -26 67 -26 6 0 18 -4
28 -10 9 -5 44 -18 77 -28 33 -11 78 -24 100 -30 22 -6 58 -15 80 -20 22 -6
67 -16 100 -22 33 -6 78 -15 100 -20 22 -5 83 -15 135 -22 l95 -13 290 0 290
0 95 13 c52 7 127 17 165 23 39 6 97 15 130 20 33 6 83 15 110 21 28 5 66 14
85 18 19 5 58 14 85 20 28 6 67 15 88 21 20 5 56 14 80 20 23 6 53 15 67 19
14 4 45 14 70 21 25 7 51 17 58 22 l13 10 8 -9 c5 -5 32 -36 61 -69 30 -33 81
-84 114 -114 34 -29 106 -84 161 -121 l100 -67 126 -62 c70 -33 132 -61 138
-61 6 0 19 -4 29 -10 9 -5 44 -18 77 -28 33 -11 81 -25 108 -31 26 -6 66 -15
90 -21 23 -5 67 -14 97 -19 30 -6 93 -15 140 -20 47 -6 147 -12 222 -13 l136
-3 7 -30 c3 -16 11 -66 16 -110 5 -44 14 -111 19 -150 5 -38 14 -108 20 -155
6 -47 15 -116 20 -155 5 -38 14 -101 19 -140 6 -38 15 -89 19 -113 5 -24 26
-76 46 -117 l36 -74 53 -54 c28 -30 72 -67 97 -83 25 -16 56 -35 70 -41 14 -7
54 -21 89 -33 l64 -20 1233 0 1233 0 55 14 c31 8 86 29 123 47 l68 32 71 71
71 71 35 75 c19 41 40 98 46 125 6 28 16 86 22 130 6 44 15 107 20 140 5 33
14 96 20 140 6 44 15 109 20 145 5 36 14 103 20 150 6 47 15 110 20 140 5 30
12 83 15 116 l7 62 111 11 c62 7 141 17 177 22 36 6 85 15 110 21 25 5 63 14
85 20 22 6 73 22 114 35 41 13 95 33 120 44 25 11 67 31 92 44 25 13 63 33 85
45 21 12 59 36 84 53 25 17 59 41 75 55 17 13 50 43 75 67 25 23 67 66 93 95
l48 53 102 -33 c56 -18 122 -39 147 -47 24 -8 96 -28 160 -44 63 -16 149 -36
190 -44 41 -8 98 -19 125 -25 28 -5 77 -14 110 -19 33 -5 98 -14 145 -20 47
-6 126 -15 176 -21 l91 -10 213 0 214 0 90 10 c50 6 127 15 171 21 44 6 105
15 135 21 30 5 93 19 140 30 47 11 126 33 175 49 50 17 98 34 107 39 10 6 23
10 30 10 6 0 68 27 136 61 l125 61 101 68 c56 37 139 102 186 143 47 42 103
97 125 123 22 27 60 76 85 110 25 34 68 106 95 160 26 55 51 108 56 119 4 11
13 36 20 55 l12 35 47 50 c25 28 65 78 88 111 23 34 53 88 68 120 15 32 31 72
36 89 5 16 15 64 23 105 8 41 15 103 15 137 0 34 -5 85 -11 115 -6 29 -15 71
-21 93 -6 22 -13 49 -17 60 -4 11 -26 58 -49 105 l-42 86 -45 53 c-25 29 -70
74 -100 99 -30 25 -80 60 -111 77 l-57 32 -24 42 c-13 24 -50 82 -82 129 -32
48 -82 114 -111 147 -29 33 -109 119 -179 190 -69 72 -158 166 -197 210 -39
44 -113 132 -165 195 -52 64 -148 187 -213 275 -66 88 -136 183 -156 210 -20
28 -59 82 -87 120 -27 39 -74 106 -104 149 -30 44 -77 114 -104 155 -28 42
-86 129 -128 193 -42 65 -77 120 -77 123 0 3 -22 39 -50 80 -27 41 -50 79 -50
85 0 5 6 10 13 10 6 0 55 22 107 48 52 27 112 58 134 71 21 12 70 44 110 70
39 27 96 73 126 102 31 30 67 68 81 84 13 17 38 50 55 75 17 25 38 61 47 80 8
19 21 49 27 65 7 17 19 55 27 85 l15 55 0 130 0 130 -15 55 c-8 30 -24 79 -36
108 -11 29 -33 76 -47 105 -15 28 -54 93 -87 142 -33 50 -83 119 -111 155 -27
36 -68 88 -90 115 -22 28 -72 88 -111 135 -38 47 -72 87 -75 90 -3 3 -30 34
-60 70 -30 36 -57 67 -60 70 -3 3 -62 70 -130 149 -69 79 -142 165 -164 190
-21 25 -59 70 -85 100 -25 30 -73 87 -106 125 -33 39 -81 96 -106 126 -25 30
-123 152 -218 270 -95 118 -178 222 -184 230 -7 8 -57 76 -113 150 -55 74
-123 166 -150 204 -27 38 -64 88 -82 113 l-32 44 12 4 c7 3 40 13 73 24 33 10
85 29 115 41 30 12 80 33 110 48 30 15 84 44 120 66 36 21 83 53 105 69 22 17
68 55 103 85 34 30 82 79 106 111 23 31 55 78 69 104 15 26 37 78 49 114 l21
67 1 101 1 100 -14 45 c-7 25 -17 54 -21 65 -4 11 -15 36 -24 57 -9 20 -36 63
-61 96 -25 33 -70 81 -99 106 -29 26 -87 70 -127 98 -41 29 -123 86 -184 127
-60 42 -150 105 -199 141 -49 36 -116 87 -150 113 -34 26 -68 53 -76 60 -8 7
-35 28 -60 47 -25 19 -47 37 -50 40 -3 3 -30 25 -60 50 -30 25 -71 59 -90 77
-19 17 -48 41 -63 54 l-28 22 34 36 c19 20 45 52 60 71 14 19 39 60 55 90 16
30 38 78 47 105 9 28 23 79 31 115 l14 65 0 85 0 85 -14 65 c-8 36 -21 88 -30
115 -10 28 -27 70 -39 95 -12 25 -42 77 -68 115 l-47 71 -61 57 c-34 31 -81
70 -105 86 -23 16 -72 43 -107 59 -35 15 -84 34 -109 41 -25 7 -58 18 -74 24
l-30 11 -145 1 -146 0 -50 -13 c-27 -8 -63 -19 -80 -24 -16 -6 -49 -19 -72
-29 -24 -11 -45 -19 -48 -19 -4 0 -34 -19 -68 -42 -34 -23 -68 -48 -76 -56
l-14 -13 -13 13 c-7 7 -63 76 -124 153 -61 77 -116 147 -123 155 -7 8 -44 58
-83 110 -39 52 -116 158 -171 235 -55 77 -143 205 -195 285 -52 80 -112 171
-132 203 -20 32 -46 74 -57 93 -10 19 -28 51 -40 72 -11 20 -25 41 -30 47 -5
5 -9 16 -9 25 l0 15 30 13 c17 8 56 40 89 72 l58 59 27 54 c14 30 33 76 41
103 l15 49 0 65 0 65 -15 70 c-9 39 -20 93 -26 120 -6 28 -15 68 -19 90 -5 22
-13 67 -20 100 -7 33 -16 78 -20 100 -4 22 -13 65 -19 95 -6 30 -15 74 -20 97
l-8 42 56 53 c31 29 108 100 171 158 63 58 137 125 165 150 27 24 86 81 130
125 l81 80 28 58 c15 32 34 84 42 115 7 31 13 82 13 112 0 30 -6 80 -13 110
-7 30 -20 72 -29 92 -9 21 -31 59 -48 85 -18 26 -42 58 -54 71 -11 14 -45 41
-75 62 l-55 37 -60 20 c-33 11 -98 26 -145 32 -47 7 -113 16 -147 21 -35 6
-93 15 -130 20 -38 6 -93 15 -123 20 -30 5 -86 14 -125 20 -38 7 -83 15 -100
19 l-30 7 -176 351 -175 352 -40 47 -39 46 -62 38 c-35 21 -86 45 -115 55
l-52 17 -91 3z m-16 -565 c4 0 37 -62 73 -137 37 -76 90 -187 118 -248 29 -60
79 -164 111 -231 l59 -120 33 -31 c17 -17 48 -40 67 -50 19 -11 60 -24 90 -31
30 -6 84 -16 120 -22 36 -6 90 -15 120 -20 30 -5 82 -13 115 -19 33 -5 94 -15
135 -21 41 -6 98 -15 125 -20 28 -5 71 -12 98 -15 26 -4 47 -10 47 -14 0 -4
-15 -20 -32 -36 -18 -15 -60 -53 -93 -83 -33 -31 -89 -83 -125 -116 -36 -34
-112 -104 -170 -156 -58 -52 -123 -113 -144 -135 l-39 -40 -25 -55 -24 -55 6
-75 c3 -41 10 -102 16 -135 5 -33 14 -82 19 -110 5 -27 14 -77 21 -110 6 -33
16 -80 21 -105 5 -25 13 -70 19 -100 6 -30 15 -77 21 -105 6 -27 13 -68 16
-89 l5 -39 -30 22 c-17 12 -73 43 -124 70 -51 27 -110 58 -130 70 -21 11 -54
30 -73 41 -19 11 -52 30 -72 42 -21 12 -98 52 -172 90 l-134 68 -71 0 -71 0
-85 -43 c-47 -24 -110 -57 -140 -74 -30 -17 -86 -47 -125 -68 -38 -21 -74 -41
-80 -45 -5 -4 -46 -27 -90 -50 -44 -24 -96 -52 -115 -63 -19 -11 -44 -26 -55
-33 -11 -8 -25 -14 -31 -14 l-11 0 8 43 c5 23 14 67 19 97 6 30 15 80 20 110
6 30 15 75 20 100 4 25 13 70 19 100 5 30 15 82 22 115 6 33 15 83 20 110 4
28 11 71 15 97 l7 48 -13 47 c-7 27 -26 66 -41 88 -15 22 -49 60 -75 85 -27
24 -112 102 -189 174 -77 72 -169 158 -205 192 -36 33 -80 74 -97 89 -18 16
-33 32 -33 36 0 4 26 10 58 14 31 3 80 10 107 15 28 5 82 14 120 20 39 6 95
15 125 20 30 5 87 14 125 20 39 6 97 15 130 21 33 6 80 15 105 21 25 6 64 22
88 35 l43 24 30 42 c17 23 44 71 61 107 17 36 67 139 110 230 44 91 107 220
140 288 32 67 63 122 67 122z m7 -2701 c11 1 24 -3 30 -8 5 -5 50 -30 99 -56
50 -26 108 -58 130 -70 22 -13 69 -39 104 -58 l65 -35 21 -39 c12 -21 35 -63
52 -93 16 -30 39 -71 50 -90 11 -19 29 -51 40 -70 11 -19 44 -75 73 -125 29
-49 61 -104 71 -121 9 -18 43 -72 75 -120 32 -49 82 -127 112 -174 31 -47 81
-121 112 -165 31 -44 90 -127 131 -185 40 -58 76 -107 79 -110 3 -3 17 -21 30
-40 14 -19 30 -42 37 -50 6 -8 33 -44 60 -80 26 -36 50 -67 53 -70 3 -3 25
-32 50 -65 25 -33 90 -116 144 -185 55 -69 102 -127 105 -130 4 -3 31 -34 61
-70 30 -36 57 -67 60 -70 3 -3 43 -48 90 -100 47 -52 112 -124 145 -160 33
-35 96 -103 140 -149 44 -46 121 -125 171 -175 50 -50 126 -125 170 -166 44
-41 106 -100 139 -130 33 -30 114 -102 180 -160 67 -58 143 -124 170 -147 28
-22 79 -64 115 -93 36 -28 72 -56 80 -63 8 -7 76 -57 150 -113 74 -55 167
-123 205 -151 39 -27 117 -82 175 -120 58 -39 131 -94 163 -123 l57 -52 0 -23
0 -23 -52 -57 c-28 -31 -77 -73 -107 -94 -31 -20 -85 -51 -121 -68 -36 -17
-92 -40 -125 -51 -33 -11 -80 -24 -105 -30 -25 -6 -70 -15 -100 -21 -30 -5
-109 -13 -175 -16 l-120 -6 -130 11 c-71 5 -155 14 -185 19 -30 5 -80 14 -110
20 -30 6 -74 15 -97 21 -24 5 -60 14 -80 19 -21 5 -82 21 -137 35 -54 14 -115
26 -135 26 -20 0 -58 -7 -86 -15 -27 -9 -66 -26 -86 -40 -20 -13 -54 -45 -75
-72 -21 -26 -59 -68 -85 -93 l-47 -46 -74 -36 c-40 -20 -82 -39 -93 -43 -11
-3 -54 -13 -95 -21 -41 -8 -97 -14 -125 -14 -27 0 -86 7 -130 15 -44 8 -96 19
-115 24 -19 5 -56 16 -83 25 -26 9 -84 35 -130 58 -45 23 -116 64 -157 92 -41
27 -83 57 -93 67 -10 9 -39 27 -64 40 l-47 24 -80 0 -81 0 -41 -22 c-22 -12
-55 -38 -72 -58 -18 -19 -39 -50 -49 -68 l-17 -32 -1 -80 0 -80 27 -45 c14
-25 43 -61 64 -81 22 -19 73 -58 114 -85 41 -28 95 -62 120 -76 25 -14 74 -41
110 -60 36 -19 101 -48 145 -65 44 -18 109 -41 145 -52 36 -11 83 -24 105 -30
22 -5 69 -16 105 -23 l65 -12 165 -1 165 0 60 14 c33 7 101 26 150 41 l91 29
79 41 c44 23 105 61 135 83 30 22 77 62 104 87 l48 47 67 -17 c36 -10 91 -22
121 -28 30 -6 80 -15 110 -21 30 -5 87 -14 125 -20 39 -6 102 -15 142 -21 39
-5 97 -10 127 -10 l56 0 37 -57 c20 -32 48 -76 62 -98 14 -22 47 -69 72 -105
25 -36 79 -112 120 -170 41 -58 115 -157 164 -221 50 -64 101 -131 115 -149
14 -19 72 -92 130 -164 57 -72 107 -133 110 -136 3 -3 25 -30 50 -60 25 -30
47 -57 50 -60 3 -3 25 -30 50 -60 25 -30 94 -113 155 -185 60 -71 112 -132
115 -135 3 -3 30 -34 60 -70 30 -36 65 -76 76 -90 12 -14 66 -77 120 -140 54
-63 101 -117 104 -120 3 -3 30 -34 60 -70 30 -36 57 -67 60 -70 4 -3 60 -70
126 -150 67 -80 136 -167 154 -195 19 -27 36 -52 40 -55 3 -3 19 -27 35 -55
17 -27 35 -61 41 -75 6 -14 16 -47 23 -74 l12 -49 -12 -51 -12 -51 -28 -41
-27 -40 -54 -41 c-29 -23 -91 -60 -138 -83 -47 -24 -94 -46 -105 -51 -11 -4
-29 -10 -40 -14 -11 -4 -35 -11 -52 -16 -18 -5 -50 -14 -70 -19 -21 -6 -76
-18 -123 -27 l-85 -16 -225 0 -225 0 -75 12 c-41 7 -100 17 -130 22 -30 6 -77
15 -105 20 -27 6 -68 14 -90 19 -22 5 -80 18 -130 30 -49 11 -106 25 -125 30
-19 4 -54 13 -76 19 l-41 11 -81 0 -81 0 -53 -24 -53 -23 -31 -31 c-17 -17
-40 -51 -51 -74 -12 -24 -25 -59 -31 -78 -5 -19 -15 -55 -22 -80 -7 -25 -26
-81 -43 -125 -17 -44 -44 -105 -61 -135 -16 -30 -47 -82 -69 -115 -22 -33 -75
-94 -117 -136 l-76 -76 -75 -49 c-40 -27 -96 -60 -124 -73 -27 -13 -59 -27
-70 -32 -11 -4 -42 -16 -70 -25 -27 -9 -68 -21 -90 -25 -22 -5 -87 -16 -145
-24 -58 -8 -130 -15 -160 -15 -30 0 -107 7 -170 15 -63 8 -134 17 -157 21 -24
4 -43 9 -43 11 0 2 14 24 30 48 17 24 30 46 30 49 0 4 9 25 19 49 10 23 22 51
26 62 4 11 14 45 22 75 l15 55 0 120 0 120 -15 55 c-8 30 -23 77 -32 104 -9
26 -26 64 -37 85 -11 20 -36 59 -55 88 -19 29 -56 74 -81 100 -26 27 -61 60
-79 75 -17 15 -64 44 -105 65 -40 22 -107 50 -148 63 l-75 24 -135 0 -135 1
-45 -14 c-25 -7 -58 -18 -75 -23 -16 -5 -68 -28 -114 -51 l-83 -41 -75 -70
-75 -70 -37 -56 c-20 -30 -43 -67 -50 -82 -8 -16 -17 -28 -20 -28 -3 1 -32 35
-64 76 l-59 74 -41 28 c-23 15 -58 33 -78 40 l-35 12 -58 0 -58 0 -62 -29
c-33 -17 -70 -38 -81 -48 -11 -11 -47 -37 -81 -60 -33 -23 -80 -53 -105 -67
-24 -14 -71 -39 -104 -55 -33 -16 -76 -35 -95 -44 -19 -8 -55 -22 -80 -32 -25
-9 -63 -23 -85 -30 -22 -7 -78 -22 -125 -33 -47 -11 -115 -25 -151 -31 l-66
-11 -182 0 -181 0 -47 11 c-27 6 -66 16 -88 21 -22 6 -53 15 -70 20 -16 6 -50
20 -75 31 -25 12 -65 34 -90 51 -25 16 -65 47 -88 70 -24 23 -61 66 -81 96
-21 30 -45 73 -55 94 -10 21 -36 58 -58 82 l-39 42 -47 23 -47 23 -75 0 -75 0
-90 -32 c-49 -17 -124 -39 -165 -50 -41 -11 -100 -24 -130 -30 -30 -6 -88 -15
-128 -21 l-72 -11 -212 0 -211 0 -66 11 c-36 5 -91 15 -121 21 -30 6 -77 17
-105 24 -27 7 -61 16 -75 19 -14 4 -34 10 -45 15 -11 4 -36 14 -55 21 -19 7
-72 29 -117 50 -45 20 -115 60 -156 88 -42 28 -102 75 -135 106 l-60 55 -18
38 c-9 20 -17 48 -17 62 0 14 11 51 26 83 14 31 41 76 59 99 18 24 35 45 38
48 3 3 48 55 100 115 52 61 128 148 170 195 41 47 100 115 131 150 31 36 69
81 85 100 16 19 31 37 34 40 3 3 30 34 60 70 30 36 57 67 60 70 3 3 25 30 50
60 25 30 47 57 51 60 3 3 49 60 102 128 53 67 139 175 190 240 51 64 142 182
201 262 59 80 116 156 126 170 10 14 39 53 63 86 25 34 126 183 224 330 99
148 182 276 185 285 l6 15 58 14 c33 7 100 23 149 36 50 12 115 30 145 39 30
10 78 26 105 36 28 10 62 21 76 24 l26 6 34 -31 c19 -17 51 -46 72 -63 21 -18
59 -44 85 -59 26 -15 72 -39 102 -54 30 -14 64 -30 75 -34 11 -4 33 -11 49
-16 l30 -9 -2 -10 c-2 -5 -21 -21 -45 -34 -23 -12 -65 -41 -93 -62 -28 -21
-68 -58 -90 -81 -22 -24 -63 -77 -90 -118 -27 -41 -59 -95 -71 -120 -12 -25
-29 -67 -39 -95 -9 -27 -23 -79 -31 -115 l-14 -65 0 -128 -1 -127 13 -53 c6
-28 20 -79 31 -112 11 -33 29 -80 41 -105 12 -25 42 -77 68 -115 26 -39 69
-93 96 -121 27 -27 67 -63 88 -79 22 -17 42 -33 45 -36 3 -4 39 -24 80 -46 41
-22 102 -49 135 -60 33 -11 80 -27 105 -34 l45 -14 155 0 155 0 50 13 c28 8
64 19 80 24 17 6 46 17 65 25 19 8 58 26 85 40 28 14 75 44 105 67 30 22 79
66 110 96 30 31 76 87 101 125 25 39 55 88 66 110 11 22 29 67 41 100 11 33
25 80 31 105 6 25 15 81 21 125 l10 79 -10 81 c-6 44 -15 100 -21 125 -6 25
-20 72 -31 105 -12 33 -37 91 -56 129 l-36 70 -59 70 c-32 39 -80 89 -105 112
-26 22 -69 55 -95 73 -26 18 -73 44 -104 58 l-56 26 33 13 c18 8 37 14 44 14
6 0 63 26 126 58 63 32 132 68 154 81 21 12 73 45 115 73 42 28 95 69 119 92
24 22 53 59 65 81 l22 40 0 81 0 80 -25 48 -24 48 -36 29 c-19 16 -59 38 -88
49 -29 11 -67 20 -85 20 -18 0 -56 -9 -84 -19 -29 -10 -67 -29 -85 -42 -18
-13 -35 -26 -38 -29 -3 -3 -30 -24 -61 -48 -31 -23 -61 -42 -67 -42 -5 0 -12
-4 -14 -8 -1 -4 -39 -26 -83 -49 -44 -22 -109 -50 -145 -61 -36 -11 -85 -26
-110 -34 l-44 -13 -131 1 -130 2 -69 26 c-38 14 -91 40 -118 57 -26 17 -58 43
-70 58 -13 15 -34 43 -48 61 -14 19 -37 48 -53 66 l-27 32 -43 20 c-23 11 -66
25 -95 31 l-53 11 -47 -11 c-26 -6 -56 -14 -67 -19 -11 -4 -51 -20 -89 -35
-38 -14 -101 -37 -140 -49 -39 -13 -91 -29 -116 -36 -25 -7 -56 -16 -70 -20
-14 -4 -50 -13 -80 -19 -30 -6 -77 -15 -105 -20 -27 -5 -103 -15 -167 -22
l-118 -12 -117 13 c-65 7 -140 18 -168 25 -27 7 -63 18 -80 25 -16 6 -46 19
-65 27 -19 9 -55 30 -80 47 -25 16 -59 44 -75 60 -17 17 -40 45 -52 61 -11 17
-31 48 -43 69 l-22 39 -1 53 -1 52 23 33 23 34 97 65 c53 35 121 82 151 104
30 22 80 58 110 80 30 23 61 46 70 53 8 6 76 61 150 123 74 61 182 155 240
208 58 52 216 206 351 341 135 135 284 289 331 341 46 52 102 115 124 140 21
25 41 47 44 50 3 3 42 48 86 100 44 52 108 129 143 170 34 41 95 118 134 170
39 52 74 97 77 100 3 3 53 68 111 145 58 77 139 187 181 245 41 58 139 201
218 319 78 118 174 264 213 325 38 61 78 127 89 146 11 19 29 47 39 62 11 14
19 29 19 33 0 3 14 26 30 50 17 24 30 46 30 49 0 3 14 29 31 58 18 29 39 67
49 83 9 17 35 65 58 107 23 42 57 105 75 139 l34 63 29 16 c16 9 54 30 84 47
30 16 78 43 105 58 28 15 70 39 95 53 25 14 68 38 95 53 28 15 59 28 71 28z
m2651 -1835 l82 -4 28 -11 c15 -6 56 -25 89 -41 l62 -29 59 -58 59 -59 31 -63
c17 -35 37 -80 44 -99 l14 -35 0 -110 0 -110 -14 -35 c-7 -19 -18 -46 -24 -60
-6 -14 -29 -51 -50 -82 -21 -32 -41 -58 -46 -58 -4 0 -71 62 -147 138 -76 76
-177 178 -224 228 -47 49 -116 123 -155 165 -38 41 -92 99 -118 127 l-49 53 5
13 c3 8 21 25 39 39 18 14 49 34 68 44 19 11 55 25 80 31 25 6 54 14 65 16 11
3 57 3 102 0z m-5627 -665 l95 1 40 -16 c22 -8 48 -17 58 -21 l17 -5 0 -13 c0
-7 -91 -105 -202 -217 -112 -113 -254 -251 -316 -308 l-113 -103 -10 10 c-5 5
-16 35 -24 67 l-15 57 0 81 0 82 11 35 c7 20 21 56 32 81 12 25 41 69 65 98
l44 53 57 38 c31 21 81 47 111 59 l55 20 95 1z m1662 -2960 l107 1 56 -15 c31
-8 81 -25 111 -39 29 -14 75 -39 101 -57 26 -18 66 -51 89 -73 22 -23 55 -63
73 -89 18 -26 43 -72 57 -101 14 -30 31 -80 39 -111 l15 -56 0 -89 0 -89 -14
-53 c-8 -29 -21 -72 -29 -96 -8 -23 -30 -68 -48 -100 l-34 -57 -70 -70 -70
-71 -45 -25 c-25 -13 -70 -34 -100 -46 -30 -11 -76 -25 -103 -32 l-47 -11 -78
0 -77 1 -55 13 c-30 8 -64 17 -75 21 -11 4 -40 16 -65 27 -25 11 -73 40 -106
64 -34 24 -81 65 -104 91 -23 26 -57 76 -76 110 -19 34 -40 77 -45 95 -6 18
-17 58 -24 88 l-14 55 -1 82 0 82 14 53 c8 29 17 62 21 73 4 11 16 40 27 65
11 25 33 63 48 85 16 22 43 56 62 76 18 20 54 52 80 71 26 20 71 47 100 61 29
14 62 28 73 33 11 4 38 13 60 19 l40 12 107 2z m-2852 -575 c36 -3 80 -10 98
-16 17 -7 32 -15 32 -19 0 -4 -6 -14 -13 -21 -7 -7 -41 -49 -77 -93 -35 -44
-118 -145 -184 -225 -66 -80 -123 -147 -126 -150 -3 -3 -32 -36 -66 -75 -33
-38 -69 -82 -79 -97 -9 -16 -21 -28 -26 -28 -4 0 -14 15 -22 33 -8 17 -19 46
-25 62 -6 17 -16 57 -22 90 l-10 59 11 61 c6 33 15 74 21 90 6 17 17 44 24 61
8 18 32 55 53 84 l39 52 57 43 57 42 67 22 c36 11 80 23 96 25 17 2 59 2 95 0z
m4895 -2299 l90 -3 30 -12 c17 -7 54 -24 83 -37 l54 -24 55 -52 c31 -29 68
-70 82 -92 15 -22 37 -65 49 -95 11 -30 26 -86 32 -123 l11 -68 -11 -62 c-7
-34 -16 -75 -22 -92 -5 -16 -20 -50 -31 -73 -12 -24 -39 -64 -60 -88 l-39 -44
-19 0 c-11 0 -27 4 -37 9 -9 5 -42 20 -72 34 -30 14 -75 35 -100 46 -25 12
-67 33 -95 49 -27 15 -86 50 -130 77 -44 27 -113 73 -153 102 -41 29 -107 79
-147 110 -41 32 -74 63 -75 70 0 7 7 34 16 60 9 26 30 68 47 93 17 25 49 62
71 83 23 21 61 50 84 64 24 14 63 33 85 41 23 8 58 18 77 23 l35 8 90 -4z
m-3499 -394 c7 -3 32 -31 56 -61 25 -30 74 -80 109 -111 35 -30 98 -78 139
-105 41 -28 100 -62 130 -76 30 -14 71 -33 90 -41 19 -9 55 -22 80 -30 25 -8
72 -22 105 -30 33 -9 85 -20 115 -26 30 -5 93 -15 140 -21 47 -5 134 -10 194
-10 60 0 150 5 200 10 50 6 120 15 156 21 36 6 88 15 115 21 28 5 66 14 85 18
19 5 55 14 80 21 25 6 63 18 85 25 22 6 83 29 135 50 52 21 147 65 210 98 63
32 125 64 137 70 13 6 23 14 23 19 0 4 5 7 11 7 6 0 43 -33 82 -73 40 -40 99
-98 132 -128 33 -30 105 -91 160 -135 55 -44 155 -117 222 -162 67 -45 139
-92 160 -104 21 -11 65 -36 98 -55 33 -18 98 -52 145 -74 46 -23 130 -59 185
-81 55 -22 118 -46 140 -53 22 -6 60 -18 85 -25 25 -7 56 -16 70 -20 14 -5 41
-11 60 -15 19 -4 53 -11 75 -16 22 -5 67 -14 100 -20 33 -6 128 -16 210 -23
l150 -12 150 12 c83 8 164 16 180 19 17 3 50 11 75 16 25 6 63 15 85 21 22 6
67 19 100 30 33 11 123 51 200 89 l140 69 70 52 c39 29 88 68 110 88 22 19 60
55 85 80 25 25 62 65 83 90 21 25 64 83 95 130 32 47 81 132 109 190 28 58 59
129 69 159 l17 53 41 -6 c23 -3 61 -10 86 -16 25 -6 65 -15 90 -21 25 -5 72
-14 105 -19 33 -6 89 -15 125 -21 36 -6 99 -14 140 -20 41 -5 182 -12 312 -15
l237 -6 27 -52 c15 -28 35 -63 45 -78 11 -14 19 -28 19 -31 0 -3 19 -36 41
-73 23 -38 55 -88 70 -111 16 -23 29 -44 29 -47 0 -4 64 -102 142 -219 77
-116 168 -250 201 -297 34 -47 77 -107 97 -135 20 -27 97 -131 170 -230 74
-99 137 -182 140 -185 3 -3 17 -21 32 -42 15 -20 34 -42 41 -50 7 -7 49 -58
94 -113 44 -55 89 -109 99 -120 11 -11 37 -41 58 -65 22 -25 96 -106 166 -180
70 -74 142 -153 162 -175 19 -22 53 -67 76 -101 22 -33 51 -78 63 -100 12 -21
32 -59 45 -84 12 -25 29 -61 37 -80 8 -19 23 -55 32 -80 10 -25 21 -60 26 -77
5 -18 14 -50 19 -70 6 -21 17 -74 25 -118 l15 -80 0 -105 0 -105 -14 -76 c-8
-41 -22 -97 -32 -125 -9 -27 -27 -69 -39 -94 -13 -25 -44 -73 -69 -107 -25
-33 -74 -86 -107 -117 -33 -31 -93 -78 -132 -105 -40 -26 -112 -67 -162 -91
-49 -23 -99 -46 -110 -51 -11 -4 -47 -16 -80 -27 -33 -11 -78 -24 -100 -30
-22 -6 -60 -15 -85 -21 -25 -5 -70 -14 -100 -20 -30 -5 -95 -15 -145 -22 l-90
-12 -265 0 -265 0 -70 11 c-38 6 -108 16 -155 22 -47 6 -103 15 -125 20 -22 4
-67 14 -100 21 -33 7 -103 23 -155 36 -52 14 -108 28 -125 33 -16 4 -79 24
-140 44 -60 20 -119 41 -130 45 -11 5 -58 24 -105 42 l-85 34 -81 0 -80 0 -49
-25 c-27 -14 -64 -40 -82 -59 -18 -18 -46 -57 -62 -85 -16 -28 -44 -69 -62
-91 -19 -22 -45 -51 -59 -65 -14 -14 -45 -41 -69 -62 -24 -20 -78 -54 -120
-76 -42 -22 -111 -52 -154 -66 -43 -14 -99 -31 -125 -37 -26 -6 -89 -17 -141
-25 l-94 -14 -183 0 -183 0 -78 10 c-43 6 -107 15 -143 20 -36 6 -90 16 -120
22 -30 6 -95 21 -145 34 -49 13 -117 32 -150 43 -33 10 -80 27 -105 36 -25 9
-54 20 -65 25 -11 4 -31 12 -45 18 -14 5 -43 18 -65 27 -22 9 -74 33 -115 53
-41 20 -104 54 -140 76 -36 21 -96 60 -135 86 -38 25 -83 51 -100 58 -16 6
-49 16 -73 22 l-43 11 -57 -12 -57 -13 -47 -25 c-25 -14 -67 -44 -94 -66 -26
-22 -68 -55 -93 -73 -25 -17 -85 -59 -133 -92 -48 -33 -89 -60 -92 -60 -2 0
-33 -17 -67 -38 -35 -21 -107 -59 -159 -84 -52 -25 -113 -54 -135 -63 -22 -9
-50 -21 -62 -26 -13 -5 -33 -13 -45 -18 -13 -6 -63 -23 -113 -39 -49 -17 -130
-40 -180 -51 -49 -12 -108 -26 -130 -31 -22 -5 -76 -15 -120 -22 l-80 -13
-250 0 -250 0 -65 13 c-36 7 -85 18 -110 23 -25 6 -63 15 -85 21 -22 6 -49 14
-60 18 -11 5 -47 18 -80 31 -33 12 -87 36 -120 52 -33 16 -94 52 -135 80 l-75
50 -76 76 c-41 42 -94 104 -117 137 -22 34 -55 76 -73 93 -17 18 -48 40 -68
50 -20 10 -60 24 -89 32 l-53 13 -57 -16 c-31 -9 -97 -31 -147 -49 -49 -17
-103 -35 -120 -40 -16 -4 -64 -17 -105 -29 -41 -12 -97 -27 -125 -34 -27 -7
-77 -19 -110 -25 -33 -7 -78 -17 -100 -21 -22 -5 -69 -13 -105 -19 -36 -5 -99
-14 -140 -20 -41 -6 -150 -16 -241 -22 l-166 -11 -159 11 c-88 6 -193 16 -234
22 -41 6 -106 18 -145 26 -38 8 -86 18 -105 22 -19 5 -71 21 -115 35 -44 15
-118 46 -165 68 -47 23 -125 68 -174 101 l-90 60 -66 66 -67 67 -49 75 c-27
40 -59 94 -71 119 -12 25 -30 72 -41 105 -10 33 -24 87 -31 121 l-11 60 0 95
0 94 15 75 c8 41 22 100 31 130 9 30 31 86 49 125 18 38 55 102 82 142 26 39
66 91 87 115 22 23 71 77 110 118 39 42 96 102 126 135 30 33 96 107 146 165
49 58 135 161 190 230 55 69 125 157 154 195 30 39 97 126 148 195 52 69 103
138 115 153 12 16 36 50 54 75 18 26 69 99 112 162 44 63 90 131 103 150 14
19 60 89 103 155 43 66 100 155 127 198 26 42 71 114 99 160 29 45 60 96 69
112 10 17 36 61 60 99 23 38 51 85 62 105 12 20 33 59 49 86 l28 50 63 -2 c35
-1 149 -5 253 -9 l190 -7 115 12 c63 6 142 16 175 22 33 5 85 15 115 20 30 6
73 15 95 21 22 5 49 14 60 18 l20 8 11 -7z m-2926 -1568 c30 -2 75 -10 99 -16
l44 -12 5 -14 5 -13 -9 -7 c-5 -3 -29 -31 -54 -61 -25 -30 -47 -57 -50 -60 -3
-3 -25 -30 -50 -60 -25 -30 -69 -82 -100 -115 -30 -33 -100 -107 -156 -165
-55 -58 -117 -123 -137 -145 l-36 -40 -15 20 c-8 11 -22 43 -31 70 l-17 50 -5
68 -6 69 13 56 c7 31 26 84 42 118 l28 60 46 47 c25 26 64 60 87 76 23 16 65
37 92 46 28 10 73 21 100 25 28 4 75 6 105 3z m12098 -1039 c26 -3 61 -10 77
-16 17 -5 41 -15 55 -21 14 -6 45 -25 70 -41 25 -17 54 -39 65 -51 12 -11 34
-40 51 -65 17 -25 38 -62 48 -83 9 -21 24 -63 32 -93 l14 -55 0 -54 0 -54 -15
-56 c-8 -31 -26 -81 -41 -110 l-26 -54 -55 -55 -55 -54 -60 -32 c-34 -17 -63
-28 -66 -25 -3 3 0 40 6 83 7 42 12 114 12 160 0 46 -5 116 -10 155 -6 40 -16
97 -22 127 -5 30 -19 84 -29 120 -11 36 -24 75 -29 88 -6 12 -14 32 -19 45 -5
12 -20 46 -34 76 -14 30 -24 58 -21 63 l5 7 47 -5z m-6076 -2015 c4 1 13 -5
20 -11 8 -7 25 -19 38 -27 14 -8 70 -37 125 -65 55 -28 130 -64 165 -80 36
-15 84 -37 107 -47 24 -10 49 -19 56 -19 8 0 17 -3 20 -7 4 -3 31 -15 59 -25
29 -11 71 -25 93 -32 22 -7 60 -19 85 -26 25 -7 56 -16 70 -20 14 -4 43 -12
65 -18 22 -6 58 -15 80 -20 22 -6 65 -15 95 -21 30 -6 84 -17 120 -24 l65 -14
-4 -14 c-2 -8 -7 -45 -12 -84 -5 -38 -13 -106 -19 -150 -6 -44 -15 -114 -20
-155 -6 -41 -15 -113 -20 -160 -5 -47 -14 -119 -20 -160 -5 -41 -14 -106 -19
-144 l-9 -68 -12 -12 -11 -11 -1067 -3 -1067 -2 -94 7 -94 8 -12 55 c-7 30
-17 98 -24 150 -6 52 -16 124 -21 160 -4 36 -14 106 -20 155 -6 50 -15 114
-21 144 -5 30 -9 71 -9 91 l0 36 63 14 c34 7 71 17 82 21 11 4 40 13 65 19 25
7 86 26 135 42 50 16 99 33 110 38 11 4 36 14 55 21 19 7 60 23 90 37 30 13
98 44 150 70 52 25 124 63 159 84 34 21 65 38 67 38 3 0 57 36 122 80 64 43
137 95 162 114 25 19 48 35 52 35z"/>
<path d="M8515 17645 l-130 4 -50 -9 c-27 -4 -66 -13 -85 -18 -19 -6 -46 -14
-60 -18 -14 -4 -59 -25 -100 -45 -41 -21 -104 -62 -140 -90 l-65 -52 -59 -71
c-32 -39 -70 -94 -85 -122 -14 -28 -34 -68 -43 -90 -9 -21 -27 -75 -39 -119
l-22 -80 0 -135 -1 -135 13 -55 c8 -30 18 -68 23 -85 6 -16 19 -49 29 -72 11
-24 19 -45 19 -48 0 -3 23 -40 51 -83 l51 -77 56 -54 c31 -29 88 -74 127 -100
38 -26 87 -55 108 -65 20 -9 72 -28 115 -41 42 -13 114 -29 159 -35 l82 -12
88 12 c48 6 99 15 113 19 14 5 45 15 70 22 25 7 72 26 104 42 33 16 80 43 105
59 26 17 78 63 117 102 39 39 89 98 110 131 22 33 49 80 61 105 12 25 30 72
41 105 10 33 24 81 30 108 l12 47 0 108 0 107 -14 65 c-8 36 -22 88 -31 115
-9 28 -35 84 -56 125 -22 41 -54 93 -71 115 -18 22 -55 63 -83 90 -27 28 -65
62 -84 75 -18 14 -59 39 -91 56 -32 18 -86 41 -121 53 -35 12 -77 26 -94 32
l-30 10 -130 4z m-47 -266 l83 1 47 -11 c26 -6 56 -14 67 -19 11 -4 50 -22 86
-39 l65 -32 70 -72 70 -72 31 -65 c18 -36 38 -83 45 -105 l13 -40 0 -120 0
-120 -24 -65 c-13 -36 -36 -88 -52 -116 -16 -28 -47 -72 -70 -98 -23 -25 -60
-59 -83 -75 -22 -16 -57 -37 -76 -48 -19 -10 -55 -25 -80 -32 -25 -7 -58 -17
-74 -22 -16 -5 -64 -9 -107 -9 l-78 0 -53 14 c-29 8 -73 22 -98 32 -25 9 -70
35 -101 55 l-57 38 -44 53 c-25 29 -54 67 -65 83 -11 17 -28 50 -37 75 -10 25
-24 69 -32 98 l-14 53 0 88 0 88 21 64 c11 35 35 91 52 124 l31 60 67 66 66
67 74 36 c41 20 97 43 124 50 l50 14 83 1z"/>
<path d="M12775 8999 c-49 -1 -115 -6 -145 -11 -30 -5 -73 -14 -95 -20 -22 -6
-67 -19 -100 -30 -33 -11 -76 -26 -95 -35 -19 -8 -57 -26 -85 -40 -27 -14 -79
-46 -115 -71 -36 -25 -99 -80 -141 -122 l-76 -76 -50 -75 c-28 -40 -62 -96
-76 -124 -14 -27 -32 -66 -40 -85 -8 -19 -19 -48 -25 -65 -5 -16 -14 -48 -20
-70 -6 -22 -17 -62 -24 -90 l-12 -50 0 -160 0 -160 12 -55 c7 -30 18 -73 24
-95 6 -22 24 -76 41 -120 17 -44 43 -101 59 -128 15 -26 42 -69 61 -96 18 -27
55 -75 82 -107 28 -31 88 -88 135 -126 l85 -68 100 -50 c55 -27 127 -58 160
-68 33 -11 85 -24 115 -31 30 -6 85 -15 121 -21 36 -5 88 -10 116 -10 27 0 92
7 144 15 52 8 110 19 129 24 19 5 60 17 90 27 30 10 98 40 150 67 52 27 97 52
100 56 3 4 26 22 52 39 26 18 76 60 111 95 35 35 89 96 119 137 31 41 74 111
97 155 22 44 51 114 65 155 14 41 32 109 40 150 l16 75 0 137 0 136 -11 54
c-6 29 -15 71 -21 93 -6 22 -20 67 -31 100 -11 33 -37 94 -57 136 -21 42 -63
110 -93 150 -31 41 -73 92 -94 114 -21 22 -56 56 -78 75 -23 19 -55 45 -72 58
-17 13 -46 32 -64 43 -19 10 -68 35 -109 55 -41 20 -84 40 -95 44 -11 5 -31
11 -45 15 -14 3 -41 11 -60 16 -19 5 -73 16 -120 24 l-85 15 -90 -1z m50 -294
l130 -3 25 -10 c14 -5 45 -16 70 -23 25 -7 72 -26 105 -42 33 -16 85 -47 115
-67 30 -21 80 -64 111 -97 31 -32 75 -85 97 -118 22 -33 52 -87 67 -120 15
-33 32 -73 37 -90 5 -16 16 -59 24 -95 l14 -65 0 -100 0 -100 -14 -65 c-8 -36
-22 -87 -31 -115 -9 -27 -35 -84 -56 -125 -22 -41 -52 -90 -67 -109 -15 -19
-45 -54 -66 -78 -22 -24 -67 -64 -100 -90 -34 -25 -95 -61 -136 -80 -41 -20
-84 -39 -95 -43 -11 -5 -31 -11 -45 -15 -14 -3 -68 -12 -120 -20 l-95 -14 -85
10 c-47 5 -98 13 -115 18 -16 4 -50 14 -75 22 -25 7 -70 26 -100 42 -30 17
-64 35 -75 41 -11 6 -38 24 -60 40 -22 17 -64 55 -93 85 -30 30 -71 80 -91
110 -21 31 -47 74 -58 96 -12 22 -28 63 -38 90 -9 28 -24 75 -32 105 l-15 55
-1 130 -1 130 13 55 c7 30 17 69 23 85 6 17 23 58 39 93 16 35 47 89 68 120
21 31 58 77 82 102 24 25 67 63 94 85 28 22 61 46 74 53 13 8 39 22 57 33 18
10 68 30 111 45 43 14 101 30 128 35 l50 8 130 -4z"/>
<path d="M5830 8939 c-30 -1 -82 -6 -115 -11 -33 -5 -85 -13 -115 -19 -30 -6
-66 -15 -80 -19 -14 -4 -45 -13 -70 -21 -25 -7 -49 -16 -54 -21 -6 -4 -16 -8
-23 -8 -8 0 -46 -16 -86 -35 -40 -19 -93 -48 -119 -63 -26 -15 -76 -47 -110
-72 -35 -24 -103 -85 -153 -135 -49 -49 -110 -118 -135 -153 -25 -34 -57 -84
-72 -110 -16 -26 -37 -67 -49 -92 -12 -25 -27 -58 -34 -75 -7 -16 -22 -57 -33
-90 -11 -33 -24 -78 -30 -100 -6 -22 -17 -65 -24 -95 l-13 -55 0 -190 1 -190
12 -55 c7 -30 18 -73 24 -95 6 -22 19 -67 30 -100 11 -33 28 -79 39 -102 10
-24 19 -45 19 -48 0 -3 18 -35 40 -71 22 -36 40 -68 40 -71 0 -3 25 -38 55
-79 31 -40 91 -109 134 -151 43 -43 113 -103 157 -134 43 -31 113 -74 154 -96
41 -21 107 -52 145 -67 39 -16 85 -33 103 -37 17 -5 49 -14 70 -19 20 -6 73
-17 117 -25 l80 -15 127 0 126 0 54 11 c29 5 76 15 103 21 28 5 83 21 124 35
41 13 100 35 130 49 31 14 88 44 126 67 39 23 89 56 113 74 23 18 67 54 97 80
31 26 84 82 119 123 35 41 86 109 114 151 28 42 70 116 93 165 23 49 45 98 49
109 4 11 13 34 18 50 6 17 20 68 31 115 11 47 25 138 32 202 l13 116 -13 114
c-7 62 -20 142 -28 177 -8 35 -26 98 -39 140 -14 42 -44 113 -66 159 -22 45
-58 111 -81 145 -22 34 -66 94 -97 133 -32 38 -86 96 -120 127 -34 32 -101 84
-149 116 -47 32 -124 76 -171 98 -47 23 -107 49 -135 58 -27 10 -66 22 -85 27
-19 5 -53 14 -75 19 -22 5 -89 16 -150 24 -60 8 -135 14 -165 14z m15 -280
l100 1 75 -15 c41 -7 91 -18 110 -23 19 -5 55 -17 80 -25 25 -9 77 -32 115
-51 39 -18 102 -57 141 -84 39 -28 102 -82 141 -121 39 -39 93 -104 121 -144
27 -40 63 -99 80 -132 17 -33 42 -95 56 -137 14 -42 32 -110 41 -150 l15 -73
0 -118 0 -118 -10 -47 c-6 -26 -15 -69 -21 -97 -6 -27 -15 -63 -21 -80 -5 -16
-14 -39 -18 -50 -4 -11 -22 -50 -39 -88 -17 -37 -57 -107 -90 -155 l-59 -87
-73 -71 c-41 -39 -101 -89 -135 -112 -34 -22 -82 -52 -106 -66 -25 -14 -70
-35 -99 -47 -30 -12 -70 -26 -89 -31 -19 -5 -64 -15 -100 -23 l-65 -15 -142 0
-142 0 -63 15 c-35 8 -92 24 -128 35 -35 11 -89 32 -119 47 -31 15 -95 53
-143 85 l-87 58 -72 72 c-39 39 -90 99 -114 132 -24 34 -61 97 -83 141 -22 44
-48 103 -57 130 -9 28 -23 73 -30 100 -7 28 -19 99 -25 158 l-13 108 13 102
c7 56 18 125 25 152 7 28 21 73 30 100 9 28 29 78 45 112 16 35 51 96 77 135
l47 73 81 81 80 80 77 52 c42 29 108 66 145 83 37 17 77 35 88 39 11 4 34 13
50 18 17 6 53 16 80 22 28 6 68 15 90 19 22 5 85 9 140 10z"/>
</g>
</svg>
