<?xml version="1.0" standalone="no"?>
<!DOCTYPE svg PUBLIC "-//W3C//DTD SVG 20010904//EN"
 "http://www.w3.org/TR/2001/REC-SVG-20010904/DTD/svg10.dtd">
<svg version="1.0" xmlns="http://www.w3.org/2000/svg"
 width="1350.900682pt" height="2020.025374pt" viewBox="0 0 1350.900682 2020.025374"
 preserveAspectRatio="xMidYMid meet">
<metadata>
Created by potrace 1.16, written by Peter Selinger 2001-2019
</metadata>
<g transform="translate(-229.500000,2279.848222) scale(0.100000,-0.100000)"
fill="#000000" stroke="none">
<path d="M8960 22798 c-19 0 -55 -5 -80 -12 -25 -6 -67 -22 -93 -35 -26 -14
-66 -43 -88 -64 l-40 -40 -73 -151 c-41 -83 -87 -180 -104 -216 -16 -36 -44
-95 -61 -132 -17 -38 -45 -98 -62 -135 -17 -38 -45 -97 -61 -133 -17 -36 -43
-92 -58 -125 -15 -33 -36 -78 -46 -100 -9 -22 -25 -51 -35 -65 l-17 -26 -94
-13 c-51 -6 -120 -16 -153 -21 -33 -5 -100 -14 -150 -20 -49 -6 -121 -15 -160
-20 -38 -5 -106 -14 -150 -19 -44 -6 -120 -15 -170 -21 -49 -6 -119 -16 -155
-22 l-65 -10 -62 -29 -61 -29 -49 -54 c-28 -30 -58 -70 -67 -90 -10 -20 -24
-62 -32 -92 -8 -30 -14 -76 -13 -102 l0 -47 22 -62 22 -63 39 -52 c22 -29 76
-86 120 -127 45 -41 119 -111 166 -155 47 -44 119 -111 160 -150 41 -39 141
-134 223 -210 l147 -139 5 -21 c3 -12 1 -43 -4 -71 -5 -27 -25 -131 -45 -230
-20 -99 -40 -198 -45 -220 -5 -22 -14 -65 -20 -95 -6 -30 -18 -91 -27 -135 -9
-44 -20 -98 -24 -120 -5 -22 -13 -69 -20 -105 l-12 -65 7 -64 6 -64 30 -63 30
-63 48 -44 48 -45 49 -23 c27 -12 78 -28 114 -34 l65 -13 60 11 60 11 133 67
c72 37 132 65 132 62 0 -2 -21 -39 -47 -81 -25 -42 -68 -110 -95 -150 -27 -40
-90 -128 -140 -195 -50 -67 -119 -156 -152 -197 -33 -41 -101 -122 -150 -180
-50 -58 -97 -112 -106 -120 -8 -8 -42 -44 -74 -80 -33 -36 -292 -299 -576
-585 l-517 -520 -71 -94 c-40 -51 -92 -130 -116 -175 -24 -44 -52 -103 -61
-131 -10 -27 -24 -81 -31 -120 -8 -38 -14 -91 -14 -117 0 -25 5 -70 11 -100 6
-29 15 -69 20 -88 6 -19 20 -60 32 -90 11 -30 38 -82 60 -115 22 -33 60 -82
86 -108 25 -27 72 -67 105 -89 32 -22 83 -53 113 -69 30 -16 61 -29 69 -29 8
0 14 -4 14 -9 0 -4 -14 -26 -31 -47 -17 -21 -52 -61 -78 -89 -27 -27 -79 -79
-117 -115 -38 -36 -87 -81 -109 -100 -22 -20 -78 -66 -125 -103 -47 -38 -92
-74 -100 -80 -8 -7 -31 -23 -50 -37 -19 -13 -37 -27 -40 -30 -3 -3 -21 -17
-40 -30 -19 -13 -37 -27 -40 -30 -3 -3 -52 -39 -110 -80 -58 -41 -107 -77
-110 -80 -3 -4 -32 -25 -65 -48 -33 -23 -85 -60 -115 -82 -30 -22 -82 -59
-115 -82 -33 -23 -62 -44 -65 -48 -3 -3 -21 -17 -40 -30 -19 -14 -42 -30 -50
-37 -8 -6 -51 -41 -95 -76 -44 -35 -114 -100 -156 -144 -42 -44 -99 -113 -126
-154 -27 -41 -59 -96 -72 -124 -13 -27 -27 -59 -31 -70 -5 -11 -13 -33 -18
-50 -6 -16 -16 -52 -24 -80 l-13 -50 0 -155 0 -155 14 -50 c7 -27 17 -63 23
-80 5 -16 13 -39 18 -50 4 -11 18 -42 31 -70 13 -27 41 -77 62 -109 22 -32 69
-89 106 -126 36 -36 84 -79 106 -96 22 -16 42 -32 45 -35 3 -4 25 -19 50 -33
25 -15 86 -47 137 -71 51 -25 98 -45 106 -45 7 0 17 -4 22 -8 6 -5 44 -19 85
-31 41 -12 81 -24 88 -27 l13 -4 -23 -23 c-13 -12 -73 -67 -133 -122 -61 -55
-176 -154 -255 -221 -80 -66 -172 -142 -205 -168 -33 -26 -67 -53 -75 -59 -8
-7 -62 -47 -120 -90 -58 -43 -116 -87 -130 -97 -14 -11 -68 -50 -121 -87 -53
-37 -118 -84 -145 -103 -27 -19 -92 -64 -144 -100 -52 -37 -133 -93 -180 -125
-47 -32 -107 -75 -135 -95 -27 -20 -77 -56 -110 -81 -33 -24 -62 -46 -65 -50
-3 -3 -14 -12 -26 -20 -12 -8 -45 -34 -75 -59 -30 -24 -99 -89 -154 -145 -55
-55 -110 -112 -121 -126 -12 -14 -39 -52 -61 -85 -22 -32 -56 -93 -77 -135
-20 -42 -41 -92 -47 -110 -6 -19 -15 -50 -20 -69 -5 -19 -16 -71 -24 -115
l-15 -80 0 -85 0 -85 15 -75 c7 -41 18 -91 23 -110 5 -19 17 -57 26 -85 10
-27 31 -79 49 -115 17 -36 58 -105 91 -155 l59 -90 101 -100 101 -101 90 -61
c50 -33 110 -72 135 -87 25 -14 68 -36 95 -50 28 -13 71 -33 97 -45 26 -11 54
-21 62 -21 8 0 18 -4 21 -10 3 -5 15 -10 26 -10 10 0 27 -4 37 -9 9 -5 33 -13
52 -19 19 -5 56 -16 83 -23 26 -7 47 -16 47 -19 0 -3 -138 -108 -307 -235
-169 -126 -311 -234 -317 -240 -6 -5 -27 -22 -48 -37 -20 -15 -42 -34 -50 -41
-7 -7 -22 -19 -34 -27 -12 -8 -43 -34 -70 -56 -27 -23 -92 -77 -144 -120 -52
-43 -117 -99 -145 -123 -27 -25 -133 -128 -235 -231 -102 -102 -200 -203 -217
-225 -18 -22 -52 -65 -76 -96 -25 -30 -76 -102 -114 -160 l-70 -104 -53 -110
c-29 -60 -56 -119 -61 -130 -4 -11 -16 -47 -27 -80 -11 -33 -25 -82 -32 -110
-6 -27 -17 -70 -23 -95 l-12 -45 0 -195 0 -195 13 -55 c7 -30 18 -73 24 -95 6
-22 19 -65 30 -95 11 -30 38 -93 60 -139 23 -46 68 -125 102 -175 l60 -91 111
-111 c60 -62 145 -139 189 -173 43 -34 104 -79 136 -101 31 -21 73 -48 93 -59
20 -12 54 -31 75 -42 20 -12 66 -36 102 -54 36 -18 86 -42 111 -53 25 -12 70
-31 100 -42 30 -12 106 -39 169 -60 63 -21 144 -45 180 -55 36 -9 81 -20 100
-25 19 -5 62 -14 95 -20 33 -7 80 -16 105 -20 25 -5 81 -14 125 -19 44 -6 115
-15 158 -21 l78 -10 307 0 307 0 85 10 c47 6 121 15 165 21 44 5 107 14 140
20 33 6 83 15 110 20 28 6 68 14 90 19 22 5 87 21 145 35 58 13 152 39 210 56
58 17 119 34 135 39 17 4 93 29 170 54 77 26 149 51 160 55 11 5 37 17 58 26
l38 17 19 -14 c10 -7 60 -45 112 -84 51 -39 134 -98 183 -131 50 -33 124 -80
165 -105 41 -25 100 -59 131 -76 30 -17 98 -51 150 -77 52 -25 101 -50 109
-54 l15 -8 2 -429 2 -429 11 -85 c7 -47 16 -101 22 -120 6 -19 24 -63 41 -97
16 -35 45 -81 65 -103 19 -23 60 -58 91 -79 31 -20 76 -45 101 -55 25 -10 63
-24 85 -31 22 -7 60 -17 85 -23 25 -6 68 -16 95 -21 28 -6 82 -15 120 -20 39
-6 113 -15 165 -21 52 -5 151 -15 220 -21 l125 -11 379 0 378 0 107 11 c58 6
149 16 201 22 52 5 122 14 155 20 33 6 79 15 103 20 23 5 63 14 90 20 26 6 67
18 91 26 24 7 63 22 86 33 24 11 65 36 91 56 27 21 61 51 76 68 15 17 43 63
62 101 19 39 39 84 44 100 6 17 15 57 21 90 5 33 13 103 17 155 4 52 9 268 13
479 l6 385 50 26 c28 14 75 40 105 57 30 16 71 39 90 50 19 11 67 40 105 63
39 24 97 61 130 84 33 22 80 55 105 74 25 18 61 46 80 60 19 15 49 40 68 56
l34 30 19 -12 c10 -7 26 -12 34 -12 8 0 23 -4 33 -9 9 -5 69 -26 132 -46 63
-21 129 -41 145 -45 17 -5 59 -17 95 -28 36 -12 97 -30 135 -42 39 -12 85 -26
103 -31 17 -5 49 -14 70 -20 20 -6 54 -15 75 -20 20 -5 54 -13 75 -19 20 -5
60 -14 87 -20 28 -7 68 -16 90 -22 22 -5 58 -13 80 -17 22 -5 78 -16 125 -25
47 -9 108 -21 135 -26 28 -5 82 -13 120 -19 39 -5 113 -15 165 -20 52 -6 139
-16 192 -21 53 -6 170 -10 260 -10 90 0 213 5 273 10 61 6 146 15 190 21 44 6
105 15 135 21 30 5 73 14 95 18 22 5 72 17 110 26 39 9 131 36 205 61 l135 44
120 59 c66 32 151 77 188 99 37 23 89 57 115 77 26 19 65 50 87 67 22 17 69
59 104 92 35 33 89 92 120 130 32 39 76 98 99 131 23 34 59 99 82 145 22 46
53 122 69 169 16 47 33 105 39 130 6 25 16 74 23 110 l13 65 -1 170 0 170 -16
85 c-9 47 -23 112 -32 145 -9 33 -22 78 -30 100 -7 22 -26 72 -41 110 -15 39
-44 102 -64 140 -20 39 -47 88 -59 110 -13 22 -63 98 -111 170 -49 71 -128
177 -176 235 -48 58 -167 184 -263 280 -97 97 -198 196 -226 221 -27 24 -95
83 -150 130 -55 48 -172 144 -261 215 -88 71 -176 140 -194 154 -18 14 -56 43
-84 65 -28 22 -78 61 -111 85 -33 25 -65 50 -71 55 -6 6 -54 42 -107 80 -52
39 -96 73 -96 78 -1 4 9 7 21 7 12 0 35 5 52 10 17 6 65 21 107 34 41 14 107
37 145 52 37 16 109 49 159 74 49 26 115 62 145 81 30 19 57 36 60 40 3 3 27
20 54 39 27 18 93 76 146 129 l97 96 52 78 c29 43 69 112 91 155 21 42 47 104
58 137 10 33 24 78 30 100 6 22 17 65 23 95 l13 55 -1 155 -1 155 -16 65 c-8
36 -19 81 -24 100 -5 19 -19 60 -31 90 -12 30 -34 80 -49 110 -14 30 -55 100
-91 155 l-66 100 -135 136 -135 135 -101 75 c-56 41 -152 109 -215 152 -63 43
-168 112 -234 154 -66 42 -154 97 -195 123 -41 26 -106 66 -145 90 -38 24
-113 70 -165 103 -52 33 -142 90 -200 127 -58 37 -157 101 -220 143 -63 42
-151 101 -195 132 -44 30 -90 64 -103 74 -12 10 -65 49 -117 87 -51 38 -94 72
-94 76 -1 3 16 11 37 18 20 6 69 20 107 32 39 12 74 25 80 30 5 4 16 8 25 8 8
0 59 22 112 49 53 27 125 68 160 92 35 23 96 74 136 113 41 39 91 97 113 128
22 32 52 81 68 110 16 29 41 89 56 133 l27 80 14 105 15 105 -11 90 c-6 50
-20 119 -31 155 -11 36 -28 83 -37 104 -9 22 -28 61 -42 88 -14 27 -46 76 -70
109 -24 33 -85 99 -135 147 -50 48 -133 119 -185 158 -52 38 -133 97 -180 131
-47 33 -148 102 -225 153 -77 51 -142 96 -145 100 -3 4 -34 26 -69 50 -35 24
-130 93 -210 153 -80 61 -180 137 -221 171 -41 33 -85 70 -97 81 -13 11 -62
56 -110 100 -49 44 -124 120 -168 168 -44 49 -79 92 -77 95 1 4 13 10 27 13
13 4 50 20 82 35 32 15 85 46 118 67 33 22 84 63 113 91 30 28 71 76 91 106
21 30 45 72 55 94 10 21 23 53 28 70 5 17 16 63 24 101 8 39 14 88 14 110 0
22 -6 72 -14 110 -8 39 -19 84 -24 100 -5 17 -18 50 -28 75 -9 25 -40 78 -67
119 l-50 74 -81 82 c-45 45 -110 106 -146 136 -36 30 -67 56 -70 59 -3 3 -30
25 -60 50 -30 25 -57 47 -60 50 -3 3 -30 25 -60 50 -30 25 -57 47 -60 50 -3 3
-30 25 -60 50 -30 25 -57 47 -60 50 -3 3 -48 43 -100 90 -52 47 -139 130 -195
185 -55 56 -134 137 -175 180 -41 44 -106 116 -145 160 -38 45 -90 105 -115
134 -25 30 -51 63 -59 75 -8 12 -17 23 -20 26 -3 3 -27 32 -52 65 -25 33 -75
101 -110 150 -35 50 -76 108 -90 130 -15 22 -44 67 -64 100 -21 33 -78 127
-127 209 -49 81 -87 150 -84 153 2 3 32 -11 66 -31 33 -20 67 -36 74 -36 6 0
16 -4 22 -8 5 -5 29 -15 54 -23 l45 -14 85 1 85 0 65 32 65 31 35 33 c20 18
45 47 57 63 11 17 30 57 42 91 l21 60 0 73 c0 40 -4 91 -9 114 -6 23 -19 94
-31 157 -12 63 -25 133 -30 155 -5 22 -14 67 -20 100 -6 33 -15 78 -20 100 -5
22 -14 69 -20 105 -6 36 -16 88 -21 115 -6 28 -14 70 -19 95 -5 25 -12 62 -15
84 l-6 38 78 77 c43 42 105 101 138 131 33 30 130 120 215 200 85 80 182 170
215 200 33 30 87 82 121 115 33 33 70 74 81 90 11 17 30 57 42 91 l21 60 0 60
0 59 -14 46 c-8 25 -23 66 -34 90 l-21 45 -55 52 -56 53 -52 23 -53 23 -80 11
c-44 6 -120 16 -170 22 -49 6 -126 15 -170 21 -44 5 -109 14 -145 19 -36 5
-101 14 -145 20 -44 6 -109 15 -145 20 -36 5 -103 14 -150 20 -47 7 -91 15
-99 19 -8 4 -18 14 -23 22 -4 8 -20 41 -34 74 -14 33 -39 87 -54 120 -15 33
-44 95 -64 137 -20 43 -36 79 -36 82 0 2 -21 48 -46 103 -25 54 -58 125 -74
158 -15 33 -38 83 -50 110 -12 28 -46 100 -76 161 l-54 112 -44 40 c-24 22
-64 51 -88 63 -23 12 -68 28 -98 35 -30 7 -71 13 -90 12z m12 -318 l18 0 20
-20 c10 -10 29 -41 41 -67 11 -26 34 -75 49 -108 15 -33 46 -98 67 -145 22
-47 48 -103 58 -125 9 -22 28 -62 40 -90 13 -27 36 -79 53 -115 16 -36 42 -91
56 -122 14 -32 42 -93 62 -135 20 -43 47 -101 60 -129 l25 -51 39 -39 c21 -21
53 -46 72 -55 18 -9 49 -21 69 -28 19 -6 49 -11 66 -11 18 0 53 -4 80 -10 26
-5 89 -14 138 -20 50 -6 117 -15 150 -20 33 -5 101 -14 150 -20 50 -6 117 -15
150 -20 33 -5 105 -14 160 -20 55 -6 129 -15 164 -20 l63 -9 19 -17 19 -17 0
-32 0 -32 -93 -89 c-51 -49 -140 -132 -197 -184 -58 -52 -112 -102 -120 -110
-9 -8 -47 -44 -85 -80 -39 -36 -135 -126 -214 -200 l-144 -135 -23 -52 -23
-52 -6 -63 -6 -63 10 -65 c6 -36 15 -87 21 -115 5 -27 14 -77 20 -110 7 -33
16 -78 20 -100 4 -22 13 -67 19 -100 7 -33 17 -85 22 -115 6 -30 15 -73 19
-95 4 -22 13 -67 20 -100 7 -33 16 -80 21 -105 5 -25 12 -74 16 -109 l6 -64
-24 -18 c-13 -10 -32 -19 -41 -19 -10 0 -37 11 -60 24 -24 13 -69 37 -100 55
-32 17 -82 44 -110 60 -29 16 -84 46 -123 66 -38 21 -92 50 -120 65 -27 15
-75 41 -105 57 -30 17 -75 41 -100 55 -25 14 -70 39 -100 55 -30 17 -84 46
-120 64 -36 19 -81 40 -101 47 -19 6 -48 12 -64 12 -15 0 -46 -5 -69 -12 -22
-7 -56 -20 -73 -30 -18 -10 -50 -28 -70 -40 -21 -11 -60 -33 -88 -48 -27 -15
-81 -44 -120 -65 -38 -20 -92 -50 -120 -65 -27 -15 -76 -42 -108 -59 -32 -18
-97 -53 -145 -78 -48 -25 -118 -62 -157 -83 -38 -20 -87 -46 -108 -58 -21 -12
-48 -22 -60 -22 l-23 0 -22 20 -22 21 0 20 c0 11 7 55 15 97 8 42 20 102 26
132 6 30 14 73 19 95 5 22 13 65 19 95 6 30 18 91 27 135 9 44 20 98 24 120 5
22 13 67 20 100 7 33 16 80 21 105 5 25 14 79 20 120 l11 75 -7 50 c-3 27 -12
68 -18 90 l-12 40 -80 80 c-44 44 -129 128 -190 185 -60 58 -191 182 -290 276
-99 93 -210 199 -247 234 l-68 63 0 26 c0 14 6 33 13 42 7 9 21 19 32 22 11 4
63 12 115 17 52 6 127 15 165 20 39 5 108 14 155 19 47 6 119 16 160 21 41 6
109 14 150 20 41 5 111 14 155 20 44 6 107 15 140 20 33 5 74 12 90 16 17 4
49 20 72 36 23 16 54 43 67 61 14 18 48 82 76 142 29 61 71 151 95 200 24 50
62 131 85 180 23 50 55 118 71 153 16 34 42 90 58 125 16 34 40 87 54 117 13
30 37 81 51 112 15 32 36 67 48 78 12 11 30 20 40 20z m-5 -3401 c1 1 65 -31
143 -71 l141 -72 21 -46 c11 -25 35 -76 53 -115 18 -38 49 -104 69 -145 20
-41 55 -111 79 -155 24 -44 53 -96 64 -116 12 -20 40 -66 62 -103 23 -36 60
-96 82 -133 23 -38 56 -88 72 -113 17 -25 34 -47 37 -50 4 -3 26 -34 50 -70
24 -36 71 -101 104 -145 34 -44 63 -82 66 -85 3 -3 21 -25 40 -50 19 -25 37
-47 40 -50 3 -3 20 -23 39 -45 19 -22 64 -74 100 -115 36 -41 92 -102 123
-134 32 -33 58 -61 58 -63 0 -1 -88 -3 -195 -3 l-194 0 -78 10 c-43 6 -107 15
-143 20 -36 6 -90 15 -120 21 -30 6 -75 15 -100 20 -25 6 -61 14 -80 19 -19 5
-55 14 -80 21 -25 6 -70 19 -100 29 -30 9 -86 27 -125 39 -38 12 -79 26 -90
31 -11 4 -69 27 -130 51 -60 24 -175 76 -255 116 -80 40 -165 85 -190 100 -25
14 -55 32 -68 38 -12 7 -89 57 -172 111 l-150 99 0 13 c0 7 15 32 33 55 17 23
35 44 38 47 3 3 25 34 49 70 24 36 46 67 50 70 4 3 44 60 88 127 45 67 82 125
82 128 0 4 14 26 30 50 17 24 30 46 30 48 0 3 18 35 40 71 22 36 74 134 115
218 l74 153 38 17 c21 10 65 33 98 52 33 19 61 35 62 35z m-1041 -1399 c7 0
14 -4 16 -8 2 -5 65 -50 142 -101 76 -51 161 -106 190 -123 28 -17 67 -40 86
-51 19 -11 60 -33 90 -50 30 -16 64 -35 75 -41 11 -6 26 -15 33 -19 l13 -8
-51 -46 -51 -45 -20 -46 c-12 -25 -27 -66 -35 -91 l-14 -46 0 -75 1 -75 13
-55 c8 -30 17 -64 21 -75 4 -11 10 -29 15 -40 4 -11 15 -37 25 -58 9 -21 31
-52 49 -71 l34 -33 37 -6 c20 -3 51 -4 69 -1 17 3 45 10 61 16 17 5 50 20 75
31 25 12 72 39 105 61 32 22 79 60 103 84 l43 45 23 46 c13 25 29 67 36 94
l13 47 -6 60 -5 60 13 0 c8 0 16 -4 19 -9 3 -5 18 -11 33 -14 16 -3 45 -10 66
-16 20 -6 52 -15 70 -20 17 -5 61 -17 97 -26 36 -9 83 -20 105 -25 22 -5 63
-14 90 -19 28 -6 75 -15 105 -20 30 -6 78 -13 105 -16 28 -4 59 -9 71 -11 l21
-5 -34 -69 -35 -69 0 -81 0 -80 12 -37 c6 -21 25 -66 42 -99 l30 -62 64 -70
65 -71 53 -30 53 -31 36 0 35 0 42 22 41 22 47 51 c26 28 54 60 63 72 9 11 30
46 48 77 17 31 40 84 51 118 l20 61 0 61 0 61 -13 35 c-6 20 -20 48 -30 63 -9
14 -17 31 -17 37 l0 10 33 1 c17 0 73 4 122 9 l90 8 12 -7 c6 -3 38 -31 70
-61 32 -31 87 -80 123 -110 36 -30 67 -57 70 -60 3 -3 62 -54 132 -113 69 -58
132 -112 140 -119 7 -7 48 -44 90 -81 l77 -68 51 -67 c27 -37 60 -87 72 -112
l22 -45 0 -95 0 -95 -23 -48 c-13 -26 -43 -69 -67 -96 l-43 -48 -73 -36 c-40
-20 -93 -42 -118 -50 -25 -8 -70 -19 -100 -26 -30 -6 -100 -15 -155 -20 l-100
-9 -150 14 c-83 8 -166 17 -185 20 -19 3 -54 9 -77 14 -24 6 -64 15 -90 21
-27 5 -64 14 -83 19 -19 5 -55 14 -80 21 -25 6 -70 20 -100 29 -30 10 -87 27
-125 39 -39 11 -81 21 -93 21 -12 0 -42 -9 -66 -20 -24 -12 -52 -29 -62 -38
-10 -9 -41 -35 -69 -58 -27 -22 -77 -59 -111 -81 -33 -23 -80 -53 -105 -67
-24 -14 -69 -37 -99 -52 -30 -14 -64 -30 -75 -35 -11 -4 -42 -16 -70 -25 -27
-9 -66 -20 -85 -25 -19 -5 -71 -16 -115 -24 l-80 -15 -86 0 c-47 0 -112 5
-145 10 -32 6 -81 15 -109 21 -27 6 -77 20 -110 31 -33 11 -80 30 -105 41 -25
12 -84 47 -131 78 l-86 57 -62 61 c-34 33 -75 70 -91 81 l-30 21 -53 6 -52 5
-95 -32 c-52 -18 -108 -36 -125 -40 -16 -5 -73 -19 -125 -33 -52 -13 -120 -29
-150 -35 -30 -6 -84 -17 -120 -24 l-65 -12 -180 -1 -180 0 -60 14 c-33 7 -69
17 -80 21 -11 4 -42 18 -70 31 -27 13 -59 31 -70 39 -11 8 -38 33 -60 55 l-40
41 -21 44 c-12 25 -27 58 -33 73 l-11 28 0 83 0 83 11 34 c6 19 16 45 22 59 6
14 33 57 58 96 26 39 92 120 146 180 54 60 260 271 458 469 198 199 403 406
455 461 52 54 127 133 165 174 39 41 90 99 114 128 24 28 50 52 57 52z m844
-586 c14 -3 43 -17 64 -32 l39 -27 16 -42 15 -43 -21 -44 -21 -43 -44 -36
c-24 -19 -67 -47 -96 -63 l-53 -28 -9 14 c-6 8 -15 31 -21 50 -6 19 -13 69
-16 111 l-5 75 15 30 c8 16 23 36 33 45 11 9 33 21 49 27 l30 11 25 -5z m1412
-314 l39 0 29 -15 c15 -8 38 -27 49 -41 l21 -27 0 -44 0 -44 -30 -62 c-17 -34
-44 -77 -60 -94 l-30 -33 -15 0 -15 0 -40 51 c-22 29 -50 71 -61 95 -11 24
-22 56 -24 72 l-5 27 18 35 17 34 34 23 34 23 39 0z m-198 -1415 c11 -3 39
-11 61 -17 22 -5 51 -14 65 -18 14 -4 44 -13 68 -19 23 -6 59 -15 80 -20 20
-6 57 -14 82 -20 25 -5 70 -14 100 -20 30 -5 87 -15 125 -20 39 -6 132 -16
207 -22 l136 -12 42 6 41 5 30 -41 c16 -23 42 -58 57 -77 15 -19 40 -50 56
-70 16 -19 79 -85 140 -145 61 -61 134 -130 161 -155 28 -25 64 -56 81 -70 16
-14 54 -45 84 -70 30 -25 57 -47 60 -50 3 -3 23 -19 45 -36 22 -17 69 -53 105
-80 36 -28 88 -65 115 -84 28 -18 52 -37 55 -40 3 -3 26 -21 53 -39 26 -17 47
-35 47 -39 0 -4 -22 -17 -48 -29 -26 -12 -94 -44 -152 -71 -58 -27 -121 -56
-140 -65 -19 -8 -82 -34 -140 -57 -57 -23 -152 -57 -210 -76 -58 -19 -118 -38
-135 -43 -16 -4 -50 -14 -75 -21 -25 -7 -63 -19 -85 -25 -22 -7 -43 -11 -47
-8 -5 2 -8 26 -8 53 l0 49 92 88 91 88 39 59 38 59 0 67 0 66 -29 46 c-17 26
-41 54 -54 63 -14 8 -40 20 -58 26 -19 6 -68 19 -109 30 -41 11 -103 27 -137
36 l-63 16 -17 26 c-9 14 -38 68 -65 119 -27 51 -54 103 -61 115 -6 12 -23 35
-37 50 -14 16 -42 37 -62 48 l-37 19 -72 0 -72 0 -44 -25 -43 -26 -58 -87
c-32 -48 -61 -94 -64 -102 -3 -8 -19 -34 -36 -56 l-30 -41 -69 -12 c-37 -6
-93 -16 -123 -22 -30 -5 -77 -15 -105 -21 -27 -6 -59 -16 -70 -22 -11 -6 -32
-24 -48 -40 -15 -16 -35 -45 -43 -64 l-14 -34 0 -59 0 -58 21 -38 c12 -21 40
-63 62 -93 23 -30 44 -57 47 -60 3 -3 27 -31 53 -62 l48 -57 -12 -88 c-6 -48
-14 -117 -18 -153 l-6 -65 -240 2 -240 2 -110 11 c-60 6 -148 15 -195 21 -47
5 -116 14 -155 20 -38 6 -96 14 -127 20 -32 5 -86 14 -120 20 -35 6 -81 14
-103 19 -22 5 -62 14 -90 20 -27 6 -95 22 -150 36 -55 14 -131 34 -170 44 -38
10 -90 24 -115 33 -25 8 -67 21 -95 30 -27 8 -84 27 -125 42 -41 15 -84 30
-95 35 -11 4 -58 23 -105 40 -47 18 -104 41 -127 51 -24 11 -45 19 -48 19 -2
0 -30 12 -62 26 -32 14 -130 62 -218 105 -88 44 -194 97 -235 120 -41 22 -92
52 -112 65 -21 13 -40 24 -43 24 -3 0 -70 43 -150 97 l-145 96 0 11 c0 6 22
27 47 46 26 19 101 89 168 155 67 66 153 158 190 205 37 47 70 91 72 98 l5 12
65 0 c35 0 108 5 161 10 53 6 129 15 167 21 39 6 88 14 110 19 22 5 63 14 90
20 28 6 67 15 88 21 20 5 56 14 80 20 23 7 70 21 104 32 l62 20 33 -26 c18
-15 58 -46 88 -70 30 -23 94 -66 143 -95 48 -28 89 -52 92 -52 2 0 33 -13 67
-28 35 -16 95 -38 133 -49 39 -12 88 -26 110 -31 22 -6 65 -15 95 -22 l56 -10
171 -1 172 0 48 11 c26 6 71 15 98 21 28 6 61 14 75 18 14 5 43 14 65 20 22 7
49 16 60 20 11 5 31 13 45 19 14 5 68 31 120 56 52 26 115 58 140 73 25 14 65
39 90 56 25 17 63 45 85 61 22 17 46 37 53 44 l14 13 22 -6z m518 -777 c6 -2
29 -40 53 -83 23 -44 52 -97 64 -119 12 -21 28 -44 35 -51 7 -7 35 -21 62 -30
27 -10 83 -26 124 -37 41 -11 85 -22 98 -25 12 -3 22 -6 22 -8 0 -1 -43 -45
-96 -96 -53 -52 -103 -107 -111 -123 l-15 -29 11 -93 c6 -51 11 -116 11 -144
l0 -52 -8 4 c-4 2 -59 29 -122 60 -63 31 -127 60 -143 63 l-27 7 -53 -16 c-28
-9 -61 -20 -72 -25 -11 -4 -52 -22 -92 -39 -39 -16 -74 -28 -76 -26 -2 3 -1
21 4 42 4 20 13 60 19 87 6 28 11 84 13 126 l2 75 -45 59 c-25 32 -66 81 -92
108 -26 28 -47 51 -45 52 1 1 22 7 47 13 25 6 79 16 120 22 41 7 91 18 110 25
l35 12 48 69 c27 38 62 93 79 122 l30 53 10 -3z m-4274 -148 c2 0 31 -19 65
-42 34 -23 64 -44 67 -47 3 -3 23 -18 45 -32 22 -14 67 -43 100 -64 32 -21 82
-51 110 -68 27 -16 75 -44 105 -60 30 -17 73 -41 95 -53 22 -13 112 -59 200
-103 88 -44 183 -89 210 -101 28 -12 64 -28 80 -35 17 -7 51 -22 77 -34 26
-11 50 -21 53 -21 3 0 24 -8 48 -19 23 -10 56 -23 72 -29 17 -6 39 -13 49 -16
l20 -7 -47 -47 -46 -47 -24 -50 -25 -50 -9 -62 -10 -62 12 -78 c7 -43 20 -99
29 -125 9 -25 30 -73 47 -105 l31 -58 34 -32 35 -32 30 -6 31 -7 45 7 46 7 73
39 c40 21 84 47 96 56 13 10 50 45 83 78 l61 60 29 60 30 60 3 77 4 78 -11 30
-10 31 37 -6 c20 -4 48 -10 62 -15 14 -5 41 -11 60 -15 19 -4 53 -11 75 -16
22 -5 65 -14 95 -20 30 -6 75 -15 100 -20 25 -5 71 -13 103 -19 31 -5 85 -15
120 -21 34 -5 94 -14 132 -19 39 -5 91 -12 118 -16 l47 -7 0 -8 c0 -4 -4 -11
-10 -14 -5 -3 -17 -23 -26 -43 -9 -20 -21 -48 -27 -60 l-11 -24 0 -86 0 -87
24 -65 23 -65 44 -67 44 -67 58 -53 57 -54 37 -11 37 -11 38 10 c20 6 55 23
78 39 23 15 71 60 107 99 36 39 78 92 92 118 14 25 35 73 45 106 l20 59 0 61
0 61 -25 59 c-13 33 -23 61 -22 62 1 1 128 9 282 18 154 10 316 21 360 26 44
5 116 13 160 19 44 6 104 15 133 20 l52 10 68 -25 67 -24 43 0 42 0 45 21 45
21 25 30 c14 16 25 33 25 38 0 4 12 11 28 14 15 4 43 11 62 16 19 4 71 18 115
30 44 12 96 26 115 32 19 5 46 12 60 15 l25 5 -3 -89 -4 -88 13 -40 c7 -22 30
-65 51 -95 l38 -56 62 -48 63 -48 85 -41 85 -42 66 0 66 0 25 13 24 13 30 47
30 47 21 70 c12 39 26 89 32 111 l11 41 0 80 0 80 -11 34 c-6 19 -20 54 -32
79 -12 24 -38 61 -57 81 -19 20 -44 41 -55 47 -11 6 -18 12 -15 14 3 2 98 49
211 106 113 56 210 102 215 102 6 0 19 -8 30 -18 10 -9 62 -46 114 -81 52 -36
97 -68 100 -71 3 -3 21 -17 40 -30 19 -14 48 -36 65 -50 16 -14 56 -50 88 -80
33 -30 78 -82 102 -115 23 -33 51 -80 62 -105 11 -25 26 -63 34 -85 l13 -40 0
-115 0 -115 -18 -50 c-9 -27 -29 -75 -43 -105 l-27 -55 -90 -91 -91 -90 -106
-52 c-58 -29 -113 -52 -122 -52 -9 0 -18 -4 -21 -9 -3 -5 -18 -11 -33 -14 -16
-3 -46 -11 -68 -17 -22 -6 -58 -16 -80 -21 -22 -5 -65 -14 -95 -19 -30 -5
-120 -16 -200 -25 -80 -8 -181 -15 -225 -15 -44 0 -129 4 -190 10 -60 6 -153
15 -205 20 -52 6 -122 15 -155 21 -33 5 -82 14 -110 20 -27 5 -106 21 -175 35
-69 14 -142 30 -162 35 -21 5 -57 14 -80 20 -24 6 -70 13 -104 16 l-61 5 -32
-20 c-18 -11 -68 -52 -111 -91 -43 -40 -91 -82 -107 -94 -15 -12 -30 -24 -33
-27 -3 -3 -34 -27 -70 -53 -36 -27 -72 -54 -81 -61 -9 -7 -42 -31 -75 -53 -32
-22 -66 -42 -74 -46 -8 -4 -37 -20 -65 -36 -27 -17 -81 -46 -120 -65 -38 -18
-90 -43 -115 -54 -25 -11 -85 -33 -135 -50 -49 -16 -110 -34 -135 -40 -25 -6
-65 -15 -90 -21 -25 -5 -81 -16 -125 -23 l-80 -13 -210 0 -210 0 -75 13 c-41
8 -95 18 -120 23 -25 6 -65 15 -90 21 -25 6 -63 16 -85 23 -22 7 -60 21 -85
30 -25 10 -61 24 -80 32 -19 8 -60 27 -90 41 -30 14 -104 56 -165 92 -60 36
-119 73 -130 82 -11 9 -47 37 -80 61 -33 25 -89 71 -125 103 -36 32 -99 91
-140 130 l-75 71 -32 12 -32 13 -38 -5 c-21 -3 -56 -10 -78 -17 -22 -6 -57
-16 -77 -21 -21 -5 -55 -13 -75 -18 -21 -5 -63 -14 -93 -21 -30 -7 -73 -16
-95 -20 -22 -5 -67 -13 -100 -20 -33 -6 -89 -16 -125 -21 -36 -5 -108 -14
-160 -19 -52 -6 -160 -13 -239 -16 l-145 -7 -130 13 c-72 6 -167 18 -211 26
-44 8 -97 18 -117 24 -21 5 -53 14 -70 19 -18 4 -64 21 -103 37 -38 15 -101
46 -139 68 l-69 41 -71 70 -71 71 -32 59 c-17 33 -41 89 -52 124 l-21 64 0 98
0 98 14 55 c8 31 29 85 46 120 16 35 50 91 74 123 24 32 68 81 98 108 30 28
67 61 83 75 17 14 73 57 125 96 52 39 123 90 156 115 34 24 90 64 124 89 35
25 93 67 129 93 36 26 73 53 81 60 9 7 38 28 65 47 27 18 89 64 139 102 50 37
92 68 94 68z m5565 -841 l48 1 25 -16 c14 -10 32 -30 40 -45 l14 -28 0 -65 0
-65 -15 -57 c-8 -32 -19 -62 -24 -67 l-9 -9 -47 27 c-26 14 -62 36 -80 48 -18
12 -43 36 -57 52 -13 17 -30 45 -37 63 l-13 32 13 33 c7 17 23 41 34 52 12 11
30 25 41 32 l19 12 48 0z m-3980 -70 l39 1 34 -16 34 -16 20 -28 20 -28 0 -41
0 -41 -24 -38 c-13 -20 -34 -46 -47 -58 -13 -12 -46 -35 -72 -53 l-48 -32 -17
3 -17 3 -14 40 c-8 22 -19 67 -26 100 l-11 60 8 38 c5 21 16 50 25 64 9 14 26
29 37 33 12 5 38 9 59 9z m1558 -280 c9 0 31 -2 49 -5 l32 -7 34 -34 34 -34 0
-44 0 -45 -22 -47 -22 -46 -53 -56 -53 -56 -29 35 c-16 19 -40 57 -54 85 -14
27 -30 65 -36 84 l-11 34 12 39 11 39 24 24 c14 13 34 26 46 28 12 2 29 5 38
6z m1324 -934 c17 -3 50 -10 75 -15 25 -6 63 -15 85 -21 22 -5 60 -13 85 -18
25 -5 72 -14 105 -21 33 -6 87 -16 120 -21 33 -6 92 -14 130 -20 39 -5 140
-16 225 -24 l155 -15 155 0 155 0 60 -58 c33 -33 105 -94 160 -138 55 -44 125
-98 155 -120 30 -23 135 -95 233 -159 97 -65 177 -121 177 -126 0 -4 -21 -18
-47 -32 -27 -14 -77 -41 -113 -61 -36 -20 -119 -62 -185 -95 -66 -32 -149 -72
-185 -89 -36 -16 -83 -37 -105 -47 -22 -9 -50 -21 -62 -26 -13 -5 -33 -13 -45
-18 -13 -5 -50 -19 -83 -31 -33 -12 -69 -26 -80 -30 -11 -5 -74 -27 -140 -48
-66 -22 -140 -45 -165 -52 -25 -7 -56 -16 -70 -21 -14 -5 -52 -16 -85 -25 -33
-9 -76 -20 -95 -26 -19 -5 -52 -14 -72 -19 -21 -5 -57 -14 -80 -20 -24 -5 -61
-14 -83 -19 -22 -5 -65 -14 -95 -20 -30 -7 -75 -16 -100 -21 -25 -5 -72 -14
-105 -19 -33 -6 -87 -15 -120 -21 -33 -5 -89 -14 -125 -20 -36 -5 -105 -14
-155 -20 -49 -6 -130 -14 -180 -19 -49 -5 -180 -14 -290 -20 l-200 -12 -340 5
-340 6 -105 11 c-58 6 -143 15 -190 21 -47 5 -116 14 -155 20 -38 5 -98 14
-132 19 -35 6 -93 15 -130 21 -38 6 -86 15 -108 19 -22 5 -67 14 -100 20 -33
6 -79 16 -102 21 -24 5 -64 14 -90 20 -27 5 -64 14 -83 19 -19 5 -55 14 -80
20 -25 6 -58 15 -75 19 -16 5 -50 14 -75 21 -25 7 -56 16 -70 20 -14 4 -45 13
-70 20 -25 7 -99 30 -165 52 -66 21 -129 43 -140 47 -11 5 -36 14 -55 21 -19
7 -44 16 -55 20 -11 5 -63 25 -115 45 -52 20 -111 44 -130 52 -19 8 -44 19
-55 23 -11 4 -123 58 -248 120 -126 61 -268 134 -315 162 -48 28 -103 60 -122
71 -19 11 -51 29 -70 39 -20 11 -73 46 -119 79 -46 33 -95 66 -110 74 -15 7
-33 20 -40 28 l-12 15 88 89 c48 49 109 112 135 141 l46 52 207 0 208 0 91 11
c50 5 123 15 161 20 39 5 102 15 140 20 39 6 88 14 110 19 22 5 67 14 100 20
33 6 78 16 100 21 22 6 54 14 70 19 17 4 40 11 52 15 l21 6 34 -33 c18 -18 65
-60 103 -94 39 -34 99 -83 135 -111 36 -27 92 -68 126 -90 33 -23 77 -51 97
-62 20 -12 54 -31 75 -43 20 -12 69 -38 107 -58 39 -20 90 -44 115 -54 25 -10
59 -24 75 -31 17 -7 57 -23 90 -34 33 -11 87 -28 120 -37 33 -9 78 -20 100
-26 22 -5 63 -13 90 -19 28 -5 79 -14 115 -19 36 -6 151 -13 255 -17 l190 -5
100 12 c55 6 123 16 150 21 28 5 75 14 105 20 30 6 66 15 80 19 14 4 45 13 70
20 25 7 63 19 85 25 22 7 60 21 85 30 25 9 54 21 65 25 11 5 81 38 155 74 74
36 155 77 179 91 24 15 78 49 120 77 42 28 128 91 191 139 63 48 138 110 165
138 l50 50 30 -4z m-5232 -671 c7 -4 37 -25 67 -47 30 -23 59 -44 63 -48 l8
-6 -43 -26 c-24 -14 -62 -45 -85 -70 -22 -24 -47 -59 -56 -78 -8 -19 -19 -47
-25 -64 -6 -16 -16 -62 -22 -102 l-12 -72 12 -78 c7 -43 19 -98 27 -123 8 -25
24 -60 35 -79 l21 -33 41 -19 c23 -10 52 -19 66 -19 14 0 54 6 90 14 36 8 80
19 98 25 19 5 68 27 110 48 l76 37 50 51 51 51 22 44 c12 25 26 66 32 92 6 26
11 58 11 72 0 14 3 26 6 26 3 0 18 -8 32 -18 15 -10 88 -48 162 -84 74 -37
156 -76 183 -87 26 -12 68 -30 95 -42 26 -12 63 -28 82 -36 19 -8 45 -19 58
-24 12 -5 32 -13 45 -18 12 -4 33 -13 47 -18 14 -6 36 -15 50 -21 14 -5 51
-19 83 -31 31 -12 81 -30 110 -40 28 -11 70 -25 92 -32 22 -7 44 -17 49 -21 6
-4 18 -8 28 -8 10 0 18 -3 18 -7 0 -5 -16 -24 -36 -43 l-35 -34 -23 -51 c-13
-27 -28 -78 -35 -112 l-12 -63 11 -62 c5 -35 16 -81 22 -103 7 -22 29 -74 50
-115 l37 -75 35 -36 35 -35 40 -14 41 -13 43 13 c23 8 68 27 100 44 32 17 86
54 120 82 l63 52 41 59 41 59 22 68 22 68 -5 51 c-3 29 -9 65 -13 81 l-7 29
29 -8 c16 -4 47 -12 69 -16 22 -5 65 -14 95 -20 30 -6 75 -15 100 -20 25 -5
71 -13 103 -19 31 -5 85 -15 120 -20 34 -6 91 -15 127 -21 36 -6 97 -14 135
-19 39 -6 105 -13 148 -16 l77 -7 0 -14 c0 -8 -8 -27 -18 -41 -10 -15 -25 -43
-33 -62 l-14 -35 1 -85 0 -85 24 -65 23 -65 61 -89 60 -89 48 -36 c26 -20 47
-39 47 -43 1 -5 -4 -8 -10 -8 -6 0 -31 -14 -57 -31 -26 -17 -88 -73 -137 -124
l-91 -92 -42 -84 c-22 -46 -48 -106 -57 -134 -9 -27 -23 -85 -30 -130 -8 -44
-15 -102 -15 -130 0 -27 7 -84 15 -125 7 -41 17 -86 20 -100 4 -14 10 -34 15
-45 4 -11 18 -42 31 -70 13 -27 40 -75 61 -106 20 -31 59 -78 85 -104 26 -27
74 -68 107 -92 32 -24 91 -58 130 -76 39 -19 89 -38 111 -44 22 -6 59 -16 81
-22 l41 -11 117 0 116 0 47 11 c27 7 83 25 127 42 l78 30 72 47 73 47 57 59
c32 33 75 84 95 114 20 30 47 78 60 105 13 28 27 59 31 70 5 11 11 29 15 40 4
11 13 49 21 85 l14 65 0 97 0 97 -15 66 c-9 36 -25 89 -36 117 -11 28 -29 70
-39 93 -10 23 -39 68 -64 101 -25 32 -55 71 -68 85 -13 14 -49 46 -80 71 l-57
46 -73 36 c-40 19 -102 44 -138 55 -36 10 -100 25 -142 31 l-78 13 -57 -6
c-32 -3 -69 -9 -83 -13 l-25 -8 58 65 57 64 29 55 c16 30 39 84 50 119 l21 64
0 45 c0 25 -5 63 -12 86 -6 22 -20 53 -30 68 -10 14 -18 28 -18 31 0 2 116 7
258 11 141 3 320 11 397 16 77 5 187 14 245 19 58 5 106 8 108 6 2 -1 -4 -20
-13 -41 l-16 -38 0 -88 0 -88 35 -72 34 -73 57 -63 c31 -34 76 -75 99 -91 22
-16 58 -38 79 -50 l39 -22 42 -5 43 -6 36 17 35 16 41 44 c22 24 53 65 69 92
15 26 36 68 46 93 10 25 24 69 32 98 l14 53 0 67 0 67 -20 54 -20 55 -30 37
-30 38 8 5 c4 2 25 7 47 11 22 3 56 10 75 15 19 5 55 13 80 19 25 5 70 15 100
22 30 6 66 15 80 19 14 4 43 12 65 18 22 6 72 20 110 32 39 11 88 25 110 32
22 6 94 28 160 50 66 21 128 43 137 48 10 6 23 10 28 10 6 0 30 9 52 20 23 11
44 18 46 15 3 -3 -1 -17 -8 -33 -8 -15 -22 -39 -32 -54 -10 -14 -31 -50 -47
-80 -15 -29 -38 -71 -50 -93 -12 -22 -31 -48 -43 -57 l-20 -18 -30 0 c-17 0
-47 -4 -67 -9 -20 -5 -58 -14 -86 -19 -27 -6 -77 -15 -110 -22 -33 -6 -78 -16
-100 -22 -22 -6 -54 -17 -72 -24 l-32 -14 -30 -37 -31 -38 0 -17 c0 -9 -4 -20
-10 -23 l-10 -6 0 -67 0 -67 29 -50 c16 -27 37 -59 48 -70 10 -12 52 -59 93
-105 41 -47 91 -102 110 -123 19 -21 38 -44 42 -51 l7 -12 -10 -69 c-5 -39
-14 -104 -20 -145 -6 -41 -13 -124 -16 -183 l-5 -109 22 -44 c13 -24 30 -50
39 -58 9 -8 34 -24 56 -36 l40 -23 65 0 66 -1 34 13 c19 7 54 22 77 32 24 11
45 19 48 19 2 0 34 14 70 30 36 17 68 30 70 30 2 0 34 13 70 30 l65 30 107
-51 c60 -27 117 -54 128 -59 11 -4 36 -15 55 -23 19 -9 55 -24 80 -34 l45 -18
70 0 70 1 35 18 c19 10 49 33 66 51 l32 33 17 53 18 52 -7 76 c-4 42 -11 126
-16 186 -5 61 -11 130 -15 155 l-5 45 121 125 c66 69 142 154 169 190 l50 65
6 43 c4 24 4 62 1 85 -3 23 -13 56 -22 74 -9 18 -29 43 -46 57 -16 14 -44 32
-62 40 -18 7 -59 19 -92 26 -33 6 -80 16 -105 22 -25 5 -63 13 -85 18 -22 5
-65 14 -95 21 -30 6 -63 14 -73 18 l-19 7 -52 99 c-29 55 -66 125 -83 155 -16
31 -46 81 -67 111 l-36 55 -31 18 -30 18 3 10 c2 6 23 17 47 25 23 8 57 22 74
32 18 10 79 42 137 71 58 30 142 76 188 102 46 26 86 48 88 48 3 0 25 13 49
30 24 16 48 30 54 30 6 0 11 5 11 10 0 6 7 10 16 10 8 0 35 -13 59 -30 24 -16
46 -30 50 -30 3 0 33 -18 65 -40 32 -22 62 -40 65 -40 4 0 25 -13 48 -29 23
-16 60 -39 83 -52 22 -13 66 -40 97 -59 32 -19 155 -100 275 -179 119 -79 263
-179 318 -223 l102 -79 99 -102 c55 -56 118 -130 141 -163 22 -34 54 -88 70
-120 17 -33 39 -86 49 -119 11 -33 25 -81 31 -108 l12 -47 0 -118 0 -117 -20
-80 c-11 -44 -30 -105 -42 -135 -12 -30 -37 -80 -54 -110 -18 -30 -44 -71 -58
-90 -15 -19 -57 -66 -94 -103 l-67 -68 -85 -58 c-47 -32 -117 -75 -155 -94
-39 -19 -86 -42 -105 -50 -19 -8 -55 -22 -80 -32 -25 -9 -63 -23 -85 -30 -22
-7 -78 -22 -125 -33 -47 -12 -114 -25 -150 -31 -36 -6 -97 -15 -137 -21 l-72
-10 -273 0 -273 0 -85 10 c-47 6 -121 15 -165 21 -44 6 -105 15 -135 20 -30 6
-80 15 -110 21 -30 5 -111 23 -180 40 -69 16 -136 33 -150 37 -14 5 -41 13
-60 18 -19 6 -55 16 -80 23 -25 7 -112 35 -193 62 l-149 48 -47 0 -47 0 -45
-29 c-24 -16 -53 -37 -64 -47 -11 -11 -49 -44 -85 -74 -35 -30 -73 -63 -85
-73 -11 -10 -78 -63 -150 -116 -71 -54 -171 -126 -222 -160 -51 -33 -94 -61
-97 -61 -2 0 -40 -21 -83 -48 -43 -26 -134 -75 -203 -109 -69 -33 -143 -69
-165 -78 -22 -10 -56 -24 -75 -32 -19 -8 -44 -19 -55 -24 -11 -4 -74 -26 -140
-47 -66 -22 -140 -45 -165 -51 -25 -7 -61 -16 -80 -21 -19 -5 -55 -13 -80 -19
-25 -5 -70 -14 -100 -20 -30 -5 -89 -15 -130 -20 -41 -6 -141 -15 -222 -22
l-147 -11 -153 11 c-84 6 -184 16 -223 22 -38 6 -97 15 -130 20 -33 6 -80 15
-105 20 -25 6 -61 14 -80 19 -19 5 -55 14 -80 21 -25 7 -90 27 -145 45 -55 18
-124 42 -154 54 -30 11 -75 30 -100 41 -25 12 -100 48 -166 80 -66 33 -140 71
-165 85 -25 15 -57 35 -72 45 -14 11 -29 19 -32 19 -4 0 -55 32 -114 72 -59
39 -143 98 -187 132 -44 33 -82 62 -85 65 -3 3 -34 31 -70 61 -36 30 -105 93
-153 140 -49 47 -105 95 -125 107 l-37 23 -30 0 c-17 0 -66 -12 -110 -26 -44
-14 -95 -30 -112 -35 -18 -5 -49 -13 -68 -19 -19 -5 -52 -15 -72 -21 -21 -5
-53 -14 -70 -20 -18 -5 -50 -14 -70 -20 -21 -6 -54 -14 -73 -19 -19 -5 -53
-14 -75 -19 -22 -6 -60 -16 -85 -22 -25 -5 -65 -15 -90 -20 -25 -5 -65 -14
-90 -19 -25 -4 -74 -13 -110 -20 -36 -6 -96 -15 -135 -21 -38 -5 -110 -14
-160 -19 -49 -5 -166 -13 -259 -16 l-168 -7 -117 12 c-64 6 -145 16 -181 22
-36 5 -82 14 -102 19 -21 6 -57 15 -80 21 -24 7 -61 18 -83 24 -22 7 -71 26
-110 41 -38 15 -104 46 -145 67 -41 22 -101 58 -134 80 -32 22 -92 71 -132
109 -41 39 -96 100 -123 137 -26 36 -65 101 -86 144 -20 43 -41 95 -47 115 -5
20 -15 66 -23 102 l-15 65 0 65 1 65 13 55 c8 30 22 78 31 105 10 28 28 70 40
95 13 25 40 68 61 96 22 29 57 71 80 95 22 24 63 64 90 89 28 25 63 56 79 70
17 14 59 47 95 73 36 27 72 54 80 60 8 7 51 37 95 68 44 30 127 89 185 129 58
41 146 102 195 137 50 35 117 82 150 105 33 23 62 44 65 48 3 3 28 22 55 40
28 19 70 49 95 68 25 18 52 39 60 45 8 7 60 46 115 87 55 41 123 93 151 115
28 22 68 54 90 70 21 17 71 58 112 93 l74 62 11 -6z m253 -304 c12 0 37 -6 55
-14 19 -8 47 -28 62 -44 l29 -30 5 -42 6 -43 -17 -31 -17 -32 -48 -31 -48 -32
-67 -21 -68 -22 -10 10 -11 11 -5 70 -5 71 13 47 c8 27 20 59 29 72 8 13 29
32 46 42 16 11 40 19 51 19z m6574 -700 c5 0 17 -12 28 -27 10 -16 39 -64 62
-108 24 -44 55 -102 69 -129 14 -27 40 -63 57 -80 l30 -32 40 -11 c21 -7 64
-17 94 -23 30 -7 71 -16 90 -20 19 -5 55 -13 80 -19 25 -5 57 -12 73 -16 l27
-5 0 -10 c0 -5 -56 -66 -125 -136 l-126 -126 -16 -32 -16 -31 1 -70 c1 -38 6
-104 12 -145 5 -41 11 -103 14 -137 l4 -63 -12 0 c-7 0 -32 10 -57 21 -24 12
-84 41 -134 64 -49 24 -107 50 -129 59 -21 9 -53 16 -70 16 l-33 0 -64 -26
c-35 -14 -77 -32 -94 -39 -16 -7 -48 -20 -70 -30 -22 -9 -64 -29 -93 -42 -29
-14 -54 -24 -56 -22 -3 2 0 37 5 77 5 39 14 105 20 145 5 39 13 97 15 127 l6
55 -14 33 c-8 18 -41 62 -74 99 -32 37 -89 100 -126 139 -38 39 -68 74 -68 78
0 3 10 6 21 6 12 0 38 4 58 9 20 5 59 14 86 19 28 6 77 15 110 22 33 6 77 17
98 23 l39 11 31 31 c18 18 41 50 53 71 11 21 31 57 44 79 13 22 38 67 57 100
19 33 37 68 40 78 3 9 9 17 13 17z m-4837 -51 c15 0 43 -5 61 -13 l33 -14 27
-34 26 -35 0 -34 0 -35 -29 -46 -30 -47 -57 -45 c-31 -24 -66 -47 -76 -49
l-19 -5 -23 51 c-13 29 -29 71 -35 93 -6 23 -11 55 -11 71 0 17 6 46 14 64 8
19 23 42 33 51 10 9 27 18 38 21 11 2 33 5 48 6z m3292 -187 l30 -4 33 -36 32
-35 0 -58 0 -58 -11 -28 c-6 -15 -16 -39 -23 -53 -6 -14 -20 -40 -31 -57 -11
-18 -24 -33 -29 -33 -4 0 -30 19 -57 41 -28 23 -63 60 -78 83 -16 23 -33 57
-38 76 l-10 35 12 34 11 34 34 28 33 28 31 3 c17 2 45 2 61 0z m-1660 -77 c11
-3 30 -5 42 -5 l22 0 36 -35 35 -36 0 -48 0 -49 -21 -40 c-12 -22 -38 -62 -58
-88 -20 -26 -44 -52 -54 -58 l-19 -11 -32 37 c-18 21 -42 57 -53 80 -11 24
-26 56 -32 71 -6 15 -11 39 -11 53 0 14 7 37 15 52 8 15 18 33 23 40 5 7 27
20 48 27 l39 15 20 -5z m284 -826 l95 1 35 -11 c20 -7 65 -26 101 -43 l65 -30
64 -64 63 -64 31 -67 31 -66 12 -72 11 -73 -8 -57 c-5 -32 -14 -76 -21 -98 -6
-22 -25 -66 -41 -98 l-30 -58 -61 -57 -62 -57 -44 -21 c-25 -12 -58 -27 -75
-33 -16 -5 -58 -15 -93 -22 l-63 -12 -52 6 c-29 3 -74 13 -102 22 -27 9 -70
26 -94 38 -24 12 -66 41 -92 65 -26 23 -63 66 -82 95 -19 28 -45 81 -58 117
l-23 65 1 105 1 105 20 53 c11 29 32 73 47 97 14 25 48 67 74 94 27 26 71 60
97 75 27 15 73 36 104 46 l55 19 94 0z m-2869 -781 l25 1 75 -71 c41 -39 111
-100 155 -135 44 -35 87 -70 95 -76 8 -7 31 -23 50 -37 19 -13 37 -27 40 -30
3 -4 59 -43 125 -86 66 -44 143 -93 170 -109 28 -16 64 -37 80 -47 17 -10 98
-51 180 -91 83 -41 166 -81 185 -90 19 -8 60 -25 90 -37 30 -12 114 -41 185
-64 72 -24 149 -48 173 -54 23 -7 59 -16 80 -22 20 -5 60 -14 87 -19 28 -6 75
-15 105 -20 30 -5 87 -15 125 -20 39 -6 111 -15 161 -21 l90 -10 200 0 199 0
85 10 c47 6 121 15 165 21 44 5 98 14 120 19 22 4 67 14 100 21 33 6 85 18
115 26 30 8 71 19 90 24 19 6 49 14 65 18 17 5 53 16 80 25 28 9 59 21 70 26
11 4 58 23 105 41 47 18 110 43 140 57 30 13 91 42 135 63 44 21 107 54 140
73 33 18 78 43 100 56 22 12 52 31 67 41 14 11 29 19 32 19 4 0 42 23 84 52
42 28 115 79 162 112 47 33 87 63 90 66 3 3 21 17 40 30 19 13 37 27 40 30 3
3 25 21 50 40 25 19 56 45 70 56 14 12 50 43 79 68 l55 46 10 -10 c5 -5 18
-10 28 -10 10 0 26 -4 36 -9 9 -5 46 -18 82 -28 36 -11 85 -26 110 -33 25 -7
56 -16 70 -20 14 -4 44 -13 68 -19 23 -6 59 -15 80 -21 20 -5 62 -14 92 -20
30 -7 71 -16 90 -20 19 -5 61 -13 93 -19 31 -6 81 -15 110 -20 28 -6 84 -15
122 -20 39 -6 113 -15 165 -21 52 -5 152 -15 223 -20 70 -6 193 -10 272 -10
l145 0 77 -58 c43 -32 123 -92 178 -132 55 -41 102 -76 105 -78 3 -2 -9 -16
-26 -30 -17 -15 -58 -51 -92 -80 -33 -29 -107 -90 -164 -135 -57 -45 -146
-114 -198 -153 -52 -38 -133 -97 -180 -130 -47 -34 -112 -79 -145 -101 -33
-22 -90 -59 -127 -82 -38 -22 -98 -59 -134 -82 -37 -22 -82 -49 -100 -60 -19
-10 -51 -28 -71 -40 -21 -12 -42 -25 -48 -29 -5 -4 -55 -31 -110 -60 -55 -30
-143 -75 -195 -101 -52 -26 -129 -63 -170 -82 -41 -19 -96 -44 -122 -56 -27
-12 -67 -30 -91 -40 -24 -11 -68 -30 -98 -41 -30 -12 -70 -28 -89 -37 -19 -8
-45 -19 -57 -24 -13 -5 -33 -13 -45 -18 -13 -5 -59 -23 -103 -39 -44 -17 -100
-38 -125 -47 -25 -9 -79 -28 -120 -41 -41 -14 -84 -29 -95 -33 -11 -5 -58 -21
-105 -36 -47 -15 -100 -31 -117 -36 -18 -5 -48 -13 -65 -18 -18 -5 -69 -19
-113 -31 -44 -12 -97 -26 -117 -31 -21 -5 -56 -13 -78 -19 -22 -5 -57 -14 -77
-19 -21 -5 -63 -14 -93 -21 -30 -7 -73 -16 -95 -21 -22 -5 -60 -13 -85 -18
-25 -5 -72 -14 -105 -21 -33 -6 -82 -15 -110 -20 -27 -4 -79 -13 -115 -20 -36
-6 -94 -15 -130 -20 -36 -6 -99 -15 -140 -20 -41 -6 -118 -15 -170 -21 -52 -5
-142 -14 -200 -19 -58 -5 -217 -14 -355 -20 l-250 -12 -325 6 c-179 4 -374 11
-435 16 -60 6 -159 15 -220 21 -60 5 -146 14 -190 20 -44 6 -111 15 -150 20
-38 6 -97 15 -130 20 -33 5 -85 15 -115 21 -30 5 -61 12 -67 14 l-13 3 10 23
10 23 8 188 8 187 24 23 c14 12 59 51 100 87 41 36 92 81 113 100 22 19 51 55
65 79 l26 44 0 62 0 62 -16 34 c-9 19 -29 46 -45 60 -15 15 -41 33 -58 42 -16
8 -100 38 -185 67 l-154 52 -11 15 c-6 8 -21 42 -34 76 -12 34 -26 71 -31 82
-4 11 -15 36 -23 55 -8 19 -24 55 -35 80 -11 25 -29 54 -39 65 -10 12 -31 30
-48 41 -16 12 -51 27 -77 34 l-48 13 -47 -13 c-27 -7 -61 -22 -78 -34 -16 -11
-42 -34 -57 -50 -15 -17 -56 -67 -90 -111 -35 -44 -75 -96 -90 -116 l-27 -36
-88 -7 c-48 -3 -133 -10 -188 -15 -55 -5 -117 -14 -138 -21 l-38 -11 -29 -30
c-15 -17 -38 -50 -49 -75 l-21 -44 0 -45 0 -44 25 -53 c13 -29 36 -73 50 -96
14 -24 53 -85 87 -134 l60 -91 -10 -36 c-6 -20 -19 -67 -28 -105 -8 -38 -20
-80 -25 -93 l-9 -23 -17 9 c-10 5 -39 19 -65 30 -26 12 -52 21 -58 21 -6 0
-18 4 -28 9 -9 5 -55 24 -102 42 -47 18 -113 45 -148 61 -34 15 -65 28 -67 28
-2 0 -30 12 -62 26 -32 14 -139 66 -238 115 -99 49 -216 109 -260 132 -44 24
-98 54 -120 67 -22 12 -54 31 -71 40 -17 10 -62 37 -100 60 -38 24 -94 58
-124 76 -30 18 -91 58 -135 89 -44 31 -108 75 -142 98 -35 23 -63 47 -63 54 0
6 13 19 29 30 15 10 46 32 67 50 21 18 86 69 144 115 58 46 132 103 165 128
33 25 62 47 65 50 3 3 52 41 110 84 58 43 116 86 130 96 14 10 45 33 70 52 25
19 68 49 95 68 28 18 52 37 55 40 3 4 32 25 65 48 33 23 71 50 85 61 l25 21
169 0 169 0 91 10 c50 6 129 15 176 21 47 6 110 14 140 20 30 5 91 16 135 25
44 9 100 20 125 25 25 5 65 14 90 19 25 6 61 15 80 20 19 4 71 18 115 30 44
12 94 25 110 30 17 5 64 17 105 28 41 11 93 27 115 35 22 8 51 15 65 15z
m7380 -778 l15 0 191 -153 c105 -83 217 -174 250 -202 32 -27 61 -52 64 -55 3
-3 39 -34 80 -70 41 -35 107 -94 145 -129 39 -36 126 -122 195 -191 69 -69
159 -166 200 -215 41 -50 89 -108 106 -130 17 -22 58 -81 91 -131 l61 -90 60
-125 c33 -68 69 -151 80 -184 11 -33 25 -81 31 -107 6 -27 16 -69 23 -94 l11
-47 0 -146 0 -146 -12 -55 c-7 -30 -17 -73 -23 -95 -6 -22 -22 -69 -35 -105
-14 -36 -32 -81 -41 -100 -9 -19 -42 -74 -73 -121 -32 -48 -84 -115 -116 -149
-31 -34 -89 -88 -127 -119 -39 -32 -92 -72 -118 -90 -27 -17 -94 -55 -150 -84
-57 -29 -123 -60 -148 -70 -25 -10 -54 -23 -65 -27 -11 -5 -65 -23 -120 -40
-55 -17 -116 -35 -135 -40 -19 -5 -55 -13 -80 -19 -25 -5 -76 -14 -115 -20
-38 -5 -104 -16 -145 -22 l-75 -13 -280 0 -280 0 -105 12 c-58 7 -139 18 -180
23 -41 6 -104 15 -140 21 -36 5 -83 14 -105 18 -22 5 -67 14 -100 20 -33 6
-76 15 -95 20 -19 5 -64 16 -100 25 -36 9 -105 27 -155 40 -49 13 -117 31
-150 40 -33 9 -73 20 -90 25 -16 4 -55 16 -85 25 -30 10 -122 40 -205 67 -82
27 -158 53 -167 58 -10 6 -26 10 -36 10 -10 0 -22 4 -27 8 -6 5 -49 21 -97 37
l-88 27 -47 -7 -48 -6 -40 -32 c-22 -17 -56 -46 -76 -64 -19 -18 -67 -57 -105
-86 -38 -29 -117 -86 -176 -125 -59 -40 -110 -72 -114 -72 -3 0 -18 -8 -32
-18 -15 -11 -54 -34 -87 -52 -33 -19 -98 -53 -145 -76 -47 -23 -105 -51 -130
-62 -25 -11 -81 -35 -125 -52 -44 -17 -125 -47 -180 -65 -55 -18 -158 -47
-230 -64 -71 -17 -150 -35 -175 -40 -25 -5 -81 -15 -125 -21 -44 -6 -107 -15
-140 -20 -33 -5 -132 -13 -220 -17 -88 -4 -176 -7 -195 -7 -19 0 -102 3 -185
7 -82 5 -179 12 -215 18 -36 5 -96 14 -135 20 -38 6 -89 15 -112 20 -24 5 -62
13 -85 19 -24 5 -70 16 -103 24 -33 8 -87 22 -119 31 -33 8 -91 26 -130 39
-39 13 -107 39 -151 56 -44 17 -100 41 -125 52 -25 11 -88 40 -140 66 -52 25
-124 63 -159 84 -34 21 -65 38 -67 38 -3 0 -66 41 -142 92 -75 50 -155 105
-177 122 -22 17 -42 33 -45 36 -3 3 -30 25 -60 50 -30 25 -64 53 -75 63 -11
10 -37 27 -57 38 l-37 19 -46 0 c-25 0 -53 -4 -63 -9 -9 -5 -33 -16 -52 -24
-19 -9 -62 -25 -95 -37 -33 -11 -145 -49 -250 -84 -104 -35 -210 -69 -235 -76
-25 -7 -56 -16 -70 -20 -14 -5 -65 -18 -115 -30 -49 -11 -110 -26 -135 -31
-25 -6 -63 -14 -85 -19 -22 -5 -67 -13 -100 -19 -33 -6 -96 -15 -140 -20 -44
-6 -121 -15 -171 -21 l-91 -10 -257 0 -257 0 -72 10 c-40 5 -108 14 -152 20
-44 6 -105 15 -135 21 -30 6 -75 15 -100 20 -25 6 -63 15 -85 20 -22 6 -53 14
-70 18 -16 5 -50 14 -75 21 -25 7 -58 17 -75 22 -16 6 -39 14 -50 18 -11 4
-58 23 -105 41 -47 17 -137 58 -201 89 l-116 57 -124 84 -124 83 -111 111
-111 110 -52 77 c-28 42 -65 108 -82 145 -17 37 -35 77 -39 88 -5 11 -11 31
-15 45 -3 14 -13 50 -22 80 l-15 55 0 145 -1 145 16 75 c9 41 25 103 36 137
11 33 31 87 45 117 14 31 26 59 26 61 0 2 24 44 53 92 29 48 68 110 87 137 19
27 63 84 98 127 34 43 113 130 175 192 61 62 152 150 201 195 l89 82 21 -18
c12 -10 59 -45 106 -78 47 -34 127 -89 178 -123 50 -34 113 -74 140 -90 26
-16 78 -47 116 -71 38 -23 84 -50 102 -61 19 -10 51 -29 72 -41 20 -11 64 -36
97 -54 33 -18 164 -85 290 -147 127 -63 248 -122 270 -132 22 -9 63 -27 90
-40 28 -12 71 -32 97 -44 26 -11 55 -21 63 -21 8 0 15 -4 15 -9 0 -5 -16 -21
-35 -36 -19 -16 -46 -45 -59 -65 -14 -21 -34 -66 -45 -101 l-21 -62 0 -75 0
-75 11 -41 c6 -22 16 -59 22 -81 6 -22 14 -44 19 -50 4 -5 8 -15 8 -22 0 -7
16 -38 36 -69 l36 -56 36 -15 37 -15 56 6 c31 3 70 11 85 17 16 6 40 16 54 22
14 7 52 29 85 51 33 21 77 55 98 75 22 20 52 54 67 76 l28 41 21 64 21 63 0
43 c0 23 -5 55 -10 69 -6 15 -8 31 -5 36 l6 9 17 -9 c9 -5 33 -13 52 -18 19
-6 55 -16 80 -23 25 -7 56 -16 70 -20 14 -4 44 -13 68 -19 23 -6 60 -15 82
-21 22 -5 57 -14 78 -20 20 -5 75 -18 122 -29 47 -11 110 -25 140 -31 30 -7
71 -16 90 -20 19 -4 58 -13 85 -18 28 -6 82 -16 120 -22 39 -7 83 -16 99 -21
16 -5 42 -9 57 -9 16 0 50 -5 76 -12 27 -7 49 -13 51 -14 2 -1 -10 -21 -26
-45 -16 -24 -35 -60 -43 -79 l-14 -35 1 -90 0 -90 18 -50 c10 -27 25 -66 34
-85 8 -19 32 -60 53 -90 20 -30 57 -74 82 -97 l45 -42 42 -11 41 -11 22 6 c12
4 41 16 64 27 l41 20 69 67 70 66 40 60 40 60 22 61 21 60 0 60 0 59 -13 37
c-7 21 -16 41 -20 44 -4 4 -7 16 -7 27 l0 19 18 -7 c9 -4 98 -11 197 -16 99
-5 322 -9 495 -9 173 0 403 4 510 9 107 5 197 7 199 5 2 -2 0 -14 -6 -27 -6
-12 -16 -35 -22 -50 l-11 -28 0 -71 0 -72 21 -59 c12 -33 31 -76 42 -96 12
-20 31 -47 42 -61 11 -14 45 -50 77 -81 l58 -56 42 -21 c24 -12 56 -26 71 -32
l29 -10 39 11 39 12 41 35 40 34 48 72 c26 39 55 88 65 109 9 21 25 61 34 90
l16 52 0 81 0 81 -14 34 c-7 19 -26 53 -42 76 -15 23 -28 44 -28 46 0 2 26 7
58 11 31 3 82 10 112 16 30 5 82 14 115 20 33 5 80 14 105 19 25 5 70 14 100
20 30 6 73 15 95 20 22 5 65 14 95 21 30 7 73 16 95 21 22 6 57 14 78 19 20 6
54 14 75 19 20 5 53 14 72 20 19 5 51 14 70 20 19 5 51 14 70 19 19 5 42 13
50 16 l16 7 -4 -99 -4 -99 34 -74 35 -74 64 -63 64 -64 58 -34 c32 -19 64 -34
71 -34 7 0 16 -3 20 -7 3 -4 23 -13 44 -20 20 -7 47 -13 60 -13 12 0 38 6 56
14 18 7 47 29 64 47 18 19 45 61 60 94 16 33 33 74 39 90 6 17 16 48 23 70
l13 39 0 91 0 90 -14 40 c-7 22 -26 59 -41 81 -15 23 -41 53 -58 67 -16 14
-30 28 -30 30 0 3 15 10 33 17 17 7 41 15 52 20 11 4 31 12 45 17 14 6 36 15
50 20 14 6 39 16 55 23 17 7 39 16 50 20 11 5 41 17 67 29 26 12 50 21 53 21
2 0 34 14 70 30 36 17 68 30 70 30 2 0 30 12 62 26 32 14 96 45 143 67 47 23
89 44 94 46 l9 4 -6 -29 -5 -29 9 -55 10 -55 26 -53 25 -53 49 -49 49 -49 57
-34 c32 -18 78 -41 103 -51 25 -10 69 -24 98 -32 29 -8 63 -14 76 -14 13 0 39
6 57 14 19 8 44 25 55 38 12 12 31 42 42 65 11 24 26 67 32 95 7 29 16 66 21
82 5 16 9 62 9 102 l0 73 -14 55 c-8 30 -23 72 -33 93 l-17 38 -52 53 -53 52
-16 0 -17 0 4 12 c2 6 13 16 24 22 10 6 30 18 44 27 14 9 41 26 60 37 19 11
67 39 105 62 39 24 116 74 173 112 57 38 111 76 120 83 9 8 55 42 102 76 47
35 135 101 195 148 61 47 112 88 115 91 3 3 30 25 60 50 30 25 68 56 85 70 16
14 54 49 85 77 l55 53 15 0z m-7603 -400 l14 0 5 -17 c3 -10 9 -27 14 -38 4
-11 12 -31 18 -45 5 -14 17 -41 25 -60 8 -19 24 -55 35 -80 11 -25 29 -52 39
-61 10 -8 29 -20 43 -26 14 -7 72 -28 130 -48 58 -20 113 -39 123 -42 9 -3 17
-9 17 -13 0 -5 -15 -19 -32 -31 -18 -13 -67 -51 -109 -86 l-75 -63 -22 -39
-22 -39 0 -161 0 -161 -8 0 c-4 0 -23 11 -43 24 -20 14 -51 33 -70 44 -19 11
-65 38 -103 62 l-68 42 -52 -5 c-28 -2 -69 -10 -91 -16 -22 -7 -55 -16 -72
-22 -18 -5 -50 -14 -70 -20 -21 -6 -49 -13 -62 -16 l-24 -6 7 24 c4 13 14 51
22 84 8 33 19 76 24 95 4 19 13 54 19 76 l11 42 -13 28 c-6 16 -25 52 -42 79
-16 28 -53 83 -83 123 -30 41 -51 76 -48 79 3 3 65 10 138 14 73 4 149 11 168
15 l35 7 33 31 c18 17 52 56 75 86 23 30 47 61 54 68 7 7 20 26 30 42 l17 30
13 0z m6218 -710 l40 0 24 -13 24 -12 20 -34 19 -35 -4 -100 -4 -101 -12 -27
-11 -28 -28 11 c-15 6 -48 21 -71 32 -24 12 -63 38 -86 58 l-42 37 -14 41 -13
40 24 47 24 47 35 18 35 19 40 0z m-7202 -562 l54 -4 31 -22 31 -22 15 -32 c9
-17 16 -39 16 -48 0 -10 -7 -33 -15 -52 l-14 -35 -49 -44 c-27 -24 -70 -55
-96 -69 l-48 -24 -16 10 -17 11 -9 34 c-5 19 -11 75 -13 125 l-4 92 40 42 40
43 54 -5z m5817 -44 l35 -6 23 -21 22 -21 11 -39 11 -40 -7 -61 -8 -61 -23
-52 -23 -53 -12 0 c-7 0 -34 14 -61 31 -26 17 -68 53 -92 80 l-43 48 -7 40 -6
40 9 24 c5 14 21 36 36 51 l26 26 27 6 c15 3 32 7 37 9 6 2 26 2 45 -1z
m-3890 -398 l55 -5 33 -37 32 -37 0 -43 0 -42 -22 -43 c-13 -24 -49 -70 -80
-104 l-58 -60 -20 25 c-10 14 -33 51 -50 83 l-32 58 -5 53 -5 53 16 35 17 36
32 16 32 17 55 -5z m2035 3 l30 1 34 -18 c19 -9 43 -29 54 -43 l19 -27 0 -39
c0 -21 -8 -60 -17 -86 -9 -26 -28 -69 -43 -94 -15 -25 -35 -51 -44 -57 l-17
-11 -37 35 c-20 19 -54 62 -75 94 l-39 59 0 57 0 56 33 31 c17 17 41 33 52 36
11 3 34 5 50 6z m1068 -1790 l17 1 0 -187 c0 -103 -5 -284 -11 -403 l-10 -215
-10 -35 c-6 -19 -17 -49 -25 -67 l-14 -32 -36 -29 -35 -29 -67 -21 c-37 -11
-87 -25 -112 -31 -25 -5 -76 -14 -115 -20 -38 -6 -113 -15 -165 -21 -52 -5
-151 -14 -220 -20 l-125 -10 -290 0 -290 0 -135 10 c-74 6 -178 15 -230 20
-52 6 -126 15 -165 21 -38 6 -89 15 -112 20 -24 5 -64 14 -90 21 -27 6 -68 20
-93 30 -25 11 -58 31 -73 46 -16 15 -35 41 -42 57 -8 17 -18 57 -24 90 l-10
60 -5 358 -5 357 9 0 c5 0 29 -6 52 -14 24 -7 62 -18 86 -25 23 -6 60 -15 82
-21 22 -5 57 -14 78 -19 20 -6 57 -14 82 -20 25 -5 70 -14 100 -20 30 -5 82
-15 115 -20 33 -5 98 -14 145 -20 47 -6 135 -15 195 -21 61 -5 180 -10 265
-10 85 0 205 4 265 10 61 6 153 15 205 21 52 5 124 15 160 20 36 6 84 15 108
20 23 5 61 13 85 19 23 5 71 16 107 25 36 9 81 21 100 26 19 6 45 13 57 16 12
3 57 18 100 33 43 15 86 28 96 29z"/>
<path d="M7842 17079 c-20 -1 -66 -7 -102 -15 -36 -7 -76 -16 -90 -20 -14 -4
-59 -25 -100 -46 l-75 -38 -46 -42 c-25 -24 -62 -64 -81 -90 -20 -26 -47 -71
-61 -100 -14 -29 -28 -62 -32 -73 -4 -11 -13 -49 -21 -85 -8 -36 -14 -91 -14
-122 0 -32 5 -79 12 -105 6 -27 20 -74 30 -105 11 -32 31 -79 46 -105 l26 -48
66 -65 65 -66 49 -27 c27 -15 70 -34 95 -43 25 -9 70 -22 99 -30 l53 -14 79 0
79 0 53 14 c29 8 67 19 83 26 17 6 55 23 85 38 l55 26 80 81 81 80 32 68 c18
37 41 102 52 145 l20 77 0 67 c0 37 -5 89 -11 115 -7 27 -21 73 -32 103 -11
30 -29 67 -39 82 -10 14 -18 30 -18 35 0 6 -28 39 -62 75 -35 36 -77 75 -95
87 -17 12 -55 34 -85 49 -29 15 -71 33 -93 40 -22 6 -64 16 -93 22 -29 5 -70
9 -90 9z m27 -316 c30 -3 66 -10 80 -16 14 -6 45 -24 68 -39 l42 -29 29 -42
c15 -23 34 -59 41 -80 l13 -39 0 -71 -1 -72 -21 -50 -21 -50 -32 -33 c-18 -18
-46 -42 -63 -53 -18 -11 -54 -26 -80 -34 -27 -8 -65 -15 -85 -15 -20 0 -51 5
-70 11 -19 6 -49 18 -68 26 -19 9 -53 33 -76 54 l-42 38 -21 43 c-11 24 -25
66 -31 94 l-10 50 13 55 c7 30 18 66 24 81 6 16 31 49 54 74 l43 47 50 23 c27
13 64 25 80 27 17 3 54 3 84 0z"/>
<path d="M6376 14160 l-51 -1 -40 -20 c-22 -10 -55 -35 -72 -54 -18 -18 -33
-37 -33 -40 0 -4 -13 -25 -28 -48 -16 -23 -32 -49 -35 -57 -4 -8 -20 -37 -36
-65 l-29 -50 -33 -12 c-19 -7 -47 -12 -63 -12 -16 -1 -45 -5 -65 -10 -20 -5
-63 -15 -96 -22 -33 -7 -74 -18 -91 -25 l-31 -13 -32 -36 c-17 -20 -38 -52
-46 -72 l-15 -35 0 -52 0 -52 31 -50 c18 -27 69 -95 115 -152 l84 -102 -12
-143 c-7 -78 -12 -160 -12 -182 l0 -40 23 -49 24 -48 45 -29 46 -29 66 0 67 0
34 11 c19 6 43 14 54 19 11 4 40 16 65 25 25 9 61 23 80 32 19 8 42 18 51 23
l15 8 60 -28 c32 -15 76 -35 97 -44 20 -10 74 -29 119 -43 l82 -26 51 13 c27
7 62 21 77 32 l28 19 27 47 28 47 -2 131 c-2 71 -7 152 -12 180 l-9 49 6 11
c4 6 36 42 71 80 35 38 84 97 109 131 l46 61 13 44 13 43 -12 50 -11 50 -24
36 -23 36 -38 20 c-20 11 -59 26 -87 32 -27 7 -68 16 -90 21 -22 5 -68 15
-103 22 -35 7 -67 17 -71 23 -5 5 -30 50 -56 100 -27 49 -57 106 -68 125 -11
19 -32 47 -48 62 -15 15 -45 34 -65 43 l-36 15 -52 0z m-2 -363 c5 -2 17 -17
27 -33 9 -16 25 -45 36 -64 11 -19 31 -53 44 -75 13 -22 28 -45 34 -50 5 -6
24 -16 40 -22 17 -6 50 -16 75 -23 25 -6 59 -16 76 -21 17 -5 42 -9 56 -9 13
0 28 -3 31 -6 l6 -7 -42 -51 c-23 -28 -50 -60 -60 -71 -11 -11 -33 -40 -49
-64 l-31 -44 6 -86 c4 -47 9 -110 13 -138 l7 -53 -15 0 c-8 0 -36 11 -64 24
-27 13 -67 32 -89 41 -22 9 -48 21 -57 26 -10 5 -32 9 -50 9 l-33 0 -80 -31
c-44 -17 -98 -39 -120 -49 l-40 -18 -7 6 -7 7 9 40 c4 22 11 83 15 135 l6 95
-18 32 c-10 17 -49 66 -88 109 -38 42 -71 80 -73 84 l-3 8 53 11 c29 7 72 16
96 22 23 5 62 14 88 20 l45 12 35 42 c18 23 34 45 34 49 0 4 13 26 28 49 15
23 34 54 42 70 l14 27 10 -3z"/>
<path d="M5790 10679 c-52 -1 -113 -5 -135 -10 -22 -5 -56 -14 -75 -20 -19 -6
-44 -14 -55 -18 -11 -5 -59 -27 -107 -51 l-87 -42 -79 -74 -80 -74 -44 -68
c-24 -37 -53 -87 -65 -112 -12 -25 -31 -74 -42 -110 -11 -36 -25 -102 -31
-147 l-12 -82 12 -88 c7 -48 21 -117 32 -153 10 -36 28 -85 40 -110 11 -25 40
-75 65 -112 l45 -67 57 -53 c31 -29 68 -62 82 -73 13 -10 65 -40 116 -66 50
-25 104 -49 120 -52 15 -3 59 -12 98 -21 l70 -16 70 0 70 0 70 14 c39 8 87 19
108 24 21 6 80 31 130 56 l92 46 71 64 c38 35 88 88 111 117 23 30 55 81 71
114 17 33 38 83 47 110 10 28 23 75 31 105 l13 55 1 112 0 112 -14 53 c-8 29
-22 76 -31 103 -10 28 -26 68 -38 90 -11 22 -38 67 -60 100 -22 33 -63 83 -91
110 -28 28 -69 64 -91 80 -22 17 -53 38 -70 47 -16 10 -43 24 -60 32 -16 8
-52 22 -80 31 -27 10 -79 23 -115 31 l-65 14 -95 -1z m-3 -300 c18 0 56 -4 85
-10 29 -6 78 -20 108 -31 30 -12 73 -34 95 -49 22 -15 58 -46 80 -70 23 -24
50 -57 61 -74 11 -16 29 -50 38 -75 10 -25 24 -69 32 -98 8 -29 14 -74 14
-100 -1 -26 -7 -72 -14 -102 -8 -30 -17 -64 -21 -75 -4 -11 -17 -40 -28 -65
l-22 -44 -56 -61 -57 -60 -51 -28 c-29 -15 -73 -35 -99 -45 l-47 -17 -110 0
-110 0 -35 14 c-19 7 -58 24 -86 37 -28 13 -72 43 -98 65 -26 23 -64 67 -86
99 l-38 57 -21 63 -21 63 0 95 0 96 21 60 c12 33 31 76 41 95 11 19 36 55 56
79 l36 44 59 40 c32 22 75 47 95 55 20 9 62 21 92 28 30 7 69 13 87 14z"/>
<path d="M14040 6984 c-69 3 -138 2 -155 0 -16 -2 -48 -9 -70 -15 -22 -7 -67
-21 -100 -32 -33 -11 -75 -29 -95 -40 -19 -10 -62 -39 -95 -62 -33 -24 -79
-63 -101 -87 -23 -23 -58 -64 -77 -91 -20 -26 -50 -76 -66 -110 -16 -34 -36
-82 -44 -107 -8 -25 -21 -67 -28 -95 l-14 -50 0 -125 0 -125 14 -50 c7 -27 17
-63 23 -80 5 -16 15 -41 20 -55 6 -14 16 -36 22 -50 6 -14 28 -52 50 -85 22
-33 67 -87 100 -121 34 -33 88 -78 121 -100 33 -22 81 -50 107 -62 26 -12 54
-22 61 -22 7 0 17 -4 23 -8 5 -5 32 -14 59 -20 28 -6 85 -16 128 -21 l77 -9
78 9 c42 5 95 15 117 20 22 6 58 18 80 26 22 8 56 22 75 31 19 9 67 37 105 63
l70 47 56 58 c30 33 74 87 97 121 23 34 42 64 42 68 0 3 9 24 19 48 11 23 30
74 43 112 l22 70 1 140 0 140 -13 50 c-8 28 -18 64 -24 80 -5 17 -24 59 -41
95 -17 36 -44 85 -61 110 -16 24 -57 72 -91 106 -34 33 -88 79 -121 101 -32
21 -75 47 -94 55 -19 9 -49 22 -65 28 -17 7 -52 18 -80 26 l-50 14 -125 4z
m-41 -305 l95 1 35 -11 c20 -7 65 -25 101 -42 l65 -31 60 -60 60 -61 28 -57
c15 -31 34 -82 42 -113 l15 -56 0 -74 0 -73 -24 -71 c-13 -39 -38 -93 -55
-119 -16 -26 -45 -62 -63 -81 -18 -18 -59 -51 -90 -72 -31 -22 -62 -39 -68
-39 -5 0 -18 -4 -28 -9 -9 -5 -33 -14 -53 -20 l-35 -11 -86 0 -85 0 -62 20
-62 21 -55 35 c-30 19 -69 50 -86 67 -16 18 -43 50 -58 72 -15 22 -37 60 -48
85 -10 25 -25 64 -31 86 l-11 41 0 71 0 71 14 53 c8 29 18 62 22 73 4 11 26
47 48 80 22 33 54 73 70 89 17 16 54 44 83 63 29 18 58 33 66 33 7 0 17 3 21
8 4 4 24 12 44 18 l37 12 94 1z"/>
<path d="M4181 6599 c-47 0 -102 -5 -121 -10 -19 -5 -53 -15 -75 -21 -22 -7
-66 -26 -97 -43 -32 -16 -82 -52 -113 -78 l-55 -48 -39 -58 c-21 -31 -48 -77
-59 -101 -11 -25 -23 -54 -27 -65 -4 -11 -13 -49 -21 -85 -8 -36 -14 -91 -14
-124 0 -32 5 -77 11 -100 6 -22 15 -57 20 -76 6 -19 25 -64 42 -100 l31 -65
81 -81 80 -80 65 -31 c36 -17 74 -34 85 -38 11 -4 45 -13 75 -21 l55 -13 70 0
70 0 55 13 c30 8 64 17 75 21 11 4 40 16 65 27 25 11 65 34 90 51 25 16 60 44
79 61 18 17 50 56 71 86 21 31 47 76 58 100 11 25 23 54 27 65 4 11 13 45 21
75 l13 55 0 65 0 65 -13 55 c-8 30 -17 64 -21 75 -4 11 -20 47 -36 80 -17 33
-45 81 -63 106 -19 25 -58 66 -88 92 -29 25 -78 59 -108 74 -30 16 -75 35
-100 42 -25 7 -58 17 -74 22 l-29 9 -86 -1z m19 -313 l75 -4 40 -22 c22 -12
57 -38 78 -58 l38 -37 27 -55 27 -55 -1 -85 -1 -85 -28 -50 c-15 -27 -41 -64
-58 -82 -17 -18 -49 -41 -71 -51 -23 -11 -65 -25 -95 -32 l-54 -13 -55 13
c-30 7 -71 21 -91 32 -20 11 -53 36 -73 56 l-37 36 -23 45 -22 46 0 90 0 90
23 47 23 47 47 44 c26 24 63 51 82 60 19 9 43 18 54 21 11 3 54 3 95 2z"/>
</g>
</svg>
