<?xml version="1.0" standalone="no"?>
<!DOCTYPE svg PUBLIC "-//W3C//DTD SVG 20010904//EN"
 "http://www.w3.org/TR/2001/REC-SVG-20010904/DTD/svg10.dtd">
<svg version="1.0" xmlns="http://www.w3.org/2000/svg"
 width="1307.918555pt" height="1974.500000pt" viewBox="0 0 1307.918555 1974.500000"
 preserveAspectRatio="xMidYMid meet">
<metadata>
Created by potrace 1.16, written by Peter Selinger 2001-2019
</metadata>
<g transform="translate(-242.000000,2254.000000) scale(0.100000,-0.100000)"
fill="#000000" stroke="none">
<path d="M8826 22539 l-101 -1 -35 -12 c-19 -6 -61 -24 -92 -40 l-58 -28 -57
-62 c-32 -34 -69 -82 -82 -107 -13 -24 -51 -98 -86 -164 -34 -66 -81 -156
-105 -200 -23 -44 -62 -116 -85 -160 -24 -44 -56 -104 -71 -132 l-29 -53 -23
0 c-13 0 -42 -4 -65 -9 -23 -5 -76 -15 -117 -21 -41 -6 -101 -15 -132 -21 -32
-5 -84 -13 -115 -18 -32 -6 -92 -15 -133 -21 -41 -6 -100 -16 -130 -21 -30 -6
-71 -15 -90 -20 -19 -6 -55 -20 -80 -32 l-44 -22 -58 -54 -58 -53 -35 -72 -35
-71 -11 -60 -11 -60 6 -79 6 -79 35 -71 35 -71 51 -60 c28 -33 163 -173 301
-312 l250 -251 -7 -49 c-3 -26 -10 -68 -15 -93 -4 -25 -13 -79 -20 -120 -6
-41 -16 -102 -21 -135 -6 -33 -14 -86 -20 -117 -5 -32 -15 -86 -21 -120 l-12
-63 -1 -110 0 -110 18 -48 c9 -26 26 -66 37 -87 11 -21 43 -62 71 -90 l51 -51
67 -33 c36 -17 92 -38 124 -45 31 -8 57 -18 57 -23 0 -4 -4 -8 -8 -8 -5 0 -19
-19 -32 -42 -13 -24 -59 -97 -103 -163 -44 -66 -107 -158 -141 -205 -33 -47
-63 -87 -66 -90 -3 -3 -17 -21 -30 -40 -13 -19 -27 -37 -30 -40 -3 -3 -25 -32
-50 -65 -25 -33 -108 -139 -184 -235 -77 -96 -142 -177 -146 -180 -3 -3 -25
-30 -50 -60 -25 -30 -47 -57 -50 -60 -3 -3 -25 -30 -50 -60 -25 -30 -47 -57
-50 -60 -3 -3 -30 -34 -60 -70 -30 -36 -57 -67 -60 -70 -3 -3 -30 -34 -60 -70
-30 -36 -57 -67 -60 -70 -3 -3 -34 -39 -70 -80 -36 -41 -67 -77 -70 -80 -3 -3
-34 -39 -70 -80 -36 -41 -67 -77 -70 -80 -3 -3 -30 -34 -60 -70 -30 -36 -57
-67 -60 -70 -3 -3 -39 -43 -80 -90 -41 -47 -77 -87 -80 -90 -3 -3 -30 -34 -60
-70 -30 -36 -57 -67 -61 -70 -3 -3 -33 -42 -67 -87 l-62 -82 -39 -78 c-22 -43
-47 -100 -56 -128 -10 -27 -23 -79 -31 -115 l-14 -65 0 -95 0 -95 15 -73 c8
-40 22 -94 31 -120 9 -26 29 -73 45 -106 17 -32 48 -85 70 -118 22 -32 73 -92
112 -132 40 -40 89 -86 111 -104 21 -17 65 -49 97 -69 32 -21 59 -41 59 -44 0
-3 -60 -61 -132 -130 -73 -68 -158 -146 -188 -174 -30 -27 -62 -57 -70 -65 -8
-8 -42 -40 -75 -70 -33 -30 -130 -120 -215 -200 -85 -79 -243 -232 -350 -340
-108 -107 -216 -217 -240 -245 -25 -27 -64 -72 -86 -100 -22 -27 -63 -84 -90
-125 -28 -41 -63 -101 -78 -132 -15 -32 -32 -72 -37 -90 -6 -18 -17 -67 -25
-108 -7 -41 -14 -93 -14 -115 0 -22 6 -71 14 -110 8 -38 19 -85 25 -103 5 -18
22 -58 37 -90 15 -31 44 -82 65 -112 20 -30 65 -84 100 -120 35 -36 78 -77 94
-91 17 -13 52 -40 78 -58 l49 -33 -24 -26 c-13 -15 -25 -29 -28 -32 -3 -3 -18
-21 -34 -40 -16 -19 -56 -66 -90 -105 -33 -38 -81 -92 -106 -120 -25 -27 -51
-56 -58 -63 -7 -8 -70 -80 -140 -161 -69 -80 -129 -148 -132 -151 -3 -3 -34
-39 -70 -80 -36 -41 -67 -77 -70 -80 -3 -3 -34 -39 -70 -80 -36 -41 -67 -77
-71 -80 -3 -3 -76 -88 -163 -190 -87 -102 -168 -196 -180 -210 -12 -14 -58
-70 -102 -125 -44 -55 -103 -129 -130 -165 -28 -36 -69 -92 -91 -126 -23 -33
-53 -80 -67 -105 -15 -24 -46 -84 -70 -134 -24 -49 -53 -117 -63 -150 -11 -33
-25 -81 -31 -108 l-12 -47 0 -116 0 -117 11 -41 c6 -22 15 -57 20 -76 6 -19
18 -51 26 -70 8 -19 21 -46 27 -60 7 -14 23 -43 35 -65 13 -22 40 -62 62 -90
21 -27 58 -70 81 -95 24 -25 72 -70 108 -100 36 -30 67 -58 70 -61 3 -3 46
-32 95 -65 50 -33 102 -66 118 -73 15 -8 27 -19 27 -25 0 -6 -53 -77 -117
-157 -65 -81 -201 -245 -303 -365 -101 -121 -187 -221 -190 -224 -3 -3 -104
-120 -224 -260 -120 -140 -228 -266 -240 -280 -11 -14 -48 -59 -82 -100 -33
-41 -83 -104 -110 -140 -28 -36 -73 -99 -101 -140 -27 -41 -69 -110 -91 -153
-23 -43 -49 -99 -58 -125 -9 -26 -22 -71 -30 -100 l-14 -53 0 -107 1 -107 13
-55 c8 -30 22 -75 32 -100 10 -25 29 -65 42 -90 14 -25 43 -69 65 -99 22 -30
67 -81 100 -113 33 -33 95 -85 136 -117 42 -31 99 -71 128 -88 29 -17 101 -56
160 -85 59 -29 128 -61 153 -71 25 -10 54 -22 65 -27 11 -4 40 -16 65 -25 25
-9 72 -26 105 -37 33 -10 94 -28 135 -39 41 -12 91 -25 110 -30 19 -4 55 -13
80 -19 25 -5 70 -15 100 -21 30 -6 75 -15 100 -20 25 -5 72 -14 105 -19 33 -6
89 -15 125 -21 36 -5 97 -14 135 -20 39 -5 113 -14 165 -19 52 -5 172 -15 265
-22 l170 -13 465 0 465 0 170 13 c94 7 217 17 275 22 58 4 119 11 135 15 l30
7 69 -42 c38 -23 85 -51 105 -62 20 -12 54 -31 76 -43 22 -12 63 -35 90 -50
28 -16 131 -69 230 -119 99 -50 206 -102 239 -116 l59 -24 -7 -426 c-3 -234
-9 -607 -12 -828 l-7 -404 13 -56 c7 -32 17 -70 22 -87 6 -16 25 -61 43 -100
l34 -70 52 -58 51 -58 57 -37 c31 -21 67 -43 81 -49 14 -7 57 -23 95 -35 l70
-23 1060 0 1060 0 45 14 c25 7 55 17 68 22 12 5 34 15 50 21 15 7 52 29 82 49
30 21 73 57 96 81 23 23 54 63 71 88 16 25 37 61 46 80 8 19 21 48 26 64 6 15
18 62 27 104 l16 77 -6 405 c-3 223 -9 570 -13 772 l-6 366 84 39 c46 22 104
48 129 59 24 10 150 72 279 137 l235 117 36 -5 c19 -3 65 -10 103 -15 37 -6
99 -14 137 -20 39 -5 100 -14 138 -20 37 -5 108 -14 157 -19 50 -6 137 -15
195 -20 58 -6 166 -15 240 -21 74 -5 262 -15 416 -21 l282 -11 223 11 c123 6
274 16 334 21 61 6 151 15 200 21 50 6 119 15 155 20 36 6 89 15 118 20 28 5
78 14 110 20 31 6 73 14 92 19 19 5 62 16 95 24 33 8 87 22 120 30 33 9 71 20
85 25 14 5 45 14 70 22 25 7 49 16 54 21 6 4 16 8 23 8 7 0 38 12 70 26 32 14
101 47 153 72 52 26 140 76 195 113 l100 66 78 73 c42 40 100 102 127 139 27
36 66 98 85 138 20 39 40 86 46 105 6 18 16 73 24 123 l14 89 -9 76 c-6 41
-15 93 -21 115 -6 22 -21 65 -32 95 -11 30 -42 96 -68 147 -26 50 -71 127
-100 170 -29 43 -75 107 -103 143 -27 36 -86 110 -130 165 -44 55 -92 114
-107 130 -14 17 -95 111 -180 210 -84 99 -155 182 -159 185 -3 3 -62 70 -130
150 -68 80 -127 147 -130 150 -3 3 -30 34 -60 70 -30 36 -57 67 -60 70 -3 3
-41 48 -84 100 -43 52 -88 106 -100 120 -12 14 -58 71 -104 127 -45 56 -82
104 -82 107 0 3 35 29 78 57 42 29 79 55 82 58 3 3 22 19 42 34 20 15 71 61
112 102 41 41 95 103 120 138 25 35 59 89 75 121 17 32 38 79 47 104 9 26 23
72 31 102 l16 55 1 130 1 131 -13 44 c-8 25 -23 74 -34 110 -11 36 -40 106
-64 155 -24 50 -56 110 -70 133 -13 24 -52 85 -86 135 -34 51 -64 94 -68 97
-3 3 -17 21 -30 40 -14 19 -30 42 -37 50 -7 8 -35 44 -63 80 -28 36 -56 72
-63 80 -7 8 -32 40 -57 70 -25 30 -47 57 -50 60 -3 3 -25 30 -50 60 -25 30
-47 57 -50 60 -3 3 -25 30 -50 60 -25 30 -47 57 -50 60 -3 3 -30 34 -60 70
-30 36 -57 67 -60 70 -3 3 -34 39 -70 80 -36 41 -67 77 -70 80 -3 3 -30 34
-60 70 -30 36 -57 67 -60 70 -3 3 -35 39 -70 80 -36 41 -67 77 -70 80 -3 3
-50 57 -104 120 -54 63 -108 126 -120 140 -11 14 -37 45 -56 70 -19 25 -47 59
-62 75 l-28 30 47 40 c26 22 74 65 107 95 32 30 87 91 121 135 34 44 80 114
103 155 22 41 48 98 57 125 9 28 23 74 31 103 l14 53 0 112 -1 112 -13 55 c-8
30 -22 78 -31 105 -10 28 -31 77 -48 110 -16 33 -52 94 -80 135 -28 41 -78
109 -111 150 -33 41 -97 116 -142 165 -45 50 -153 162 -240 250 -88 88 -213
212 -279 275 -66 63 -165 158 -220 210 -56 52 -134 126 -175 165 -41 38 -135
128 -209 199 l-133 130 38 30 c22 16 81 71 132 123 l92 94 58 87 c32 48 72
116 89 152 16 36 35 79 41 95 6 17 15 53 21 80 6 28 15 71 21 97 5 26 10 77
10 115 0 37 -7 102 -15 143 -7 41 -18 91 -23 110 -5 19 -15 48 -21 65 -7 16
-20 46 -29 65 -8 19 -38 69 -66 110 -27 41 -87 121 -133 177 -45 56 -88 107
-95 115 -7 7 -47 51 -88 98 -41 47 -77 87 -80 90 -3 3 -55 61 -116 130 -60 69
-179 206 -264 305 -85 99 -157 182 -160 185 -4 3 -66 77 -139 165 -73 88 -140
169 -150 180 -9 11 -52 65 -97 120 -44 55 -134 169 -199 254 -66 85 -153 200
-193 255 -40 56 -129 184 -197 285 l-124 184 5 9 c3 4 14 8 26 8 11 0 50 14
87 32 l66 31 60 61 60 61 22 45 c12 25 26 61 31 80 6 19 13 58 16 85 l5 50 -9
70 c-5 39 -14 98 -19 133 -6 34 -15 89 -21 122 -5 33 -14 87 -20 120 -5 33
-15 88 -20 123 -6 34 -16 94 -22 132 -6 39 -11 82 -12 96 l-1 26 276 280 277
281 39 58 c21 33 44 70 50 84 6 14 16 39 23 57 l12 32 1 93 0 93 -12 40 c-7
22 -26 67 -42 101 l-29 61 -49 49 -49 49 -53 26 c-30 15 -67 32 -84 37 -16 6
-55 15 -85 21 -30 6 -82 15 -115 20 -33 6 -91 15 -130 21 -38 6 -95 15 -125
20 -30 5 -86 14 -125 20 -38 6 -92 15 -118 21 -27 5 -63 9 -80 9 -18 0 -38 4
-44 8 -7 5 -92 165 -189 358 l-176 349 -43 60 -43 61 -59 41 -58 41 -64 21
-64 21 -101 -1z m4 -459 l18 0 20 -32 c11 -18 103 -199 205 -403 l186 -370 37
-43 37 -44 26 -10 c14 -6 42 -14 61 -19 19 -5 67 -14 105 -19 39 -6 97 -14
130 -20 33 -5 87 -14 120 -19 33 -5 92 -15 130 -21 39 -6 99 -15 135 -20 36
-5 85 -12 110 -15 25 -3 69 -11 98 -17 l52 -11 0 -19 0 -19 -169 -172 c-92
-95 -235 -241 -317 -325 l-149 -153 -24 -42 -24 -42 0 -80 c-1 -44 5 -111 12
-150 6 -38 16 -95 21 -125 5 -30 14 -89 20 -130 6 -41 16 -102 21 -135 6 -33
14 -85 19 -115 5 -30 14 -88 20 -128 l12 -73 -12 -14 c-7 -8 -19 -15 -27 -15
-8 0 -92 40 -186 89 -95 49 -199 103 -232 121 -33 18 -89 49 -125 68 -36 19
-101 54 -145 76 -44 23 -96 47 -116 54 -19 6 -51 12 -70 12 -19 0 -50 -6 -69
-13 -19 -7 -48 -20 -65 -28 -16 -9 -68 -37 -115 -61 -47 -25 -134 -71 -195
-103 -60 -32 -180 -94 -265 -137 l-155 -78 -20 2 -20 3 0 60 c1 33 7 96 13
140 7 44 17 112 23 150 5 39 14 99 19 135 5 36 14 94 19 130 6 36 15 92 21
125 5 33 13 88 16 122 l7 62 -14 48 -14 48 -130 134 c-71 74 -155 160 -185
191 -30 30 -120 124 -199 208 l-143 152 10 13 11 13 78 13 c43 6 107 17 143
22 36 6 88 14 115 19 28 5 82 14 120 20 39 6 95 15 125 20 30 5 89 14 130 20
41 7 98 16 125 22 28 6 68 21 90 33 22 13 48 31 57 41 9 11 39 62 66 114 27
52 100 194 162 315 62 121 135 262 161 313 27 51 51 97 54 102 4 6 15 10 25
10z m-2 -2871 c2 1 89 -43 193 -96 l190 -97 53 -105 c29 -58 67 -133 86 -166
18 -33 51 -89 72 -124 21 -34 38 -65 38 -67 0 -3 46 -73 102 -157 55 -83 104
-154 108 -157 3 -3 26 -34 50 -69 23 -35 49 -71 56 -80 7 -9 48 -63 91 -121
43 -58 83 -112 90 -120 7 -8 96 -121 199 -250 103 -129 190 -237 193 -240 4
-3 26 -30 51 -60 25 -30 47 -57 50 -60 3 -3 25 -30 50 -60 25 -30 47 -57 50
-60 3 -3 30 -34 60 -70 30 -36 57 -67 60 -70 3 -3 30 -34 60 -70 30 -36 57
-67 60 -70 3 -3 34 -39 70 -80 36 -41 67 -77 70 -80 3 -3 39 -43 80 -90 41
-47 77 -87 80 -90 3 -3 50 -57 105 -120 55 -63 128 -146 161 -185 33 -38 78
-95 101 -125 22 -30 48 -69 56 -86 9 -18 23 -51 31 -75 l16 -44 0 -81 0 -81
-11 -34 c-6 -19 -21 -56 -34 -84 -12 -27 -43 -78 -69 -112 -26 -34 -71 -84
-101 -111 -29 -27 -85 -70 -124 -96 -39 -25 -101 -60 -139 -77 -37 -17 -76
-35 -87 -39 -11 -5 -31 -11 -45 -15 -14 -3 -41 -11 -60 -16 -19 -5 -71 -16
-115 -24 l-80 -15 -128 0 -128 0 -72 10 c-40 6 -97 16 -127 22 -30 6 -80 17
-110 25 -30 8 -68 18 -85 23 -16 4 -65 19 -107 34 l-77 26 -60 0 -61 0 -43
-20 c-23 -11 -60 -37 -82 -57 -22 -19 -56 -47 -75 -62 -19 -14 -37 -29 -40
-32 -3 -3 -45 -33 -95 -66 -49 -32 -126 -78 -171 -100 -44 -22 -107 -49 -140
-60 -32 -11 -77 -25 -99 -31 -22 -6 -70 -15 -106 -21 -37 -6 -88 -11 -115 -11
-27 0 -83 7 -124 15 -41 7 -91 18 -110 23 -19 5 -44 13 -55 17 -11 4 -29 10
-40 14 -11 5 -58 27 -105 51 -47 23 -105 56 -130 73 -25 17 -47 33 -50 36 -3
4 -23 20 -45 36 -22 16 -73 61 -113 99 -40 39 -88 80 -105 91 -18 12 -46 27
-64 34 l-32 13 -53 -5 c-29 -2 -78 -11 -108 -19 -30 -8 -80 -20 -110 -26 -30
-6 -86 -17 -125 -24 l-70 -12 -190 0 -190 0 -65 13 c-36 7 -85 17 -110 23 -25
6 -72 19 -105 30 -33 10 -89 33 -125 50 -36 18 -90 49 -121 69 -31 21 -77 59
-103 85 -26 26 -64 72 -86 104 l-38 57 -21 63 -21 63 0 62 0 62 11 34 c6 19
20 54 32 79 12 25 43 74 71 110 27 36 81 103 120 150 39 47 73 87 76 90 3 3
34 39 70 80 36 41 67 77 70 80 3 3 30 34 60 70 30 35 69 80 87 100 17 19 40
46 51 60 l20 25 7 -7 6 -6 -10 -39 -11 -38 0 -110 0 -110 15 -65 c8 -36 18
-81 23 -100 5 -19 18 -55 28 -80 10 -25 36 -76 58 -114 l41 -69 75 -80 74 -79
86 -57 c47 -31 97 -62 113 -69 15 -6 37 -16 50 -22 12 -5 51 -18 87 -28 36
-11 92 -25 126 -31 33 -6 94 -11 135 -11 l74 0 75 15 c41 8 91 19 110 24 19 5
49 14 65 20 17 7 55 24 85 39 30 14 82 44 115 66 33 22 89 67 124 100 l63 61
48 70 c26 39 59 94 74 124 15 29 37 81 47 115 11 33 27 95 35 136 l14 75 0 80
0 80 -14 76 c-8 41 -22 97 -31 125 -9 27 -30 78 -47 114 -16 36 -48 92 -70
125 -22 33 -68 89 -102 123 -33 35 -88 83 -121 106 -33 24 -89 57 -125 74 -36
17 -87 39 -115 48 -27 9 -79 23 -115 31 l-65 14 -130 0 -130 1 -55 -16 c-30
-8 -70 -19 -89 -25 -19 -6 -36 -9 -38 -7 -2 2 18 30 44 62 26 33 50 61 53 64
3 3 40 48 82 100 42 52 97 122 122 155 25 33 90 119 144 190 54 72 121 162
149 200 28 39 100 145 162 237 61 92 111 170 111 174 0 3 8 18 19 32 10 15 30
47 43 72 14 25 40 72 58 105 19 33 55 103 82 155 l48 95 147 77 c82 42 149 77
151 77z m-1098 -2191 l65 1 47 -12 c26 -7 50 -16 54 -20 4 -4 13 -7 20 -7 7 0
35 -14 61 -30 26 -17 65 -47 86 -66 21 -20 50 -55 66 -78 15 -22 38 -68 51
-101 l23 -60 0 -95 1 -95 -24 -65 -23 -65 -38 -57 -39 -56 -43 -36 c-24 -20
-74 -50 -112 -67 l-68 -30 -86 -6 -86 -6 -65 17 -65 17 -52 31 c-29 18 -63 41
-76 52 -13 12 -40 43 -60 69 -20 26 -43 62 -51 80 -7 18 -18 46 -24 62 -6 17
-16 56 -22 87 l-11 57 11 63 c6 35 16 77 21 93 6 17 21 50 32 75 l22 45 60 61
60 60 60 30 c33 16 78 34 100 40 22 6 69 12 105 12z m-42 -2239 c2 1 36 -26
75 -60 40 -33 124 -95 187 -138 l115 -78 105 -51 c58 -28 146 -64 195 -80 50
-16 115 -34 145 -40 30 -6 79 -15 108 -21 l54 -11 97 0 98 0 94 15 c52 8 112
19 134 24 22 4 75 20 118 35 43 15 111 41 150 59 40 18 110 54 157 80 47 26
119 73 160 103 41 31 94 71 117 90 l43 35 42 -14 c24 -8 75 -22 113 -31 39 -9
86 -21 105 -26 19 -5 67 -13 105 -19 39 -6 102 -15 142 -21 39 -5 128 -10 197
-10 69 0 160 5 203 10 43 6 107 15 143 21 36 6 81 16 100 21 19 6 46 15 59 20
l24 9 151 -148 c83 -82 192 -186 241 -232 50 -47 124 -116 165 -155 41 -39
163 -154 270 -256 107 -101 249 -238 315 -305 66 -66 152 -154 190 -195 39
-41 91 -100 115 -130 25 -30 47 -57 51 -60 3 -3 28 -39 55 -80 27 -41 59 -95
71 -120 11 -25 26 -58 32 -73 l11 -28 0 -74 0 -74 -11 -28 c-6 -15 -16 -39
-22 -53 -7 -14 -28 -50 -48 -81 l-37 -55 -62 -57 c-34 -32 -94 -79 -133 -106
-40 -26 -97 -61 -127 -77 -30 -17 -91 -44 -135 -62 -44 -17 -111 -41 -150 -52
-38 -12 -86 -25 -105 -30 -19 -4 -57 -13 -85 -18 -27 -6 -79 -15 -115 -21 -36
-6 -100 -15 -143 -21 l-78 -10 -195 0 -195 0 -97 10 c-53 6 -135 15 -182 21
-47 6 -112 15 -145 20 -33 5 -85 15 -115 20 -30 6 -75 15 -100 21 -25 5 -65
14 -90 19 -25 6 -62 14 -82 20 -21 5 -57 15 -80 22 l-43 12 -66 0 -66 0 -29
-15 c-16 -8 -55 -31 -86 -52 -31 -21 -59 -38 -62 -38 -2 0 -41 -22 -85 -49
-44 -28 -147 -82 -228 -121 -81 -40 -158 -76 -170 -81 -13 -5 -33 -13 -45 -18
-13 -5 -52 -19 -88 -31 -36 -11 -78 -24 -95 -29 -16 -5 -50 -13 -75 -19 -25
-6 -70 -15 -100 -21 -30 -5 -87 -15 -127 -21 -39 -5 -114 -10 -165 -10 -51 0
-131 5 -178 10 -47 6 -110 16 -140 22 -30 5 -66 14 -80 18 -14 4 -45 13 -70
20 -25 7 -80 26 -123 43 -44 16 -116 49 -160 71 -45 23 -119 63 -164 90 -45
27 -126 82 -180 122 -54 41 -141 111 -193 157 -52 46 -108 92 -125 103 -16 12
-51 26 -77 33 l-48 11 -42 -9 c-24 -5 -74 -14 -113 -20 -38 -5 -106 -15 -150
-21 l-80 -10 -249 0 -249 0 -66 10 c-36 6 -97 15 -136 21 -38 6 -86 14 -105
19 -19 5 -57 14 -85 21 -27 6 -77 20 -110 31 -33 11 -70 24 -82 29 -13 5 -33
13 -45 18 -13 5 -54 24 -93 42 -38 18 -110 60 -159 92 l-89 59 -62 63 -63 62
-31 66 -31 65 0 52 0 52 30 62 29 61 69 85 c38 47 132 148 208 226 77 77 186
185 244 240 58 55 161 151 230 214 69 63 132 122 140 130 8 8 40 37 70 65 30
27 123 112 205 189 83 78 204 194 271 259 l120 117 70 -10 c38 -6 121 -16 184
-21 l115 -11 160 7 c88 3 180 10 205 15 25 4 79 14 120 20 41 7 84 16 95 20
11 5 21 9 23 9z m-2169 -2679 c3 0 26 -8 51 -16 25 -9 59 -20 75 -24 17 -5 59
-16 95 -25 36 -9 81 -20 100 -25 19 -5 60 -13 90 -19 30 -6 84 -15 120 -20 36
-6 101 -15 145 -21 l80 -10 244 0 244 0 91 10 c50 6 117 15 149 21 l58 10 23
-18 c13 -10 68 -54 122 -98 55 -45 131 -103 169 -130 39 -28 95 -65 125 -84
30 -18 82 -49 115 -67 33 -19 87 -47 120 -63 33 -16 86 -41 118 -55 32 -14 63
-26 70 -26 7 0 17 -4 23 -8 5 -5 43 -19 84 -31 41 -12 86 -26 100 -30 14 -5
48 -13 75 -19 28 -6 79 -15 115 -21 36 -6 97 -15 137 -21 l72 -10 141 0 141 0
72 10 c40 6 101 15 137 21 36 6 103 19 150 31 47 11 126 33 175 50 50 16 99
33 110 37 11 5 32 13 48 20 15 6 37 15 50 20 12 5 92 43 177 85 85 42 175 88
200 102 25 15 59 35 77 45 18 10 50 30 72 44 l39 26 69 -16 c37 -9 86 -20 108
-25 22 -5 63 -14 90 -19 28 -6 75 -15 105 -20 30 -6 82 -15 115 -20 33 -5 98
-14 145 -20 47 -6 135 -15 195 -21 l110 -10 203 0 203 0 97 10 c53 6 133 15
177 21 44 6 105 15 135 21 30 5 93 19 140 30 47 11 96 23 110 28 14 4 45 14
70 21 25 7 56 19 70 26 14 7 30 13 36 13 5 0 19 -12 31 -27 11 -16 80 -98 153
-183 73 -85 158 -184 189 -219 31 -36 94 -108 140 -160 46 -53 93 -107 105
-121 11 -14 50 -59 86 -100 36 -41 67 -77 70 -80 3 -3 73 -84 156 -180 82 -96
204 -240 270 -320 66 -80 143 -174 170 -210 28 -36 65 -87 84 -115 18 -27 36
-52 40 -55 3 -3 14 -18 25 -35 11 -16 25 -39 31 -50 6 -11 29 -54 52 -95 22
-41 50 -104 63 -140 l23 -65 0 -90 -1 -90 -26 -55 c-14 -30 -34 -67 -44 -81
-10 -15 -36 -46 -58 -70 -22 -24 -62 -62 -90 -85 -27 -22 -77 -59 -110 -81
-33 -22 -107 -63 -165 -91 -58 -27 -145 -63 -195 -80 -49 -16 -110 -35 -135
-42 -25 -7 -56 -16 -70 -20 -14 -4 -52 -13 -85 -20 -33 -6 -78 -15 -100 -20
-22 -5 -71 -13 -110 -19 -38 -6 -115 -15 -170 -20 -55 -6 -185 -13 -290 -16
l-190 -5 -205 10 c-113 6 -248 15 -300 20 -52 5 -133 14 -180 20 -47 6 -114
15 -150 20 -36 5 -90 13 -120 19 -30 5 -82 14 -115 20 -33 6 -80 15 -105 20
-25 5 -70 14 -100 21 -30 7 -73 16 -95 22 -22 5 -70 12 -106 15 l-66 5 -74
-36 c-41 -20 -94 -48 -119 -62 -25 -15 -72 -42 -105 -60 -33 -18 -127 -67
-210 -108 -82 -41 -166 -81 -185 -89 -19 -9 -71 -30 -115 -47 -44 -18 -129
-48 -190 -67 -60 -18 -126 -38 -145 -43 -19 -5 -55 -13 -80 -19 -25 -5 -72
-14 -105 -20 -33 -6 -122 -16 -197 -22 l-137 -11 -123 11 c-68 6 -157 16 -198
22 -41 6 -97 15 -125 20 -27 6 -67 14 -87 19 -21 6 -57 15 -80 22 -24 6 -75
21 -113 34 -39 12 -90 30 -115 39 -25 10 -60 23 -77 31 -18 8 -50 21 -70 30
-21 9 -87 41 -148 71 -60 29 -132 66 -160 81 -27 15 -68 38 -90 51 -22 13 -83
51 -135 84 -52 33 -139 89 -194 124 l-98 65 -52 5 -51 5 -75 -11 c-41 -7 -104
-16 -140 -22 -36 -5 -105 -14 -155 -20 -49 -6 -126 -14 -170 -19 -44 -5 -204
-16 -355 -26 l-275 -17 -205 12 c-113 6 -250 16 -305 22 -55 5 -136 14 -180
20 -44 5 -107 14 -140 20 -33 5 -85 15 -115 20 -30 6 -74 15 -97 20 -24 5 -64
14 -90 20 -27 6 -61 15 -78 20 -16 5 -64 20 -105 33 -41 13 -109 38 -150 54
-41 16 -102 42 -135 58 -33 15 -107 59 -165 97 l-105 69 -73 75 -72 75 -37 76
-38 76 -4 74 -3 75 11 41 c7 23 19 57 28 76 8 19 21 46 27 60 7 14 23 43 36
65 12 22 36 60 53 85 17 25 43 61 57 80 15 19 46 62 71 95 24 33 51 69 61 80
9 11 53 65 99 120 45 55 130 154 187 220 58 66 119 136 136 155 17 19 65 73
106 120 41 47 77 87 80 90 3 3 34 39 70 80 36 41 67 77 70 80 3 3 39 43 80 90
41 47 77 87 80 90 3 3 34 39 70 80 36 41 67 77 70 80 3 3 39 43 80 90 41 47
77 87 80 90 3 3 34 39 70 80 36 41 73 84 84 95 10 11 25 30 33 43 9 12 18 22
22 22z m-1045 -3395 c17 -4 42 -10 56 -14 14 -5 45 -14 70 -21 25 -6 61 -15
80 -20 19 -5 62 -14 95 -20 33 -6 78 -15 100 -20 22 -5 72 -13 110 -19 39 -6
106 -15 150 -20 44 -6 123 -15 175 -20 52 -6 178 -13 280 -17 102 -3 201 -8
220 -9 19 -2 141 1 270 6 129 5 289 13 355 19 66 6 161 15 210 21 50 5 115 14
145 19 30 5 87 14 126 21 l70 12 70 -45 c38 -25 95 -61 127 -82 32 -20 73 -45
90 -55 18 -10 52 -30 77 -44 25 -15 122 -65 215 -111 94 -46 186 -91 205 -99
19 -9 71 -30 115 -47 44 -18 121 -46 170 -62 50 -17 104 -34 120 -38 17 -5 66
-18 110 -30 44 -11 103 -25 130 -31 28 -6 77 -15 110 -20 33 -6 116 -16 185
-24 69 -8 174 -15 234 -15 60 0 150 5 200 10 50 6 120 15 156 20 36 6 90 15
120 21 30 6 73 15 95 21 22 5 56 14 75 18 19 5 94 27 165 50 72 22 140 45 153
50 12 6 32 14 45 19 12 5 40 17 62 26 22 10 69 31 105 47 36 17 119 57 185 89
66 33 154 78 195 100 41 22 93 52 115 66 l39 26 40 -1 c22 -1 53 -6 70 -11 17
-5 54 -14 81 -19 28 -6 77 -15 110 -21 33 -5 87 -15 120 -20 33 -6 89 -15 125
-20 36 -6 101 -15 145 -20 44 -5 125 -15 180 -20 55 -6 150 -16 211 -22 l111
-10 342 -1 342 0 92 11 c50 7 130 16 177 22 47 6 112 15 145 20 33 6 83 15
110 21 28 5 66 14 85 18 19 5 62 16 95 25 33 9 74 20 90 25 17 5 40 12 51 15
l22 7 103 -129 c57 -70 105 -130 109 -133 3 -3 25 -30 50 -60 25 -30 47 -57
50 -60 3 -3 30 -34 60 -70 30 -36 57 -67 60 -70 3 -3 30 -34 60 -70 30 -36 57
-67 60 -70 3 -3 62 -70 130 -150 68 -80 127 -147 130 -150 3 -3 34 -39 70 -80
36 -41 67 -77 70 -80 3 -3 30 -34 60 -70 30 -36 57 -67 60 -70 3 -3 30 -34 60
-70 30 -36 57 -67 61 -70 3 -3 50 -61 105 -130 55 -69 115 -147 134 -175 19
-27 42 -58 50 -68 9 -9 23 -30 31 -45 7 -15 26 -46 41 -69 15 -23 28 -44 28
-47 0 -4 9 -25 19 -49 10 -23 25 -64 32 -91 l12 -48 -12 -52 c-7 -28 -22 -71
-34 -96 l-22 -44 -60 -62 -60 -61 -75 -50 c-41 -27 -109 -65 -150 -85 -41 -20
-91 -43 -110 -51 -19 -8 -51 -20 -70 -27 -19 -7 -44 -16 -55 -20 -11 -5 -49
-17 -85 -28 -36 -11 -105 -29 -155 -41 -49 -12 -108 -26 -130 -31 -22 -5 -65
-14 -95 -19 -30 -6 -82 -15 -115 -20 -33 -5 -98 -14 -145 -20 -47 -6 -125 -15
-175 -20 -49 -6 -164 -13 -255 -16 -91 -3 -212 -8 -270 -10 l-105 -5 -330 16
c-181 8 -373 19 -425 24 -52 5 -135 14 -185 19 -49 6 -128 15 -175 21 -47 5
-112 14 -145 19 -33 5 -89 14 -125 20 -36 6 -92 15 -125 21 -33 6 -97 14 -141
17 l-82 5 -58 -30 c-33 -16 -95 -48 -139 -72 -44 -24 -143 -75 -220 -114 -78
-39 -168 -83 -200 -98 -33 -15 -86 -38 -117 -52 -32 -14 -82 -36 -110 -49 -29
-13 -69 -29 -88 -36 -19 -7 -44 -17 -55 -22 -11 -4 -74 -26 -140 -47 -66 -22
-178 -53 -250 -70 -71 -17 -155 -36 -185 -41 -30 -6 -91 -15 -135 -21 -44 -5
-126 -14 -183 -20 -56 -5 -139 -10 -183 -10 -44 0 -135 4 -202 10 -67 5 -158
14 -202 20 -44 6 -105 15 -135 21 -30 6 -73 15 -95 19 -22 5 -80 19 -130 30
-49 12 -101 25 -115 30 -14 4 -45 13 -70 20 -25 7 -77 23 -115 36 -39 12 -129
46 -200 74 -72 29 -152 62 -180 74 -27 13 -70 31 -95 42 -24 10 -107 51 -185
90 -77 39 -165 85 -195 101 -30 17 -71 39 -90 50 -19 11 -53 30 -75 43 -22 13
-56 32 -75 43 -19 11 -54 32 -77 48 -23 16 -44 29 -48 29 -4 0 -25 13 -48 28
-23 15 -55 34 -71 42 l-29 15 -81 0 c-45 -1 -121 -6 -171 -13 -49 -6 -148 -16
-220 -21 -71 -6 -197 -15 -280 -21 l-150 -10 -356 0 -356 0 -134 10 c-74 5
-186 15 -249 20 -63 6 -149 15 -190 21 -41 5 -106 14 -145 20 -38 6 -90 14
-115 19 -25 4 -72 13 -105 20 -33 6 -79 16 -102 21 -24 5 -64 14 -90 20 -27 6
-59 14 -73 19 -14 4 -45 13 -70 20 -25 7 -85 26 -135 42 -49 16 -98 33 -107
38 -10 6 -22 10 -28 10 -5 0 -35 12 -67 26 -32 14 -83 38 -113 52 -30 14 -83
43 -117 63 -35 21 -93 63 -130 93 l-68 56 -39 54 c-21 30 -45 71 -52 92 l-14
39 0 55 0 55 13 35 c7 19 19 49 28 65 9 17 26 48 39 70 12 22 36 60 53 85 17
25 54 74 81 110 28 36 53 67 56 70 3 3 25 30 50 60 25 30 126 150 224 265 99
116 183 212 186 215 3 3 30 34 60 70 30 36 57 67 60 70 3 3 34 39 70 80 36 41
67 77 70 80 3 3 30 34 60 70 30 36 57 67 60 70 3 3 30 34 60 70 30 35 65 76
76 90 12 14 57 68 100 120 44 53 110 135 148 183 l70 88 30 -6z m3389 -3872
c6 -5 32 -15 57 -23 25 -7 70 -21 100 -30 30 -10 111 -32 180 -48 69 -17 153
-35 188 -41 34 -6 88 -15 120 -20 31 -6 98 -15 147 -21 50 -6 169 -14 265 -19
l175 -9 190 14 c105 7 219 18 255 23 36 6 92 15 125 21 33 5 83 14 110 20 28
5 86 19 130 31 44 11 92 23 106 26 l26 5 6 -179 c4 -98 10 -405 14 -683 l6
-505 -20 -40 c-12 -22 -32 -50 -45 -62 -12 -12 -36 -27 -52 -33 l-28 -10 -963
0 c-530 0 -978 3 -997 6 l-33 7 -33 24 -32 24 -22 42 -21 42 7 425 c3 234 9
553 12 710 3 157 7 291 10 299 l4 13 13 -9z"/>
<path d="M11330 14043 l-85 5 -65 -8 c-36 -5 -81 -13 -100 -19 -19 -5 -46 -13
-60 -16 -14 -4 -41 -14 -60 -22 -19 -8 -46 -21 -60 -28 -14 -7 -45 -23 -69
-36 l-45 -24 -84 -80 -84 -80 -37 -55 c-21 -30 -52 -86 -71 -125 -18 -38 -36
-79 -40 -90 -5 -11 -11 -31 -15 -45 -3 -14 -13 -59 -20 -100 -8 -41 -15 -102
-15 -135 0 -33 7 -96 16 -140 8 -44 18 -92 21 -108 3 -15 9 -30 14 -33 5 -3 9
-12 9 -20 0 -8 10 -36 22 -62 12 -26 40 -74 62 -107 22 -33 69 -90 105 -126
36 -36 87 -79 112 -96 25 -17 72 -45 105 -61 32 -17 80 -37 106 -46 26 -9 80
-23 120 -31 l73 -15 82 0 c45 0 105 5 135 11 29 6 71 15 93 21 22 6 49 14 60
18 11 4 54 24 95 43 l76 36 73 58 73 58 59 74 59 74 36 76 c20 42 40 85 45 96
5 11 18 56 29 100 l20 80 0 108 0 108 -21 87 -21 87 -44 92 -44 92 -47 58
c-26 32 -67 77 -92 101 -25 24 -71 60 -101 81 -30 21 -73 47 -95 58 -22 12
-62 28 -90 38 -27 9 -72 23 -100 30 -27 7 -88 15 -135 18z m-61 -444 l65 1 35
-11 c20 -7 56 -21 79 -32 24 -12 64 -39 88 -60 25 -22 58 -58 73 -81 l29 -42
21 -64 21 -63 0 -57 0 -57 -21 -63 c-11 -35 -34 -82 -49 -105 -16 -23 -46 -58
-69 -78 l-40 -36 -53 -24 c-29 -13 -79 -30 -111 -37 l-58 -13 -67 13 c-37 7
-78 18 -92 24 -14 5 -45 24 -70 40 -25 16 -60 46 -78 65 l-33 36 -32 65 -31
65 -1 112 0 112 13 13 c6 6 12 18 12 26 0 7 18 39 39 71 22 31 54 69 73 83 18
14 56 37 83 50 28 14 64 30 80 36 17 5 59 10 94 11z"/>
<path d="M5797 11419 l-142 -1 -35 -10 c-19 -5 -53 -14 -75 -20 -22 -6 -49
-14 -60 -18 -11 -4 -38 -16 -60 -25 -22 -9 -51 -23 -65 -29 -14 -7 -36 -19
-49 -27 -14 -8 -30 -17 -35 -21 -6 -4 -45 -34 -86 -66 l-75 -58 -40 -50 c-21
-27 -42 -51 -45 -54 -4 -3 -20 -25 -37 -50 -16 -25 -46 -79 -66 -120 -20 -41
-42 -95 -50 -120 -8 -25 -21 -67 -28 -95 l-14 -50 0 -160 0 -160 13 -45 c7
-25 18 -61 23 -80 6 -19 14 -44 19 -55 4 -11 25 -55 45 -98 20 -43 58 -106 83
-139 26 -34 73 -88 107 -120 33 -32 96 -82 140 -111 44 -29 92 -58 108 -65 15
-7 38 -16 52 -22 14 -5 35 -14 48 -19 12 -5 40 -13 62 -19 22 -6 61 -16 87
-21 l47 -11 137 0 137 0 41 11 c22 6 73 20 111 32 39 12 99 36 135 53 36 18
93 52 126 76 34 23 79 59 100 79 22 19 55 53 74 76 19 22 42 48 50 59 8 11 31
46 51 79 20 33 47 83 59 110 13 28 27 64 32 80 5 17 14 46 19 65 6 19 17 73
24 120 8 47 14 108 14 135 1 28 -6 88 -14 135 -8 47 -19 101 -24 120 -5 19
-16 56 -25 82 -9 26 -35 82 -57 125 -23 43 -59 101 -80 129 -21 28 -69 80
-106 115 -38 36 -94 82 -127 103 -32 21 -84 50 -115 64 -31 15 -87 37 -126 49
-38 11 -91 26 -118 32 l-47 11 -143 -1z m8 -440 l60 0 58 -14 c32 -7 88 -28
124 -45 l65 -32 63 -63 62 -63 30 -64 c17 -35 36 -81 44 -103 l13 -40 0 -100
0 -100 -13 -40 c-7 -22 -26 -69 -44 -105 -17 -36 -33 -67 -36 -70 -4 -3 -19
-22 -35 -44 l-29 -38 -71 -47 -71 -46 -45 -14 c-25 -7 -55 -17 -68 -22 l-23
-9 -74 0 -74 0 -55 14 c-30 8 -72 23 -93 32 -21 10 -58 31 -83 47 -25 17 -66
52 -91 78 l-46 48 -31 63 c-18 35 -39 89 -47 121 l-15 58 0 64 0 64 14 53 c8
29 17 62 21 73 4 11 16 40 28 65 l22 45 71 72 72 73 66 31 c37 17 90 37 119
44 29 7 79 13 112 14z"/>
<path d="M11965 11145 c-77 2 -153 1 -170 -1 -16 -2 -70 -14 -120 -25 l-90
-21 -85 -37 c-47 -20 -119 -59 -160 -86 -41 -28 -109 -82 -151 -122 -42 -40
-96 -100 -120 -133 -24 -33 -63 -97 -87 -142 l-43 -83 -29 -90 c-15 -49 -33
-113 -40 -142 l-11 -52 0 -147 0 -147 12 -51 c6 -28 20 -80 31 -116 10 -36 26
-81 34 -100 9 -19 27 -57 41 -85 14 -27 43 -75 63 -105 21 -30 59 -79 86 -109
27 -30 86 -84 131 -120 l82 -67 73 -36 c40 -20 89 -43 108 -51 19 -8 49 -19
65 -25 17 -6 53 -15 80 -21 28 -6 74 -15 103 -21 l53 -10 102 0 102 0 75 15
c41 7 91 18 110 23 19 5 44 13 55 17 11 4 36 14 55 22 19 8 55 25 80 37 25 13
63 33 84 45 22 13 72 49 112 81 39 33 93 83 119 112 26 29 69 85 95 123 25 39
60 99 78 135 17 36 40 92 50 125 11 33 25 83 31 110 5 28 15 90 22 138 l11 89
-11 96 c-7 54 -17 117 -23 142 -6 25 -19 72 -30 105 -11 33 -42 104 -69 158
l-48 97 -44 58 c-25 31 -73 85 -108 120 -35 34 -90 82 -123 106 -32 24 -95 62
-140 84 -44 22 -108 49 -141 59 -33 11 -82 26 -110 32 l-50 13 -140 3z m-40
-446 l110 1 45 -14 c25 -8 65 -22 90 -32 25 -9 70 -34 100 -55 30 -20 72 -54
94 -75 21 -21 55 -63 75 -94 20 -30 43 -68 50 -85 8 -16 17 -39 21 -50 5 -11
14 -42 21 -70 l13 -50 -1 -100 -1 -100 -16 -58 c-8 -32 -28 -84 -43 -115 -14
-31 -40 -75 -57 -97 -17 -22 -48 -58 -71 -81 -22 -22 -60 -54 -85 -70 -25 -17
-61 -38 -80 -46 -19 -9 -57 -25 -85 -34 l-50 -18 -125 -1 -125 0 -45 14 c-25
7 -65 22 -90 33 -24 11 -71 38 -105 61 -33 23 -70 51 -81 62 -12 12 -37 42
-57 68 -19 25 -46 70 -60 99 -14 29 -28 62 -32 73 -4 11 -13 45 -21 75 l-13
55 0 75 0 75 13 55 c8 30 17 64 21 75 4 11 18 44 32 73 14 29 41 74 61 100 20
26 53 64 75 85 22 21 63 53 91 71 28 17 76 41 106 53 30 11 69 25 85 31 l30
10 110 1z"/>
<path d="M5191 8299 c-3 -1 -42 -7 -86 -14 -44 -7 -93 -15 -110 -19 -16 -4
-43 -12 -60 -18 -16 -5 -59 -24 -95 -41 -36 -17 -90 -47 -120 -68 -30 -20 -87
-70 -126 -110 -38 -41 -79 -87 -91 -104 -11 -16 -34 -56 -51 -87 -17 -32 -38
-79 -47 -105 -10 -26 -24 -73 -33 -103 l-15 -55 0 -140 1 -140 15 -55 c8 -30
18 -64 22 -75 4 -11 10 -29 15 -40 4 -11 18 -42 31 -70 13 -27 40 -75 61 -107
21 -31 63 -82 94 -113 31 -31 88 -77 128 -104 39 -26 87 -55 106 -63 19 -9 49
-22 65 -29 17 -6 46 -16 65 -21 19 -5 69 -16 110 -23 41 -8 98 -15 127 -15 29
0 76 5 105 10 29 6 78 16 108 22 30 6 59 15 65 20 5 4 15 8 23 8 8 0 51 18 96
40 l83 40 66 55 c37 31 92 86 123 123 l56 67 48 100 48 100 21 87 21 87 0 100
0 101 -12 47 c-6 27 -20 75 -31 108 -11 33 -29 80 -40 105 -11 25 -43 79 -70
120 -27 41 -73 98 -102 126 -29 28 -80 70 -113 93 -33 22 -89 54 -124 70 -35
16 -76 33 -93 39 -16 5 -48 15 -70 21 -22 5 -78 15 -124 21 -46 5 -87 9 -90 9z
m11 -460 l87 1 28 -11 c15 -6 48 -21 73 -33 l45 -21 51 -50 51 -50 20 -40 c11
-22 27 -53 34 -69 l14 -29 0 -101 -1 -101 -33 -69 -34 -70 -46 -45 -46 -46
-45 -21 c-25 -12 -61 -28 -80 -35 l-35 -14 -80 0 -80 0 -35 14 c-19 7 -55 23
-80 35 -24 11 -63 39 -86 61 l-42 40 -27 52 c-14 29 -33 78 -40 110 -8 32 -14
75 -15 95 0 20 6 61 14 91 8 30 24 74 36 97 l22 43 52 51 51 51 45 21 c25 12
56 26 70 32 l25 11 87 0z"/>
<path d="M12395 8003 c-55 2 -122 3 -150 1 -27 -3 -79 -12 -115 -20 -36 -9
-85 -23 -110 -30 -25 -8 -74 -29 -110 -46 -36 -17 -92 -49 -125 -71 l-60 -40
-91 -90 c-51 -50 -100 -104 -110 -121 -11 -16 -31 -50 -46 -75 -16 -25 -39
-70 -53 -99 -14 -29 -25 -59 -25 -67 0 -7 -4 -16 -9 -19 -5 -3 -11 -18 -14
-33 -3 -16 -12 -59 -21 -98 l-16 -70 0 -135 0 -135 14 -65 c8 -36 21 -87 31
-115 9 -27 23 -66 32 -85 8 -19 21 -46 27 -60 7 -14 23 -42 35 -64 12 -21 36
-57 54 -80 17 -22 64 -73 104 -113 39 -39 98 -89 130 -110 32 -22 90 -54 128
-73 39 -18 79 -36 90 -40 11 -5 34 -13 50 -18 17 -6 50 -15 75 -20 25 -6 85
-16 133 -22 l89 -12 96 11 c54 7 115 17 137 22 22 6 69 20 105 31 36 11 99 38
140 59 41 21 104 61 140 88 36 27 92 78 126 113 33 34 83 97 110 138 28 41 58
92 67 113 9 20 23 52 31 70 8 17 17 41 21 52 4 11 11 36 16 55 5 19 16 73 24
120 8 47 15 112 15 145 0 33 -7 98 -15 145 -8 47 -19 101 -24 120 -5 19 -12
44 -16 55 -4 11 -10 29 -15 40 -4 11 -18 42 -31 70 -13 27 -38 74 -55 103 -18
29 -49 74 -70 100 -21 26 -56 65 -79 87 -22 22 -63 59 -91 82 l-51 42 -94 49
c-52 26 -119 56 -149 66 -30 10 -82 24 -115 31 -34 7 -106 15 -160 18z m-54
-444 l86 1 29 -9 c16 -5 49 -15 74 -22 25 -7 61 -22 80 -32 19 -10 59 -37 88
-60 l54 -41 43 -60 c23 -34 52 -81 63 -106 11 -25 26 -60 33 -79 l13 -35 0
-115 -1 -116 -26 -74 -26 -74 -37 -56 c-20 -31 -53 -72 -73 -91 -20 -19 -60
-50 -89 -69 -28 -18 -84 -44 -124 -58 l-73 -25 -105 -1 -105 0 -54 16 c-29 9
-78 29 -108 43 l-55 27 -55 50 c-30 28 -71 76 -92 106 -21 31 -46 76 -55 101
-10 25 -24 70 -32 100 l-13 55 -1 66 c0 36 4 79 9 95 5 16 15 49 22 74 7 25
22 62 34 82 11 21 37 61 59 90 l38 53 52 40 c28 23 71 50 96 62 25 12 54 25
65 29 11 4 38 13 60 19 l40 12 86 2z"/>
</g>
</svg>
